<?xml version="1.0" encoding="UTF-8" standalone="no"?><!DOCTYPE svg PUBLIC "-//W3C//DTD SVG 1.1//EN" "http://www.w3.org/Graphics/SVG/1.1/DTD/svg11.dtd"><svg width="100%" height="100%" viewBox="0 0 25 28" version="1.1" xmlns="http://www.w3.org/2000/svg" xmlns:xlink="http://www.w3.org/1999/xlink" xml:space="preserve" xmlns:serif="http://www.serif.com/" style="fill-rule:evenodd;clip-rule:evenodd;stroke-linejoin:round;stroke-miterlimit:2;"><path d="M12.412,27.32c-1.69,-0 -3.263,-0.403 -4.719,-1.21c-1.4,-0.775 -2.456,-1.872 -3.166,-3.29l-3.027,-0c-0.406,-0 -0.754,-0.151 -1.041,-0.455c-0.282,-0.298 -0.422,-0.647 -0.422,-1.045c0,-0.433 0.146,-0.789 0.429,-1.072c0.283,-0.282 0.639,-0.428 1.071,-0.428c0,-0 1.851,-0 1.851,-0c-0.109,-0.528 -0.163,-1.059 -0.163,-1.594l0,-1.631l-1.763,-0c-0.406,-0 -0.753,-0.151 -1.041,-0.455c-0.282,-0.298 -0.421,-0.647 -0.421,-1.045c-0,-0.433 0.146,-0.789 0.429,-1.072c0.282,-0.282 0.638,-0.428 1.071,-0.428c-0,-0 1.726,-0 1.726,-0c0.001,-0.6 0.007,-1.196 0.018,-1.788c0.01,-0.583 0.08,-1.162 0.211,-1.737l-1.955,-0c-0.406,-0 -0.754,-0.151 -1.041,-0.455c-0.282,-0.298 -0.422,-0.647 -0.422,-1.045c0,-0.433 0.146,-0.789 0.429,-1.072c0.283,-0.282 0.639,-0.428 1.071,-0.428c0,-0 3.148,-0 3.148,0c0.356,-0.656 0.81,-1.236 1.362,-1.74c0.473,-0.431 0.986,-0.806 1.54,-1.124l-1.812,-1.781l-0.003,-0.002c-0.277,-0.278 -0.408,-0.615 -0.39,-1.013c0.016,-0.386 0.16,-0.712 0.428,-0.98c0.271,-0.271 0.608,-0.41 1.015,-0.41c0.407,-0 0.744,0.139 1.015,0.41c0,-0 2.61,2.61 2.61,2.61c0.668,-0.214 1.341,-0.32 2.019,-0.32c0.678,-0 1.351,0.106 2.018,0.32l2.648,-2.648c0.277,-0.277 0.614,-0.408 1.013,-0.39c0.385,0.016 0.711,0.16 0.98,0.428c0.271,0.271 0.409,0.608 0.409,1.015c0,0.407 -0.138,0.744 -0.409,1.015c-0,0 -1.745,1.745 -1.745,1.745c0.554,0.324 1.054,0.709 1.501,1.156c0.51,0.51 0.961,1.08 1.352,1.709l3.126,-0c0.407,-0 0.754,0.15 1.042,0.455c0.282,0.298 0.421,0.647 0.421,1.045c-0,0.432 -0.146,0.788 -0.429,1.071c-0.282,0.283 -0.638,0.429 -1.071,0.429c-0,-0 -1.942,-0 -1.942,0c0.143,0.579 0.208,1.163 0.198,1.75c-0.01,0.588 -0.016,1.179 -0.018,1.775l1.799,-0c0.407,-0 0.754,0.15 1.042,0.455c0.282,0.298 0.421,0.647 0.421,1.045c-0,0.432 -0.146,0.788 -0.429,1.071c-0.282,0.283 -0.638,0.429 -1.071,0.429c-0,-0 -1.762,-0 -1.762,-0c0.002,0.545 0.008,1.087 0.018,1.624c0.01,0.538 -0.038,1.071 -0.145,1.601l1.926,-0c0.407,-0 0.754,0.15 1.042,0.455c0.282,0.298 0.421,0.647 0.421,1.045c-0,0.432 -0.146,0.788 -0.429,1.071c-0.282,0.283 -0.638,0.429 -1.071,0.429c-0,-0 -2.984,-0 -2.984,-0c-0.689,1.443 -1.741,2.547 -3.157,3.311c-1.467,0.792 -3.057,1.189 -4.772,1.189Zm0,-3c1.698,-0 3.147,-0.595 4.349,-1.785c1.201,-1.19 1.801,-2.632 1.801,-4.328l0,-6.262c0,-1.696 -0.6,-3.138 -1.801,-4.327c-1.202,-1.191 -2.651,-1.786 -4.349,-1.786c-1.697,0 -3.146,0.595 -4.348,1.786c-1.201,1.189 -1.802,2.631 -1.802,4.327l0,6.262c0,1.696 0.601,3.138 1.802,4.328c1.202,1.19 2.651,1.785 4.348,1.785Zm-1.874,-10.988c-0.433,0 -0.789,-0.145 -1.072,-0.428c-0.283,-0.283 -0.429,-0.639 -0.429,-1.072c0,-0.432 0.146,-0.788 0.429,-1.071c0.286,-0.286 0.631,-0.429 1.034,-0.429l3.787,0c0.433,0 0.789,0.146 1.072,0.429c0.283,0.283 0.428,0.639 0.428,1.071c0,0.433 -0.145,0.789 -0.428,1.072c-0.286,0.286 -0.631,0.428 -1.034,0.428l-3.787,0Zm-0,6.488c-0.433,-0 -0.789,-0.146 -1.072,-0.429c-0.283,-0.283 -0.429,-0.639 -0.429,-1.071c0,-0.433 0.146,-0.789 0.429,-1.072c0.286,-0.285 0.631,-0.428 1.034,-0.428l3.787,-0c0.433,-0 0.789,0.146 1.072,0.428c0.283,0.283 0.428,0.639 0.428,1.072c0,0.432 -0.145,0.788 -0.428,1.071c-0.286,0.286 -0.631,0.429 -1.034,0.429l-3.787,-0Z" style="fill:#fff;"/></svg>