<svg xmlns="http://www.w3.org/2000/svg" xml:space="preserve" fill-rule="evenodd" stroke-linejoin="round" stroke-miterlimit="2" clip-rule="evenodd" viewBox="0 0 4167 3125">
  <g id="boundary">
    <path id="boundary" d="m2033 3562-16-557 735-8 75-1475 13-281-147 13-29 15-13-65 42-202 127-277-15-676h-990l-61 216v193l-29 120-39 58-26 14-64 97-104-90-53-72-140 328 111 104 86 14-25 253 8 166h-372l-47 100-112 2-113 1 1-118h-50v-124h-95l-15 1222h557c14 14-165 190-165 190l-29 64-25 226 444-8 21 336 49 19 14 227 491-25Z"/>
  </g>
  <g id="parking">
    <path d="m917 3545 12-181-31-125-58-96-59-97-458 6-13 343 19 32 187 43 401 75Z"/>
    <path d="m1271 3597 6-260 1-18 196 8-20-291-412 5-9 11-19 206-23 205-5 63 5 21 18 21 121 25 50 5 91-1Z"/>
    <path d="m1366 2216-2-284-5-19v-147l-276-3-32 1v34l-18 27-3 121 1 12 15 95 41 31 10 8 16 115 253 9Z"/>
    <path d="m2794 1735-1-251h-30v-23h-64v62h-50l1 16h-60v196h204Z"/>
    <path d="m2279 756 1-220-66 3 1-34-61-1 2 215-112 2v61h95l51-25 89-1Z"/>
    <path d="m1516 2680-29-172-2-52-11-25-30-5-81 59-2 6v6l16 79-31 6 17 111 153-13Z"/>
    <path d="m2661 855 1-80-27-29-177 6v11l-29 16-68 36 1 41 299-1Z"/>
    <path d="m2066 1135-1-275-56 1h-56l1 219h57v56l55-1Z"/>
    <path d="m2578 663-3-88-114 4 3 87 114-3Zm95-52-3-289h-19l-3-2-1-4-2-68-53 1 1 39h29l1 34 3 4 2 10v8l1 9v11l2 153h-22l1 95 63-1Z"/>
    <path d="M1827 1003v-50h-28l1 50h27Z"/>
    <path d="m899 1961-1-156-123 1 3 151 121 4Z"/>
    <path d="M2277 258V123h-128v136l128-1Z"/>
    <path d="m1986 212-3-115-141 2 2 77-20-3-4 40 18-1h148Z"/>
    <path d="m1886 3193-1-40-373 14 1 40 373-14Z"/>
    <path d="m880 2500-4-68-31 3-1-27-128 4-11 23-1 31 14 31 22 4 140-1Z"/>
    <path d="m1528 656 71-25 26-1 9-16-139-116-35 50 14 11 32 63 22 34Z"/>
    <path d="m1362 913 46-85 41-28 2-52 6-27-19-5-33-9-81 186 26 14 12 6Z"/>
    <path d="m2651 178-1-83-119 2 1 83 119-2Z"/>
    <path d="m996 1761-1-75-6-75-33-11-24 25 1 137 63-1Z"/>
    <path d="M848 2361v-64H723v64h125Z"/>
    <path d="m2785 1344 1-58-68 1v20h-26l1 38 92-1Z"/>
    <path d="M1856 1003v-89l-57 2v37h28v50h29Z"/>
    <path d="M1747 995v-29l-67 2v28l67-1Z"/>
    <path d="M1177 2797v-18h-100v18h100Z"/>
    <path d="m1661 3049 8-14-134 1-14 17 140-4Z"/>
    <path d="M2703 1859v-27l-131 1v-18h-21l1 27h11l1 18 139-1Z"/>
  </g>
  <g id="grass">
    <path d="m2197 2997 49-47 88-22 15-316c-62 10-131 11-202 7l-65-37-46 16-38 14v39l-7 8-41 1-3 43 15 10 20 20 8 17 2 22-6 29-11 20-23 12-17 8-16 3-158-34-8 3-5 5v13l24 36 61 42 159 71 6 17h199Z"/>
    <path d="m2426 2484 10-179-5-2-4-15-1-11 1-14 9-9 6-4 7-1 10 1 14-244-18-1-2-28-151 1-2 117-95-6 2 29 7 11-31 12-16-9-46 18-43 26-23 25-24 42-8 36 19 10 10 38-15 16-19-3-4 59 3 54h8l7 7 1 9-6 14 75-1 12-9 18-2-2-14 58-5-4-53 19 6-4-87-9 2-4-74 18-1 5-14 10-7 16-3 13 9 8 14v6l10 4v58h10l2 43 4 46 40-6 5 18-38 41 41 15 69-2 27 17Z"/>
    <path d="M2692 3184c0-21 1-54 20-70 18-15 43 1 64-2 12-2 25-10 37-15l33-12c15-7 18-27 22-40 2-10 8-28 6-41 0-3-3-5-6-5-131-7-333 9-464 5-114-3-332-5-332-5l-119 13s2 79 6 85c29 53 67 46 113 42 26-2 89-3 115 0 59 6 121 33 176 46 31 8 64 10 96 10 84 0 149-5 233-11Z"/>
    <path d="m1333 1765 7-12h29l4-9 53-1 9-292-328-1-3 312 229 3Z"/>
    <path d="m1872 2692 74 18 1-7 3-43-22-2-12-10-2-139-12-16 1-41 17 2 4 9 18-1 1-8-1-49-1-49 37-1-3-61-61 4-9-147-42-25-223 12 4 62 91 52v35l13 181 34 79 31 63 8 30 20 43 31 9Z"/>
    <path d="m917 3545 12-181-31-125-58-96-87-2-3 133-29 6h-89l-17 4 5 71-21 47-21 33-33 24-29 11 401 75Z"/>
    <path d="m1880 2113 10-11 6-11 12-29-11-225-2-26-7-25-9-19-17-21-40-28-23-9-26-3h-26l-25 5-18 8-19 11-14 13-13 15 18 338 1 8 3 5 4 4 5 4 6 2 9 1 157-6 19-1Z"/>
    <path d="m2541 1094 46-13 44-29 21-26 14-46 24-92-205 2-10 10 9 193 57 1Z"/>
    <path d="m2790 540-7-293-116 3 7 292 116-2Z"/>
    <path d="m1882 3145-3-67-63 1 1 10-104 3-152-10-76-7 6 85 391-15Z"/>
    <path d="M2444 1913v-36l-33-12-53-25-34-23-31-12h-106v72l5 42v21h64v-22l29 1v-8l159 2Z"/>
    <path d="M950 3271h41l25-260-188 4-16 9-2 13 99 170 41 64Z"/>
    <path d="m1796 773 25-29-51-42-24 29 50 42Z"/>
  </g>
  <g id="building">
    <path id="CBIS" d="m2374 1770 2-9 6-1 1-4 3-4 5-2 4-1 2-7 3-7 2-5-2-10v-8l4-7 4-5-3-6-4-6v-26l44 2 4-270v-11l15 1v-37l-249 3v35h22v15h-39l-1 37 13-1-1 31 130-2v259l-6 1 2 42h6l-1-7 34 10Z"/>
    <path id="EMPAC" d="m2556 2929 2-29 12-244-86-5-1 13-119-5-15 257 28 1 4 16 59 3 8-20 23 2-1 6 86 5Z"/>
    <path id="CII" fill-rule="nonzero" d="m1953 1648-50 2 2 168 21-2 18-38h12l-3-130Z"/>
    <path id="DCC" fill-rule="nonzero" d="m1956 1778 17 1h9l1-2 4-5 71-5 1 10 3 5 6 7h7l6-2 5-6 1-7v-8l185-10-5-116-43 5-1-11-270 14 3 130Z"/>
    <path id="Armory" d="m2327 1176 2-27-1-104-2-117h-178l-1 66 2 177h62v14h61l-1-8 56-1Z"/>
    <path id="Union" d="M1806 1203v-10l1-7h31v-47h6l5-2 6-4 4-4 2-4 2-5v-33l-1-6-4-6-5-5-6-3-7-2-27 1v-20l1-43-180 5-1 130-1 55 25 1v9h149Z"/>
    <path id="JEC" d="m2158 2095-7-112-28 1-5-77-40 3v6l-12 1-2-25-30 2v7l-47 2-4-67h-2l-33 2 17 284 24-1 10-1-2-32 14-1v6l65-4-1-23h7l2 27 37-2 1 6 36-2Z"/>
    <path id="Robinson-Pool" d="m2477 1244-2-153h-16l-2-180-58 1 2 133h-73l1 104h13v16h21v16h14l1 64 99-1Z"/>
    <path id="Low" d="m2223 1634-2-21 18-2-6-77 6-2v-11l-263 9-1-14-8 1-8 1 2 50-10 32 2 48 270-14Z"/>
    <path id="Cogswell" d="m2652 2239 7-137-53-4 3-91-88-6-14 231 101 5 44 2Z"/>
    <path id="Folsom" d="M2326 2602v-12l16-1-6-105-17 1-1-13-180 10v14l-18 1 6 101 20-1 1 15 179-10Z"/>
    <path id="Sage" d="m1720 2518-5-120-4-112-95 7-2-34-50 3 3 68 50-2-1-11h14l4 63-12 1 3 50h11l5 93 79-6Z"/>
    <path id="Commons-Dining-Hall" d="M2211 488v-30h5l51 1 1-102-54-1h-7v-30h-32v-14l-26-20-22 24 1 40-1 6-18 1-1 7h-6v75l5 12h6v4l3 5 4 3h6l-1 13 86 6Z"/>
    <path id="Empire-State" d="m2588 2458 9-173h10l1-48-101-5h-10l-1 48h9l-3 56-7 118 93 4Z"/>
    <path id="JROWL" d="m2298 2090 4-112 151-1 1-64h-10l-159-2v8h-14l-15-1v22l-1 36-15-1v20l-19-1-1 22h17l-1 72 62 2Z"/>
    <path id="West" d="M1502 2912v-40h44v-77h-32v-72h-64v71l-31 1 1 79h44v38h38Z"/>
    <path id="_-87-Gym" d="m1593 1794-4-67-1-16 51-3-6-81-10 1-109 7 10 163 69-4Z"/>
    <path id="Academy" d="M2689 1496v-74l19-1v24h53l1-70-28 2v9l-136-1v-11h-32v72l55-1 2 52 66-1Z"/>
    <path id="Sage-Dining-Hall" d="M1879 1543v-20l44-1 1-5-3-69-12 1v-13h-27v-13h-46v24h-39l-3 7-23-11-6 14-6 33 1 12 3 15 3 12 6 14 24-13 42-1v14h41Z"/>
    <path id="VCC" d="m2249 2422-2-21 25-2-5-85 9-1-3-71-17 2-8-14-13-9-16 3-10 7-5 14-18 1 4 74 9-2 4 87 24-1 1 19 21-1Z"/>
    <path id="MRC" d="m2583 2567 5-109-93-4-2 48-2 62 92 3Z"/>
    <path id="Walker" d="m1797 2677 8-47-32-6 7-36-50-9 3-21-31-6-4 24-31-5-1 9-6 31 32 6-4 26 27 5-2 15 84 14Z"/>
    <path id="Ricketts" d="m1603 2018-6-87-6-87-56 4 12 174 56-4Z"/>
    <path id="Mueller" d="m2149 1171-2-177h-13v-8h-36l1 17h-6l1 113h-12l1 17h23v9h-3v29h46Z"/>
    <path id="Greene" d="m1975 2294-7-147-63 4 9 147 30-1 31-3Z"/>
    <path id="Amos-Eaton" d="M1993 2650v-38l-4-105-65 1 7 142h62Z"/>
    <path id="Pittsburgh" d="m1704 2881-1-31 7 1-1-42-7 1 1-32-65 2v18l-13 1-3 28 5 35h14l1 20 62-1Z"/>
    <path id="Troy" d="m1601 2194-3-62-4-63-55 3 2 31-15 1 3 60 17-1 2 33 53-2Z"/>
    <path id="Carnegie" d="m1951 2786 9-61-104-17-10 60 23 3-1 5 28 5 28 4 1-3 26 4Z"/>
    <path id="Winslow" d="M1866 3071v-39l-131-1v39l131 1Z"/>
    <path id="Lally" d="m1985 2453-1-98h-6l-37 1 1 49 1 49 42-1Z"/>
  </g>
  <g id="other">
    <path d="m2332 886-1-33-76 1v33l77-1Z"/>
    <path d="m1744 807 11-13 7 5 14-17 4-5-6-5 9-11-44-37 12-14-22-18-45 55 40 33-5 7 25 20Z"/>
    <path d="m1406 920 35-19 34-18-16-30-13 7-17-31-28 15 16 31-26 15 15 30Z"/>
    <path d="m1512 795 1-38-39-1v-7l-23-1-2 52 31 1v-7l32 1Z"/>
    <path d="m1618 2522-8-139-68 4 1 18 8-1 2 19 11-1v11l-42 2 3 47 33-3 2 47 58-4Z"/>
    <path d="m1518 2389-2-19-37 3 1 19 38-3Z"/>
    <path d="m2787 1850 1-20-42-3v11l11 1-1 9 31 2Z"/>
    <path d="m1108 2496-1-63-75 1-2-128-152 2 1 73 94-1 1 60h16l1 58 117-2Z"/>
    <path d="m1280 2334-2-83-57 2 2 56-27 1-1-55-54 1 2 81 57-2-1-11 20-1v13l61-2Z"/>
    <path d="m891 2164 4-57-139-10-2 20-5-1-2 16h6l-2 21 140 11Z"/>
    <path d="M1030 2227v-99h-62l-1 60h-3v39h66Z"/>
    <path d="m986 1975 2-99-32-1-2 99 32 1Z"/>
    <path d="m783 2249-1-43-42 1v42h43Z"/>
    <path d="M784 2206v-29h-57l1 30 56-1Z"/>
    <path d="m960 2498 1-52h-26v51l25 1Z"/>
    <path d="m869 1735-1-86-42 1-1-50h-32l1 18h8l1 22h-18l2 102h20v-6l62-1Z"/>
    <path d="m1423 1905-1-33h-39l-1-26h39v-27l-36 1v-25h40v-37l-69 1 1 146h66Z"/>
    <path d="M1439 2051v-121h-40v121h40Z"/>
    <path d="m1877 1622-3-39-17 1-17 1 3 39 34-2Z"/>
    <path d="M1255 2972v-12h-6v-10h-8v-89h-24v21h-19v15h8v52h-3v-16h-19v39h71Z"/>
    <path d="M1279 2936v-74h-35v13h18v38h-21v17h23v6h15Z"/>
    <path d="M1214 2844v-11h9l-1-43-31 1 1 44h9l1 9h12Z"/>
    <path d="m2578 539-1-25-8 1v-10h-44v8l-14 1v-3h-63v2h-6v-30h-34v52h40v10h63v-7l67 1Z"/>
    <path d="m2566 294-2-10 9-2-1-21-67 2 1-8-57 3v9h-41l1 52 32-1 1-31 81-1v9l43-1Z"/>
    <path d="m2610 484-3-170h-31l2 170h32Z"/>
    <path id="Public-Safety" d="m1969 1197 10-9h28l-7-11-1-89h-15l-45 39v41l11 13-10 7h20l3 3 6 6Z"/>
    <path d="m1863 536-2-75 80-2-1-35-56 1-1-38 61-1v-32l-83 2-2-72h-25v6l-13 1 2 96 20-1v16h-8v16h7v11h-22l3 108 40-1Z"/>
    <path d="M2442 684v-33h-92l-1-119h-22l1 9h-39v49h24l1 94h128Z"/>
    <path d="m2019 366-1-45-23 1-2-71h6l-1-33-122 1v12h-9v20h94l1 121h20v-9l15-1v5l22-1Z"/>
    <path d="M2122 277v-10h23l-1-44-22 1-1-67h9l-1-36-125 2v16h-8v19l95-2 2 122 29-1Z"/>
    <path d="m2000 595-1-94 22-1v-45h-23v-10h-34l2 119-86 1h-7v18h7l1 13 119-1Z"/>
    <path d="m2345 283-2-120 94-2v-19h-8l-1-13-120 2 1 31h5l1 67h-25l1 46 36-1v9h18Z"/>
    <path d="m2128 686-1-144h-15v-8h-17l1 123-94 2v18h11v11l115-2Z"/>
    <path d="m2096 1490-2-107-84 1 1 107 85-1Z"/>
    <path d="m2734 2292 1-17 27 2 10-236-51-2 1-21-24-1-35-2-4 87-7 137-3 49 35 2 50 2Z"/>
    <path d="m1634 1577 6-40-39-6-1 4-39-8 1-145h3l-1-9 134-1v3l23 1 18-1v-2l135-2-1 3h38v-39l-38 1v3h-134v-3l-17-1-24 1v3l-134 1v-3h-39v46h4l-2 171 66 12v3l41 8Z"/>
  </g>
    <g id="bridge">
    <path d="M1983 1245v103"/>
    <path d="m1990 2124 2 17"/>
    <path d="M1461 2723v-31"/>
    <path d="m829 2029-1 66"/>
    <path d="m1979 1794-1-18"/>
    <path d="m1965 1912-1-8"/>
    <path d="M1985 1835h-10"/>
    <path d="m1978 1776-11-259"/>
    <path d="m1989 2121-14-21-10-181v-7"/>
    <path d="m1965 1919-8-4-3-48 8-6"/>
    <path d="m1964 1904-2-43 19-25"/>
    <path d="m1722 1336-1 40"/>
  </g>
  <g id="stair">
    <path d="M1657 1196h6"/>
    <path d="m1965 1912-1-8"/>
    <path d="M1985 1835h-10"/>
    <path d="m1978 1776-11-259"/>
    <path d="m1989 2121-14-21-10-181v-7"/>
    <path d="m1965 1919-8-4-3-48 8-6"/>
    <path d="m1964 1904-2-43 19-25"/>
    <path d="m1722 1336-1 40"/>
    <path d="m2217 483-1-25"/>
    <path d="m2967 2302-176-33"/>
    <path d="M1929 3029v21l-19 1 3 121"/>
    <path d="M1910 3051h-20v-19"/>
    <path d="m1717 2973-4-48 13-8-1-15-1-36"/>
    <path d="m1982 723-52 100"/>
    <path d="m1722 2164-1-10"/>
    <path d="m1723 2184-1-6"/>
    <path d="m1724 2203-1-9"/>
    <path d="m1622 2132-6 1"/>
    <path d="M1610 2133h-5"/>
    <path d="m1599 1613 1 15"/>
    <path d="m1627 1611-14 1"/>
    <path d="M1721 1432v-32"/>
    <path d="m1685 1223-26-1"/>
    <path d="M1723 1244v24"/>
    <path d="m1610 1001-7-15"/>
    <path d="m1834 1582 16-1"/>
    <path d="m1894 1551 1 19"/>
    <path d="m1961 1395-2-32"/>
    <path d="m1954 1380 7 15"/>
    <path d="m1949 1544-10 1"/>
    <path d="M2057 1362v-25"/>
    <path d="m1960 1443-11 1"/>
    <path d="m2374 2454 6 7"/>
    <path d="m2279 2397-2-18"/>
    <path d="m2358 2645-1 7"/>
    <path d="M2356 2657v9"/>
    <path d="M2355 2677v10"/>
    <path d="M2354 2692v9"/>
    <path d="M2353 2712v10"/>
    <path d="M2352 2727v8"/>
    <path d="m1853 2607-31 7"/>
    <path d="M1697 2530h-8"/>
    <path d="m1642 2548 7 16"/>
    <path d="m1620 2523-17 2"/>
    <path d="m1495 2492 55 13 2 27"/>
    <path d="m2626 2762-6-1-5-1-4-2-4-2-5-3-3-4-4-5-1-2"/>
    <path d="M2584 2838v9"/>
    <path d="m2588 2822-4 10"/>
    <path d="m1814 2704 11-13"/>
    <path d="m1796 2726 11-14"/>
    <path d="m1775 2750 13-15"/>
    <path d="m1761 2768 12-15"/>
    <path d="m1742 2788 6-4"/>
    <path d="m1643 1640 4 53"/>
    <path d="m1885 551-5 14"/>
    <path d="m1957 2653-11 57"/>
    <path d="M1482 2941h34l-2-26"/>
    <path d="m1456 2916 2 24 24 1 5 68"/>
    <path d="m1888 2786-12-2"/>
    <path d="M638 2067h10l1-21 2-22-14-1"/>
    <path d="M1416 2741v28"/>
    <path d="M1523 2724v-14"/>
    <path d="m1436 2691 2 28"/>
    <path d="M727 1874h12"/>
    <path d="m1709 2281-20 2"/>
    <path d="m1641 1610 18-2"/>
    <path d="m1650 1197 7-1"/>
    <path d="m1962 2110-1-23-7 1 1 18"/>
    <path d="m1916 1550-11 1"/>
    <path d="M2214 356v-17"/>
    <path d="M2475 1394h8"/>
    <path d="m2296 2266-9 1"/>
    <path d="m2330 2374 3 7"/>
    <path d="m1991 1828-1-22"/>
    <path d="m1797 2495-26 12"/>
  </g>
  <g id="walkway">
    <path d="m1802 1178-125 1h-33v-158l157-1 1 158"/>
    <path d="m1663 1196 10-13"/>
    <path d="m1980 1828-1-25v-9"/>
    <path d="m830 1972-1 11v46"/>
    <path d="m1806 1193-8-11"/>
    <path d="m1979 1794-1-18"/>
    <path d="m829 2029-1 66"/>
    <path d="M1461 2723v-31"/>
    <path d="M1983 1245v103"/>
    <path d="m1990 2124 2 17"/>
    <path d="m1603 2525 1 27"/>
    <path d="m1612 2604-15-14v-4l-2-4-2-3-3-2 2-7v-12l-4-13"/>
    <path d="m1590 2577-5-2h-5l-6 3-5 5-3 4-3 11 2 12 7 6 17 9"/>
    <path d="M1597 2590v5l-3 6-5 24"/>
    <path d="m1084 1782-1-19-67-126-27-26-33-12"/>
    <path d="m449 2289 20 44 65 15 31-3 22 1 16 2 7 8-4 8-13 9-15 3-6 3 2 8 10 3 93 3"/>
    <path d="m2012 1154-7-6v-64h-42l-34 35"/>
    <path d="m1930 823-3 8-1 9v14l-2 20 8 107v65l-3 73"/>
    <path d="m1782 2547-11 5-8 1-24-8-42-15"/>
    <path d="m1928 3005 1 24"/>
    <path d="m1562 3353-51-16-21-10-6-147-6-134-10-1"/>
    <path d="M1890 3032v-50l18-8"/>
    <path d="M1904 410h49l94 2 1-26 2-17 7-38 1-16-3-12-32-105-24-21-30 6"/>
    <path d="m2351 1881 23 6 63 14 20 1 31 1 3-30"/>
    <path d="M1830 1445h-34l-3 4-22-11-5 8-7 23-3 24v11l5 19 10 24 16-7 6-2 24-4 15-1 2 20v29l-60 6-19 2-47 19-13-25"/>
    <path d="m1642 1629-1-11v-8"/>
    <path d="m1725 2235-1-32"/>
    <path d="m2645 515-49 1v-25l-65 1-1-27"/>
    <path d="m1819 2483 8-8 17-25 23-37 6-9 24-41 6-27"/>
    <path d="m1602 1082 17-21"/>
    <path d="M1586 1401h-14l1 31 1 58-1 32 70 13"/>
    <path d="m1120 2080 52-3 55-2 54-3 54-2 30-1 82-2 30 5"/>
    <path d="M2536 465h-6l-77 1-1-120h8l77-1v75l-1 45"/>
    <path d="m2057 1362 102-2 1 41-22 1 2 96"/>
    <path d="m1894 1551-60 2"/>
    <path d="m2021 623 1-16 5-33 5-31 8-30 8-27v-35l-1-39-34-42"/>
    <path d="m2013 451 34-39 55-35v-63l-79-116"/>
    <path d="m2187 1884 73-4 12 2 79-1 18-33 8-13 7-11 17-11 7-8 3-13 5-15 1-85 38-1"/>
    <path d="m2185 557-8-20-15-17-14-12h-43l-2-11-3-13-1-17 3-18-15 1-40-38"/>
    <path d="m1840 877-13 11-9 6-21 18-44 48-3 39-34-1"/>
    <path d="M2452 346h-13l-111 1"/>
    <path d="M1724 2866v-9l-1-30-1-12"/>
    <path d="M1723 1229v15"/>
    <path d="M2537 420h36l-1-105 24-27v-12l-2-107"/>
    <path d="m1853 212 1 22 11 9-1 23 5 24h40l19 9 12 11 7 19 3 28 3 53-1 63v19l-5 21-7 8-11 9-9 6-15 2-20 3-14 27 1 45 22 127 7 60-17 43"/>
    <path d="m2250 556 23-22 30-28 10-9 13-30 2-120-22-35"/>
    <path d="m1541 2703-18-3-15-10-29-37"/>
    <path d="M1895 1570v8l5 115"/>
    <path d="m830 1972 72-1 43-5 4-5 2-10 1-91 74-2 35-1"/>
    <path d="m1902 1911 35-73 23-52 25-1 34 28 7-8"/>
    <path d="m1983 1245 1-22-27-19-17-10-19-1-78 6-14 10-68 1"/>
    <path d="m1896 2781-1 7-7-2"/>
    <path d="m1573 1432 36 58 34 45 6 2"/>
    <path d="m1451 2500 44-8"/>
    <path d="m1760 421 24-12 51 1"/>
    <path d="m2279 2434-1-23 1-14"/>
    <path d="m2459 1994 2-81-4-11-4-29v-15l2-167v-232h53l1-65 1-69v-28"/>
    <path d="m1643 2574 5 5 5 11v11l-2 11-6 15 16 5 8 4 8 5 19 16 8 5 9 4 10 2 81 10h9l9-3 8-4"/>
    <path d="m1973 1490 24 6 13 3"/>
    <path d="M1921 2606h-62l-6 1"/>
    <path d="m900 1786 1 72 1 113"/>
    <path d="m1180 2765 26-1 160 63"/>
    <path d="m1645 2627-45-11"/>
    <path d="m2531 1874 3-57 1-14-1-12-2-15-1-8 1-11 5-27"/>
    <path d="m2214 1190 3 110"/>
    <path d="m2253 2145 42 5 52 12 14-14 13-11 15-8 17-8 11-4 13-3 12-2h13l25 1"/>
    <path d="m2269 1300 2-111"/>
    <path d="m1722 2796 13-4 7-4"/>
    <path d="m1715 2398 15 1 12-1 12-1"/>
    <path d="M1984 1348v25l-7 69-4 48-7 19-19 1 2 34"/>
    <path d="m1916 2471-21-20-28-38-27-40-28-36-33-44-12-26"/>
    <path d="m2601 1532-1-71-38-2"/>
    <path d="m2198 318 16-1h15l77-5"/>
    <path d="m1819 2483 50-16"/>
    <path d="M2508 1459h54v168l1 8 1 7 2 8 1 5 1 6v5l-2 5-3 4-7 5-7 4-5 5-4 7-3 8-2 9 1 9 1 8 235 8v6l31-2 18-2"/>
    <path d="m1984 1373 30-9 43-2"/>
    <path d="m1655 1606 22-14 14-11 13-10 7-12 3-14 1-34 1-24 1-57"/>
    <path d="m1724 1708-11-4-36-8-29 3"/>
    <path d="m1619 1061-1-43-8-17"/>
    <path d="m1986 731-4-8-1-7 2-10 4-31 7-10 7-12 8-12 12-18 12-11 60-94"/>
    <path d="m1723 1229-38-6"/>
    <path d="m1638 2066-14-1-120 8-27-1"/>
    <path d="m2107 2599-10-109-78 4"/>
    <path d="m1708 2236 5-6 12 5 11 6 160-9"/>
    <path d="M2047 747h-27l-12-3-10-4-12-9"/>
    <path d="m2493 2502-40-6-19-1 14-200"/>
    <path d="M1574 1490h98l48-1 36 4"/>
    <path d="m1918 2488-2-17"/>
    <path d="m1717 2973 1 34"/>
    <path d="m2326 467 110-1h17"/>
    <path d="m2773 2608-23 6-4 1-3 2-3 2-3 4-4 4-3 5-6 9-4 10-6 12-7 17-2 3-2 3-6 9-4 4-3 3-4 4-13 10-8 6-4 4-3 4-2 2-2 3-3 5-6 10-8 13-4 8-3 7-5 6-5 6-1 1-4 2-8 5-4 3-3 3-5 8-4 5-3 5"/>
    <path d="m2600 2804-12-5-5-2-5-1h-9"/>
    <path d="m2637 2763-6-1h-5"/>
    <path d="m1929 1119-7 52-1 22"/>
    <path d="m2012 1154-1 40-27 29"/>
    <path d="m2015 2311-6 78 1 29 2 35 2 20"/>
    <path d="m2084 2147-2-81"/>
    <path d="m2067 2587-20-31-12-20-8-18-7-18-1-6-5-21"/>
    <path d="m2015 2311 3-31 9-43 13-26 22-32 26-20 10-6 98-34"/>
    <path d="m2158 2207-113 88-30 16-15-2"/>
    <path d="m1905 2077 28 13 6 5 9 14 8 15 7 7h60l44 10 17 6 14 6 34 25 15 15 11 14 7 2"/>
    <path d="m1930 1381 24-1"/>
    <path d="m1647 1693 1 6-1 45 1 22 3 56 7 111 8 133 3 55 2 9 5 8 9 7 9 6 10 2 17 1"/>
    <path d="m1897 1833-50-14-19-4-20-10-145-58-9-3h-7"/>
    <path d="m1902 1911-21 39-16 31-12 15-15 16-15 13-26 16-27 12-33 8-44 5h-55"/>
    <path d="m1597 1931 15-1 17 3h29"/>
    <path d="m1627 1824 24-2 118-8 37-1 22 2"/>
    <path d="m1848 2121-24-10-50-12-48-18-33-15"/>
    <path d="m2097 2490 20-4 40-11 87-4 71-5 26 13 36-2 16-5"/>
    <path d="M1416 2769v71l1 38 1 24 11 13 27 1 58-1 27 1 14-12v-57l-1-46-3-15h-27l-1-62"/>
    <path d="m1642 1629 1 11"/>
    <path d="m1896 2232-59 74-25 31-49 54"/>
    <path d="m1721 2154-1-25"/>
    <path d="M1722 2178v-14"/>
    <path d="M1723 2194v-10"/>
    <path d="m1865 2120-17 1-128 8-49 1-20 1-3 1"/>
    <path d="M1616 2133h-6"/>
    <path d="m1605 2133-7-1"/>
    <path d="M1631 2132h-9"/>
    <path d="M1648 2132h-17"/>
    <path d="m1641 1610-14 1"/>
    <path d="m1600 1628-99 8h-24"/>
    <path d="m1613 1612-14 1"/>
    <path d="m1641 1610-1-33 4-20 5-20 23-47 8-11 10-11 20-20 6-7 5-9"/>
    <path d="M1721 1376v24"/>
    <path d="m1659 1222-8 1"/>
    <path d="m1829 1209-69 60-4 3-33 1"/>
    <path d="M1723 1268v5l-1 7"/>
    <path d="M1722 1280v22"/>
    <path d="M1722 1322v14"/>
    <path d="M1722 1302v20"/>
    <path d="m1761 1210-38 19"/>
    <path d="m1761 1210-1 59"/>
    <path d="m1596 1133 29 13v39l1 8 4 3 20 1"/>
    <path d="m1517 958-8-3-49-20-14-26-5-8"/>
    <path d="m1603 986-3-6"/>
    <path d="m1651 1223 2 50"/>
    <path d="m1651 1223-1-26"/>
    <path d="m1850 1581 45-3"/>
    <path d="m1925 1545-1-15h-45"/>
    <path d="M1959 1363h6l19 10"/>
    <path d="m2057 1337 1-14 185 4 267-2 141-1 21 10 13 13 14 3 114-2-3 73-5 106v17l-2 198"/>
    <path d="m1977 1442-17 1"/>
    <path d="m1949 1444-16 1-24 1"/>
    <path d="M1925 1530h9"/>
    <path d="m2015 2311 12 16 17 22 10 16 18 16 18 9 34 13 20 4 39 2 17 3"/>
    <path d="m1992 2141 7 153"/>
    <path d="m2209 2141-13 15-31 53-7 27-2 20v20l1 19 2 15 4 11 6 18v1l4 5 15 18 6 8 4 12 2 29 3 27"/>
    <path d="m2203 2439 38-2 38-3"/>
    <path d="m2014 2473-21 9-4 2-71 4v19l3 99v40l9 7h27"/>
    <path d="m2380 2461 13 11 13 9 20 9 8 5-3 66"/>
    <path d="m2277 2379-2-14 16-7 13-8 10-12 3-4"/>
    <path d="m2253 2145 19 21 10 13 10 17 10 27 6 16"/>
    <path d="m2209 2141 34 1 10 3 197-137 9-14 24 1"/>
    <path d="m2308 2239 3 28 4 55 2 12 6 15 7 25"/>
    <path d="m2278 2411 47-13 13-4 25-13 16-8 15-11 11-10 9-10 9-16 7-17 1-6 4-10 3-13-4-22-5-20-8-17-9-15-12-14-9-7-8-6-16-9-20-8-8 11-9 14-8 21-7 15-7 16"/>
    <path d="m2357 2652-1 5"/>
    <path d="m2356 2666-1 11"/>
    <path d="m2355 2687-1 5"/>
    <path d="m2354 2701-1 11"/>
    <path d="m2353 2722-1 5"/>
    <path d="m2360 2611-2 34"/>
    <path d="m2352 2735-2 36"/>
    <path d="m2502 2336-8-1-4-1-5-3-5-4-4-6-16-25"/>
    <path d="m2470 2269 2-20 8-136 3-118 5-92"/>
    <path d="m2460 2296 4-2 4-2 3-4 2-5v-5l-1-5-2-4-3-4-4-2-5-2h-5l-5 2-3 2-3 3-3 4-1 4v4l1 5 2 4 2 3 4 3h1l3 1 4 1 5-1"/>
    <path d="m2311 2267-15-1"/>
    <path d="m2333 2381 5 13 7 17 10 18 12 17 7 8"/>
    <path d="m2275 2365-2-47"/>
    <path d="M2196 2090v29l13 22"/>
    <path d="M1939 1545h-14l-5 5h-4"/>
    <path d="M2115 1858h-16l-55 1-6-2-18-17-5-5-23-1-7 1"/>
    <path d="m1975 1835-38 3"/>
    <path d="m2034 1811 18-15 5-3 9-1h17l11 1 21 6 12 10"/>
    <path d="m1984 1774 23 20 19 11 8 6-19 24"/>
    <path d="m1992 1834-1-6"/>
    <path d="M1990 1806v-4l-11 1"/>
    <path d="M1942 2405h-29l-40-1"/>
    <path d="m1918 2488-20-5-29-16-25-17-76-49"/>
    <path d="m1918 2488-11 19-48 99"/>
    <path d="m1819 2483-14 7"/>
    <path d="m1764 2404 41 86-8 5"/>
    <path d="m1767 2394 73-21 45-14 18-23"/>
    <path d="m1763 2405 1-1 2-1 1-1 1-1v-5l-1-2-1-1-1-1-2-1h-3l-2 1-1 1-1 2-2 2 1 3 1 2 1 1 2 1 2 1h2"/>
    <path d="m1903 2336 66-3 14-4 17-20-1-15"/>
    <path d="m1771 2507-8 5"/>
    <path d="m1822 2614-7 1"/>
    <path d="m1906 2942 1 9 1 23 19 6 1 25"/>
    <path d="m1689 2530-25-5-36-2 14 25"/>
    <path d="m1649 2564-1 5-5 5-31 30-12 12-11 9-10 13-38 65 14 1h12l56-1 15 1 14 4 13 6 11 7 13 10 10 10 7 8 5 8 7 12 4 11v35"/>
    <path d="m1628 2523-9-143"/>
    <path d="M1628 2523h-8"/>
    <path d="m1552 2532 13 1 7 5 8 4 8 3 16 7 15 7 12 7 12 8"/>
    <path d="m2244 2471-3-34"/>
    <path d="m2594 2742-1-2-4-7-2-2-3-1h-12"/>
    <path d="m2584 2847 1 5-1 2-2 2-2 1-16-1"/>
    <path d="M2584 2832v6"/>
    <path d="m1825 2691 4-4 8-9"/>
    <path d="m1807 2712 7-8"/>
    <path d="m1773 2753 2-3"/>
    <path d="m1788 2735 4-4 4-5"/>
    <path d="m1748 2784 13-16"/>
    <path d="m2453 466 44-63 40-58"/>
    <path d="m2536 465-39-62-37-57"/>
    <path d="m2306 312-12-25-46-21"/>
    <path d="m2328 347 15-30 102-155 1-18-9 1"/>
    <path d="m2436 466-3-7-3-7v-8l1-7-3-6-3-7-2-7 1-7 1-7 2-6 3-4-2-6-1-7 1-7 2-5 2-6 7-16"/>
    <path d="m2461 772-3-119-132-186"/>
    <path d="m2048 481 45 37"/>
    <path d="m2093 518 12-10"/>
    <path d="M1885 541v10"/>
    <path d="M2102 449v-72"/>
    <path d="m2087 450-39 1h-35l-15 2"/>
    <path d="m2102 368-52 1-37 1-31-2"/>
    <path d="m2012 1154 25-3 29-5 9-24-3-225"/>
    <path d="M2243 1339v-12"/>
    <path d="m2672 1334 2 45"/>
    <path d="M2483 1394h49l33 20"/>
    <path d="m2099 1858 4 11 11 13 11 5 32-3 10 1 5 4 4 7-1 7-4 5-26 6-19-20-1-7"/>
    <path d="M2453 1858h-21l-29-10-26-13-25-20-14-34-24 6-32 2-52 3-115 7"/>
    <path d="m2272 1882-1 37"/>
    <path d="m2260 1880-8-17-18-47-3-13-1-11"/>
    <path d="m1946 2710-2 9-80-17-35-15"/>
    <path d="m1829 2687-16-9-7-27 2-8-4-30-33-61-18-32-11-30-7-32-5-59-7-119-7-18-11-13 3-13"/>
    <path d="m1651 2131 5 67 57 32"/>
    <path d="m1612 2195 17-1"/>
    <path d="m1629 2194 2-16-4-46-3-67-12-135-6-88v-20l1-65 12-2 28-11"/>
    <path d="m1606 1842-80 3-21 5-1 223"/>
    <path d="M1993 2612h5l14-4"/>
    <path d="m2303 506-73 1h-13l-69 1"/>
    <path d="m1724 2857 30 20 38 24 40 22 27 11 28 11 20 6"/>
    <path d="m1993 2482 5 130v39l-6 2-27 1-8-1"/>
    <path d="M1934 1530v-13l-1-72"/>
    <path d="m1776 782 4 4-1 7-17 21-13 27-5 29 3 15"/>
    <path d="m2014 2473 44-19 21-11 20-14 17-16 8-10 18-18 24-37 3-8"/>
    <path d="m1876 2784-20-3-8-4-56-46-69-63"/>
    <path d="m2262 1859-10 4"/>
    <path d="m2057 1793 37 28 18 10"/>
    <path d="m2285 1852-1-4-3-4-4-2h-4l-6 1-3 3-1 2-2 4v4l1 3 3 3 3 3 3 1h4l3-1 3-2 3-3 1-4v-4"/>
    <path d="m637 2023-42 18 43 26"/>
    <path d="M649 2046h46"/>
    <path d="m1435 2658 1 31v2"/>
    <path d="M1723 2827h25"/>
    <path d="M1523 2710v-10"/>
    <path d="M965 1775h-18l-137-1-82 1-3-1v-8l-3-165-1-21 1-6"/>
    <path d="m3252 47 1 22-1 4-6 1h-128l-6 2-5 1h-61l-50 1h-52l-55 1h-55l-94 1-48 1h-97l-67 1-91 1h-71l-101 1h-58l-29 1h-101l-135 2-76 1h-27l-7 1-4 4-6 10-20 53-6 22"/>
    <path d="m1870 867-30 10-48 16-57 22-19 9-37 16-43 21-36 19-16 10-13 7-17 14-14 15-16 21-12 24-7 19-5 31v19l1 66 1 55 4 9 13 4 134-1"/>
    <path d="m722 1574 89-2 78-2h56"/>
    <path d="M1438 2719v4l-22 18"/>
    <path d="m1510 2717-72 2"/>
    <path d="m1461 2692 14 1 48 7"/>
    <path d="m1727 2902-11-1-16-16-87 1-1-50"/>
    <path d="m1478 1914-59-1-25 4-25 11-37 2-57 3-53 3-53 3-54 2-51 2"/>
    <path d="m902 1972 50-112-51-2"/>
    <path d="m778 1961 13-1 38 23"/>
    <path d="m739 1874 72 1"/>
    <path d="m727 1874-1-84-1-16"/>
    <path d="m874 2282-10 122-9 33"/>
    <path d="m1618 2225 3 62 68-4"/>
    <path d="m1723 2280-14 1"/>
    <path d="m1967 1517-1-8"/>
    <path d="m1446 909-18 5-22 15-32-8-8-4 15-31 22-18"/>
    <path d="m1509 955 24-106-63-30-22-9-30-25"/>
    <path d="m1843 1199-37-6"/>
    <path d="M1653 1273h70"/>
    <path d="m1990 2124-1-3"/>
    <path d="M1971 2131v-8l-8 1-1-14"/>
    <path d="m1956 2124-1-18"/>
    <path d="m1933 2145 59-4"/>
    <path d="M1905 1551h-11"/>
    <path d="m2160 1401 36 1"/>
    <path d="m2119 353-10 1-7 4"/>
    <path d="m1774 1588 3-24 10-24"/>
    <path d="M2217 507v-24"/>
    <path d="M2214 339v-22"/>
    <path d="m1584 990-8-13-4-8-8-15"/>
    <path d="m1575 893-6 38-5 23-2 13"/>
    <path d="m1572 969-10-2-26-6-19-3"/>
    <path d="M2453 1394h22"/>
  </g>
    <g id="thin-road">
    <path d="m2335 3206-101-40-53-10-57-3-187 18-24 1-24-5-405 13h-7"/>
    <path d="m1926 840 151 1 36-5 33-6 24-8 20-6 21-10 22-16 10-16 6-19 3-38-2-161-65 1-2 191v7l-13 67"/>
    <path d="m2047 747 136 1"/>
    <path d="m965 1786-9-187"/>
    <path d="m1487 3009 7 39 8 10 13 4 128-1 29-3 12-9 2-14 1-28"/>
    <path d="m2538 1980 8-105"/>
    <path d="m736 2328 102 1 1-47"/>
    <path d="m2643 2314-6 93 5 23 7 24"/>
    <path d="m716 2447 1-4 4-4 126-3 8 1 4 1 6 5v22l-6 6-9 2-128 2-6-6-1-4 1-18"/>
    <path d="m1436 2375 18 27 3 7v9l-3 7-4 5-4 21v17l5 32 28 153-44 5-13 2-11-64-21-115 1-7 4-6 55-38"/>
    <path d="m2180 139 66-1 2 128-66 1-2-128-2-54-1-32"/>
    <path d="m2113 889 13 13 17 9 115 1"/>
    <path d="m2563 109 1 53 3 5 5 2h50l5-3 2-6v-50l-2-5-7-4h-50l-4 3-3 5"/>
    <path d="m2113 889 13-11 15-10 49-9 15-5 13-5 23-13 20-5 18-3 55-2h8l30-1 243-1 5-1 6-3 3-6v-38l-3-4-5-3h-8l-152 3"/>
    <path d="m810 1787 1 88v75l58-2-2-162"/>
    <path d="m1830 1002-1-78 42-2"/>
    <path d="m2647 2058 4-89 1-35 2-54"/>
    <path d="m2547 654-2-43-3-6-6-2h-36l-6 2-3 7v34l5 6 6 3 45-1 63 1h8l9-3 8-5 5-6 4-6 2-40-1-80V354l-1-7-8-24-2-6-1-9-1-33-36 1"/>
    <path d="m2628 1599-1 51-1 44 9 9h123l8-8 2-43 1-44-9-9h-132l1-43 10-11 112-1h74"/>
    <path d="m2651 1969 49 3"/>
    <path d="m2783 1321-101 1-25-6-17-42"/>
    <path d="m2342 826 87-47 32-7"/>
    <path d="m2627 1650 141 2"/>
    <path d="M2769 1544v-45l-8-9h-49"/>
    <path d="m1411 2596-50 10"/>
    <path d="m1422 2660-48 6"/>
    <path d="m1313 2222-56-3-27-1-3-143-5-139-7-159h-56l10 162 3 138 3 140-37-2-8-4-6-11-4-120v-5l-5-134-9-160-22 1-26 3 3 72 3 86 2 67 20 56 34 9"/>
    <path d="m1230 2218-55-1"/>
    <path d="M1257 2219v-21h28l54-1-4-127-3-140-4-156-60 2 7 157 6 139 4 126"/>
    <path d="m1268 1776-53 1"/>
    <path d="m2622 2927 77 4"/>
    <path d="M1044 2765h136"/>
    <path d="m2037 1053-25-1h-35"/>
    <path d="M1977 1052v20h36l24-1"/>
    <path d="m1977 1052-1-174"/>
    <path d="m2463 3001-6-17-30-21-69-12-53 2-36 7-23 9-21 17-9 17"/>
    <path d="M2037 1113V898"/>
    <path d="m1350 907 60-107 8-15 20-69"/>
    <path d="m1614 717-15-20-8-14-1-14 22-34-1-14-103-77-23 25 18 33 15 8 24 36-1 25-8 26"/>
    <path d="m1416 2840-32 1-18-14-8-45"/>
    <path d="m2652 1934-33-2-9 2-4 7-3 46"/>
    <path d="m1477 3180-9-135-3-36"/>
    <path d="M2244 1189v111"/>
    <path d="m2258 912 109 3v111"/>
    <path d="m2367 915 1-24 4-66"/>
    <path d="m2368 891 50-1"/>
    <path d="m2037 898 35-1 41-8v-53"/>
    <path d="m1672 638 31 28 8 5 9 1 13-8 23-23"/>
    <path d="m1862 186-1-35 1-13 8-5 28-1 63-2 5 1 4 5v10l-1 37"/>
    <path d="m2119 353 1-46 26-22 24-3 12-15"/>
    <path d="M1813 1051h58"/>
    <path d="m1586 1401 19-1h116l141-3 51-1 17-15v-25l1-55"/>
    <path d="m1969 183-107 3h-8l-48-4-10-4-16-7"/>
    <path d="M2103 1192h-40l-10-3-8-5-6-8-2-10v-53"/>
    <path d="m2010 1499 130-1 179-1-5 290 2 15 5 11 7 7 11 9 30 19 17 8 18 8 24 6 25 3h38l40 1 15 1 90 4 18 1 49 2 111 6"/>
    <path d="M2595 101V51"/>
    <path d="m2379 1299-8-29-15-38-8-18-6-11-8-11-12-3h-51l-57 1-111 2-2 109"/>
    <path d="M1838 1156h5l10-4 9-7 6-10 2-14 1-24V922l-1-55-2-23"/>
    <path d="m2787 794-15-57-22-78-15-34-16-15-22-7-51-8"/>
    <path d="m1997 3005-3-21-7-10-13-5-21-10-23-8-24-9-10-3-28-12-33-14-17-10-16-10-29-22-7-8-8-9-5-8-3-6-2-7v-12l2-7 5-4 7-2 15 2 14 4 22 6 26 7 38 8 34 5h11l12-1 16-6 15-9 11-12 8-14 4-12 2-13-1-14-4-16-7-14-8-8-10-7-14-4-50-11-32-7-19-8-8-6"/>
    <path d="m1763 2512-7-17-5-16-4-18-1-18-4-45-12-148-22-14"/>
    <path d="m1837 2678-7-7-4-7-3-11-3-14-5-24-29-60-4-8-19-35"/>
    <path d="m956 1600-11-30-8-19"/>
    <path d="m3428 1618-15 10-308 1-282 4"/>
    <path d="m3428 1618 5-113 5-247"/>
    <path d="m2902 3218-40-15-40 6-102-1h-44l-263 7-78-9"/>
    <path d="m1479 1829 90-5 37-2 21 2 2 109 9 133 2 66 4 65 4 12 60 27"/>
    <path d="m2124 1922 67-4"/>
    <path d="M1430 2782h-72l-11-6-26-29-11-24-5-20-10-53-46-119"/>
    <path d="M2195 1960h51"/>
    <path d="m2185 1805 2 67-43 3-14-1-10-7-5-9-3-27 3-12 5-7 7-3 58-4 46-2 53 1 16 4 21 5"/>
    <path d="m2703 1882-3 90-2 45"/>
    <path d="M1716 998v-74l-7-24"/>
    <path d="m1619 2380-3-43h-51l-10-15-5-66 4-9 7-7 41-7 16-8 30-16"/>
    <path d="m2461 2609 2-7v-8l-1-7-3-6-4-6-6-6-6-3-12-5-16 3-6 3-6 4-5 6-4 6-2 7-1 7 1 8 3 9 6 9 7 5 7 3 7 2h7l7-1 7-2 6-4 5-5 4-6 3-6"/>
    <path d="m1627 1824 1-16 3-11 6-13 5-9 6-9 15-19 15-13 10-7 11-7 13-7 12-5 19-3 19-2 24 2 18 4 11 5 9 4 24 13 19 17 14 18 8 19 5 20 3 28 5 78 6 152-3 14-13 29-7 9-10 5h-10"/>
    <path d="m1366 2250-12-11-11-9-12-6-18-2v98"/>
    <path d="m2649 2454 12-14 9-13 5-17 9-120"/>
    <path d="M2187 1872v12l4 34 3 32 1 10 1 130"/>
    <path d="m1058 1785-51 3-42-2"/>
    <path d="m1916 2471-3-66-4-38-6-31"/>
    <path d="m1484 1072 28-1 59-1 15 2 16 10 2 8 1 16-2 14-7 13"/>
    <path d="m2564 2923 58 4-1 73"/>
    <path d="M1470 1140h30l67-1 15-2 14-4"/>
    <path d="m1893 2190 3 42 7 104"/>
    <path d="m2012 2608 55-21 10-3 12 2 9 5 9 8 8 6 7 5 10 3 13 3 27 2 33 1h45l50-2 24-4 18-3 18 1h11"/>
    <path d="m2084 2521 1 19 1 24 1 12 2 10"/>
    <path d="m2480 2620 18 2h21l21-2 25-5 29-13 16-9 19-16 30-39 20-33 88-132 19-9"/>
    <path d="m2284 1804-2-15-2-105"/>
    <path d="m1903 2336-25-10-41-20-70-39-37-17"/>
    <path d="m1522 2460-7-2-5-4-56-52 73 13 21-2"/>
    <path d="m1106 1781 53-4"/>
    <path d="m1072 2387-20 1"/>
    <path d="m1052 2388-2-106"/>
    <path d="M839 2282v-44l-12-15 1-38"/>
    <path d="M716 2447h-42"/>
    <path d="m839 2238 113-1"/>
    <path d="m1331 938 19-31"/>
    <path d="m1438 716 54-59"/>
    <path d="m2832 1373 109-1 173-3 112 11"/>
    <path d="m952 2163-29-1-5 5-3 12-4 9-5 3-7 1-34-1"/>
    <path d="m1275 2350-16-3-90 3"/>
    <path d="m1133 638 56 14 57 11 31-3 30-24 24-39 38-73"/>
    <path d="m2649 2454 2 20 7 14 21 17"/>
    <path d="m2458 2615 22 5"/>
    <path d="m2371 2611 21-6"/>
    <path d="m3576 1610 335 5 208-129 7-15 54-82"/>
    <path d="m3997 1372-423 6"/>
  </g>
  <g id="thick-road">
    <path d="m838 2083 93 2 21 42v154"/>
    <path d="m693 2081 47 1"/>
    <path d="m740 2082 88 1h10"/>
    <path d="m3675 104 2-50 10-138-11-24-9-5-43-8-9-10-10-56-29-90-122-340-26-78"/>
    <path d="m3687 1009 4-123 7-265 21-510"/>
    <path d="m3222 1506 4-126 5-128"/>
    <path d="m3574 1032-3 15-1 124 1 81"/>
    <path d="m1027 65 10 30 4 10 86 140 36 63 33 79 20 34 30 36 35 29 48 24 40 14 15 5 34 24 23 26 34 56 17 22 19 21 22 19 63 50"/>
    <path d="m4066 1002-50-176-67-239-6-40 31-458"/>
    <path d="m3277 91 398 13 44 7 460-43"/>
    <path d="m256 820 7 248 1 222 1 21 1 23 1 216-1 245 1 249 6 243 2 242"/>
    <path d="m952 772 21-33 24-18 60-35 73-45 3-3 148-152"/>
    <path d="m2656 1269-5-52 4-42 21-93 18-75 18-59 75-154 18-37 37-60 85-97 50-48 37-27 69-39 70-17 33-2 78 4"/>
    <path d="m1508 1023 34-23 34-23 2-2 32-19 35-28"/>
    <path d="m2756 2999 1-28 14-315 2-48 10-175 3-69 5-95v-14l23-367 6-125 1-23 2-107 2-89 2-43 5-128 5-111 1-24"/>
    <path d="m3104 1761 7 128-2 17-9 15-19 14-34 23-10 12-28 37-28 85-46 133-2 21 4 18 3 8"/>
    <path d="m1473 1119-18-22-53-95-71-64-26-21-58-36-49-26-190-67-56-16-62-14-210-23h-12"/>
    <path d="m1508 1023-31 7-46-12-29-16"/>
    <path d="m595 2041-328 3-370 1"/>
    <path d="m3582 1757 122-3 90-3 31 31 11 20"/>
    <path d="M965 1786h-98l-57 1-84 3-27 1-433 4-373 5"/>
    <path d="m4165 1581-101-63-18-9-10-5-38-4"/>
    <path d="M1003 1551H694l-427-1-378 8"/>
    <path d="M263 1068h-380"/>
    <path d="M655 331h259l47-1h50l60-4 47-6 45-12"/>
    <path d="m256 820-20-1-41 1-30 1-43 1-99 3-148 3"/>
    <path d="m952 2532-282-2-395-1-374 12"/>
    <path d="m3998 1500-1-128v-116"/>
    <path d="m3574 1032 10-14 14-7 20-4h86l389 1 43-18 43-4"/>
    <path d="m1472 2100-36 4-9 3-9 8-9 17-22 68-8 27-13 23-19 30-25 29-9 11-20 18-18 12-8 5-75 33-37 10-17 1-20-3-13-9-11-15-6-18-5-20-6-16-8-15-12-18-7-3"/>
    <path d="m2940 2272 4 8 7 10 16 12 80 14"/>
    <path d="m541 2282-74 8-18-1-176-2-374 10"/>
    <path d="m275 2529 6 244"/>
    <path d="m3571 1252 3 126 2 128 3 120 3 131"/>
    <path d="m1645 928-29 6-22 1-17-2-8-2-26-4"/>
    <path d="m1645 928 64-28 38-15 51-19 70-22 16-1 42-3"/>
    <path d="m792-678-8 24-9 31-2 21-1 18v239l-2 21-6 35-18 32-3 4-11 15-12 15-14 13-17 11-28 15-8 8-10 13-5 20-2 20 1 19 9 169"/>
    <path d="m3582 1757-478 4-284 2"/>
    <path d="m3998 1500-288 6h-133l-144-1-211 1-114 3-281-8"/>
    <path d="m3104 1761 1-132 3-120"/>
    <path d="m281 2773 3 249"/>
    <path d="m-103 2780 384-7 385-4 378-4"/>
    <path d="M858 2282h-19l-157-2"/>
    <path d="m1050 2282-98-1-10 1h-84"/>
    <path d="M3279 47h-27l-158 1-250 1-249 2-109 2h-501l-171 3-63 1h-32l-132 2-220 3-75 1-213 2h-52l-31 2h-57l-40 1-253-3"/>
    <path d="m4179 544-159 32-86 14-156 22-36 3-31 2-207 29-247-2"/>
    <path d="M690 1311v23l4 217 5 240-3 247-1 8-2 35-11 199-5 113-3 54-4 83-9 148 1 45 4 46 12 42 24 50 95 154"/>
    <path d="m1099 2677 98-96 52-50 72-69 25-21 72-47 18-19 9-16 8-23 9-128 10-108 5-28 1-158 1-85-2-193-2-292 1-38"/>
    <path d="m3231 1252-325-15-68 1-39 3-27 2-46 6-45 11-25 9-16 5-31 9-44 10-55 4-131 2-110 1h-52l-116 1h-170l-209 1-68 1-138 3h-40"/>
    <path d="m967 3433 7-30 15-64 1-28 5-42 20-257"/>
    <path d="m1015 3012 18-197 11-50 11-20 18-33 26-35"/>
    <path d="M690 1311 646 65"/>
    <path d="M3279 47v-60l-3-33-13-50-160-480-38-119"/>
    <path d="M690 1311H244l-338 3h-42"/>
    <path d="m1536 961 7-34 29-121 24-59 18-30 57-79 56-72 17-32 8-23 6-36 2-54v-33l-1-61-1-59 12-62 10-35 34-115"/>
    <path d="m2943 2997-58 1-129 1-135 1-158 1-247 2-219 2h-107l-172 2h-31l-200 2h-22l-450 3"/>
    <path d="m797 3015 66 106 52 90 32 61 11 44 3 20 3 14 2 52 1 31"/>
    <path d="m797 3015-513 7-390 10"/>
    <path d="m1015 3012-218 3"/>
    <path d="m1476 1306-1-41-5-125 3-21 11-47 24-49 28-62"/>
    <path d="M1476 1306h-41l-716 5h-29"/>
    <path d="m3231 1252 9-176 17-432 7-173"/>
    <path d="m4210 1286-76-13-58-10-59-3-62-3-304-8-45 5-146 7-229-9"/>
    <path d="m646 65-420 6-138 3h-9l-105 2-102-1"/>
    <path d="m3264 471 13-380 2-44"/>
    <path d="m-105 3284 264 119 106 43 46 14 72 19 59 12 90 19 68 14 172 35 118 22 53 10"/>
    <path d="m2970 2674 52-213 36-159 20-71 29-87 30-42 31-26 33-23 32-13 201-59 109-40 105-45 111-48 23-12 88-49 48-27 13-7 14-8 20-12 215-122"/>
    <path d="m3194 3537-9-90-8-40-10-33-13-29-13-31-19-28-29-39-37-46-25-33-24-40-27-61-37-70"/>
    <path d="m2943 2997-19 67-4 52-7 39-11 63-66 191-7 21-4 12-7 45-5 38v6l-1 22 2 27 88 328"/>
    <path d="m2943 2997-2-42 6-127 11-93 12-61"/>
  </g>
</svg>
