<?xml version="1.0" encoding="UTF-8" standalone="no"?><!DOCTYPE svg PUBLIC "-//W3C//DTD SVG 1.1//EN" "http://www.w3.org/Graphics/SVG/1.1/DTD/svg11.dtd"><svg width="100%" height="100%" viewBox="0 0 16 30" version="1.1" xmlns="http://www.w3.org/2000/svg" xmlns:xlink="http://www.w3.org/1999/xlink" xml:space="preserve" xmlns:serif="http://www.serif.com/" style="fill-rule:evenodd;clip-rule:evenodd;stroke-linejoin:round;stroke-miterlimit:2;"><path d="M7.493,19.875c-0.696,-0 -1.246,-0.249 -1.655,-0.733c-0.405,-0.48 -0.569,-1.063 -0.479,-1.753l0.001,-0.003c0.132,-0.952 0.418,-1.798 0.854,-2.539c0.429,-0.728 1.083,-1.484 1.967,-2.264c1.024,-0.927 1.812,-1.785 2.36,-2.578c0.517,-0.746 0.777,-1.545 0.777,-2.399c0,-1.014 -0.338,-1.862 -1.019,-2.54c-0.69,-0.686 -1.653,-1.016 -2.881,-1.016c-0.845,-0 -1.549,0.164 -2.107,0.505c-0.563,0.345 -1.02,0.772 -1.371,1.282c-0.323,0.47 -0.735,0.791 -1.234,0.967c-0.516,0.182 -1.021,0.17 -1.515,-0.032c-0.002,-0.001 -0.003,-0.001 -0.004,-0.002c-0.613,-0.259 -0.989,-0.714 -1.129,-1.366c-0.135,-0.63 -0.034,-1.198 0.296,-1.708c0.001,-0.002 0.003,-0.005 0.005,-0.007c0.731,-1.071 1.688,-1.952 2.874,-2.644c1.189,-0.694 2.584,-1.045 4.185,-1.045c2.624,0 4.636,0.744 6.048,2.202c1.418,1.465 2.127,3.223 2.127,5.276c0,1.254 -0.271,2.394 -0.811,3.421c-0.528,1.005 -1.369,2.063 -2.528,3.171c-0.849,0.825 -1.446,1.491 -1.786,2.001c-0.32,0.48 -0.525,1.029 -0.616,1.645c-0.087,0.613 -0.35,1.123 -0.786,1.532c-0.446,0.419 -0.97,0.627 -1.573,0.627Zm-0.078,9.375c-0.826,-0 -1.533,-0.294 -2.119,-0.883c-0.585,-0.588 -0.878,-1.295 -0.878,-2.12c0,-0.827 0.294,-1.533 0.883,-2.119c0.588,-0.586 1.295,-0.878 2.121,-0.878c0.826,-0 1.532,0.294 2.118,0.883c0.586,0.588 0.878,1.295 0.878,2.12c0,0.827 -0.294,1.533 -0.882,2.119c-0.588,0.586 -1.295,0.878 -2.121,0.878Z" style="fill:#fff;"/></svg>