<svg xmlns="http://www.w3.org/2000/svg" xml:space="preserve" fill-rule="evenodd" stroke-linejoin="round" stroke-miterlimit="2" clip-rule="evenodd" viewBox="0 0 4167 4167">
  <g id="boundary">
    <path d="m30.7 2095.2 556.6-16.4 7.6 735.5 1475.2 74.1 281.4 13-13-146.4-14.9-28.9 64.9-13.2 202 42.1 276.5 127.1 676.2-15.3v-990.4l-216.3-60.6h-192.5l-120-29.1-58.3-38.8-14.1-26.2-96.5-64.3 90-103.4 71.7-53-328.2-139.8-104 110.2-13.3 86.2-253.7-24.3-165.5 7.5V1169l-100.5-47-1.2-112-1.3-113.4 118 .9.2-49.7h123.8v-94.6L1059.3 738v556.8c-14 13.6-190.4-164.9-190.4-164.9l-63.6-28.6-226.1-25.2 8 443.4-336 21.3-19.2 49-227 13.6 25.7 491.8Z"/>
  </g>
  <g id="parking">
    <path d="m47 978.5 181.3 12.7 124.6-30.8 96.2-58.6 97.5-59.4-6.7-457.7-342.4-12.4-31.8 19-43.2 186.4L47 978.5Zm-51.7 354.2 260.4 6.6 18 .7-8.2 196 290.7-20.1-4.6-412.2-11-9.3-205.8-18.8-205.4-23.1-62.6-5-21.3 5.8-21.3 17.5-25 120.6-4.8 50.1 1 91.2Zm1381 95.1 284.1-2.2 18.6-4.5 147.1.2 3-276.5-.6-32.1-33.7.3-28-18.1-120.8-2.9-11.2 1.2-95.4 14.6-30.7 41-8.8 9.8-114.8 15.9-8.8 253.3Zm481.5 1427.6 250.9-.7-.1-29.7h23l-.3-64.2-62.2.2-.2-49.7h-15.4l-.1-59.6-196.1.5.5 203.2Zm978.2-514.9 220 1.3-3-65.5 33.9.3 1.5-61-215.3 1.9-1.8-112-60.7-.1-.2 95.8 25.2 50.5.4 88.8Zm-1923.2-763 171.2-28.6 52-2.4 25-10.8 5-29.8-58.5-80.7-5.9-2.2-6-.3-79.5 15.8-5.4-30.4-111 16.3 13 153.1ZM32 1689.4l33.9-1.9 183.4-11 8.2 141.2-29.5.6 6 118.3 28.7-.3 3.8 59.4 26.7-1-20.6-359.7-42.1 1.8-1.7-34.2-201.5 10.6 4.7 76.2ZM2737.7 2723l80 1 28.8-26.9-6-177.1-11.2-.4-15.8-29.2-36.4-67.2-41.2.6 1.8 299.3Zm-280.8-595 275-1-.1-56.3-.2-55.5-219.6.7.2 56.9-55.5.2.2 55Zm472.8 511.8 87.5-2.5-3.4-114.5-87.5 2.6 3.4 114.4Zm51.8 95.4 288.8-3.4-.2-19 2.6-3 3.5-1 68.1-1.6-1.2-53.7-39 .9.7 29.7-34 .8-4.3 3.4-9.8 1-8.4.9-8.8.6-11.1.4-152.7 2-.3-22.3-94.7 1.1.8 63.2Z"/>
    <path d="m129 1589.9 100.2-3.6v-15.5l16.2.6 11.1-205.5-14.2-1.6-1.5-16.9-103.1 5.9 7.2 146.9-16.8.6.8 89ZM2589.2 1889h50.5l-.7-27.7-49.9.2v27.6ZM36 2053.7l14.6-1.2 1 13.8 201.3-9.4-4-45.2-155.7 4.7L80.4 1799l-37.6 3.1L40 1732l-20.6 1.3 16.5 320.5ZM1631.8 960.5l155.5-.7-.6-122.5-151.4 2.3-3.5 121ZM3334 2339.1l135.1-.1-.1-128-135.2.2.2 128Zm46.7-291.3 114.2-2.8-1.9-141.5-76.7 1.9 2.6-19.9-40-3.8 1.2 18v15.3l.6 132.8ZM151.4 1195l28.9-.6v25.9l74.4 1.6 1.4-24.5 11 1 8.3-120-121.3-10.7-2.7 127.2Zm248.3 753.2 39.7-1.6-14.5-373-39.8 1.5 14.6 373Zm692.8-1006.6 67.5-3.4-2.5-31.1 26.7-.9-3.9-128-23-11-31.2-.9-30.8 13.5-4.4 21.6 1.6 140.2Zm1844.1 647.8 25 71.1.3 26.6 16.9 8.7 115.5-138.9-49.7-35-11.4 14.4-63 31.5-33.6 21.6Zm-257.6-166 85.4 46.6 28.1 41 51.8 2 26.8 6.3 5.7-19.5 9-32.6-186.4-81.6-13.8 26-6.6 11.8Zm-2398.3-77.6 53.4 7.8 4-79.7-16.2-2.7 3-58 16.5 2 6.2-98.7-37.3-2.7-1.6 39.2-18.7-.6-9.3 193.4Zm3133.7 1367.5 82.5-1-1.6-119.2-82.5 1.1 1.6 119.1ZM1831.2 1057.5l75.5-.7 75.1-5.5 11-33.4-25.1-24.3-136.9 1.6.4 62.2Zm-599.8-147.6h63.8V784.7h-63.8V910Zm1016.9 1936.9 57.9.7-.6-68-19.9.7-.5-26-37.7.8.8 91.8Z"/>
    <path d="m2589.5 1917.5 88.7.1-1.9-57-37.3.7.7 27.6-50.5.1.3 28.5ZM398 2061.4l40.1-1.3-1.6-50.9-40.2 1.3 1.7 51Zm2199-253 29 .9-1.6-67.7-27.6.1.2 66.7ZM795.3 1238.5h18.3l-.3-99.3h-18.2l.2 99.3ZM543 1723.1l13.9 8.1-.6-134.1-16.5-13.8 3.1 139.8Zm1190.1 1042.1 27.5-.2-1-130.7 17.7-.2-.2-20.8-26.9.2.1 11.8-18.3.2 1.1 139.7Z"/>
  </g>
  <g id="grass">
    <path d="m594.9 2259.3 47.1 48.4 22.8 87.7 315.9 15.8c-10.7-62.5-11.2-131.2-7.8-202.3l37.7-64.8-16.7-46.7-13.2-37.2h-38.9l-8.8-7.6-1-40.4-42.6-3.3-10 15-20 19.9-16.8 8.4-21.9 1.6-29-5.7-20.3-11.6-12.2-22.5-7.5-17-3-16.2 33.7-158.2-2.8-8.2-5.7-4.3-12.1.2-36.7 23.4-41.8 61-71.3 159-17.1 6.5v199Zm513.6 228.5 178.8 9.9 1.8-4.5 14.9-4 11.3-1.3 14.2 1 8.8 9.2 4 6.1 1.4 7-1.7 10 244.3 13.6 1.2-17.5 28-2.1-1.4-151-116.5-2.4 5.6-95.2-29.1 2.1-10.3 7-12-30.7 8.7-16-18.1-45.7-26.2-43.4-24.6-22.6-42.2-24-36.1-8.8-9.7 19.4-37.8 10.1-16.8-14.8 3.1-19.1-58.3-4-54.3 2.8-.2 8-6.7 7-9 .7-14.1-6.2.9 75.1 9.1 12.4 2.1 17.6 14-1.4 4.3 58 53.8-4-5.9 18.5 86.6-4-2-9.2 73.6-4 1.8 18.2 13.6 5.4 6.8 9.5 2.8 16-8.2 13.5-14.2 7.8h-6.6l-3.7 9.9h-57.9v9.7l-42.7 2.2-46.3 4.2 6.3 39.8-18.5 5.3-40.8-38-14.9 41 1.6 68.8-16.7 27.1Zm-700 265.9c21 .7 54.2.8 69.8 20.1 14.7 18.3-1.3 43.5 2.3 64 2.2 12.6 10 25.3 14.7 37 4.4 10.8 7.3 22.3 12.3 32.9 7 14.9 26.6 18.3 40.2 21.7 9.7 2.4 28 8.1 40.4 6.6 3.4-.4 5-3.6 5.2-6.6 7.3-130.2-8.7-333-5.2-463.3 3-114.6 5.2-332.6 5.2-332.6l-13.2-119s-78.6 2.8-85 6.3c-52.6 29.4-45.9 67.3-42 112.7a895 895 0 0 1 0 115.8c-6.3 58.3-32.5 120.1-46 175.9a399.7 399.7 0 0 0-10 95.7c.4 83.6 5.2 149.5 11.3 232.7Zm1419.2-1359.3 11.6 7.3.5 29.4 8.7 3.3.5 53.2 291.9 9.7 1.6-328.3-312.6-3.2-2.2 228.6Z"/>
    <path d="m900.1 1933.4-17.9 74.3 7.2 1.2 42.6 3.3 2-22.8 10.5-11 139-2.4 15.7-12.2 41.1.7-2.3 16.9-9 4.7 1 17.8 8.6.5 49-.8 48.8-.6.6 36.4 61.3-2.2-4-61.4 147.2-8.6 24.5-42.6-12-222.8-61.9 4-51.6 91.3h-35l-181.2 13.1-78.6 33.3-63 31.6-30.2 7.8-43 19.7-9.4 30.8ZM47 978.5l181.3 12.7 124.6-30.8 96.2-58.6 2.3-87-133-3.3-6.2-29 .5-88.2-4.6-17.7-70.7 5.6-47.5-21-32.3-21-24.6-33-10.5-29.5L47 978.5Zm1432.3 962.9 10.7 10 11.8 7 28.3 11.2 225.3-10.3 26-2.9 24.6-6.1 19.4-9 21-17.2 28.3-40.1 9-23 2.8-26.6-.3-25.6-5.3-24.9-7.2-18.4-11.7-18.4-13-14.3-15.1-12.8-337.5 18-7.6 1-5.3 2.6-4.6 3.8-3.9 5.4-2.1 6-1 9 6.4 157 1 18.6ZM2498 2602.9l13.2 45.8 29.2 43.8 26.3 21.2 46.1 14 91.4 24-1.6-205.3-10-9.3-193 8.4-1.6 57.4Zm554.7 249.1 292.6-7-2.8-115.9-292.6 7.1 2.8 115.8ZM447.5 1944l66.8-3-.5-62.7-10.4.7-2.7-104.6 9.3-151.9 7.3-75.6-84.9 5.9 15.1 391.1Zm1232.3 561.4h35.4l12.5-32.7 25-53.3 23-33.3 11.6-31.7v-105.2h-72l-41.7 4.8h-21v63.6l21.4.3-.4 28.5h7.8l-1.6 159ZM321 1011.5v41.2l260.3 24.8-4.3-187.8-8.9-16-12.7-1.4L385 970.5l-64.1 41Zm2498 846.3 29.3 24.7 42.3-50.3-29.4-24.7-42.3 50.3Z"/>
  </g>
  <g id="building">
    <path id="CBIS" d="m1822.4 2435.8 8.8 2.3 1.2 5.9 3.6.6 4.8 3.1 1.8 5.2.9 4 6.6 2 7.5 3.1 4.6 1.8 9.9-2 8.1-.4 7.2 4.6 5 3.8 5.6-2.6 6-4h26.2l-1.7 43.7 269.6 4 11 .2-.4 14.6 36.7.4-2.9-249.4-35 .6-.3 21.4-15.2-.2.8-38.8-37.5-1 .7 13-30.5-1 2.1 129.7-259.5.9-.6-6.1-41.7 1.3-.8 6.4 7.5-1-10 33.9Z"/>
    <path id="EMPAC" d="m663.7 2618 28.2 1.5 244.4 12.8 4.5-86.5-12.7-.9 4.8-119.5-256.5-14.2-1 27.7-16.5 3.5-2.5 59.2 19.6 8.1-1.3 23-6.5-1.2-4.5 86.5Z"/>
    <path id="CII" fill-rule="nonzero" d="m1944 2015.2-1.7-50-168.1 2.1 1.8 20.5 38 18.2-.1 12.2 130.2-3Z"/>
    <path id="DCC" fill-rule="nonzero" d="m1813.9 2018.2-.2 16.3v9.1l2 1.7 4.7 3.8 4.7 70.4-10.1 1.5-4.9 3.1-6.3 6.2v6.3l2 5.8 5.3 5.8 7 .6 8.5.2 9.9 185.2 115.4-5.3-4.3-42.8 10.6-1-14.1-269.9-130.2 3Z"/>
    <path id="Armory" d="m2416 2389.1 27.4 1.6 103.6-1.2 117.6-1.4-.7-178.4-65.3-1-177.2 2 .3 62.2h-14.5l.2 60.5h8.4l.2 55.7Z"/>
    <path id="Union" d="m2389.1 1867.7 10.3.4 6.7.3.5 31.8 29.3-.2 17.6-.2.3 6 2 5.2 3.9 6.2 3.8 3.4 4 2.5 4.4 1.7h33.4l6-1 6.4-3.6 4.5-4.9 3.6-6 2-7.3-1.5-26.9h20l42.8 1-5-180-129.6-1.2-55.2-.6-1 25h-8.8l-.4 148.4Z"/>
    <path id="JEC" d="m1497.4 2219.8 112.4-6.6-1.7-28.7 77-4.5-2.4-40.2-6.3.3-.8-12.4 24.5-1.5-1.8-30.6-6.6.4-2.8-47.3 67.2-4-.1-2-2-33-283.9 16.7 1.4 24 .7 10.7 32-1.9.8 13.2-5.8.3 3.8 65.2 23.3-1.4.4 7.6-27.3 1.6 2.2 37.6-6.3.3 2.1 36.2Z"/>
    <path id="Robinson-Pool" d="m2348.7 2538.4 152.4-1.7-.1-15.7 180.2-2-.7-58-132.7 1.5-.9-73-103.5 1.2.2 13.2-16.7.2.2 20.3-15.6.2.2 14.5-64 .8 1 98.5Z"/>
    <path id="Low" d="m1958.2 2285 21.6-1.8 1.7 17.5 77.2-6 2.1 6.4 10.2-.2-8.5-263.4 13.6-.8-.8-8.1-.8-8.2-50.2 2.5-31.9-10.4-48.3 2.7 14 269.8Z"/>
    <path id="Cogswell" d="m1353.7 2714 137 6.7 3.5-53 91.6 3.3 5.2-88.6-230.9-13.5-4.6 100.9-1.8 44.1Z"/>
    <path id="Folsom" d="m990.4 2388.3 11.7-.6.9 16 105-6-1-17.1 13.6-.8-10.2-180.4-13.8.8-1-18.5-101.3 5.7 1.2 20.5-15.2.9 10.1 179.5Z"/>
    <path id="Sage" d="m1074.5 1781.7 120-4.5 111.7-4.3-6.5-95 34-2.4-3.7-49.5-67.6 2.7 1.8 50.6 10.8-1 .5 13.5-63.4 4-.3-11.7-50.6 2.7.2 11-92.6 5.2 5.8 78.7Z"/>
    <path id="Commons-Dining-Hall" d="M3103.9 2272.8h30.5l-.1 5.1-.9 51.2 101.8.6 1-53.4.1-7.6 30.1-.2-.1-31.6 13.7-.2 20-25.6-23.9-21.7-39.9.2-6.3-.2-.6-19-7-.1.1-6.7h-75l-12 4.9-.4 6.7-4 .1-4.7 2.1-2.8 4.5v5.5l-13.4-1-6.2 86.4Z"/>
    <path id="Empire-State" d="m1134.2 2649.6 173.4 9-.7 9.8 48.6 1.4 4.6-101v-9.6l-47.8-1.5.5 8.9-56.3-3.1-118.6-6.6-3.7 92.7Z"/>
    <path id="JROWL" d="m1502.7 2359.6 111.4 4.7 1.5 150.9 64 1 .2-10.8 1.6-159h-7.8l.1-13.2.2-15.3-21.4-.3-35.8-.6.2-14.8-19.1-.3.3-19.4-21.6-.4-.3 16.6-72-1.3-1.5 62.2Z"/>
    <path id="West" d="m680.7 1563.6 39.3-.2.1 44.8 77.7-.3v-32.2l71.6-.3-.2-53v-10.7l-43.4.2H798v-30.7l-79.4.3.1 44-38 .2v37.9Z"/>
    <path id="_-87-Gym" d="m1798.5 1655.1 66.9-4.4 16-1 3.3 51 80.4-5.4-.7-10.3-7.2-109.5-163.2 10.7 4.5 69Z"/>
    <path id="Academy" d="M2096 2750.7h74.4l.7 19.1-24 .3.2 53 69.6.3-1.1-28h-9.9l1.6-136h11.2l-.1-32-72.2 1 .6 54.9-52 1.4 1 66Z"/>
    <path id="Sage-Dining-Hall" d="M2049.5 1941.2h19.8l.7 44 5.1.5 69-2.8-.3-11.7h2.3l10.3-.1.2-27 13.1.2v-20.5l-.2-25.6-24.1-.6.1-38.4-6.8-3.5 10.6-22.6-13.7-6.3-33.4-5.5-12.1.3-14.8 3-11.5 3-14.4 5.9 13.4 24.5.8 41.4h-14.3l.2 41.8Z"/>
    <path id="VCC" d="m1170.2 2311 21.6-1.8 1.9 25 85-5 .4 8.2 71.7-2.8-2.2-16.8 14.2-7.8 8.2-13.5-2.7-16-7-9.5-13.5-5.4-1.8-18.2-73.5 4 2 9.2-86.7 4 1 24-19.7 1.3 1 21.2Z"/>
    <path id="MRC" d="m1025 2645.1 109.2 4.5 3.7-92.7-47.8-2-61.3-2.5-3.8 92.7Z"/>
    <path id="Walker" d="m915 1858.8 47.7 8 5.3-31.6 36.8 6.2 8.4-49.7 21.4 3.6 5.4-31.9-23.3-3.9 5.1-30.4-9.6-1.6-31.3-5.3-5.4 32.1-26.6-4.5-4.7 27.5-15-2.5-14.2 84Z"/>
    <path id="Ricketts" d="m1574.6 1664.7 86.5-5.8 87.2-6.2-3.9-55.8-173.6 12 3.8 55.8Z"/>
    <path id="Mueller" d="m2421.3 2210.8 177.3-2-.1-12.5 8-.2-.4-35.8-17 .2-.1-5.5-112.6 1.2-.2-12-17 .2.2 23-9.5.1v-3l-29 .4.4 45.9Z"/>
    <path id="Greene" d="m1298.3 2037.2 147-6.9-3.8-63-147.2 8.5 1.4 30.2 2.6 31.2Z"/>
    <path id="Amos-Eaton" d="m942.8 2055.2 5.8-.2 31.5-.6 105-3.4-.6-65.1-142.2 6.7.1 51.1.4 11.5Z"/>
    <path id="Pittsburgh" d="m711 1766.2 31.4-1.2-.6 7 41.7-1-.7-7 31.9.7-2.2-65-18.3.4-.8-12.8-27.7-3.7-35.4 5.4.5 13.5-20.1 1 .2 62.7Z"/>
    <path id="Troy" d="m1398.8 1662.7 61.1-3 63.6-3.6-3-54.9-31.3 1.7-.8-15.3-60.3 3.3 1 17.2-33 1.8 2.7 52.8Z"/>
    <path id="Carnegie" d="m806.4 2012.6 61.2 9.7 16.6-104.7-59.4-9.4-3.5 22.2-5-.8-4.6 28.5-4.5 28.2 3.3.5-4.1 25.8Z"/>
    <path id="Winslow" d="m521.5 1927.4 38.8.2.6-131-38.8-.2-.6 131Z"/>
    <path id="Lally" d="m1139.2 2047 97.8-1.4v-6.2l-.6-36.4-48.8.6-49 .8.6 42.6Z"/>
  </g>
  <g id="other">
    <path d="m2706.3 2393.8 32.7-.6-1.1-76.7-32.8.6 1.2 76.7Zm79.2-588.1 13.3 10.8-5.7 6.9 17.3 14 5 4.2 4.7-5.6 11.2 9.2 36.7-44.4 14.4 12 18-21.7-55.4-45.1-32.8 40.3-6.6-5.4-20.1 24.8Zm-112.9-337.9 18.8 35.4 18.4 33.6 29.8-16.2-7.2-13 30.8-17-15.3-28-30.5 16-15.1-26.2-29.7 15.4Zm124.6 106 38.1 1.4 1.5-39.3 6.6.3 1-23.3-51.9-2-1.2 30.9 7.1.3-1.2 31.7ZM1070.1 1680l138.8-8.2-3.3-67.5-18 .3.6 8.1-18.4 2v10.9l-10.7.3-1.3-41.8-47 2.5 2.3 33.2-46.5 1.7 3.5 58.5Zm133-100.4 19-1.3-2.6-37.6-19 1.2 2.6 37.7ZM1742.5 2849l20.3 1.2 2.4-42-11-.7-.7 11.4-9.2-.6-1.8 30.7Zm-646.2-1678.8 62.7-.9-1-75.6 128.7-1.8-2.1-151.8-73.3 1 1.3 93.6-60.1.9.2 16.2-58 .8 1.6 117.6Zm162.4 171.8 82.8-2.6-1.8-56.8-56.8 1.8-.8-26.1 55.5-1.7-1.7-54-80.8 2.4 1.8 56.5 11.6-.3.6 19.6-12.3.4 2 60.7Zm170-389.2 56.2 4 10.2-139.2-19.4-1.4.4-5.8-15.8-1.2-.4 5.4-21-1.5-10.2 139.7Zm-63.3 139 99.1.4.3-62.7-60.3-.3v-3.3l-38.9-.2-.2 66Zm252.3-44.1 98.8 2.1.7-31.6-98.8-2.1-.7 31.6Zm-274.5-203.2 42.7-.2-.2-42.2-42.7.3.2 42.1Zm42.8 1.5 29.2-.3-.3-56.4-29.2.2.3 56.4Z"/>
    <path d="m1094.6 1022 51.6.7.3-25.5-51.6-.7-.3 25.5Zm763.1-91.2 85.4-1.4-.7-41.4 50.2-.8-.5-31.9-18 .3.1 8.6-22 .4-.3-17.4-102 1.6.2 19.8 6.6-.1 1 62.3Zm-170.1 553.8 33.2-.3-.2-39.8 25.3-.2.2 39 26.9-.3-.2-36.3 24.2-.2.2 40.5 36.7-.2-.4-68.8-146.3 1 .4 65.6Zm-146.2 16.1 121.1-.1v-39.7l-121 .1v39.7Zm429 438 39.2-2.5-1-17-1.1-17.2-39.2 2.5 2.1 34.2ZM620 1317h12.6v-6h10v-8.3h88.5v-24.3h-20.8v-18.3h-14.8v7.4h-52.2v-2.8h16v-19H620v71.3Z"/>
    <path d="m656.7 1341.2 73.7-.3v-35h-13.2v17.5l-38 .1v-20.8h-16.6v23h-6l.1 15.4Zm92-65.4 10.5-.3.2 9 42.7-1-.7-30.2-44.5 1 .2 9-8.7.2.3 12.3ZM3053.4 2640l24.5-.8-.3-8.1h10l-.3-43.9h-8.3l-.3-14.6 3.1-.1-.9-62.2h-2v-6.8l30.9.7-.3-34H3057l.6 39.9-10.5.2.5 62.1 6.6.2-.8 67.4Zm244.8-12.4 10-1.4 1.9 8.6 21.3-.5-2-67 8.4.2-3.1-56.5-9-.2-.4-40.5-51.5.6.5 31.6 30.6 1.1 1.5 81.6-9.1-.8 1 43.2Zm-189.4 43.8 170-2.5-.5-31.3-170 2.5.5 31.3Z"/>
    <path id="Public-Safety" d="m2395.4 2030.4 8.7 10.8.1 12.6.2 15.4 11.2-7.4 88.3-.5v-15.6l-38.3-44.8H2424l-12.5 11.4-7-10.2-.5 19.8-2.4 3.3-6.2 5.2Z"/>
    <path d="m3056.5 1924.5 75-1.7 1.9 80.3 35.4-.8-1.3-56.9 37.9-.9 1.4 61.7 31.7-.7-1.9-82.8 72-1.6-.7-25.6-6 .1-.3-12.8-96.2 2.2.5 19.4-15.5.4-.2-8-7.7.1-8.6.2.1 6.4-10.2.2-.5-21.4-107.7 2.5.9 39.7Zm-147.9 579.7 32.8-.2-.4-92.5 119.5-.6-.1-21.6h-8.9l-.1-38.3-49 .3.1 24-94.5.4.6 128.5Zm317.7-423.3 45.5-.7-1.3-23.8 70.6-1.4.2 6.3 32.9-1-.4-122.4-12.4-.4-.5-8.7-19.6.4.5 93.4-121.5.8v20.7l4.3-.1 5-.2.4 15-4.3.2.6 21.9Zm88.7 102.7 10-.1.4 23.1 43.8-.6-.4-22.5 66.4-1 .1 9 36.3-.6-1.8-125-16 .2-.1-8.6-19.1.2 1.4 95.4-121.5 1.8.4 28.7Zm-317.9-121.8 94.7-1 .2 22.4 45.2-.5-.3-23 2-.1h8.5l-.3-33.5-119 1.3-.9-85.1v-7.9l-18.3.2v7.6l-13 .2 1.2 119.4Zm312.2 344.9 120.3-2 1.5 94.2 15.8-.2h3.1v-8.3l13-.2-1.8-119.9-30.4.5v4.7l-67.4 1.1-.4-24.3-45.5.7.6 35.6-9.1.2.3 17.9ZM2906 2190.3l144.5-1.8-.2-14.6h8.5l-.2-17.3-123.7 1.6-1.2-94.6-18 .2.1 11.1-11.3.1 1.4 115.3Zm-803.5-32.9 106.6-1.2-.9-84-106.6 1 .9 84.2ZM40 1174.8l85.1 2.7 2.8-86.4-85.2-2.7-2.7 86.4Zm98 150.5 84 1.2 1.3-87.5-84-1.2-1.2 87.5Zm191.5-59.5 22.7 1.6-5 76 50.1 3.3 6.6-99.7 30.6 2 1.5-22.9-30.5-2 6-90.5-52.6-3.5-6.1 93.2-20.4-1.4-3 44Z"/>
    <path d="m40 1174.8 85.1 2.7 2.8-86.4-85.2-2.7-2.7 86.4Zm1260 1621.4 17 .7-1.2 26.8 235.2 10.7 2.4-51.9 20.8 1 1.1-24 1.6-35.1-86.3-3.7-136.9-6.7-49.6-2.7-1.9 34.8-2.3 50Zm715-1100.6 40 6.3 6.3-38.7-4.1-1 8-39.2 145 .6v3l9.1-.3.8 133.8-3.2-.4-.4 23.2.5 18.2 2.7-.1 1.3 134.4-2.6-.1.4 37.4 38.4.1-.6-38.3-3.3-.1.1-133.5h3l.5-17.1-.4-23.7h-3.5l-1-133.9 3.6-.1v-39.2l-46.1.3v3.6l-171.3-2-11.4 66.5-3.5-.7-8.3 41Zm-1910.1 308 128.7-7.5-2.9-50.2-62 3.6-8.1-139.5 60.5-3.5-5.5-92.8-127.2 7.4 5.4 93.2 11.1 189.3Z"/>
  </g>
  <g id="thin-road">
    <path fill-rule="nonzero" d="m386.6 2397 39.5-101.6 10.3-53 2.7-56.3-18-187.5-.9-23.4 4.7-24.6-12.2-404.7-.2-7m2340.1 448.9-1.3 150.9 5 36.4 5.8 32.6 8 24.3 6.3 19.9 9.8 20.6 16 22.1 16.4 10.5 19 6 38 2.5 160.4-1.5-.9-65-190.5-2.7h-7L2770 2232"/>
    <path fill="none" fill-rule="nonzero" d="m2845 2108.9-.4 135.5M1806.2 1027l186.6-9M157.6 1559.7l60.7-2m87.6-202.7 17.5-298.2"/>
    <path fill-rule="nonzero" d="m218.3 1557.8 8.4-181.5-73.3 4.8-4.7.3 9 178.3m426.1-11.2-39.4 7.4-10.1 7.6-3.5 13.7 1 127.3 2 29.2 9.9 12 14.1 2.6 27.5.7"/>
    <path fill="none" fill-rule="nonzero" d="m1612.6 2599.8 104.9 8.5"/>
    <path fill-rule="nonzero" d="m1264 797.6-.5 102.5 46.8.3M1278 2704.5l-92.4-5.2-23.2 4-23.7 7.9m6.8-1933.8 4.2 1.3 3.4 4 3.4 126.4-1.3 8.2-.6 3.6-5.2 5.9-11.8.3h-10l-6.2-6-1.7-8.9-1.9-128.2 5.5-5.7 3.9-1.2 18.3.3m72 720.7-27.4 18.2-7.1 2.2-8.3.4-7.2-2.8-5.3-4.6-20.9-3.7-16.8.1-32.2 5.3-152.7 27.8-5.6-44.6-1.5-12.2 64-11.4 114.4-21.2 7.7 1.1 6 3.7 37.6 55.1m2291.4 730.4.9 65.9-128.4 2-1-66 128.5-2 54-2 32-1.1m-836.7-64-12.2 13.2-9.5 17-.8 115m802.6 305.2-52.2.6-5.6 3.3-2.3 4.8.2 22.3.4 28 2.8 4.5 5.7 2.3h50.3l5.3-2.3 3.5-6.3.1-25.6-.3-25-2.4-4-5.5-2.6m-780.1-450.4 11.4 13 9.7 15.6 9.3 49 5.3 15 5.1 12.3 12.3 23.5 5.3 19.7 3 17.6 2.5 55.2v8l.1 29.9 1.7 243.4.6 5.2 3.5 5.8 5.2 3 38.2.2 4.5-2.7 2.7-5.5v-7.8l-2.9-152.7M1805 872.2l-87.4.6-75 .4 1.6 58 162-2.3m783.7 962.6 78.5-.3 1.6 41.5m-1135.5 776.2 88.6 3.8 35.7 1.3 53.5 2M2938 2608.7l43.4-1.4 6.2-3.2 2.2-6.1-.2-36.1-2.3-6.5-6.9-2.9-34 .7-6.4 4.2-2.4 6.8.4 44.5-.6 63.5.4 7.5 2.5 8.9 5.2 8.3 5.8 4.7 6.4 4 39.2 2 80.2-1h160.8l7.4-1 24-8.2 6.2-1.7 8.7-1 32.9-.6-.3-36m-1323.1 32.1-51.8-1.3-43.6-1-9.1 8.6v123l8.6 8.5 43 1.6 43.6 1.6 8.8-9 .5-132 42.7 1.1 10.6 9.6.9 111.7.1 18 .3 35.8.2 20.7"/>
    <path fill="none" fill-rule="nonzero" d="m1623.1 2712.7-2.6 48.7"/>
    <path fill-rule="nonzero" d="m2271.7 2844.4-1.6-101 5.8-24.6 42.5-16.8m448.4-298.4 46.7 86.8 6.9 32M178 1185.3l63.9 3.3 11.1-137.7m-62.9-23.2-.6 8-11.6 149.6"/>
    <path fill="none" fill-rule="nonzero" d="m110.8 1697.5 132-6.8M48 1699l-65.7 1.3M48 1699l62.8-1.5"/>
    <path fill-rule="nonzero" d="m105.7 1629-58.2 3.3.5 66.8"/>
    <path fill-rule="nonzero" d="m242.9 1690.7-3.8-67.2-133.4 5.5m137.2 61.7 12.4 327.5-20.3 14-158.9 4.4-9.2-7.7-3.8-10-12.4-227.2-2.7-92.6"/>
    <path fill="none" fill-rule="nonzero" d="m1941.9 2689-1.1 140.6"/>
    <path fill-rule="nonzero" d="m2048 2830.6 45 .3 9.3-7.7-.3-49"/>
    <path fill="none" fill-rule="nonzero" d="m996.5 1472.8-9.9-49.6m-54.1 61-6.2-48.4"/>
    <path fill-rule="nonzero" d="m1370.7 1374.8 2.7-56 1.3-27.2 142.6-2.6 139-5.2 159-7.3V1221l-162 9.9-138 2.9-140 3 1.8-37 4.5-8.2 10.6-6 119.9-3.6 5-.2 134.2-4.5 160.5-9.2-1.6-22.3-2.7-26.2-72.2 3.8-86.2 2.5-66.6 1.9-56.3 20.2-9 33.8"/>
    <path fill="none" fill-rule="nonzero" d="m1374.7 1291.6.7-54.8"/>
    <path fill-rule="nonzero" d="m1373.4 1318.8 21-.2.4 28.5.5 53.3 127.4-3.5 139.7-3.5 156.3-4-2.8-59.6-156.5 7.2-139 5.5-125.6 4.6"/>
    <path fill="none" fill-rule="nonzero" d="m1816 1329.8-.6-53.3M665.7 2684.3l-4.3 76.7m166.3-1655-.4 136"/>
    <path fill-rule="nonzero" d="M2539.8 2099.1v-60.7m.1 0-19.2.6v35.4l.2 24.6"/>
    <path fill="none" fill-rule="nonzero" d="m2539.9 2038.4 174.6-1"/>
    <path fill-rule="nonzero" d="m591.2 2524.9 17.2-5.6 20.6-30.8 12.4-68.9-1.9-52.4-6.7-36.6-9-23-17.7-20.3-16.8-9.6M2479 2099.3l41.9-.2h18.9l154.2-.7m-8.3-686.7 106.2 59.7 15.8 8.7 69 19.7m-1.4 175.7 20.3-15 13.7-7.8 14-.4 33.6 21.6 14.1-1.1 77.3-103-25.2-22.6-32.4 17.4-7.9 15.4-36.7 23.9-24.3-.8-26.4-8M752.6 1478l-1.6-31.7 14-18.4 45-8M1658.8 2714l1.6-32.8-1.7-9.3-7.8-4.5-45.9-2.5M412.5 1539l134.6-9.3 36.6-2.8"/>
    <path fill="none" fill-rule="nonzero" d="M2403.2 2306h-110.7"/>
    <path fill-rule="nonzero" d="m2680.4 2320-3.3 109H2566m111.2 0 24.5.4 65.2 4"/>
    <path fill="none" fill-rule="nonzero" d="m2701.7 2429.4 1 50.8"/>
    <path fill-rule="nonzero" d="m2694 2098.4 1.1 35.7 7.8 40.6 53.5.4m197.6-441.8-28 31.8-5 7.6-.4 9.5 7.6 12.4 23.2 23.6m454.8 105.2 35-.1 12.9.8 5.6 8.2.6 27.3 1.8 62.8-.7 5.5-5.1 3.5-10.1.3-37-.4M3239 2180.7l46 .9 22.2 26 2.7 23.8 15.2 12.4"/>
    <path fill="none" fill-rule="nonzero" d="m2541.3 1875.1-.2 57.3"/>
    <path fill-rule="nonzero" d="m2191.8 1647.8.3 19 .7 116.2 2.4 141.2.8 51 15 17 25.6.1 54.6.4m1118.1 38.6-3-108-.2-7.5 4.1-48.4 4-9.2 7-16.4m-1020.4 322.9-.4-16.6-.2-23.7 2.7-9.5 5.6-8.2 7.9-5.9 10-2h33.2l19.5.5M2093 2072l1.3 130.1.5 178.6-289.2-4.5-15 1.8-11.7 4.5-7 7.5-8.7 11.3-18.8 29.2-7.8 17.1-8.6 18.7-5.4 23.3-3 25.3-.5 37.8-.6 40-1 15.6-4.4 89.7-.8 18-2.2 49.3-5.4 110.3m1786.5-218.8 19.7-.2 30.2-.1m-1247.9-216.1 28.7-7.8 38.4-15.2 17.6-7.2 11.7-6 10.7-8.8 2.7-11.8.2-51-.6-57-1.8-110.9-109.3-1.4M2436 1900l.4 5 4.2 9.6 7.2 9 9.7 6 13.8 2 23.8.9h46l128.8.2 55.6-1 22.4-1.6m50.9 918.4 56-14.7 78.8-22.3 33.4-14.7 15.8-16.4 6.4-21.4 7.7-51.4M587.7 2059.2l21-3.3 9.2-7 5.8-12.8 9.2-21.4 8-22.7 9-24 3.9-10.2 11.7-28.3 14.3-32.8 9-16.5 10.9-16.6 22-28.6 7.2-7.4 9-7.3 8.7-5.1 5.7-3 7.4-2 5.5-.5 6.2.4 7.4 2.1 3.6 4.9 2.3 6.7-2.7 14.6-3.3 14.2-6.5 22.6-6.6 26-8 37.4-5.7 34 .2 11.7 1.6 11.8 5.6 15.9 8.8 15 12.2 10.7 13.6 8.3 12.7 4 12.6 1.6 13.8-.8 16.1-4 14.1-7.4 8.4-7.1 6.4-10.8 4.2-13.8 11-49.6 7.3-32 8-19 5.6-8.5m165.9-73.8 17.5-7 15.8-4.8 18.3-4 17.6-1.5 45.3-3.7 147.7-12 14.1-22.3"/>
    <path fill-rule="nonzero" d="m914.1 1898.6 7-7.1 7.3-3.3 11.4-3.5 13.8-2.7 23.6-5 59.8-28.8 8-4.3 35-19.1m912.8-806.8 29.6-11.6 19-7.4m-66.8 2491.3-10-15.3-1.2-308-4.2-281.9m15.4 605.2 113.2 4.6 246.1 5.4M288.7 2104.7l8.7-10.6 11.2-5 21.5-.8 11.2 4.6 10.2 9.2 5 12.6 14 242.4 16 40"/>
    <path fill-rule="nonzero" d="m227.9 2428.2 35.7-3.4 14.8-4.2 11.3-7.3 4.2-12.8-1.8-137.2-3.5-118.7.1-39.9m85.6 858.8 15.3-39.7-5.9-40 1-102-.3-3.8-.1-40-6.6-263 8.9-78m1377.1-856.2 4.8 89.8 1.9 36.9-2.4 21-109 2.5-132.2 8.7-66.7 2.5-65.1 3.5-11.4 4.6-27.3 59.2"/>
    <path fill="none" fill-rule="nonzero" d="m1670.4 2185.9 4.3 66.6"/>
    <path fill-rule="nonzero" d="m810.8 1491.4-.1-13.8-.6-57.7 6.6-11 28.8-26.1 23.8-11.3 19.8-4.2 53-10 119.1-46"/>
    <path fill="none" fill-rule="nonzero" d="m1632.8 2256.5-.2 51.4"/>
    <path fill-rule="nonzero" d="m1786.9 2246.5-66 2-3.4-42.8.9-14.1 7-10 9.3-4.8 26.2-2.5 13 2.6 6 5.3 4 6.2 3 58.1 2.8 46.8-1.8 53-3.4 15-5.6 21.2m-68.8 382.8-89.6-3.9-45.2-2m1018.6-981.2 74.6-.5 23.7-7.2m-1479.7-90 42.6-2.3-.2-51.7 15.3-10 66-4.4 9.6 3.7 6.7 7 7 41 8.3 15.8 15.8 30.7m-399.9 812.9 7 1.6h7.3l7.1-1.4 6.7-2.8 6-4 5-5.3 4-6 4.1-12.6-2.5-15.7-3-6.5-4.5-5.8-5.4-4.8-6.3-3.6-7-2.2-7.2-.8-8 .4-8.7 3-8.5 6-5.3 7.2-3.3 6.5-1.8 7-.5 7.2 1 7.2 2.5 6.8 3.8 6.2 5 5.3 5.8 4.2 6.7 3m784.3-834.8 16.5 1.8 11 2.5 12.9 5.9 9.2 5.5 9 5.4 18.4 14.9 13.6 15.5 7 9.6 7.2 11 6.6 12.9 4.5 12.4 3.5 19 1.9 19-1.6 23.5-4.6 18-4.4 11.3-4.8 9.5-12.7 23.8-16.8 18.8-17.7 14.2-19.2 7.9-20.1 5.4-28.5 2.8-78 4.3-151.8 6.1-14.2-2.4-29-13-8.8-7-4.9-10.1v-10.1M1342 1427.4l11.6-11.6 9-11.2 5.7-12.2 2.4-17.6-98.3-.1m-133.7 1336.5 13.7 12 13.3 8.5 16.4 5.2 120.1 9.2m418.6-497.6-12.8.5-33.3 3.5-32.5 3.6-9.4.4-130.4 1.3m305.1-1138.3-3.2-50.2 1.8-42.2M1121 1978l66.3-3.2 38.3-4.1 31-5.6m1264.1-418.9.4 27.2 1 59.8-1.8 14.6-10 16.5-7.7 1.1-16.4 1.7-13.8-2.2-13.2-6.6M669 2625.7l-3.3 58.6-73.3-1.7"/>
    <path fill-rule="nonzero" d="m2452 1532.2.5 29.8 1 66.9 1.9 15.3 3.8 14.1m1422.1-832.5-3.8-48.2-1.3-124.3-.5-12.5-2.6-10.3-4.5-8.6-7.1-7.1-7.1-2.8-8.1-1.4h-8.3l-3 .9-4.3 1.2-7.7 4.7-7.9 6-9 10.2-22.5 32.6-27.9 38.8M1402.6 1955.2l-42.5 2.5-103.5 7.4m-271.8 108.5 20.4 55 3.3 10.4-1.8 12-5.6 8.8-8.2 8.6-5.7 8-4.7 8-3.5 9.2-2.3 13.5-2 26.6-1.8 32.8.3 45.7 2 49.4 3.9 23.9 3.3 18.3-1 17.7v11.2"/>
    <path fill-rule="nonzero" d="m1071 2145.8-18.3.6-24.4 1.3-12.2 1.3-9.4 2m-34.1 391.3-2.1 17.4-.4 21.3 2.4 21.3 5 24.3 13 29 9 16.6 16.2 18.6 38.9 30.4 32.8 20.1 132.3 87.4 8.2 19.2m560-501.6 15.4-2 105.2-2.4m-651.9-376.8 10-25.2 20-40.6 38.3-70.6 17.3-36.9m-209.8-208.3 1.6-6.3 4.2-5 51.9-56-13 73 2 20.8"/>
    <path fill="none" fill-rule="nonzero" d="m1811.8 1168 3.4 52.9m-609.8-86.6-.6-20m0-.1 105.3-2"/>
    <path fill-rule="nonzero" d="M1310.3 900.4h43.8l15-11.3 38.6.6"/>
    <path fill="none" fill-rule="nonzero" d="m1145.5 777.4.1-41.6M1354 900.5l1.6 113.7M2654 1393l31.7 18.7m191.1 88.1 58.7 54.2"/>
    <path fill-rule="nonzero" d="m2219.6 2894.3 1 109 3.1 172.6-11 112m-783.8-2274.1 1.3-28.6-5-5.8-12.2-2.5-8.2-3.8-3.2-5.5-1.1-6.3.5-34.9m-158.5 410.2 2.8-16-2.5-89.6m1711.9-36-14 55.8-11.5 56.8 3.2 31.6 23.6 29.4 38.9 24 73.4 38.2M1138.7 2711.2l-20.3 1.4-14.3 6.9-16.7 21.8"/>
    <path fill="none" fill-rule="nonzero" d="m977 2520.3-4.4 22m8.9-109.6 5.5 21"/>
    <path fill-rule="nonzero" d="m1966.7 3640.9.3 283.5 104.6 177.9 12 5.9 64.6 47.3"/>
    <path fill="none" fill-rule="nonzero" d="m2220.2 4059.2-6-423.8"/>
  </g>
  <g id="thick-road">
    <path fill-rule="nonzero" d="m1509.3 899.6-1.5 93.3-42.4 20.7-36.5.2-73.3.4-44.4.1"/>
    <path fill="none" fill-rule="nonzero" d="m1511.8 755.1-1.7 47.1"/>
    <path fill-rule="nonzero" d="m1510.1 802.2-.7 87.8-.1 9.6"/>
    <path fill="none" fill-rule="nonzero" d="m132.6 1560.5 25-.8"/>
    <path fill-rule="nonzero" d="m3488.4 3736.8 50 2.2 137.8 9.8 23.7-11.3 5.1-8.8 8.5-43 10-9.2 55.6-9.8 90-28.9 340.6-122.3 77.6-25.7m-1705.5 259.4 123.2 3.3 265.4 7 511 21.7"/>
    <path fill="none" fill-rule="nonzero" d="m320 1008.8 3.4 48"/>
    <path fill-rule="nonzero" d="m2086.8 3283.4 125.9 4.4 127.4 4.6m220.7 343.8-15.3-3.4-123.8-1.2-81 .8m1186.3-2544-29.8 10.7-10.1 3.7-139.8 86-63.2 35.8-79 33.2-33.7 20.5-35.6 29.4-29.6 35.2-23.7 47.9-14.2 40-5.3 14.8-23.6 34.7-25.7 22.4-56 33.7-22.2 17.6-21.2 19-18.9 22.1-49.9 62.3M2590 4128.1l176.8-50 238.1-67 40.8-6.2 322 9.7m134.1-675.4-13.4 397.6-7 44.4 9 157.6M2772.2 317.6l-247.6 7-222.2 1.7-21.5.7-22.3.4-216.7 1.1-244.4-.2-249 .2-242.7 6-242.1 1.9m1756.6 677.5 33.2 21.4 18 23.8 34.8 59.5 45.4 73.5 3 2.8 151.5 148M2323.6 2718l52-5 41.4 4 93.7 20.9 74.9 17.6 59 18.1 154.2 75 37 17.9 59.4 37 96.8 85.3 48.3 50.5 27.5 36.4 38.2 69.5 17.8 70 1.3 33-3.3 77.2M2569.4 1570l23.2 34 22.9 34 1.4 2.1 19.3 31.7 28.5 35.5M593.4 2817.7l28 1.3 315.2 13.5 47.4 2.6 175 9.5 69 3.3 95.6 4.5 14.1.6 367 22.6 124.2 6.6 23.6.5 106.7 2.4 89.3 2 42.5 2 128.6 5.2 110.3 4.5 24.5 1.1M227.9 2428.2l-8 277.7-3.3 118.8-15.3 48.5-18.4 25.1m1648.1 268-128.1 6.6-16.1-2.1-15-8.7-14.8-18.9-23-34.3-11.3-9.8-37.1-27.8-85-28.1-133.6-45.9-20.3-2.3-18.1 3.9-8 3.4m1153-1467.5 21.8-18 95.2-53.4 63.5-70.3 21.4-26.7 35.6-57.3 26-48.9 67.4-190.2 15.8-56.1 14.2-62.2L2857 742v-12.5M2569.4 1570l-7.5-31 12-46 16.7-29.6"/>
    <path fill-rule="nonzero" d="m1551.5 657.3-3-328.8-1.3-370M1835 3643.7l3.7 122 2.7 90-31.2 30.8-19.4 11.5m15.3-2871-.2-65.6.3-32.5-1.3-56.7-2.9-84.7-.9-26.5-3.6-432.7-5.4-373.8m219.1 4272.2 63-100.5 9.3-18 5-9.9 3.8-38.7m-50.9-2994.9v-309l.5-427.2L2034-49"/>
    <path fill="none" fill-rule="nonzero" d="m2524.6 324.7.1-380.2"/>
    <path fill-rule="nonzero" d="M3261.7 716.4v259.5l.4 46.6.4 50.2 3.4 60.5 6.4 46.9 11.8 44.5m-511.9-907 1-20-1.1-40.5-.8-30.3-1.1-43-2.5-99.4-3.8-147.4M1060 1013.4l2.7-281.3 1-395.7-12.4-374m1041 4097.3 128-.5 115.6-.3m224.9-422.7 13.4 8.3 6.3 11.6 3.9 18.1-2.5 75-9 341.3 17 37.6 3 37.6M1492.1 1534l-3.6-35.7-3.3-9.7-8.3-8.7-16.8-9-67.4-22-27.8-8.4-22.9-13.1-29.2-18.3-29.6-25.4-10.8-9-17.8-19.5-12.1-18.6-5.1-7.8-33-75.2-10.1-37-1.4-16.8 3.5-19.8 8.9-13.6 14.6-10.3 18.8-6.2 19.7-4.6 16.4-6.3 14.2-8.3 18-12.3 3.1-6.2m10.5 1890.1-7.8 3.4-10.3 7.1-12.2 16.4-13.7 80m34.2-2506.7-8.1-73.4.3-17.8 2.8-176.9-10.7-374M-24.4 1567.5l29.1-1.4 128-5.6m-1682.2 972.8 157.4-7 157.9-7 81.2-3.7 73.3-3.3 161-7.2 41.6-1.9 118-5.3 36.2-1.6 106.3-4.8 162.7-7.2 150.7-6.8 114.3-5.1 38.2-1.7 88.5-4 67-3 92-4 117.8-5.3"/>
    <path fill="none" fill-rule="nonzero" d="m1063.7 336.4-244.4 6.7"/>
    <path fill-rule="nonzero" d="m2340.6 3632.4-126.4 3-127.5 3-120 2.5-131.7 2.8m829.7-1936.4-6-29.6-1.2-21.5 2-17 1.7-8.8 4-25.4m-.5 102.3 27.5 63.2 14.8 38 19 51.2 21.9 70.4 1.4 15.8 3.3 41.9m1518-1133.5-24.4-8.7-30.8-8.8-20.6-2.4-18.7-.3-238.7-.3-21.5-2.4-34.6-5.6-32.4-17.8-3.6-2.7-14.6-11.2-15.1-12-13.5-14.5-11-16.7-14.4-28.1-8.5-8.3-12.5-9.5-20.1-5.2-20-1.6-19 1-169.4 8.2M1835 3643.7l-4-477.4-2.1-284.1"/>
    <path fill-rule="nonzero" d="m2092.3 4059.7-5.6-287.5v-133.8l1.1-143.5-1-211.5-3.1-113.3 7.3-281m-260 277.2 132.4.8 120.3 3"/>
    <path fill="none" fill-rule="nonzero" d="m819.3 343.1-249.1 2.4"/>
    <path fill-rule="nonzero" d="m812.5-40.9 6.8 384 3.8 385.1 4.6 377.9M1310.2 920l.1-19.6 2.1-156.2m-2.3 368 1.1-97.9-.7-10.2-.2-68V920m2235.1 2420.4v-26.5l-.8-158.3-1.4-250-2.1-249.1-1.4-108.6v-110.3l-.1-160.8v-38.1l-.1-173.6v-18.2l-3.3-171-.9-63-.4-32.3-1.6-131.3-3-220-1-75.3-2.1-213.5-.2-52.1-1.5-30.6-.6-56.5v-40.4l2.3-253.5m-494 3448.1L3005 4011l-13-78-19.3-141.5-2.3-32.1-1.2-28.5-26.2-187.3 5.7-225.2"/>
    <path fill-rule="nonzero" d="m2281.5 751.7-23 .4-217 3.6L1801 761l-247-3.6-7.7-.4-34.6-1.9-199.4-10.9-113.3-5.7-53.5-2.7-82.9-3.7-148.1-9.4-44.8.8-46.7 4.7-41.5 11.7-49.9 23.9-154.2 94.7m338 302.3 96.3 98 49.5 52.5 69 71.4 20.9 25.4 47.5 71.6 19 18.4 15.3 9 23 7.3 129 10 107.2 9.7 28.4 4.3 158.2 1.7 85 .7 192.7-2.4 291.5-1.3 38.1.8m54.1 1754.5 15-324.6-.7-67.9-3.2-39-1.5-27.3-6.6-45.4-11-45.4-8.5-24.8-5.2-16-9-31.5-10-43.9-4.2-54.4-2-131.8-.5-109.6-.2-24.8v-27l-1-115.7-.3-170.6-1-208.7-1.3-68.3-2.9-137.6V1538M159.3 1029l30.2 6.8 63.5 15.1 28.6 1.2 41.8 4.7 256.8 20.4m0 0 197 17.8 50.5 11 19.7 11.1 33.4 18 34.6 25.7"/>
    <path fill="none" fill-rule="nonzero" d="m2281.5 751.7 1245.7-44.3"/>
    <path fill-rule="nonzero" d="m3545.4 3340.4 59.6 1 33-3.3 50.6-13.2 479.9-159.6 118.8-38.3M2281.5 751.7V716l-.6-374.2V306l-2.4-338 .2-21.5-.2-21m352.9 1671.9 33.7 7.6 121.3 29.1 59.1 23.3 29.8 18.1 78.7 57.9 72 55.8 32.5 17 23 7.2 35.8 6.4 53.8 2.1 32.9-.5 61-1 59.3-1 62.4 12.2 34.6 10.3 114.9 34M594.9 3005.3l-.5-58.9-1-128.7-1-135.1-1.2-157.7-1.9-247.2-1.6-218.5-.5-69.7-.3-37.8-1.3-171.8-.3-31-1.5-200.4-.1-21.6-3.5-449.7m-2.6-218.7-106 66.3-90.6 52.4-61 31.6-44 11.5-19.7 3-13.8 2.1-52.4 2.3-30.8 1.3m418.3-170.5-7.4-513-9.6-389.7"/>
    <path fill="none" fill-rule="nonzero" d="m580.2 1077.2-2.6-218.7"/>
    <path fill-rule="nonzero" d="m2286 1538 41.5-1.3 124.5-4.5 21.6 2.6 47 11.4 48.8 23.8 62 27.4M2286 1538v-41.1l-4.3-716.5-.2-28.7m58.6 2540.7 176.7 9.5 432 16.6 173 7"/>
    <path fill-rule="nonzero" d="m2316.3 4180 11.2-68.6 8.4-52.5 2.2-53.4 2.3-56 4.8-275.6-4.6-41.5-6.7-132.1 6.2-208M3527.2 707.4l-6.1-419.5-2.3-138.4-.1-8.6-2-105 .9-101.9M1 1004.5l28 4.3 130.3 20.2m2962.5 2296.4 380 13.8 43.7 1.2M308.3-43.4l-119 264-42.5 106-14.7 45.9-18.3 72.8-12.5 58.9-19 89.8-13.6 67.5-35 172.7-22.5 117.4L1 1004.5m54.7 2251-.6-26.5-5.1-118-9.2-210.4-1.2-26.8-1.5-25-9.7-164.8-4-70.3-10.4-176-7-204.3-7.3-142.9-1-15.8.4-55-.7-18.6m920 1030.6 205 46.4 153.2 31.1 67.7 17.8 83.6 26.4 40.4 27.6 24.6 27.6 22.5 30.9 12 29.2 55.2 184.8 37 100.1 42.2 96 46 102.1 11.4 21.2 46.2 80.8 25.4 44.3 6.8 12 7.5 12.6 11 18.4 115.6 197.1m-1876-882.6 89.8-8.7 39.9-8.1 32.5-10 29.5-12.6 30.5-13.6 28.2-18.4 39.6-29.1 45.3-36.8 33.5-25 39.8-24.6 60.8-27.2 69.8-36"/>
    <path fill-rule="nonzero" d="m594.9 3005.3-66.7-19.9-51.5-3.9-39.4-6.2-63-11.8-191.4-65.2-20.2-7.3-12.6-4.6-45-6.7-37.5-5-6.6-.2-21.5-.6-26.9 1.5-30.3 4.3m612.6 125.6 42.8-2.6 127 6.2 92.3 11.3 61.4 11.5"/>
  </g>
  <g id="bridge">
    <path fill="none" fill-rule="nonzero" d="m2347.3 2044.4-102.7 1m-776.2 6.9-16.6 1.2m-582.6-531 31.5.4m662.9-632.2-66.7-.9m301.1 1151 18.7-1.2m-136.7-13 8.7-.6m69 21-.7-10.4m59.7 3 258.6-11"/>
    <path fill-rule="nonzero" d="m1471.5 2050.5 20.7-13.4L1673 2027l7-.3m-7.1.2 4.2-7.8 48-3.3 6 7.9"/>
    <path fill-rule="nonzero" d="m1688.7 2026 42.3-2.3 25 19"/>
    <path fill="none" fill-rule="nonzero" d="m2256.8 1783.8-40.3-.9"/>
  </g>
  <g id="stair">
    <path fill="none" fill-rule="nonzero" d="m2396 1719.3.3 5M1680 2026.6l8.7-.6m69 21-.7-10.4m59.7 3 258.6-11"/>
    <path fill-rule="nonzero" d="m1471.5 2050.5 20.7-13.4L1673 2027l7-.3m-7.1.2 4.7-8 47.4-3.1 6 7.9"/>
    <path fill-rule="nonzero" d="m1688.7 2026 42.3-2.3 25 19"/>
    <path fill="none" fill-rule="nonzero" d="m2256.8 1783.8-40.3-.9m893.2 495.7 24.6-.7m-1844 751.3 33.3-176.8m-902.5-853.8-138.3 7.9"/>
    <path fill-rule="nonzero" d="M563.3 1990.7h-21l-1.2-19.2-120.9 3.7m120.9-3.7V1952l19.6-.1m58.5-173 47.9-4.2 8 13 15.2-.5 35.6-1"/>
    <path fill="none" fill-rule="nonzero" d="m2869.2 2043.7-100-52m-1341-208.2 10.1-.7m-29.8 1.8 5.7-.3m-24.4 1.2 8.5-.2m61.7-101.2-.4-6.2m0-6.2-.2-4.8m519.6-6.3-14.2 1m16.8 27.2-1.2-14m180.2 108.5 32.2-.3m176.5-36.5.7-25.9m-21.5 64h-24m267.1-112.5 14.7-6.9m-596 230.4 1 15.9m29.7 44.5-19 .8m175.7 66.1 31.2-2.5m-16.6-4.4-14.6 6.9m-149.7-12.3-.4-9.5m182.6 117.5 25.4.4m-106.6-97.3-.6-11m-1010.4 425-6.6 6.2m64.3-101.4 17.2-2m-265.3 81-7.4-1m-4.7-.4-9-.5m-11.2-.5-9.5-.7m-5.8-.2-8.7-.4m-11.3-.6-10-.7m-4.6-.2-8.3-.5m128.3-498.5-6.8-31.7m83.3-124.9.4-7.9m-18.3-47.1-15.8 6.8m40.7-28.9-1.6-17"/>
    <path fill-rule="nonzero" d="m1100.2 1556.9-12.5 54.5-27.8 2.3M830.2 2687.6l.9-5.7 1.2-5 1.8-4.4 2.3-4 3.1-4.6 3.8-3.5 5-3.5 1.8-1"/>
    <path fill="none" fill-rule="nonzero" d="m754.6 2645.5-9.7.5m25.4 3.5-10-3.2M887.9 1876l13 10.8m-34.9-29.1 14 11.4m-38-32.2 15.6 13.2m-33.6-27.2 15.6 12m-35.6-31.4 4.7 6.3M1952.3 1705l-53.4 4.2m1142 238-13.7-4.9m-2087.9 76.2-57.1-10.8"/>
    <path fill-rule="nonzero" d="m651.7 1543.4-.4 34.2 26-1.3m-.8-58.5-24.6 1.9-.2 23.7-67.9 5"/>
    <path fill="none" fill-rule="nonzero" d="m805.9 1949.7 2-12.2"/>
    <path fill-rule="nonzero" d="m1525.7 700-.6 10.1 21.5 1 22.2 1.3.8-13.5"/>
    <path fill="none" fill-rule="nonzero" d="m851.8 1477.9-28.8-.2m45.6 107.5 13.3-.2m19.9-87-28.2 1.5m844.7-710.6-.3 12.3m-406.7 969.6-1.5-19.5m672.8-48.8 2.1 18.5m411-9 .4 7.3"/>
    <path fill-rule="nonzero" d="m1482.5 2024.3 22.5-1.3-.5-7.4-18.6 1.2"/>
    <path fill="none" fill-rule="nonzero" d="m2041.9 1978.3-.5-11m1194.7 309 16.8-.3m-1054.6 260.9v8.3M1326 2358l-.2-9.3m-107.4 43.5-6.7 2.8m553-341.8 21.4-1.6m-688.3-193-12.9-25.6"/>
  </g>
  <g id="walkway">
    <path fill-rule="nonzero" d="m2414.1 1864-.5-125v-32.7l158-.7.7 157.7-158.2.6"/>
    <path fill="none" fill-rule="nonzero" d="m2396.3 1724.4 13.1 10.4"/>
    <path fill-rule="nonzero" d="m1764 2042.2 25.3-1 8.6-.4M1620 892l-10.3-.7-46.1-.6"/>
    <path fill="none" fill-rule="nonzero" d="m2399.4 1868.1 10.5-8.4M1798 2040.8l18.7-1.2M1563.6 890.7l-66.7-.9m-627.7 632.7 31.5.4m1446.6 521.5-102.7 1m-776.2 6.9-16.6 1.2m-384.5-388.9-26.7 1.3"/>
    <path fill-rule="nonzero" d="m988 1673.8 14.1-14.7 4-.6 4.2-1.6 3.2-2.4 2.3-2.7 6.4 1.7 6.3.6 6.1-.6 12.5-3.6m-31.3 1.9 1.6-4.6-.4-5-2.8-5.9-4.6-5.4-4.1-3-11.2-2.6-12.2 1.4-5.6 6.7-9.4 17.3"/>
    <path fill-rule="nonzero" d="m1002.1 1659-4.9-.4-5.5-2.3-24.5-5.6m843-505 18.9-1 126.2-66.6 26.5-26.8 11-33.3M1303 511.3l-43.5 19.4-14.7 65 2.4 31.4-.7 21.8-2.3 16.4-8.3 6.2-7.6-3.7-9.4-12.5-3-15.8-3-5.2-7.3 1.6-3.2 9.9-3.3 92.7m1239.4 1335.8 5.8-7.1 64.3-.2-.5-42.5-34.5-33.2"/>
    <path fill-rule="nonzero" d="m2769.2 1991.6-7.5-3.2-9.1-.6-14.4-.3-19.8-2-107 8.5-64.9.3-73-3m-2190.7 15.2-8 4.3-2.5 6 .6 30.4-.8 7.2-7 7.8-10 2.9-256.5 9.7M1045 1844l-4.8-11.6-.4-8 7.4-23.7 14.7-42"/>
    <path fill="none" fill-rule="nonzero" d="m587.2 1989.5-23.9 1.2"/>
    <path fill-rule="nonzero" d="m239.1 1623.5 16-50.4 10.4-21 147.2-6.2 133.8-6 .6-10.2m13.6 422.2 26.2-.2 23.3-.2 8.3 18m2563.7-3.7.5 49.2-2.7 93.4 26 1 17 2.9 38.4 6.4 15.8.7 11.7-2.5 105-31.8 21-24.4-5.6-29.4m-1697.8 381.1-6.4 23.8-13.9 62.9-1.2 19.8-.9 31.3 30 2.5m428.3-660.9V1876l.2-17.7-4-3.2 10.7-22.1-8.3-5.2-22.8-7.2-24.3-2.9-10.6.2-19.4 4.9-23.8 9.8 7 16.8 2.3 5.6 4.3 23.6.5 15.7-19.8 1.2-29 .2-6-60.1-1.8-19-19.1-46.6 25.4-12.8m-45.6-53.6 11.2-1 8.1-.1"/>
    <path fill="none" fill-rule="nonzero" d="m1357.3 1787.1 32.5-1.6"/>
    <path fill-rule="nonzero" d="m3077.1 2706.7-1.3-48.7 25.2-.5-1-65 27.3-.6M1109 1881.3l8.4 7.8 24.7 17.1 37.7 23.1 8.2 6 41.3 23 27.3 6.8"/>
    <path fill="none" fill-rule="nonzero" d="m2510.3 1664.3 21 16.7"/>
    <path fill-rule="nonzero" d="m2191.8 1647.8-.6-13.9-30.4.8-58 .7-32.6-.6-12.8 69.6M1512 1182l3.2 51.7 2.1 55.3 3.1 53.5 2.3 54.4 1.2 30 1.6 81.9-5 29.6M3127.4 2598v-6l-.7-77 120-1 .1 8.2 1 76.4-75.4.2-45-.7m-897.2-479.5 2.3 102-41.5 1-.5-21.7-96.2 2.2"/>
    <path fill="none" fill-rule="nonzero" d="m2041 1956-1.6-60.6"/>
    <path fill-rule="nonzero" d="m2969 2083 16.5 1 32.8 5.2 31.5 4.9 29 8.2 28 7.3h34.2l39-1.2 42-33.5"/>
    <path fill-rule="nonzero" d="m3141.2 2075 38.8 33.4 35.6 55 6.8.2h12l43.6.5 116-79M1708 2249l4.3 72.7-2.2 12.2 1.4 78.5 32.9 18 12.6 9 11 6.7 11 16.3 7.9 8 13 2.7 15.3 4.3 85 1.2 1.4 38"/>
    <path fill-rule="nonzero" d="m3035.1 2247 20.4-8.1 17.3-15 11.1-14 .1-34.9.5-8 10.9-2.5 13.3-2.8 16.8-.5 17.7 2.5-.6-14.8 37.5-40.5m-464.8-207-10.5-12.6-6.2-8.5-18.7-21.7-48-44.2-38.3-2.8.3-33.4m652.8 735.8-.1-13.2-1.4-111.1M726 1786.2l9.5-.4 30-1.1 11.5-.5"/>
    <path fill="none" fill-rule="nonzero" d="m2363.2 1784.7-14.7-.1"/>
    <path fill-rule="nonzero" d="m3172.4 2598.8.3 36.1 104.5-.8 27.6 24h12l106.3-2m-42.9-741.1-22.3 1-8.4 10.7-23.2-.5-23.9 4.2.4 40.5-9 19.2-11.2 12-19.2 6.8-27.6 3.2-53.1 2.9-63.6-.8-19.2-.7-20-4.6-8.4-6.7-9.6-11-5.1-8.9-2.9-15.6-2.5-19.9-26.8-14.3-45.4 1.6-126.9 21.3-60.4 7.3-42.6-16.8M3036 2312l22.7 23 28 30.3 8.7 9.4 29.5 12.8 120.3 2.2 34.6-22M889.5 1603.2l2.9-18.3 10.3-14.6 36.9-29.3M2022 1956.8l-7.9.5-115 4.7M1620 892l.9 71.9 5.1 42.5 5.4 4.2 10.3 2 91 .9 2 74.3.6 35.5m-54.4 840.1 73.6 35 51.7 24 .8 24.6-27.8 33.4 7.7 7m560.4-43 22.4 1 18.4-26.9 10.5-16.3.3-19.5-5.2-78-10.3-13.4-1-68.3M811.7 1958.1l-7-1 1.2-7.4m1354.9-315-58.3 36.6-45 33-2.2 6.2"/>
    <path fill="none" fill-rule="nonzero" d="m1092.3 1513.2 7.9 43.7"/>
    <path fill-rule="nonzero" d="m3171 1822 12.1 24-.6 51m-2024.4 444.3 23.7-1.3 13.9.5m402.8 180.8 81 1.4 10.5-3.7 29.7-4 14.2-.5 167.7 2.1 231.9.6-.2 52.3 65.2 1 68.6 1.3 28.1.4m-1276.8-867-5 5-11 4.2-11 .2-10.6-2-15.4-5.7-4.6 16.1-4.5 7.9-5.3 7.5-15.7 19.3-5 8.4-4 9.2-2.2 9.8-10.2 81 .7 9 2.3 9 4.2 7.4m1181.6 143.2-6 24.5-3.8 12.8m-1106.3-89.1-.7-62.3-.5-5.3M1806 961.4l-71.2 1-114 1.5M827.3 1242l.7 26-63 159.9"/>
    <path fill="none" fill-rule="nonzero" d="m965.4 1707 11.1-45"/>
    <path fill-rule="nonzero" d="m1718.5 2592.7 56.6 3.6 14.4 1 12.1-1.4 14.7-2.5 7.8-.8 11.2 1.3 27 4.7"/>
    <path fill="none" fill-rule="nonzero" d="m2402.6 2275.6-110.2 3.3"/>
    <path fill-rule="nonzero" d="m1447.5 2314.5-5 42.4-11.8 52.3 13.9 13.8 10.5 12.7 8.5 15 7.5 16.7 4.1 11.6 3 12.4 2.2 12.6.2 13-1 24.5"/>
    <path fill="none" fill-rule="nonzero" d="m2292.7 2330.8 110.5 1.8"/>
    <path fill-rule="nonzero" d="m796 1783.5 4.7 13.8 3.3 6.2m390.5-26.3-.7 15 .7 11.6.4 12.2m1049.7 229.3-25.4.3-69-6.4-47.5-4.5-19.4-6.4-1-19.6-34.3 2m-927-32.7 20.7-21.2 38.1-27.5 39.1-27.6 36.4-28 44-33.3 25.6-11.7m735.8 834 70.7-1.3 1.5-37.3M3274 2259.5l1 16 .7 15 4.1 77.3"/>
    <path fill="none" fill-rule="nonzero" d="m1109 1881.3 16.8 50"/>
    <path fill-rule="nonzero" d="m2133.3 2569.5-.4 54.6-167.8-.1-7.7 1-6.6.9-8 1.7-5.2 1.5-6.3.5h-5.2l-4.4-1.4-4.4-3.4-4.6-6.7-4.4-7-5.2-5-6.8-4.3-7.7-3.3-9-1.6-8.8.6-8.6 1.1-7.5 235.5h-6.8l2.9 30.6 1.7 18m366.7-837.1 9.1 30.4 2 42.6m-243.5-401.9 13 22.5 11.2 13.6 10.3 12.8 12.1 7 14.2 3.2 33.3 1.2 24.3 1 57.5 1m-278.7 7 4-11.6 8.2-35.5-2.7-29.2m637.9-28.7 43.2-1 17-7.9m269.7 375.8 7.9-4.2 7.4-.7 9.7 1.4 30.8 4.7 10.2 6.4 12 7.3 12.4 8.5 17.2 11.7 11.6 11.7 94 60.4"/>
    <path fill="none" fill-rule="nonzero" d="m2363.2 1784.7 6-38.2"/>
    <path fill-rule="nonzero" d="m1526.8 1699.7.8-13.4-8.5-120.4 1.4-27.5m-527.5 630 109-9.2-3.8-78.8m258.1-310.9 6.5 5.8-5.5 11.8-6 10.8 8.8 159.8M2845 2108.9l.5-27.5 2.9-11.6 4.3-10.4 8.6-11.5M1090 2555l6.2-40.2 1.6-18.5 199.3 14m805.7-874.9-.3 36 .1 62.6.5 48.3-4.2 35.3"/>
    <path fill="none" fill-rule="nonzero" d="m1104.3 1979.4 16.7-1.3m-501.8-199.2-33.6 1"/>
    <path fill-rule="nonzero" d="m3125 2387.5 1.5 110.4.2 17M984 2835l-6-23-1.1-4-1.4-3-2.5-3-3.5-3.2-4.3-3.7-4.6-3.4-9.2-5.4-9.7-4.9-11.9-5.6-17.8-7.4-3.1-1.6-3-2-8.1-6.2-4.9-3.9-2.8-2.5-3.6-4.7-10-12.2-6.6-8-3.6-4-3.6-3.4-2.2-2-3-2.3-5.3-3.2-10.1-5.4-12.4-7.8-8.2-4.3-6.8-3.4-6.6-4.4-5.3-5.1-1.4-1.5-2-3.4-5.3-8.3-3-4-2.7-2.8-7.8-5.6-5.3-3.4-5-3.5"/>
    <path fill-rule="nonzero" d="m788.4 2662 5.2-12.4 1.8-5.2.9-5 .3-8.8m33.1 68.6.2-6.4.3-5.2m1643.4-696.3-52.7-7.6-22-1m39.6 91.6-40-1.8-28.8-27.1m-1088.5 31.4-78.1-6.2-28.3 1-35.8 2-20.1 2"/>
    <path fill="none" fill-rule="nonzero" d="m1445.8 2146 81-1.9"/>
    <path fill-rule="nonzero" d="m1005.2 2128.6 31.2-19.8 20-11.8 18-8.2 17.6-6.5 6.2-1.9 20.7-4.8m162.3 1.2 31.3 2.9 42.7 8.7 26.5 13.8 31.7 22 19.6 25.2 6.2 10.8 34.6 97.7"/>
    <path fill-rule="nonzero" d="m1385.6 2220-88.2-113-16.2-30.2 1.9-15.3"/>
    <path fill-rule="nonzero" d="m1515 1967-12.8 28.3-5 6-13.4 9-15.3 7.6-7.4 6.7.1 8.6.5 51.7-9.9 43.6-6 17.4-6.6 14.3-25.2 33.8-14.5 14.4-14 11.6-2 6.7"/>
    <path fill="none" fill-rule="nonzero" d="m2211 1992.1 1.3 24"/>
    <path fill-rule="nonzero" d="m1899 1709.2-5.5.5-45.2-1-21.7.9-56.3 3.5-110.6 6.6-133.3 8.1-54.9 2.7-9 2.6-7.9 5-7.4 9.1-6 8.6-2 10-.9 17"/>
    <path fill-rule="nonzero" d="m1759 1959.1 14.3-50.7 4-18.7 9.8-20 58-145.2 3.1-9v-6.7m-167.3 254.6-39-20.4-30.2-16.4-15.7-11.6-15.2-15-13.1-15.4-16.7-26-12-26.5-7.9-33.7-5-43.1.3-27.5.4-28m134.3-40.8 1 15.3-3.1 16.7.7 28.7"/>
    <path fill-rule="nonzero" d="m1768 1688.5 2.3 24.6 7.7 118 1.6 36.3-2.2 22.3m-305.6 20.3 9.7-23.7 12.3-50.2 17.3-48 15-32.8M1102 2159.2l4.7 20.1 10.3 39 4.6 87.2 5 71-13 26.6 2 35.7 4.8 15.6M823 1477.7l-12.3-.1-58 .4-38.8.7-23.9.7-13.1 11.3-.4 27.1.7 58.5-.4 26.9 11.4 14.1h57l45.8-1.4 15.8-3-.2-26.9 62-.8"/>
    <path fill="none" fill-rule="nonzero" d="m1963.3 1703.6-11 1.3"/>
    <path fill-rule="nonzero" d="m1360.1 1957.7-73.5-58.4-31.3-25.5-54.3-48.5"/>
    <path fill="none" fill-rule="nonzero" d="m1438.3 1782.8 25.1-.5m-49.2 2 14-.8m-29.9 1.8 10.2-.7"/>
    <path fill-rule="nonzero" d="m1472.2 1926.9-.4-16.9-8.4-127.7-.9-49.2-1.4-20.3-.4-2.7"/>
    <path fill="none" fill-rule="nonzero" d="M1459.6 1677.9v-6.2m-.2-4.8.5-7.2"/>
    <path fill-rule="nonzero" d="m1460.7 1692.9-.6-4.5v-4.3"/>
    <path fill-rule="nonzero" d="m1460.7 1710.1-.6-8 .6-9.2"/>
    <path fill="none" fill-rule="nonzero" d="m1982.6 1702.5-1-13.7"/>
    <path fill-rule="nonzero" d="m1964.8 1661.7-8.4-98.9v-24.4"/>
    <path fill="none" fill-rule="nonzero" d="m1980.4 1674.8-1.3-14.2"/>
    <path fill-rule="nonzero" d="m1982.6 1702.5 32.4-.7 20.6 3.7 19.7 5 47.3 23.5 10.5 7.4 11.3 10.6 20 19.6 7 5.9 9.1 5.8"/>
    <path fill="none" fill-rule="nonzero" d="M2216.6 1782.9h-23.8m177.2-62.3-1-7.3"/>
    <path fill-rule="nonzero" d="m2383.4 1891.3-60.3-69.4-3.2-3.8-.4-33.7"/>
    <path fill-rule="nonzero" d="m2324.6 1784.7-5-.3-7.3-.3"/>
    <path fill="none" fill-rule="nonzero" d="M2312.3 1784h-22m-19.5-.2h-14m33.4.2-19.4-.2m111.5 39.2-19.1-38.4m19.1 38.4-59.2-1.1"/>
    <path fill-rule="nonzero" d="m2459.2 1658.3-12.5 28.4-39.2.3-8.6 1-2.3 4-1 20m239-133.1 3.2-8.5 19.4-48.9 25.7-13.7 8.5-4.6"/>
    <path fill="none" fill-rule="nonzero" d="m2606.3 1665.2 5.8-2.9m-243.1 51-49.5 1.5m49.5-1.5 26.7-1.4m-384.5 199.6 2.9 45.8"/>
    <path fill-rule="nonzero" d="m2047 1987.3 15.5-1-.6-45.1m167.1 79.2.6 6.4-10.5 18.8m36.5 73.4 14 .6-4.2 185.7 1.7 266.5 1.7 140.9-10 21.3-13.1 12.5-3.8 14.6 2.9 114.2-73.3-3.6-106.5-5.2-16.7-.1-197.5-1.7"/>
    <path fill="none" fill-rule="nonzero" d="m2150.3 2039.2-1.3-17.5"/>
    <path fill-rule="nonzero" d="m2148.4 2010.7-.8-15.5-1.5-24"/>
    <path fill="none" fill-rule="nonzero" d="m2062.6 1986.3.2 9.4"/>
    <path fill-rule="nonzero" d="m1281.2 2076.8-15.4 12.4-22.8 17-15.4 9.6-15.9 17.7-9.3 18.2-13.5 34.2-3.2 19.8-2.8 39.3-2.9 16.7"/>
    <path fill="none" fill-rule="nonzero" d="m1451.8 2053.6-153.2 7.4"/>
    <path fill-rule="nonzero" d="m1451.6 2270.6-14.8-12.6-53.3-31.3-27.3-6.7-19.8-1.8-20-.3-19 .7-14.8 2-11.4 3.8-18 6.1-1 .7-5 3.3-17.4 15.5-8 5.9-12.7 3.9-29 2-26.7 2.8"/>
    <path fill-rule="nonzero" d="m1153.4 2264.6 2.3 38.2 2.4 38.5m-39.2-265.7-8.6-21.2-1.7-3.7-4.3-71.3-19.3.1-98.4 3.4-39.9.4-7.5 8.2.1 27m192.1 423.4-11 12.5-8.7 13.9-9.7 19.7-4.2 8.3-66.9-3.6m182-154.3 14.1-1.2 7 15.5 8.4 12.7 11.8 10.9 4.4 3m188.9-64.8-21 19.2-13.4 10.1-17.1 10.5-26.2 9.7-16.5 6.3m98.3-99.7-.8 34.3-3.3 9.6 136.5 196.9 14.5 9.9-1 23.4"/>
    <path fill-rule="nonzero" d="m1353.3 2370.3-28.3 2.8-54.7 4-11.7 2.2-15 5.4-25.2 7.5"/>
    <path fill-rule="nonzero" d="m1181.8 2340 12.3 46.4 4.1 13.8 13.1 25.1 8.3 15.7 10.7 15 9.8 10.8 9.8 8.6 16.1 9 17.7 7 5.4 1.9 10.7 3.6 12.1 2.8 22.6-4 19.7-4.8 17.6-8.3 14.3-9 14-11.7 7.5-9.1 5.6-7.7 9-16.4 8.5-19.5-11.7-8.2-14.1-9-20-8.6-15.4-6.4-16.2-6.7"/>
    <path fill="none" fill-rule="nonzero" d="m940.2 2418.5-4.7-.4m-9-.5-11.2-.5m-9.5-.7-5.9-.2m-8.6-.4-11.3-.7m-10-.6-4.6-.3m116 7.3-33.8-2m-90.6-5.7-36-2.1"/>
    <path fill-rule="nonzero" d="m1256.5 2563.5.7-7.7.9-4.2 2.8-4.3 4.9-5.3 5-4.3 25.2-16m27.4 10.3 19.8 1.5 136.3 8 118 3.2 91.6 5.5"/>
    <path fill-rule="nonzero" d="m1296 2521.7 1.9 4.5 3 3.9 3.9 2.9 4.5 1.7 4.9.4 4.8-.9 4.4-2.2 3.6-3.3 2.6-4.1 1.3-4.7v-4.9l-1.3-4.7-2.2-3.8-3.1-3.1-3.8-2.3-4.2-1.3-4.4-.1-4.3.8-4 2-3.3 2.8-2.6 3.6-.6 1.3-1 2.8-.6 4.3.5 4.4"/>
    <path fill="none" fill-rule="nonzero" d="m1325 2373.1 1-15.1"/>
    <path fill-rule="nonzero" d="m1211.7 2395-13.5 5.2-17.3 6.6-17.4 10-17.2 11.7-8.3 7.2"/>
    <path fill="none" fill-rule="nonzero" d="m1227 2337.2 47-2.4"/>
    <path fill-rule="nonzero" d="m1502.4 2257.8-28.6.1-22.2 12.7m596-269.5-.6-13.8-5-5.7-.1-3.3m-307.2 198.5-.2-16.4-1.4-54.2 2.5-5.9 17.1-18.3 5-4.8.4-23.6-.4-6.6"/>
    <path fill="none" fill-rule="nonzero" d="m1757 2036.6-2.5-38.2"/>
    <path fill-rule="nonzero" d="m1781.2 2095.6 15.5 17.8 2.9 5.7 1.2 9.1-.8 16.5-1 10.9-5.9 21.4-9.3 11.4m34.9-142.2-20 22.9-11.8 18.4-5.7 8.1-23.4-18.4"/>
    <path fill="none" fill-rule="nonzero" d="m1758.2 2053.6 6.5-.4"/>
    <path fill-rule="nonzero" d="m1786 2051.6 4-.2-.7-10.2m-601.7-37.6-.3-28.8.7-39.6m-83.7 44.2 5.1-19.2 16.4-29 16.3-25 49.6-76.6m-87.4 149.8-19.1-10.4-99.3-48.4"/>
    <path fill="none" fill-rule="nonzero" d="m1109 1881.3-7-14.3"/>
    <path fill-rule="nonzero" d="M1188.3 1826.2 1102 1867l-4.2-8.4m100.2-29.4 20.9 72.5 14.2 44.8 23.5 18.6"/>
    <path fill-rule="nonzero" d="m1187.8 1824.7.5 1.5.8 1.4 1.2 1.2 1.4.8 1.6.5 1.6.1 1.7-.3 1.5-.7 1.2-1 1-1.4.7-1.5.3-1.6-.2-1.9-.7-1.7-1.2-1.6-1.5-1-2.7-1.5-2.9 1-1.6.9-1.4 1.3-1 1.7-.4 1.9v1.9m68.9 140.4 2.3 65.5 4 14 20.2 16.9 15.5-.5"/>
    <path fill="none" fill-rule="nonzero" d="m1085 1833-5-8.2m-101.4 58.8-1.4-6.7"/>
    <path fill-rule="nonzero" d="m650 1968-8.8.4-22.7 1-6 19.4-25.3.7m475.1-238.7 5.2-24.8 1.8-35.8-25.3 13.5m-15.8 6.8-5-1.1-4.8-4.2-30.3-31.4-11.6-11.9-9.3-11.2-13-9.7-64.7-37.8-.7 13.8-.6 11.9 1 56.1-1 15.1-4.1 13.7-6.1 13-7.1 11-9.1 13.4-10.5 9.8-8 6.4-8.1 6-12 6.1-11.2 4h-16l-19 .7"/>
    <path fill="none" fill-rule="nonzero" d="m1069.3 1690.2 143.2-9.7m-143.2 9.7-.4-8.6"/>
    <path fill-rule="nonzero" d="m1059.9 1613.7-.3 13.5-4.8 6.8-4.3 7.8-3.4 8.1-6.5 16-7.4 14.5-7.1 12.5-7.7 12.3"/>
    <path fill="none" fill-rule="nonzero" d="m1121.6 2305.5 34-2.7"/>
    <path fill-rule="nonzero" d="m850 2656 2.2-1.1 7-4.3 2-2.2.8-2.1.4-12.4M745 2646l-4.4.8-2.3-.8-1.8-1.7-1-2.8 1-15.7"/>
    <path fill="none" fill-rule="nonzero" d="m760.4 2646.3-5.8-.8"/>
    <path fill-rule="nonzero" d="m901 1886.8 4.5 4 8.6 7.8"/>
    <path fill="none" fill-rule="nonzero" d="m880 1869.1 7.9 7m-48.3-41.1 2.3 1.9"/>
    <path fill-rule="nonzero" d="m857.6 1850.1 4.2 3.7 4.2 3.9"/>
    <path fill="none" fill-rule="nonzero" d="m808.7 1809.8 15.3 13.1"/>
    <path fill-rule="nonzero" d="m3126.7 2515 63 43.5 58 40.1"/>
    <path fill-rule="nonzero" d="m3127.4 2598 62.3-39.5 57.1-36.3m33-154.4 25.6-12.1 20.7-46m-80.9 80 29.7 15.2 155.8 101.6 17.2 1.3-1-9.1m-320.4-.7 7.3-3.5 6.4-2.6 7.8-.1 7 1.3 6.7-3.3 6.9-3.3 6.6-1.4 7 .3 6.8 1.4 6.2 2.5 4.6 2.1 6-1.2 6-1 7.1.7 5.5 2 6 2.1 16.2 6.8m-426.2 21.6 119-2.8 185.5-132"/>
    <path fill="none" fill-rule="nonzero" d="m3111 2109.6-36.6 45.5m0-.1 10.1 12m-33.1-220.2-10.5.4"/>
    <path fill-rule="nonzero" d="M3143.2 2163.7h4.2l68.2-.3m-73-14.5-1.6-39.3.2-34.7-2.3-15.3m85.1 104-1-51.3-1-37.4 2.6-31m-786.1 30.4 3 24.4 4.7 29.2 24 9.3 225-3.1"/>
    <path fill="none" fill-rule="nonzero" d="m2253.4 2304.7 12 .6m-6.6 428.7-45.1 1.4"/>
    <path fill-rule="nonzero" d="m2198.3 2545.2.2 25.4.2 23.3-20.5 33.4m-443.7-466.9-11.3 4-12.7 11.7-5.3 11.2 2.8 31.5-.4 10-4.1 5-7 3.7-7.5-.2-4.7-4.6-6.4-26.1 20.3-18.4 7-1m28.7 327.3.7-20.6 9.5-29 13-25.6 20.2-25 34-14.8-5.7-23.3-2.3-31.8-2.9-52.8-7.3-114.6"/>
    <path fill="none" fill-rule="nonzero" d="m1710.1 2334-36.4-.8"/>
    <path fill-rule="nonzero" d="m1712.3 2321.7 16.9-7.5 46.9-18.5 13.6-2.4 10.7-1.7m-918.2-283.9-8.9-1.5 17.4-80.1 14.8-35.2m0 0 9-15.8 27.1-7.4 7.4 2.5 30.8-4.5 60.4-33.3 31.9-17.4 30.3-11 31.6-7 59.8-4.8 118.6-7.1 18-7 12.6-11.4 13.3 2.8m104.8-56.7-67.2 4.8-31.1 57.7"/>
    <path fill="none" fill-rule="nonzero" d="m1397 1674.2 1 17"/>
    <path fill-rule="nonzero" d="m1398 1691.2 16 1.4 46-4.2 67.6-2.1 134.4-12 88.5-6.7 19.9-.1 64.7 1.8 2.1 11.3 11 28.2m-97.7-41.2-3-80.1-5.4-20.6-223-1m-539 488.5.6 5.7 4 13.5M159.3 1029l-9.8 38.7L148 1177l-3.4 19.3-16.3 7.6-42.6.8"/>
    <path fill="none" fill-rule="nonzero" d="m148.6 1345.3 4.8 35.8m24.6-195.8-30-8.4m107.3 841.3 17-1.4"/>
    <path fill-rule="nonzero" d="m242.9 1341.7-94.3 3.6-16.4.7-14.3-6 .8-65.3-35.3-3.4 2.3-66.7-116.9-3.6m3117.9 1164.3-1.3-73.8-.3-12.3-1.2-69.3M735.5 1785.8l-20 29.8-24 38.7-22.3 39.2-10.5 27-11.7 28.7-5.8 19.2m469.1 86-129.6 5.7h-38.9l-2-6-1.4-27 1-8.6m1123.4-22.8h12.9l72-.5m662.7-157.8-4.4 4.7-6.6-1.4-21.1-16.5-27.2-13.2-28.5-5-15.6 2.5m-1588.1 267.1 19 44.5 11.1 20.9 14.3 20 16 17 9.6 7.9 18.9 17.8 36.4 24.2 8 3.3M808 1937.5l3.3-19.4 3.8-8 46.7-56.3 62.4-68.7"/>
    <path fill="none" fill-rule="nonzero" d="m1733.5 2324.3-4.3-10.2"/>
    <path fill-rule="nonzero" d="m1799.5 2119.1-28.1 36.4-10.5 18.8m-20.1 172.7 4-1.5 3-2.7 2.2-3.8.6-4.2-1.6-5.5-2.7-3.2-1.7-1.3-4-1.4h-4.2l-2.9.9-3.4 2.3-2.5 3.4-.9 2.7-.1 4.2.7 2.7 2.2 3.6 3.2 2.6 4 1.3h4.1M1569.6 698.9l-18.1-41.6-25.8 42.6"/>
    <path fill="none" fill-rule="nonzero" d="m1546.5 711.2-.1 45.8"/>
    <path fill-rule="nonzero" d="m934 1496.4-30.2 1.6h-2"/>
    <path fill="none" fill-rule="nonzero" d="m765.5 1784.7-.3 25M882 1585h10.4"/>
    <path fill-rule="nonzero" d="m265.5 1552.2 5.2-30.4 6.9-170.1 28.3 3.4 60.5 8 1.4-15.5m1449.7-320.7-.5-17.8 1.6-137.6-1.2-81.2.9-3.4 8.1-.2 164.7-3 21.5-.7 5.6 1.2M3545.3 3314l-22.5 1.1-3.4-1-.7-6.5-.4-61.5-.4-60 .1-6.2-1.5-6.2-1-5-.5-60.7-.4-50.1v-52.3l-.8-54.4-.4-55-1.3-94.6-.6-47.9-.6-97-.4-66.4-1.1-91-.4-71.5-.5-100.8-.6-57.9-.4-29.2-.3-101.5-1.6-135-.8-75.6-.2-26.5-1.2-7.2-4.2-4.5-9.7-5.7-52.8-19.6-22.5-6.1m-688.7 73.5-10.2-30.3-15.7-47.6-22.4-56.8-8.7-19.3-16-37.3-21.3-42.8-19.1-35.3-9.7-16.6-7.2-12.4-14-17-15.3-14.7-21-15.5-23.8-12.7-18.6-6.2-31.6-5.5-18.4.3-66.6.5-54.7 1.1-8.5 4-4 13.7.8 133.5m-301.3-930.6 2 88.8 1.9 78.1.3 55.4m-1148.8 493-4.7.3-17.1-21.9"/>
    <path fill="none" fill-rule="nonzero" d="m875.2 1572.2-1.6-72.7"/>
    <path fill-rule="nonzero" d="m900.7 1522.9-1.4 13.7-7 48.3m-202 204.4.7-11.9 16.4-15.9-.6-86.7 50-1m921.9-133.8.8-59.6-4.6-24.1-10.1-25.8-2.4-37-3-56.5-3-53.2-3-53-2.1-53.6-2.2-51.4m-28.3-161.9 112 49.6 2-51m-103.4-123 .5 13.8-22.2 38"/>
    <path fill="none" fill-rule="nonzero" d="m1718 801.2-.4 71.6"/>
    <path fill-rule="nonzero" d="m1718.3 788.9 83.7-1.4 16.3-.6m-508 149.1L1188 926l-32.8-8.7m212.6 762.3-62 3.2 4 68.5"/>
    <path fill="none" fill-rule="nonzero" d="m1312.4 1785-1.1-14.2m764 257.8 8-.3"/>
    <path fill-rule="nonzero" d="m2682.9 1507.8-4.6-17.7-14.8-22.5 7.4-31.7 4.2-8 31.6 15.5 17.7 21.9m-86.6 105.2 105.4 24.3 30.2-62.7 9.4-21.9 24.9-30"/>
    <path fill="none" fill-rule="nonzero" d="m2393.7 1904.6 5.7-36.5m-79.9-153.3v69.6m-851.1 267.9 3.1-1.8"/>
    <path fill-rule="nonzero" d="m1461.2 2033.3 7.7-.3-.2-8.2 13.8-.5"/>
    <path fill="none" fill-rule="nonzero" d="m1468.5 2017.9 17.4-1.1m-38.6-21.7 4.5 58.4m589.6-86.2-.5-11.4m150.1 265.7-.2 36.5"/>
    <path fill-rule="nonzero" d="m3239 2180.7-.7-10-4-7m-1229.9-328.2 23.9 3.3 23.8 10.5"/>
    <path fill="none" fill-rule="nonzero" d="m3085.2 2279.2 24.5-.6m143.2-2.6 22-.4"/>
    <path fill-rule="nonzero" d="m2602.4 1645.7 13-7.7 8.1-4.2 14.5-7.6m61.4 11-38.2-6.8-23.2-4.2-12.2-2.8"/>
    <path fill-rule="nonzero" d="m2623.5 1633.8 2.3-10.4 5.6-26 3.2-18.5"/>
    <path fill="none" fill-rule="nonzero" d="m2198 2515.2.3 21.7"/>
  </g>
</svg>
