<?xml version="1.0" encoding="UTF-8" standalone="no"?><!DOCTYPE svg PUBLIC "-//W3C//DTD SVG 1.1//EN" "http://www.w3.org/Graphics/SVG/1.1/DTD/svg11.dtd"><svg width="100%" height="100%" viewBox="0 0 29 29" version="1.1" xmlns="http://www.w3.org/2000/svg" xmlns:xlink="http://www.w3.org/1999/xlink" xml:space="preserve" xmlns:serif="http://www.serif.com/" style="fill-rule:evenodd;clip-rule:evenodd;stroke-linejoin:round;stroke-miterlimit:2;"><path d="M10.717,21.283c-2.995,0 -5.528,-1.041 -7.603,-3.118c-2.076,-2.078 -3.114,-4.586 -3.114,-7.523c-0,-2.938 1.039,-5.446 3.118,-7.524c2.078,-2.078 4.592,-3.118 7.542,-3.118c2.953,-0 5.462,1.041 7.527,3.12c2.064,2.078 3.096,4.587 3.096,7.527c0,1.19 -0.194,2.341 -0.583,3.451c-0.289,0.825 -0.684,1.613 -1.188,2.361c0,-0 8.433,8.363 8.433,8.363c0.427,0.411 0.651,0.929 0.651,1.561c-0,0.624 -0.218,1.146 -0.643,1.57c-0.424,0.425 -0.946,0.643 -1.57,0.643c-0.631,-0 -1.149,-0.223 -1.559,-0.649c-0,-0 -8.384,-8.384 -8.384,-8.384c-0.656,0.453 -1.382,0.825 -2.179,1.114c-1.11,0.403 -2.292,0.606 -3.544,0.606Zm-0.038,-4.333c1.741,0 3.221,-0.615 4.439,-1.847c1.222,-1.235 1.832,-2.722 1.832,-4.461c0,-1.74 -0.61,-3.227 -1.832,-4.462c-1.218,-1.231 -2.698,-1.847 -4.439,-1.847c-1.763,0 -3.262,0.616 -4.496,1.851c-1.233,1.234 -1.85,2.72 -1.85,4.458c0,1.738 0.617,3.223 1.85,4.457c1.234,1.235 2.733,1.851 4.496,1.851Z" style="fill:#fff;"/></svg>