<?xml version="1.0" encoding="UTF-8" standalone="no"?><!DOCTYPE svg PUBLIC "-//W3C//DTD SVG 1.1//EN" "http://www.w3.org/Graphics/SVG/1.1/DTD/svg11.dtd"><svg width="100%" height="100%" viewBox="0 0 27 28" version="1.1" xmlns="http://www.w3.org/2000/svg" xmlns:xlink="http://www.w3.org/1999/xlink" xml:space="preserve" xmlns:serif="http://www.serif.com/" style="fill-rule:evenodd;clip-rule:evenodd;stroke-linejoin:round;stroke-miterlimit:2;"><path d="M11.365,28l-0.577,-4.612c-0.906,-0.219 -1.764,-0.563 -2.573,-1.029c-0.81,-0.467 -1.544,-1.03 -2.203,-1.688l-4.365,1.894l-1.647,-2.965l3.871,-2.841c-0.11,-0.467 -0.199,-0.927 -0.268,-1.38c-0.069,-0.453 -0.103,-0.912 -0.103,-1.379c-0,-0.467 0.034,-0.926 0.103,-1.379c0.069,-0.453 0.158,-0.913 0.268,-1.38l-3.871,-2.841l1.647,-2.965l4.365,1.894c0.631,-0.686 1.352,-1.262 2.162,-1.729c0.809,-0.467 1.681,-0.796 2.614,-0.988l0.577,-4.612l3.623,0l0.577,4.612c0.96,0.137 1.839,0.446 2.635,0.926c0.796,0.481 1.51,1.078 2.141,1.791l4.365,-1.894l1.647,2.965l-3.871,2.841c0.138,0.467 0.234,0.927 0.289,1.38c0.054,0.453 0.082,0.912 0.082,1.379c-0,0.467 -0.034,0.926 -0.103,1.379c-0.069,0.453 -0.158,0.913 -0.268,1.38l3.871,2.841l-1.647,2.965l-4.365,-1.894c-0.659,0.658 -1.393,1.221 -2.203,1.688c-0.81,0.466 -1.667,0.81 -2.573,1.029l-0.577,4.612l-3.623,-0Zm1.811,-8.647c1.483,-0 2.746,-0.522 3.789,-1.565c1.043,-1.043 1.564,-2.306 1.564,-3.788c0,-1.482 -0.521,-2.745 -1.564,-3.788c-1.043,-1.043 -2.306,-1.565 -3.789,-1.565c-1.482,0 -2.745,0.522 -3.788,1.565c-1.043,1.043 -1.564,2.306 -1.564,3.788c-0,1.482 0.521,2.745 1.564,3.788c1.043,1.043 2.306,1.565 3.788,1.565Z" style="fill:#fff;"/></svg>