<?xml version="1.0" encoding="UTF-8" standalone="no"?><!DOCTYPE svg PUBLIC "-//W3C//DTD SVG 1.1//EN" "http://www.w3.org/Graphics/SVG/1.1/DTD/svg11.dtd">
<svg viewBox="0 0 3300 2550" version="1.1" xmlns="http://www.w3.org/2000/svg" >
    <path id="floor" d="M135.756,900.683l0,-113.715l269.181,0l0,375.845l705.941,0l-0,-349.67l1377.58,0l-0,-132.196l253.6,-0l-0,132.196l473.675,0c23.511,0 42.6,19.089 42.6,42.6c-0,23.512 -19.089,42.6 -42.6,42.6l-99.508,0l0,264.47l1.36,0l-0,610.176l-1394.13,0l0,77.076l-303.356,0l0,-77.076l-171.345,0l-0,102.727c-0,78.896 -64.054,142.95 -142.95,142.95c-78.896,-0 -142.95,-64.054 -142.95,-142.95l-0,-102.727l-827.104,0l0,-671.148l-104.496,0l0,-201.158l104.496,0Z"/>
    <rect id="_105" serif:id="105" x="135.756" y="1599.53" width="190.944" height="173.462"/>
    <rect id="_106" serif:id="106" x="135.756" y="1299.19" width="190.944" height="300.334"/>
    <rect id="_107" serif:id="107" x="326.7" y="1362.75" width="122.55" height="122.862"/>
    <rect id="_108" serif:id="108" x="326.7" y="1485.61" width="83.832" height="74.573"/>
    <rect id="_109" serif:id="109" x="410.532" y="1485.61" width="124.439" height="74.573"/>
    <rect id="_114" serif:id="114" x="798.608" y="1636.65" width="215.088" height="136.341"/>
    <rect id="_115" serif:id="115" x="486.339" y="1636.65" width="96.816" height="136.341"/>
    <rect id="_117" serif:id="117" x="326.7" y="1636.65" width="159.639" height="136.341"/>
    <path id="_118" serif:id="118" d="M630.719,1772.99l136.341,-136.341l31.548,0l0,136.341l-167.889,0Z"/>
    <rect id="_126" serif:id="126" x="1186.64" y="1561.02" width="233.463" height="211.966"/>
    <rect id="_127" serif:id="127" x="1095.1" y="1466.09" width="174.699" height="94.93"/>
    <rect id="_128" serif:id="128" x="1095.1" y="1561.02" width="91.544" height="105.983"/>
    <rect id="_129" serif:id="129" x="1095.1" y="1667.01" width="91.544" height="105.983"/>
    <rect id="_130" serif:id="130" x="1332.76" y="1466.09" width="174.699" height="94.93"/>
    <rect id="_134C" serif:id="134C" x="1819.96" y="1656.41" width="130.672" height="116.574"/>
    <rect id="_134B" serif:id="134B" x="1728.42" y="1618.47" width="91.544" height="154.521"/>
    <rect id="_135B" serif:id="135B" x="2049.23" y="1566.91" width="100.05" height="90.506"/>
    <rect id="_135" serif:id="135" x="1950.63" y="1466.09" width="98.597" height="190.322"/>
    <rect id="_136" serif:id="136" x="1950.63" y="1656.41" width="198.647" height="116.574"/>
    <rect id="_138" serif:id="138" x="2420.4" y="1596.6" width="155.178" height="176.371"/>
    <rect id="_132" serif:id="132" x="1420.11" y="1561.02" width="308.312" height="289.042"/>
    <rect id="_131A" serif:id="131A" x="1660.6" y="1466.09" width="67.814" height="94.93"/>
    <rect id="_131" serif:id="131" x="1507.45" y="1466.09" width="153.149" height="94.93"/>
    <rect id="_133" serif:id="133" x="1728.42" y="1466.09" width="159.783" height="94.93"/>
    <rect id="_134A" serif:id="134A" x="1728.42" y="1561.02" width="51.67" height="57.444"/>
    <path id="_134" serif:id="134" d="M1888.06,1536.87l62.577,-0l-0,119.543l-130.672,0l0,-37.947l-39.874,-0l-0,-57.444l107.969,-0l-0,-24.152Z"/>
    <rect id="_112" serif:id="112" x="534.971" y="1485.61" width="107.215" height="74.573"/>
    <rect id="_111" serif:id="111" x="449.25" y="1362.75" width="192.937" height="122.862"/>
    <rect id="_110" serif:id="110" x="642.187" y="1362.75" width="154.871" height="197.435"/>
    <rect id="_116" serif:id="116" x="797.058" y="1362.75" width="103.211" height="197.435"/>
    <rect id="_180" serif:id="180" x="135.756" y="786.968" width="269.181" height="460.901"/>
    <rect id="_181" serif:id="181" x="31.26" y="900.683" width="104.496" height="201.158"/>
    <rect id="_182" serif:id="182" x="404.937" y="1162.81" width="244.031" height="137.042"/>
    <rect id="_101" serif:id="101" x="648.968" y="1162.81" width="93.945" height="137.042"/>
    <path id="_103" serif:id="103" d="M940.178,1299.86l-76,-0l0,-33.715l-121.265,-0l0,-103.328l197.265,0l0,137.043Z"/>
    <rect id="_104" serif:id="104" x="940.178" y="1162.81" width="170.7" height="137.042"/>
    <rect id="_125" serif:id="125" x="1110.88" y="813.143" width="306.647" height="243.081"/>
    <rect id="_124" serif:id="124" x="1110.88" y="1056.78" width="115.233" height="126.166"/>
    <rect id="_123" serif:id="123" x="1110.88" y="1182.94" width="115.233" height="201.753"/>
    <rect id="_121A" serif:id="121A" x="1226.11" y="1220.46" width="151.08" height="164.232"/>
    <rect id="_122C" serif:id="122C" x="1268.53" y="1131.05" width="108.664" height="89.406"/>
    <path id="_145" serif:id="145" d="M1650,956.82l-63.341,-0l-0,-29.909l-28.277,0l-0,-113.768l91.618,0l0,143.677Z"/>
    <rect id="_142" serif:id="142" x="1650" y="813.143" width="231.916" height="143.676"/>
    <rect id="_153" serif:id="153" x="1881.92" y="813.143" width="290.684" height="179.023"/>
    <rect id="_154" serif:id="154" x="1881.92" y="992.166" width="290.684" height="191.258"/>
    <rect id="_156" serif:id="156" x="1881.92" y="1183.42" width="290.684" height="200.774"/>
    <rect id="_169" serif:id="169" x="2172.6" y="1232.15" width="55.768" height="152.051"/>
    <rect id="_168" serif:id="168" x="2228.37" y="1232.15" width="260.092" height="152.051"/>
    <rect id="_167" serif:id="167" x="2172.6" y="1106.63" width="55.768" height="125.514"/>
    <rect id="_161B" serif:id="161B" x="2172.6" y="981.12" width="213.466" height="125.514"/>
    <path id="_166" serif:id="166" d="M2386.07,1106.63l-0,33.937l102.394,-0l-0,91.577l-260.093,0l0,-125.514l157.699,0Z"/>
    <rect id="_161A" serif:id="161A" x="2386.07" y="1043.88" width="102.394" height="96.693"/>
    <rect id="_159" serif:id="159" x="2172.6" y="813.143" width="315.86" height="167.976"/>
    <rect id="_163" serif:id="163" x="2488.46" y="680.947" width="98.345" height="132.197"/>
    <path id="_160" serif:id="160" d="M2655.51,902.958l27.187,-46.767l433.526,-0l0,251.83l-148.907,-0l-160.667,46.732l-141.895,-0l0,229.445l-91.21,0l0,-481.24l81.966,-0Z"/>
    <path id="_170" serif:id="170" d="M2806.65,1154.75l-0,229.445l309.574,0l0,-276.177l-149.174,-0l-160.4,46.732Zm160.4,-46.732l-160.4,46.732l160.4,-46.732Z"/>
    <path id="_171" serif:id="171" d="M2806.65,1154.75l-141.895,-0l0,229.445l141.895,0l-0,-229.445"/>
    <rect id="_164" serif:id="164" x="2685.15" y="680.947" width="56.91" height="132.197"/>
    <rect id="_152" serif:id="152" x="1721.5" y="1283.81" width="160.418" height="100.387"/>
    <rect id="_151" serif:id="151" x="1721.5" y="1183.42" width="160.418" height="100.387"/>
    <rect id="_140" serif:id="140" x="1533.89" y="1183.42" width="116.109" height="200.774"/>
    <rect id="_141" serif:id="141" x="1417.78" y="1183.42" width="116.109" height="200.774"/>
    <rect id="_149" serif:id="149" x="1417.78" y="993.098" width="116.109" height="190.326"/>
    <path id="_150" serif:id="150" d="M1533.89,956.82l0,-29.82l52.809,0l-0,29.82l295.216,-0l-0,226.604l-348.025,-0l0,-190.326l-45.938,-0l0,-36.278l45.938,-0Z"/>
    <path id="_144" serif:id="144" d="M1417.78,926.911l-0.258,0l-0,-113.768l140.857,0l-0,113.768l-24.491,0l0,29.909l-45.938,-0l0,36.278l-70.17,-0l-0,-66.187Z"/>
    <rect id="_122B" serif:id="122B" x="1226.11" y="1131.05" width="42.416" height="89.406"/>
    <rect id="_122" serif:id="122" x="1226.11" y="1056.78" width="151.08" height="74.275"/>
    <rect id="_175A" serif:id="175A" x="2575.58" y="1691.61" width="116.547" height="81.36"/>
    <rect id="_175B" serif:id="175B" x="2575.58" y="1610.25" width="116.547" height="81.36"/>
    <rect id="_178" serif:id="178" x="2575.58" y="1466.09" width="116.547" height="144.158"/>
    <rect id="_135A" serif:id="135A" x="2049.23" y="1466.09" width="100.05" height="99.816"/>
    <rect id="_177" serif:id="177" x="2149.28" y="1466.09" width="46.063" height="99.816"/>
    <path id="_176" serif:id="176" d="M2899.72,1482.8l-21.007,68.324l-186.584,-0l0,-85.029l207.591,-0l-0,16.705Z"/>
    <path id="_137" serif:id="137" d="M2195.34,1466.09l67.814,-0l-0,130.55l157.152,-0l0,176.345l-271.029,0l-0,-207.079l46.063,-0l0,-99.816Z"/>
    <path id="_174" serif:id="174" d="M2810.49,1772.99l89.224,-290.19l-0,-98.601l216.513,0l0,388.791l-305.737,0Z"/>
    <path id="_175" serif:id="175" d="M2878.71,1551.12l-68.217,221.866l-118.367,0l0,-221.866l186.584,-0Z"/>
    <path id="_179" serif:id="179" d="M2307.64,1549.99l-0,-83.897l267.942,-0l-0,130.506l-73.057,0l0,-46.609l-194.885,0Z"/>
</svg>