<?xml version="1.0" encoding="UTF-8" standalone="no"?><!DOCTYPE svg PUBLIC "-//W3C//DTD SVG 1.1//EN" "http://www.w3.org/Graphics/SVG/1.1/DTD/svg11.dtd">
<svg viewBox="0 0 3300 2550" version="1.1" xmlns="http://www.w3.org/2000/svg"
    <path id="floor" d="M515.4,550.467l0,12.235l703.937,0l55.006,54.753l54.502,-54.753l1816.39,0l0,191.209l-27.651,0l-0,59.232l98.148,0c23.511,0 42.6,19.089 42.6,42.6c-0,23.512 -19.089,42.6 -42.6,42.6l-99.508,0l0,264.47l1.36,0l-0,610.176l-318.829,0l-32.413,32.732l-31.607,0l0,-54.971l-163.954,0l-0,22.239l-1322.03,0l-0,102.727c-0,78.896 -64.054,142.95 -142.95,142.95c-78.896,-0 -142.95,-64.054 -142.95,-142.95l-0,-272.185l-165.71,-0l-0,18.056l-151.124,151.402l-510.27,0l0,-1024.93l89.447,0l-0,-197.593l0.097,0c0,-80.055 64.995,-145.05 145.05,-145.05c80.055,0 145.05,64.995 145.05,145.05Z" style="stroke:#000;stroke-width:1px;"/>
    <path id="_201A" serif:id="201A" d="M415.16,806.226c-1.598,-20.175 -2.413,-40.787 -2.413,-61.823c0,-3.859 0.027,-7.733 0.082,-11.62l87.753,-0l-0,20.49l-85.422,52.953Z" style="stroke:#000;stroke-width:1px;stroke-linecap:square;"/>
    <path id="_308" serif:id="308" d="M500.688,732.422l181.915,-0l-0,-50.978l198.934,0l226.825,224.948l0,471.808c0,-0 -34.327,-0.061 -50.894,-0c-337.055,1.237 -613.006,-216.971 -642.308,-572.853l85.528,-52.58l0,-20.345Z"/>
    <rect id="_213" serif:id="213" x="135.756" y="1642.45" width="238.393" height="130.546"/>
    <path id="_203" serif:id="203" d="M286.231,657.249l-60.931,0l0,-105.998l45.853,-0c-0,-46.37 32.539,-85.199 76.009,-94.88l-0,149.628l-60.931,0l-0,51.25Z"/>
    <path id="_205" serif:id="205" d="M347.162,456.371c6.821,-1.519 13.912,-2.32 21.189,-2.32c53.645,-0 97.198,43.553 97.198,97.2l-0,54.748l-118.387,0l-0,-149.628Z"/>
    <rect id="_232" serif:id="232" x="1112.15" y="1541.22" width="238.393" height="231.781"/>
    <rect id="_235" serif:id="235" x="1434.15" y="1541.22" width="248.586" height="231.781"/>
    <rect id="_236" serif:id="236" x="1682.74" y="1541.22" width="237.638" height="231.781"/>
    <rect id="_239" serif:id="239" x="2005.12" y="1541.22" width="236.505" height="231.781"/>
    <path id="_240" serif:id="240" d="M2337.68,1605.5l0,-64.28l-96.051,-0l0,231.781l254.249,0l-0,-167.501l-158.198,0Z"/>
    <rect id="_241" serif:id="241" x="2495.88" y="1605.6" width="74.824" height="167.4"/>
    <rect id="_243" serif:id="243" x="2958.15" y="1098.93" width="159.45" height="284.935"/>
    <rect id="_244" serif:id="244" x="2958.15" y="898.2" width="159.45" height="200.735"/>
    <path id="_245" serif:id="245" d="M2958.15,898.2l-152.806,-0l0,71.531l58.533,36.184l59.696,-0l0,-12.82l34.577,0l-0,-94.895Z"/>
    <path id="_337" serif:id="337" d="M2805.34,898.2l0,71.531l58.533,36.184l59.696,-0l0,-12.82l34.577,0l-0,390.775l-57.672,-0l0,86.746l-0.012,0.038l-264.607,0l-8.618,-47.435l13.28,-0l-22.228,-115.336l-0,-172.519l6.185,-0l43.096,-237.164l137.77,0Z"/>
    <path id="_247" serif:id="247" d="M2667.57,898.2l-20.49,112.759l-60.259,0l-0,-112.759l80.749,0Z"/>
    <rect id="_230" serif:id="230" x="2342.84" y="1331.22" width="159.45" height="94.039"/>
    <rect id="_229" serif:id="229" x="2183.39" y="1331.22" width="159.45" height="94.039"/>
    <rect id="_227" serif:id="227" x="2063.64" y="1331.22" width="50.725" height="94.039"/>
    <path id="_226" serif:id="226" d="M2063.64,1359.97l-188.232,-0l-0,-28.752l-89.848,0l-0,94.04l278.08,-0l0,-65.288Z"/>
    <rect id="_225" serif:id="225" x="1721.29" y="1331.22" width="64.268" height="94.039"/>
    <path id="_248" serif:id="248" d="M3047.59,753.9l0,57.262l-237.744,-0l-0,-248.362l335.355,-0l-0,191.1l-97.611,0Z"/>
    <rect id="_251" serif:id="251" x="2487.05" y="562.8" width="322.791" height="111.127"/>
    <rect id="_251E" serif:id="251E" x="2487.05" y="673.927" width="95.919" height="137.235"/>
    <path id="_251D" serif:id="251D" d="M2487.05,562.8l-0,186.765l-95.92,-0l0,-23.678l-111.623,-0l-0,-163.087l207.543,-0Z"/>
    <rect id="_251C" serif:id="251C" x="2189.39" y="562.8" width="90.121" height="163.087"/>
    <rect id="_251B" serif:id="251B" x="2099.27" y="562.8" width="90.121" height="223.731"/>
    <path id="_2511" serif:id="251" d="M2040.68,786.531l-0,25.067l-318.442,0l-0,-248.798l377.032,0l0,223.731l-58.59,0Z"/>
    <rect id="_252A" serif:id="252A" x="1274.4" y="721.659" width="107.715" height="89.939"/>
    <path id="_253C" serif:id="253C" d="M1274.4,721.659l-166.904,-0l0,36.181l53.812,53.758l113.092,0l0,-89.939Z"/>
    <path id="_253A" serif:id="253A" d="M1219.43,562.8l54.908,54.655l0.057,-0.057l0,104.261l-166.904,-0l0,36.181l-68.011,-0l-89.464,-89.463l0,-105.577l269.414,-0Z"/>
    <path id="_252" serif:id="252" d="M1274.4,617.398l54.348,-54.598l393.489,-0l-0,111.866l-72.237,-0l0,46.993l-375.6,-0l0,-104.261Z"/>
    <path id="_222" serif:id="222" d="M1650,1331.22l-80.879,0l-0,28.752l-64.488,-0l0,-28.752l-93.344,0l-0,94.04l238.711,-0l0,-94.04Z"/>
    <rect id="_220" serif:id="220" x="1280.34" y="1359.97" width="130.953" height="65.288"/>
    <rect id="_212" serif:id="212" x="135.756" y="1526.32" width="185.458" height="116.138"/>
    <rect id="_216" serif:id="216" x="543.272" y="1457.37" width="97.169" height="149.026"/>
    <rect id="_211" serif:id="211" x="135.756" y="1410.18" width="185.458" height="116.138"/>
    <rect id="_210" serif:id="210" x="135.756" y="1294.04" width="185.458" height="116.138"/>
    <rect id="_208" serif:id="208" x="260.121" y="1123.31" width="146.619" height="86.069"/>
    <path id="_2081" serif:id="208" d="M135.756,844.671l175.42,0c12.811,99.503 43.378,193.477 88.416,278.639l-139.471,0l0,86.069l-124.365,-0l0,-364.708Z"/>
    <path id="_206" serif:id="206" d="M304.391,738.47c0,35.982 2.309,71.429 6.785,106.201l-175.42,0l0,-106.201l168.635,0Z"/>
    <path id="_215A" serif:id="215A" d="M374.454,1509.61l41.94,-0l68.901,39.907l57.977,0l0,56.879l-168.818,0l0,-96.786Z"/>
    <path id="_217" serif:id="217" d="M797.15,1612.22l-0,9.372l-151.124,151.402l-271.877,0l0,-82.784l0.305,-0l0,-83.809l265.987,0l-0,-149.026l156.659,0l0,154.845l0.05,-0Z" style="stroke:#000;stroke-width:1px;stroke-linecap:square;"/>
    <path id="_215" serif:id="215" d="M374.454,1509.61l0,-52.24l168.818,0l0,92.147l-57.977,0l-68.901,-39.907l-41.94,-0Z"/>
    <path id="_318" serif:id="318" d="M1107.5,907.987l541.574,-0l71.074,198.611l-70.144,0l-0,224.622l-80.879,0l-0,28.752l-64.488,-0l0,-28.752l-93.344,0l-0,28.752l-130.953,-0l0,18.268l-101.273,0l-0,-316.424l-71.567,-0l0,-153.829Z"/>
    <path id="_324" serif:id="324" d="M1721.29,1331.22l0,-224.622l-1.149,0l-71.074,-198.611l465.298,-0l71.074,198.611l-71.074,0l-0,224.622l-50.726,0l0,28.752l-188.232,-0l-0,-28.752l-154.117,0Z"/>
    <path id="_330" serif:id="330" d="M2183.39,1106.6l2.057,0l-71.074,-198.611l387.917,-0l-0,423.233l-318.9,0l-0,-224.622Z"/>
    <path id="_233" serif:id="233" d="M1350.54,1636.23l83.611,49.202l0,87.573l-83.611,-0l0,-136.775Z"/>
    <path id="_234" serif:id="234" d="M1350.54,1636.23l0,-95.006l83.611,-0l0,144.208l-83.611,-49.202Z"/>
    <path id="_237" serif:id="237" d="M1920.38,1633.77l84.744,49.868l-0,89.358l-84.744,0l0,-139.226Z"/>
    <path id="_238" serif:id="238" d="M1920.38,1633.77l0,-92.555l84.744,-0l-0,142.423l-84.744,-49.868Z"/>
</svg>