<?xml version="1.0" encoding="UTF-8" standalone="no"?><!DOCTYPE svg PUBLIC "-//W3C//DTD SVG 1.1//EN" "http://www.w3.org/Graphics/SVG/1.1/DTD/svg11.dtd">
<svg viewBox="0 0 3300 2550" version="1.1" xmlns="http://www.w3.org/2000/svg">
    <path id="floor" d="M515.4,550.467l0,12.235l703.937,0l55.006,54.753l0,54.309l1447.41,0l0,141.379l493.984,0c23.511,0 42.6,19.089 42.6,42.6c-0,23.512 -19.089,42.6 -42.6,42.6l-99.508,0l0,200.592l25.111,-0l-0,374.644l-23.751,0l-0,299.41l-318.829,0l-32.413,32.732l-31.607,0l0,-54.971l-163.954,0l-0,22.239l-1322.03,0l-0,102.727c-0,78.896 -64.054,142.95 -142.95,142.95c-78.896,-0 -142.95,-64.054 -142.95,-142.95l-0,-102.727l-629.318,0l-0,-214.986l-197.786,0l0,-966.505l89.544,0l-0.097,-41.031l0.097,0c0,-80.055 64.995,-145.05 145.05,-145.05c80.055,0 145.05,64.995 145.05,145.05Z" style="stroke:#000;stroke-width:1px;"/>
    <path id="_304" serif:id="304" d="M465.549,632.224l-194.396,0l-0,-80.973c-0,-46.37 32.539,-85.199 76.009,-94.88l-0,131.65l118.387,-0l-0,44.203Z"/>
    <path id="_307" serif:id="307" d="M347.162,456.371c6.821,-1.519 13.912,-2.32 21.189,-2.32c53.645,-0 97.198,43.553 97.198,97.2l-0,36.77l-118.387,-0l-0,-131.65Z"/>
    <rect id="_321" serif:id="321" x="1239.26" y="1482.83" width="352.075" height="93.259"/>
    <rect id="_305" serif:id="305" x="514.8" y="562.8" width="129.76" height="118.644"/>
    <rect id="_315" serif:id="315" x="345.481" y="632.224" width="48.064" height="49.22"/>
    <rect id="_327" serif:id="327" x="1778.35" y="1482.83" width="274.056" height="93.259"/>
    <rect id="_333" serif:id="333" x="2248.98" y="1482.83" width="183.452" height="93.259"/>
    <rect id="_344" serif:id="344" x="2502.28" y="907.987" width="74.603" height="151.144"/>
    <rect id="_344A" serif:id="344A" x="2502.28" y="1060.9" width="74.603" height="115.322"/>
    <rect id="_342" serif:id="342" x="2502.28" y="1176.22" width="74.603" height="250.219"/>
    <rect id="_331" serif:id="331" x="2114.37" y="1446.26" width="69.017" height="109.869"/>
    <rect id="_325" serif:id="325" x="1650" y="1446.26" width="69.017" height="109.869"/>
    <rect id="_323" serif:id="323" x="1274.34" y="671.7" width="375.657" height="236.287"/>
    <rect id="_329.21" serif:id="329.21" x="1721.29" y="671.7" width="65.512" height="84.957"/>
    <rect id="_329.20" serif:id="329.20" x="1721.29" y="823.03" width="65.512" height="84.957"/>
    <rect id="_329.11" serif:id="329.11" x="2048.86" y="671.7" width="65.512" height="84.957"/>
    <rect id="_329.10" serif:id="329.10" x="2048.86" y="823.03" width="65.512" height="84.957"/>
    <rect id="_335.04" serif:id="335.04" x="2314.41" y="823.03" width="79.944" height="84.957"/>
    <rect id="_335.02" serif:id="335.02" x="2394.35" y="823.03" width="107.931" height="84.957"/>
    <rect id="_335.03" serif:id="335.03" x="2314.41" y="671.7" width="79.944" height="84.957"/>
    <rect id="_335.01" serif:id="335.01" x="2394.35" y="671.7" width="107.931" height="84.957"/>
    <path id="_329.18" serif:id="329.18" d="M1852.32,811.022l-28.974,0l-36.538,12.008l-0,84.957l65.512,-0l0,-96.965Z"/>
    <path id="_329.19" serif:id="329.19" d="M1852.32,768.664l-28.974,0l-36.538,-12.007l-0,-84.957l65.512,-0l0,96.964Z"/>
    <path id="_329.17" serif:id="329.17" d="M1852.32,768.664l28.974,0l36.538,-12.007l0,-84.957l-65.512,-0l0,96.964Z"/>
    <path id="_329.15" serif:id="329.15" d="M1983.34,768.664l-28.974,0l-36.539,-12.007l0,-84.957l65.513,-0l-0,96.964Z"/>
    <path id="_329.13" serif:id="329.13" d="M1983.34,768.664l28.974,0l36.538,-12.007l0,-84.957l-65.512,-0l-0,96.964Z"/>
    <path id="_335.06" serif:id="335.06" d="M2248.9,811.022l28.974,0l36.538,12.008l0,84.957l-65.512,-0l-0,-96.965Z"/>
    <path id="_335.08" serif:id="335.08" d="M2248.9,811.022l-28.974,0l-36.538,12.008l-0,84.957l65.512,-0l-0,-96.965Z"/>
    <path id="_335.05" serif:id="335.05" d="M2248.9,768.664l28.974,0l36.538,-12.007l0,-84.957l-65.512,-0l-0,96.964Z"/>
    <path id="_335.07" serif:id="335.07" d="M2248.9,768.664l-28.974,0l-36.538,-12.007l-0,-84.957l65.512,-0l-0,96.964Z"/>
    <path id="_329.16" serif:id="329.16" d="M1852.32,811.022l28.974,0l36.538,12.008l0,84.957l-65.512,-0l0,-96.965Z"/>
    <path id="_329.14" serif:id="329.14" d="M1983.34,811.022l-28.974,0l-36.539,12.008l0,84.957l65.513,-0l-0,-96.965Z"/>
    <path id="_329.12" serif:id="329.12" d="M1983.34,811.022l28.974,0l36.538,12.008l0,84.957l-65.512,-0l-0,-96.965Z"/>
    <path id="_319A" serif:id="319A" d="M1058.86,1446.26l47.906,-171.262l72.293,0l-0,171.262l-120.199,-0Z"/>
    <path id="_319" serif:id="319" d="M1179.06,1556.13l-128.614,-0l0,-79.787l8.415,-30.082l120.199,-0l-0,109.869Z"/>
    <path id="_308" serif:id="308" d="M1106.77,1275l-56.321,201.3l-57.732,0l0,100.252c-126.963,-0.125 -249.408,-40.51 -359.107,-106.04l27.742,-48.484l-48.822,-34.24l-79.893,117.4c-67.473,-28.888 -213.517,-175.173 -242.096,-241.382l120.077,-78.622l-33.146,-50.365l-53.598,30.277c-65.109,-109.784 -102.305,-233.288 -102.305,-359.679l90.214,-0l-0,-59.779l203.03,-64.194l366.724,0l226.825,224.948l-1.592,368.608Z"/>
    <rect id="_331A" serif:id="331A" x="2114.37" y="1370.33" width="69.017" height="75.937"/>
    <path id="_337" serif:id="337" d="M2727.91,1548.63l-66.799,-0.194l-42.816,-240.555l-0,-133.909l42.816,-240.148l66.799,0l-0,-0.194c126.441,0 235.583,72.882 285.707,177.923l42.973,-20.507c0,0 34.782,37.95 34.782,151.404c0,99.082 -34.782,148.764 -34.782,148.764c0,-0 -42.973,-20.507 -42.973,-20.507c-50.124,105.041 -159.266,177.923 -285.707,177.923Z"/>
    <path id="_336" serif:id="336" d="M2639.39,1426.44l21.69,121.862l-158.799,-0l-0,-121.862l137.109,-0Z"/>
    <path id="_318" serif:id="318" d="M1650,1482.83l-470.937,0l-0,-270.789l8.894,0l82.273,-252.941l-91.167,0l-0,-51.113l470.007,-0l0.93,51.113l-93.422,0l83.436,252.941l9.986,0l-0,270.789Z"/>
    <path id="_314" serif:id="314" d="M881.537,681.444l-0,-118.742l337.8,0l55.006,54.753l0,290.532l-95.28,-0l-70.701,-1.595l-226.825,-224.948Z"/>
    <path id="_324" serif:id="324" d="M1721.29,1482.83l0,-270.789l7.318,0l82.092,-252.941l-89.41,0l0,-51.113l393.075,-0l-0,51.113l-93.276,0l82.761,252.941l10.515,0l-0,270.789l-393.075,0Z"/>
    <path id="_330" serif:id="330" d="M2183.39,1482.83l-0,-270.789l8.246,0l82.864,-252.803l-91.11,-0l-0,-51.251l318.9,-0l-0,51.113l-94.84,0.138l82.704,252.803l12.136,0l-0,270.789l-318.9,0Z"/>
</svg>