<svg width="100%" height="100%" viewBox="0 0 5000 5000" version="1.1"
    style="fill-rule:evenodd;clip-rule:evenodd;stroke-linecap:round;stroke-linejoin:round;stroke-miterlimit:1.5;">
    <path d="M3387.08,1420.55l1463.76,-641.167l149.159,140.112l-946.618,1540.14l-423.817,228.304l-1021.47,-0l778.983,-1267.39Z" style="fill:#205c5b;"/>
    <path d="M1375.93,2770.59l1021.47,-0l102.599,1351.66l102.609,-1351.66l1021.47,-0l149.159,140.112l-1167.76,1899.93l-210.946,0l-1167.76,-1899.93l149.159,-140.112Z" style="fill:#205c5b;"/>
    <path d="M149.159,779.378l1463.76,641.167l778.983,1267.39l-1021.47,-0l-423.817,-228.304l-946.618,-1540.14l149.159,-140.112Z" style="fill:#205c5b;"/>
    <path d="M3190.91,1386.31l-690.987,1196.8l-690.976,-1196.8c-142.519,-246.864 -142.519,-551.008 0,-797.873c220.33,-381.617 708.301,-512.374 1089.92,-292.045c381.617,220.33 512.364,708.301 292.045,1089.92Zm-680.575,0c215.589,-5.521 388.663,-182.021 388.663,-398.941c0,-220.402 -178.673,-399.065 -399.075,-399.065c-220.401,0 -399.064,178.663 -399.064,399.065c-0,216.92 173.064,393.42 388.652,398.941c3.46,0.089 6.931,0.133 10.412,0.133c3.482,0 6.952,-0.044 10.412,-0.133Z" style="fill:#489991;"/>
</svg>