<svg version="1.1" id="svg1" xmlns:xlink="http://www.w3.org/1999/xlink" xmlns="http://www.w3.org/2000/svg" viewBox="0 0 1056 816">
  <path d="M729 357v127h-31v56H567v115h299v55h146V541h13v-59h-13V358H729Z" id="_Health-Center"/>
  <path d="M397 106v364h51v-63h129v64h50V106H397Z" id="_3500"/>
  <path d="M13 357v353h147v-55h149V540h77v-57h-87V357Z" id="_Bursar"/>
  <path d="M397 106v377h-98V358H13v352h147v-55h301v15h103v-15h302v55h146V541h13v-59h-13V357H721v-56h12V141h-46v20h-60v-55H397z" id="floor"/>
</svg>
