<svg version="1.1" id="svg1" xmlns:xlink="http://www.w3.org/1999/xlink" xmlns="http://www.w3.org/2000/svg" viewBox="-300 -25 1750 1000">
  <path d="M4 349v112H0v101h4v157h165v-55h271v14h145v-14h272v55h164V562h13V461h-13V348h-5v-15h-23v15H723v-43h15V136h-56v23h-47V97H389v36h-48v113h48v228h-81V348H4Z" id="floor"/>
  <path d="M14 358v55h93v-55l-93 1z" id="_3711"/>
  <path d="M109 358v66h39v-66h-39z" id="_3715"/>
  <path d="M150 361v64h41v-64h3v-3h-31v4h-13z" id="_3717"/>
  <path d="M196 358v5h-3v61h44v-66h-41z" id="_3719"/>
  <path d="M238 358v66h60l-1-66-59 1z" id="_3721"/>
  <path d="M14 415v53h30v11h31v-64H14z" id="_3712"/>
  <path d="M77 415v64h63v-36h124v36h34v-53H191v-1h-40v1h-44v-11H77z" id="_3714"/>
  <path d="M140 443v36h74v-36z" id="_3718"/>
  <path d="M214 443v36h50v-36h-50z" id="_3724"/>
  <path d="M14 543v57h66v-57z" id="_3611"/>
  <path d="M14 602v48h66v-48H14z" id="_3613"/>
  <path d="M105 568v58h54v-27h-4v-14h4v-16h-12v-1h-42z" id="_3618"/>
  <path d="M106 628v81h49v-3h4v-78h-53z" id="_3619"/>
  <path d="M14 652h90v57l-90-1 1-56z" id="_3615"/>
  <path d="M163 587h46v67h-46l1-67z" id="_3621"/>
  <path d="M211 588v66h43v-66h-43z" id="_3623"/>
  <path d="M256 568v86h52v-74h-11v-12h-41z" id="_3625"/>
  <path d="M122 541v-58h2v-4h16v4h69v1h7v-1h45v57h-44v-2h-8v2h-69v1z" id="_3602"/>
  <path d="M284 540v-34h39v34h-9v-2h-7v2h-23z" id="_3601"/>
  <path d="M323 540v-34h64v34z" id="_3600.02"/>
  <path d="M262 483v57h22v-34h103v-23h-73v1h-7v-1h-45z" id="_3600.01"/>
  <path d="M82 650V543h58v1h157v23h-43v19h-90v-2h-3v-17h-14v1h-42v58h-1v24z" id="_3624"/>
  <path d="M313 544v110h78V544h-78z" id="_3627"/>
  <path d="M393 544v32h36v-33h-21v1h-15z" id="_3636"/>
  <path d="M431 543v33h27v-33h-27z" id="_3638"/>
  <path d="M393 578v76h59v-5h5v-71h-64z" id="_3631"/>
  <path d="M389 483v57h11v-2h8v2h52v-17h103v17h61v-1h7v1h67v-57h-15v-4h-39v5h-8v1h-8v-1h-19v-11h-29v10H444v-10h-28v11h-9v2h-8v-3h-10z" id="_3000"/>
  <path d="M567 543v42h28v-42z" id="_3236"/>
  <path d="M597 543v30h14v-30h-14z" id="_3238"/>
  <path d="M613 545v41h46v-44h-12v3h-34z" id="_3234"/>
  <path d="M659 542v44h44v-41h-17v-3h-27z" id="_3232"/>
  <path d="M567 587v24h211v-24h-75v-1h-90v1h-2v-12h-14v12h-30z" id="_3230"/>
  <path d="M567 613v41h49v-5h-2v-36z" id="_3231"/>
  <path d="M616 613v34h2v7h43v-41z" id="_3229"/>
  <path d="M663 613v41h45v-41h-45z" id="_3227"/>
  <path d="M710 613v41h44v-41h-44z" id="_3225"/>
  <path d="M756 613v41h53v-38h-32v-3h-21z" id="_3223"/>
  <path d="m810 616 1 38h42v-3h8v-35h-51z" id="_3221"/>
  <path d="M779 585v29l85-1v-21h-43v-7h-42z" id="_3220"/>
  <path d="M779 543v40h42v-40h-42z" id="_3224"/>
  <path d="M735 543v42h43v-42z" id="_3226"/>
  <path d="M710 549v24h23v-30h-19v6h-4z" id="_3226A"/>
  <path d="M710 575v10h23v-10z" id="_3228"/>
  <path d="M699 483v57h13v-1h7v1h84v-60h1v-16h-23v19h-41v1h-19v1h-8v-2h-14z" id="_3200"/>
  <path d="M741 443v36h38v-47h-50l1 11h11z" id="_3124"/>
  <path d="m730 407-1 23h18v-23h-17z" id="_3123"/>
  <path d="m730 358-1 47h50v-47h-49z" id="_3121"/>
  <path d="M781 358v47h40v-47h-40z" id="_3119"/>
  <path d="M823 358v47h46v-47z" id="_3117"/>
  <path d="M871 362v43h44v-47h-41v4h-3z" id="_3115"/>
  <path d="M917 358v47h44v-47h-44z" id="_3113"/>
  <path d="M963 358v47h49v-47z" id="_3111"/>
  <path d="M965 432v47h47l-1-47h-46z" id="_3112"/>
  <path d="M916 432v47h47v-47h-47z" id="_3114"/>
  <path d="M904 432v23h10v-23h-10z" id="_3116"/>
  <path d="M904 457v22h10v-22h-10z" id="_3116A"/>
  <path d="M849 432v48h24v-48h-24z" id="_3118"/>
  <path d="M806 443v37h41v-37l-41-1z" id="_3122"/>
  <path d="M1012 407H749v23h32v32h23v-31h3v10h40v-11h28v52h28v-55h1v3h108z" id="_3110"/>
  <path d="M805 485v54h6v1h25v-60h-20v3h-6v2h-5z" id="_3100.02"/>
  <path d="M836 483v57h35v-57h-35z" id="_3100.01"/>
  <path d="M823 543v47h48v-47h-48z" id="_3222"/>
  <path d="M873 484v57h30v-59h-29v2h-1z" id="_3100A"/>
  <path d="M905 545v45h46v-45h-46z" id="_3212"/>
  <path d="M953 544v46h31v5h27v-51h-58z" id="_3211"/>
  <path d="M866 616v42h25v-23h8v-19h-33z" id="_3218"/>
  <path d="M984 597v39h28v-39h-28z" id="_3213"/>
  <path d="M984 638v24h28v-24h-28z" id="_3213A"/>
  <path d="M962 709h50v-45h-30v-1h-20z" id="_3215"/>
  <path d="m917 660-1 42h3v7h41v-49h-44" id="_3217"/>
  <path d="M867 665v44h50v-5h-3v-44h-37v5h-10z" id="_3219"/>
  <path d="M873 541v51h-9v22l53-1v3h-11v19h11v2h-24v21h69v5h20v-71h-79v-51h-30z" id="_3214"/>
  <path d="M635 161v8h2v12h-2v290h3v-3h4v7h2v4h39V351h38v-46h-39v-47h5v2h2v-22h-2v1h-5v-78h-47z" id="_3300"/>
</svg>
