<svg version="1.1" id="svg1" xmlns:xlink="http://www.w3.org/1999/xlink" xmlns="http://www.w3.org/2000/svg" viewBox="0 0 1056 816">
  <path d="M103 356v89H92v83h13v124h132v-45h218v12h35v4h9v-4h27v4h10v-4h35v-12h223v45h129V528h11v-83h-12v-89H686v-36h11V185h-44v18h-39v-51H411v304h-68V356H103Z" id="floor"/>
  <path d="M109 362v48l49-1v-47h-49z" id="_4711"/>
  <path d="M160 362v47h57v-47z" id="_4713"/>
  <path d="M219 366v62h39v-66h-34v4h-5z" id="_4717"/>
  <path d="M231 430v30l27-1v-29h-27z" id="_4718"/>
  <path d="M174 448v13l20-1v-12h-20z" id="_4716"/>
  <path d="M109 411v39h29v-39z" id="_4714.02"/>
  <path d="M138 411v40h-5v10l40-1v-13h44v-36h-79z" id="_4714.01"/>
  <path d="M177 510v7h18v-7z" id="_4614"/>
  <path d="M189 464v44h7v1h72v-21h11v20h12v2h13v-18l11-11h16l12 11v17h79v-46h-24v16l-11 11h-17l-11-11v-16H217v-15h-21v13h2v3z" id="_4600.01"/>
  <path d="M268 508v-20h11v20h-11Z" id="_4600.04"/>
  <path d="M304 508v-16l11-11h16l12 12v15z" id="_4600.03"/>
  <path d="M359 463v16l12 11h16l11-11v-16z" id="_4600.02"/>
  <path d="M260 362v48h36v-48z" id="_4719"/>
  <path d="M298 409h39v-47h-39v47z" id="_4721"/>
  <path d="M260 411v49h72v-9h5v-40h-77z" id="_4720"/>
  <path d="M196 510v9h-24v77h57v-14h-36v-27h28v-45h-25z" id="_4616.01"/>
  <path d="M192 555v27h36v-26h-7v-1h-29z" id="_4616.02"/>
  <path d="M113 555v41h59v-41h-59z" id="_4613"/>
  <path d="M120 519v9h-8v24h1v2h57v-35Z" id="_4611"/>
  <path d="M223 536v17h6v-18h-6z" id="_4618"/>
  <path d="M113 597v8h-1v39h41v-4h-2v-43z" id="_4615"/>
  <path d="M153 597v41h1v5h5v1h23v-1h6v-5h1v-41h-36Z" id="_4617"/>
  <path d="M191 597v43h-2v4h39v-47h-37z" id="_4619"/>
  <path d="M232 555v45h38v-45h-38z" id="_4621"/>
  <path d="M271 555v45h38v-45h-38z" id="_4623"/>
  <path d="M311 555v45h29v-1h8v-44h-37z" id="_4625"/>
  <path d="M280 512v41h68v-13h-5v2h-2v-31h-51v1z" id="_4624"/>
  <path d="M233 511v42h45v-41h-22v-1h-23z" id="_4622"/>
  <path d="M353 555v44h35v-44h-35z" id="_4627"/>
  <path d="M353 512v41h27v-41z" id="_4626"/>
  <path d="M382 512v41h7v15h34v-17h-16l-11-11v-16l11-11v-3h-23v2z" id="_4629.01"/>
  <path d="M389 568v32h25v-1h9v-31h-34z" id="_4629.03"/>
  <path d="M425 555v44h1v1h35v-2h2v2h7v-45h-45z" id="_4631"/>
  <path d="M425 512v41h45v-13h-7v2h-2v-31h-14v1h-22z" id="_4636"/>
  <path d="M407 512v1l-11 11v16l11 11h16v-39z" id="4629"/>
  <path d="M473 568v44h80v-44z" id="_4411"/>
  <path d="M418 454h86v4h18v-4h87v-82h-20l-7 1h-7l-5 1-7 1-7 2-8 2-8 2-7 1h-8l-7 1h-9l-7-1h-8l-7-1-7-2-8-2-4-1-8-1-6-1-4-1h-6l-5-1h-21z" id="_4500"/>
  <path d="M556 527v46h24v-46h-24z" id="_4414"/>
  <path d="M556 511v14h26v20h7v-20h2v-14z" id="_4228"/>
  <path d="M593 516v11h-2v18h17v-2h3v2h47v-34h-47v10h-3v-5h-15z" id="_4224"/>
  <path d="M660 517v28h13v-28h-13Z" id="_4226"/>
  <path d="M640 548v51h33v-51h-33z" id="_4225"/>
  <path d="M581 548v27h-4v24h60v-51z" id="_4229"/>
  <path d="M556 575v24h19v-24z" id="_4413"/>
  <path d="M676 511v88h109v-88H676Z" id="_4222"/>
  <path d="M787 540v59h10v-60h-10z" id="_4221"/>
  <path d="M800 540v14h8v-15h-8z" id="_4216"/>
  <path d="M689 362v50h36v-46h3v-5h-23v1h-16z" id="_4121"/>
  <path d="M726 368v27h38v-33h-1v-1h-24v1h-9v6h-4z" id="_4119"/>
  <path d="M765 362v50h40v-46h-4v-4h-4v-1h-23v1h-9z" id="_4117"/>
  <path d="M756 413v47h49v-46h-49z" id="_4118"/>
  <path d="M689 414v7h9v39h56v-48h10v-15h-38v16h-37z" id="_4120"/>
  <path d="M809 361v52h34v-45h-2v-6h-9v-1h-23z" id="_4115"/>
  <path d="M843 361v5h2v48h35v-46h-5v-6h-9v-1h-23Z" id="_4113"/>
  <path d="M877 361v5h4v48h35v-52h-16v-1h-23z" id="_4111"/>
  <path d="M907 415v45h9v-45h-9z" id="_4114"/>
  <path d="M879 428v32h27v-32h-27z" id="_4112.03"/>
  <path d="M852 428v24h1v7h26v-31h-27z" id="_4112.02"/>
  <path d="M831 453v8h20v-8h-20z" id="_4116"/>
  <path d="M809 415v47h20v-10h23v-24h54v-13h-97Z" id="_4112.01"/>
  <path d="M719 463v45h47v-15l11-12h16l12 12v15h5v2h19v-48h-20v1z" id="_4100.01"/>
  <path d="M766 508v-15l12-12h15l12 12v15z" id="_4100.02"/>
  <path d="M831 512v6h20v-6z" id="_4214"/>
  <path d="M899 512v41h18v-22h-1v-19z" id="_4211.03"/>
  <path d="M883 512v41h16v-41h-16z" id="_4211.02"/>
  <path d="M857 519v34h25v-34h-25z" id="_4211.01"/>
  <path d="M810 509v45h29v42h37v-18h-19v-59h-28v-10z" id="_4212"/>
  <path d="M857 553v25h19v-1h31v-24h-50z" id="_4213"/>
  <path d="M800 555v41h39v-42h-29v1h-10" id="_4218"/>
  <path d="M800 597v46h17v1h24v-4h-2v-43z" id="_4219"/>
  <path d="M840 597v41h2v6h34v-47h-36z" id="_4217"/>
  <path d="M877 578v66h24v-1h15v-58h-9v-7z" id="_4215"/>
  <path d="M614 455v8H423v45h50v58h24v-75h32v75h24v-58h165v-45h-65v-8h-39z" id="_4000"/>
  <path d="M614 205v250h39v-98h30v-36h-30V205h-39Z" id="_4300"/>
</svg>
