<svg xmlns="http://www.w3.org/2000/svg" id="svg1" version="1.1" viewBox="0 0 3054 1676.1">
  <path id="floor" d="M1190 0v588H907v161h-60v9H39v366H0v170h1059v349h316v33h295v-33h316v-349h1068v-104h-39V749h-868V588h42V110h-140v63h-185V0Z"/>
  <path id="_1711" d="M39 758v196h191V758Z"/>
  <path id="_1712" d="M39 963v96h-3v24h59v35h135V963Z"/>
  <path id="_1714" d="M236 904v211h217v-53H286V942l-47-38z"/>
  <path id="_1713" d="M236 758v137h6l53 44 78-92h65v-89z"/>
  <path id="_1713A" d="M438 847h-65l-78 92v45h143z"/>
  <path id="_1713B" d="M295 993v60h75v-60z"/>
  <path id="_1713C" d="M379 993v60h89l-3-63h-21v3z"/>
  <path id="_1717" d="M847 877h-63l-29-30H638v242h-50V847H444v-89h403z"/>
  <path id="_1717A" d="M444 847v137h144V847Z"/>
  <path id="_1717C" d="M474 984v134h96v-29h18V984Z"/>
  <path id="_1717D" d="M638 984v105l146 3V984Z"/>
  <path id="_1717B" d="M638 847v137h146V877l-29-30z"/>
  <path id="_1719" d="M784 877v241h66v-29h54v23h208V877Z"/>
  <path id="_1728" d="M1115 877v235h159V877Z"/>
  <path id="_1731" d="M1083 588v50h77v-50z"/>
  <path id="_1121A" d="M2168 1011V907h-30V784h30v-35h-21v-48h-44v310z"/>
  <path id="_1118" d="M2398 1032v51h42v-30h29v-21z"/>
  <path id="_1319" d="M2040 596v99h107v-99z"/>
  <path id="_1321" d="M1945 173v209h95V200h-33v-27Z"/>
  <path id="_1111" d="M2484 749v366h224v-59h179v59h18v-26h48v-39h62V749Z"/>
  <path id="_1211" d="M2613 1127v167h441v-104h-39v-63z"/>
  <path id="_1001A" d="M2058 1226v68h459v-68z"/>
  <path id="_1001" d="M0 1127v152h30v15h1017v-35h948v35h57v-74h471v74h84v-167h-146v51h-239v-51L0 1124Z"/>
  <path id="_1005" d="M1059 1274v235h927v-235z"/>
  <path id="_1005A" d="M1059 1515v128h316v33h295v-33h316v-128z"/>
  <path id="_1121" d="M2174 749v41h-30v114h30v107h140V749Z"/>
  <path id="_1119" d="M2317 749v262h152V749Z"/>
  <path id="_1500" d="M1274 0v84h-84v682h674V84h-89V0Z"/>
</svg>
