<svg version="1.1"  xmlns="http://www.w3.org/2000/svg" viewBox="-50 0 1204 1398.9">
    <path  d="M85 206h127v2h647v-2h128v403H859v-2H212v2H85v-63H75v-5h-2V274h2v-5h10z" id="floor"/>
    <path  d="M171 492H95v106h76z" id="_excavated_stair"/>
    <path  d="M176 590v-32h4v-8h-4v-55h45v-54h-45v-91h266v18h45v222z" id="_214"/>
    <path  d="M490 368h29v-18h129v18h29v222H490z" id="_215"/>
    <path  d="M680 368h29v-18h83v18h44v222H680Z" id="_216"/>
    <path  d="M843 371h134v227H870v-8h-27z" id="_217"/>
    <path  d="M977 368H874v-40h103z" id="_218"/>
    <path  d="M977 325H874v-28h-6v-16h109z" id="_219"/>
    <path  d="M843 287v-62l27-1v-7h107v61H865v9z" id="_excavated_stair"/>
    <path  d="M836 304h-72v-79h72z" id="_211"/>
    <path  d="M697 304v-79h67v79z" id="_210"/>
    <path  d="M694 304h-62v-79h62z" id="_209"/>
    <path  d="M567 304v-79h62v79z" id="_208"/>
    <path  d="M564 304h-85v-79h85z" id="_207"/>
    <path  d="M474 304h-61v-79h61z" id="_206"/>
    <path  d="M410 304h-63v-79h63z" id="_205"/>
    <path  d="M344 304H176v-79h168z" id="_204"/>
    <path  d="M167 304H95v-81h72z" id="_excavatedLAVM"/>
</svg>