<svg version="1.1"  xmlns="http://www.w3.org/2000/svg" viewBox="-50 0 1204 1398.9">
    <path  d="M85 231h127v2h647v-2h128v403H859v-2H212v2H85v-63H75v-5h-2V315h2v-21h10z" id="floor"/>
    <path  d="M171 533H95v90h76z" id="_excavated_stair"/>
    <path  d="M176 536h169v79h-66v4h-56v-4h-47z" id="_402"/>
    <path  d="M348 615v-79h60v79z" id="_404"/>
    <path  d="M411 615v-79h77v79z" id="_405"/>
    <path  d="M491 615v-79h73v79z" id="_406"/>
    <path  d="M567 615v-79h63v79z" id="_407"/>
    <path  d="M633 615v-79h52v79z" id="_408"/>
    <path  d="M688 615v-79h71v79z" id="_409"/>
    <path  d="M762 615v-79h74v79z" id="_410"/>
    <path  d="M844 615v-88h133v96H870v-8z" id="_411"/>
    <path  d="M885 524v-79h71v16h21v63z" id="_412"/>
    <path  d="M885 442v-77h92v93h-18v-16z" id="_414"/>
    <path  d="M977 362h-92v-41h-16v-15h108z" id="_415"/>
    <path  d="M865 321h-22v-72h27v-8h107v62H865z" id="_excavated_stair"/>
    <path  d="M836 329h-74v-80h74z" id="_416"/>
    <path  d="M759 329h-62v-80h62z" id="_417"/>
    <path  d="M694 329h-61v-80h61z" id="_418"/>
    <path  d="M630 329h-63v-80h63z" id="_419"/>
    <path  d="M564 329h-82v-80h82z" id="_420"/>
    <path  d="M479 329h-66v-80h66z" id="_421"/>
    <path  d="M410 329h-62v-80h62z" id="_422"/>
    <path  d="M345 329H223v-84h56v4h66z" id="_424"/>
    <path  d="M176 329v-80h44v80z" id="_425"/>
    <path  d="M171 329H95v-88h76z" id="_excavatedLAVM"/>
    <path  d="M272 373h90v118h-90Z" id="_436"/>
    <path  d="M365 374h84v58h-84z" id="_431"/>
    <path  d="M365 432h84v57h-84z" id="_430"/>
    <path  d="M452 374h74v115h-74z" id="_432"/>
    <path  d="M529 374h74v115h-74z" id="_429"/>
    <path  d="M606 374h73v115h-73z" id="_433"/>
    <path  d="M683 374h74v115h-74z" id="_428"/>
    <path  d="M760 374h76v58h-76z" id="_434"/>
    <path  d="M760 432h76v57h-76z" id="_427"/>
</svg>