<svg version="1.1"  xmlns="http://www.w3.org/2000/svg" viewBox="0 0 1974 1177.8">
    <path  d="M88 228h1880v776H88Z" id="floor"/>
    <path  d="M497 834h131v170H497Z" id="_325"/>
    <path  d="M635 1004V834h129v170z" id="_326"/>
    <path  d="M770 1004V834h162v170z" id="_327"/>
    <path  d="M938 1004V834h157v170z" id="_328"/>
    <path  d="M1101 1004V834h132v170z" id="_329"/>
    <path  d="M1239 1004V834h112v170z" id="_330"/>
    <path  d="M1358 1004V834h148v170z" id="_331"/>
    <path  d="M1512 834h167v170h-167z" id="_332"/>
    <path  d="M1775 811V588h193v223z" id="_322"/>
    <path  d="M1775 583V473h193v110z" id="_320"/>
    <path  d="M1775 468v-87h-36v-34h229v121z" id="_319"/>
    <path  d="M1512 396V228h159v168z" id="_311"/>
    <path  d="M1375 396V228h131v168z" id="_310"/>
    <path  d="M1368 396h-129V228h129z" id="_309"/>
    <path  d="M1233 396h-132V228h132z" id="_308"/>
    <path  d="M1095 396H919V228h176z" id="_307"/>
    <path  d="M912 396H775V228h137z" id="_306"/>
    <path  d="M535 737h397V495H535Z" id="_315"/>
    <path  d="M938 737h195V495H938Z" id="_316a"/>
    <path  d="M1139 737h195V495h-195z" id="_316b"/>
    <path  d="M1341 737V495h330v242z" id="_317"/>
    <path  d="M88 603h350V228H88Z" id="_302"/>
    <path  d="M768 396H445V228h323z" id="_305"/>
    <path  d="M1744 1004h-58V834h89v-17h193v187z" id="_333"/>
</svg>