<svg version="1.1"  xmlns="http://www.w3.org/2000/svg" viewBox="0 0 1974 1177.8">
    <path  d="M1973 1027H92V249h1881Z" id="floor"/>
    <path  d="M636 1027V858h128v169z" id="_404"/>
    <path  d="M771 1027V858h162v169z" id="_405"/>
    <path  d="M940 1027V858h156v169z" id="_406"/>
    <path  d="M1102 1027V858h133v169z" id="_407"/>
    <path  d="M1241 1027V858h112v169z" id="_408"/>
    <path  d="M1359 1027V858h150v169z" id="_409"/>
    <path  d="M1516 1027V858h158v169z" id="_410"/>
    <path  d="M1779 850V682h149v33h45v135z" id="_412"/>
    <path  d="M1779 676V512h194v197h-38v-33z" id="_414"/>
    <path  d="M1973 506h-194v-87h-36v-33h230z" id="_415"/>
    <path  d="M1674 418h-158V249h158z" id="_416"/>
    <path  d="M1509 418h-132V249h133z" id="_417"/>
    <path  d="M1371 418h-130V249h130z" id="_418"/>
    <path  d="M1235 418h-133V249h133z" id="_419"/>
    <path  d="M1096 418H920V249h176z" id="_420"/>
    <path  d="M914 418H775V249h139z" id="_421"/>
    <path  d="M768 418H636V249h133z" id="_422"/>
    <path  d="M475 515h191v244H475z" id="_436"/>
    <path  d="M672 514h178v124H672z" id="_431"/>
    <path  d="M672 638h178v121H672z" id="_430"/>
    <path  d="M857 514h157v245H857z" id="_432"/>
    <path  d="M1020 514h157v245h-157z" id="_429"/>
    <path  d="M1184 514h157v245h-157z" id="_433"/>
    <path  d="M1347 514h158v245h-158z" id="_428"/>
    <path  d="M1511 514h163v124h-163z" id="_434"/>
    <path  d="M1511 638h163v121h-163z" id="_427"/>
    <path  d="M629 418H372V249h257z" id="_424"/>
    <path  d="M271 1027V858h358v169Z" id="_402"/>
    <path  d="M1680 1027V858h293v169z" id="_411"/>
</svg>