<svg version="1.1"  xmlns="http://www.w3.org/2000/svg" viewBox="-50 0 1204 1398.9">
    <path  d="m83 209 128 1v1h647v-2h128v403H858v-2H211v2H83v-63H73v-5h-2V277h2v-5h10z" id="floor"/>
    <path  d="M170 511H94v91h76z" id="_excavated_stair"/>
    <path  d="M174 514h53v35h21v16h30v33h-56v-4h-48v-33h4v-8h-4z" id="_excavatedLAVW"/>
    <path  d="M251 562v-48h27v48z" id="_336"/>
    <path  d="M281 514h62v80h-62z" id="_325"/>
    <path  d="M346 594v-80h61v80z" id="_326"/>
    <path  d="M410 594v-80h76v80z" id="_327"/>
    <path  d="M489 594v-80h74v80z" id="_328"/>
    <path  d="M566 594v-80h62v80z" id="_329"/>
    <path  d="M631 594v-80h53v80z" id="_330"/>
    <path  d="M687 594v-80h70v80z" id="_331"/>
    <path  d="M760 514h75v80h-75z" id="_332"/>
    <path  d="M842 594v-80h42v-8h91v96H869v-8z" id="_333"/>
    <path  d="M884 503V398h91v105z" id="_322"/>
    <path  d="M884 395v-51h91v51z" id="_320"/>
    <path  d="M884 341v-41h-17v-16h108v57z" id="_319"/>
    <path  d="M842 300v-72h27v-8h106v61H864v19z" id="_excavated_stair"/>
    <path  d="M760 307v-79h75v79z" id="_311"/>
    <path  d="M695 307v-79h62v79z" id="_310"/>
    <path  d="M692 307h-61v-79h61z" id="_309"/>
    <path  d="M628 307h-62v-79h62z" id="_308"/>
    <path  d="M563 307h-83v-79h83z" id="_307"/>
    <path  d="M477 307h-65v-79h65z" id="_306"/>
    <path  d="M409 307H257v-83h21v4h131z" id="_305"/>
    <path  d="M254 277h-79v-9h3v-7h-3v-33h47v-4h32z" id="_304"/>
    <path  d="M170 254H94v-34h76z" id="_excavatedLAVW"/>
    <path  d="M170 257v50H94v-50z" id="_334"/>
    <path  d="M254 468h-79v-11H94V311h96v-4h-15v-26h79z" id="_302"/>
    <path  d="M299 468h187V354H299z" id="_315"/>
    <path  d="M489 468h92V354h-92z" id="_316a"/>
    <path  d="M584 468h92V354h-92z" id="_316b"/>
    <path  d="M679 468V354h156v114Z" id="_317"/>
</svg>