<svg xmlns="http://www.w3.org/2000/svg" version="1.1" viewBox="0 0 3300 2550" href="index.html">
  <path id="floor" d="M135.756,900.683l0,-113.715l269.181,0l0,375.845l705.941,0l-0,-349.67l1377.58,0l-0,-132.196l253.6,-0l-0,132.196l473.675,0c23.511,0 42.6,19.089 42.6,42.6c-0,23.512 -19.089,42.6 -42.6,42.6l-99.508,0l0,264.47l1.36,0l-0,610.176l-1394.13,0l0,77.076l-303.356,0l0,-77.076l-171.345,0l-0,102.727c-0,78.896 -64.054,142.95 -142.95,142.95c-78.896,-0 -142.95,-64.054 -142.95,-142.95l-0,-102.727l-827.104,0l0,-671.148l-104.496,0l0,-201.158l104.496,0Z" />
  <path id="_105" d="M136 1600H327V1774H136z" />
  <path id="_106" d="M136 1299H327V1599H136z" />
  <path id="_107" d="M327 1363H450V1486H327z" />
  <path id="_108" d="M327 1486H411V1561H327z" />
  <path id="_109" d="M411 1486H535V1561H411z" />
  <path id="_114" d="M799 1637H1014V1773H799z" />
  <path id="_115" d="M486 1637H583V1773H486z" />
  <path id="_117" d="M327 1637H487V1773H327z" />
  <path id="_118" d="M630.719,1772.99l136.341,-136.341l31.548,0l0,136.341l-167.889,0Z" />
  <path id="_126" d="M1187 1561H1421V1773H1187z" />
  <path id="_127" d="M1095 1466H1270V1561H1095z" />
  <path id="_128" d="M1095 1561H1187V1667H1095z" />
  <path id="_129" d="M1095 1667H1187V1773H1095z" />
  <path id="_130" d="M1333 1466H1508V1561H1333z" />
  <path id="_134C" d="M1820 1656H1951V1773H1820z" />
  <path id="_134B" d="M1728 1619H1820V1774H1728z" />
  <path id="_135B" d="M2049 1567H2149V1658H2049z" />
  <path id="_135" d="M1951 1466H2050V1656H1951z" />
  <path id="_136" d="M1951 1656H2150V1773H1951z" />
  <path id="_138" d="M2420 1597H2575V1773H2420z" />
  <path id="_132" d="M1420 1561H1728V1850H1420z" />
  <path id="_131A" d="M1661 1466H1729V1561H1661z" />
  <path id="_131" d="M1508 1466H1661V1561H1508z" />
  <path id="_133" d="M1728 1466H1888V1561H1728z" />
  <path id="_134A" d="M1728 1561H1780V1618H1728z" />
  <path id="_134" d="M1888.06,1536.87l62.577,-0l-0,119.543l-130.672,0l0,-37.947l-39.874,-0l-0,-57.444l107.969,-0l-0,-24.152Z" />
  <path id="_112" d="M535 1486H642V1561H535z" />
  <path id="_111" d="M449 1363H642V1486H449z" />
  <path id="_110" d="M642 1363H797V1560H642z" />
  <path id="_116" d="M797 1363H900V1560H797z" />
  <path id="_180" d="M136 787H405V1248H136z" />
  <path id="_181" d="M31 901H136V1102H31z" />
  <path id="_182" d="M405 1163H649V1300H405z" />
  <path id="_101" d="M649 1163H743V1300H649z" />
  <path id="_103" d="M940.178,1299.86l-76,-0l0,-33.715l-121.265,-0l0,-103.328l197.265,0l0,137.043Z" />
  <path id="_104" d="M940 1163H1111V1300H940z" />
  <path id="_125" d="M1111 813H1418V1056H1111z" />
  <path id="_124" d="M1111 1057H1226V1183H1111z" />
  <path id="_123" d="M1111 1183H1226V1385H1111z" />
  <path id="_121A" d="M1226 1221H1377V1385H1226z" />
  <path id="_122C" d="M1269 1131H1378V1220H1269z" />
  <path id="_145" d="M1650,956.82l-63.341,-0l-0,-29.909l-28.277,0l-0,-113.768l91.618,0l0,143.677Z" />
  <path id="_142" d="M1650 813H1882V957H1650z" />
  <path id="_153" d="M1882 813H2173V992H1882z" />
  <path id="_154" d="M1882 992H2173V1183H1882z" />
  <path id="_156" d="M1882 1183H2173V1384H1882z" />
  <path id="_169" d="M2173 1232H2229V1384H2173z" />
  <path id="_168" d="M2228 1232H2488V1384H2228z" />
  <path id="_167" d="M2173 1107H2229V1233H2173z" />
  <path id="_161B" d="M2173 981H2387V1107H2173z" />
  <path id="_166" d="M2386.07,1106.63l-0,33.937l102.394,-0l-0,91.577l-260.093,0l0,-125.514l157.699,0Z" />
  <path id="_161A" d="M2386 1044H2488V1141H2386z" />
  <path id="_159" d="M2173 813H2489V981H2173z" />
  <path id="_163" d="M2489 681H2587V813H2489z" />
  <path id="_160" d="M2655.51,902.958l27.187,-46.767l433.526,-0l0,251.83l-148.907,-0l-160.667,46.732l-141.895,-0l0,229.445l-91.21,0l0,-481.24l81.966,-0Z" />
  <path id="_170" d="M2806.65,1154.75l-0,229.445l309.574,0l0,-276.177l-149.174,-0l-160.4,46.732Zm160.4,-46.732l-160.4,46.732l160.4,-46.732Z" />
  <path id="_171" d="M2806.65,1154.75l-141.895,-0l0,229.445l141.895,0l-0,-229.445" />
  <path id="_164" d="M2685 681H2742V813H2685z" />
  <path id="_152" d="M1722 1284H1882V1384H1722z" />
  <path id="_151" d="M1722 1183H1882V1283H1722z" />
  <path id="_140" d="M1534 1183H1650V1384H1534z" />
  <path id="_141" d="M1418 1183H1534V1384H1418z" />
  <path id="_149" d="M1418 993H1534V1183H1418z" />
  <path id="_150" d="M1533.89,956.82l0,-29.82l52.809,0l-0,29.82l295.216,-0l-0,226.604l-348.025,-0l0,-190.326l-45.938,-0l0,-36.278l45.938,-0Z" />
  <path id="_144" d="M1417.78,926.911l-0.258,0l-0,-113.768l140.857,0l-0,113.768l-24.491,0l0,29.909l-45.938,-0l0,36.278l-70.17,-0l-0,-66.187Z" />
  <path id="_122B" d="M1226 1131H1268V1220H1226z" />
  <path id="_122" d="M1226 1057H1377V1131H1226z" />
  <path id="_175A" d="M2576 1692H2693V1773H2576z" />
  <path id="_175B" d="M2576 1610H2693V1691H2576z" />
  <path id="_178" d="M2576 1466H2693V1610H2576z" />
  <path id="_135A" d="M2049 1466H2149V1566H2049z" />
  <path id="_177" d="M2149 1466H2195V1566H2149z" />
  <path id="_176" d="M2899.72,1482.8l-21.007,68.324l-186.584,-0l0,-85.029l207.591,-0l-0,16.705Z" />
  <path id="_137" d="M2195.34,1466.09l67.814,-0l-0,130.55l157.152,-0l0,176.345l-271.029,0l-0,-207.079l46.063,-0l0,-99.816Z" />
  <path id="_175" d="M2878.71,1551.12l-68.217,221.866l-118.367,0l0,-221.866l186.584,-0Z" />
  <path id="_174" d="M2810.49,1772.99l89.224,-290.19l-0,-98.601l216.513,0l0,388.791l-305.737,0Z" />
  <path id="_179" d="M2307.64,1549.99l-0,-83.897l267.942,-0l-0,130.506l-73.057,0l0,-46.609l-194.885,0Z" />
</svg>