<svg xmlns="http://www.w3.org/2000/svg"
  xmlns:xlink="http://www.w3.org/1999/xlink" version="1.1" viewBox="0 0 3300 2550">
  <path id="floor" d="M515.4,550.467l0,12.235l703.937,0l55.006,54.753l54.502,-54.753l1816.39,0l0,191.209l-27.651,0l-0,59.232l98.148,0c23.511,0 42.6,19.089 42.6,42.6c-0,23.512 -19.089,42.6 -42.6,42.6l-99.508,0l0,264.47l1.36,0l-0,610.176l-318.829,0l-32.413,32.732l-31.607,0l0,-54.971l-163.954,0l-0,22.239l-1322.03,0l-0,102.727c-0,78.896 -64.054,142.95 -142.95,142.95c-78.896,-0 -142.95,-64.054 -142.95,-142.95l-0,-272.185l-165.71,-0l-0,18.056l-151.124,151.402l-510.27,0l0,-1024.93l89.447,0l-0,-197.593l0.097,0c0,-80.055 64.995,-145.05 145.05,-145.05c80.055,0 145.05,64.995 145.05,145.05Z" />
  <path id="_201A" d="M415.16,806.226c-1.598,-20.175 -2.413,-40.787 -2.413,-61.823c0,-3.859 0.027,-7.733 0.082,-11.62l87.753,-0l-0,20.49l-85.422,52.953Z" />
  <path id="_308" d="M500.688,732.422l181.915,-0l-0,-50.978l198.934,0l226.825,224.948l0,471.808c0,-0 -34.327,-0.061 -50.894,-0c-337.055,1.237 -613.006,-216.971 -642.308,-572.853l85.528,-52.58l0,-20.345Z" />
  <path id="_213" d="M136 1643H374V1774H136z" />
  <path id="_203" d="M286.231,657.249l-60.931,0l0,-105.998l45.853,-0c-0,-46.37 32.539,-85.199 76.009,-94.88l-0,149.628l-60.931,0l-0,51.25Z" />
  <path id="_205" d="M347.162,456.371c6.821,-1.519 13.912,-2.32 21.189,-2.32c53.645,-0 97.198,43.553 97.198,97.2l-0,54.748l-118.387,0l-0,-149.628Z" />
  <path id="_232" d="M1112 1541H1350V1773H1112z" />
  <path id="_235" d="M1434 1541H1683V1773H1434z" />
  <path id="_236" d="M1683 1541H1921V1773H1683z" />
  <path id="_239" d="M2005 1541H2242V1773H2005z" />
  <path id="_240" d="M2337.68,1605.5l0,-64.28l-96.051,-0l0,231.781l254.249,0l-0,-167.501l-158.198,0Z" />
  <path id="_241" d="M2496 1606H2571V1773H2496z" />
  <path id="_243" d="M2958 1099H3117V1384H2958z" />
  <path id="_244" d="M2958 898H3117V1099H2958z" />
  <path id="_245" d="M2958.15,898.2l-152.806,-0l0,71.531l58.533,36.184l59.696,-0l0,-12.82l34.577,0l-0,-94.895Z" />
  <path id="_337" d="M2805.34,898.2l0,71.531l58.533,36.184l59.696,-0l0,-12.82l34.577,0l-0,390.775l-57.672,-0l0,86.746l-0.012,0.038l-264.607,0l-8.618,-47.435l13.28,-0l-22.228,-115.336l-0,-172.519l6.185,-0l43.096,-237.164l137.77,0Z" />
  <path id="_247" d="M2667.57,898.2l-20.49,112.759l-60.259,0l-0,-112.759l80.749,0Z" />
  <path id="_230" d="M2343 1331H2502V1425H2343z" />
  <path id="_229" d="M2183 1331H2342V1425H2183z" />
  <path id="_227" d="M2064 1331H2115V1425H2064z" />
  <path id="_226" d="M2063.64,1359.97l-188.232,-0l-0,-28.752l-89.848,0l-0,94.04l278.08,-0l0,-65.288Z" />
  <path id="_225" d="M1721 1331H1785V1425H1721z" />
  <path id="_248" d="M3047.59,753.9l0,57.262l-237.744,-0l-0,-248.362l335.355,-0l-0,191.1l-97.611,0Z" />
  <path id="_251" d="M2487 563H2810V674H2487z" />
  <path id="_251E" d="M2487 674H2583V811H2487z" />
  <path id="_251D" d="M2487.05,562.8l-0,186.765l-95.92,-0l0,-23.678l-111.623,-0l-0,-163.087l207.543,-0Z" />
  <path id="_251C" d="M2189 563H2279V726H2189z" />
  <path id="_251B" d="M2099 563H2189V787H2099z" />
  <path id="_2511" d="M2040.68,786.531l-0,25.067l-318.442,0l-0,-248.798l377.032,0l0,223.731l-58.59,0Z" />
  <path id="_252A" d="M1274 722H1382V812H1274z" />
  <path id="_253C" d="M1274.4,721.659l-166.904,-0l0,36.181l53.812,53.758l113.092,0l0,-89.939Z" />
  <path id="_253A" d="M1219.43,562.8l54.908,54.655l0.057,-0.057l0,104.261l-166.904,-0l0,36.181l-68.011,-0l-89.464,-89.463l0,-105.577l269.414,-0Z" />
  <path id="_252" d="M1274.4,617.398l54.348,-54.598l393.489,-0l-0,111.866l-72.237,-0l0,46.993l-375.6,-0l0,-104.261Z" />
  <path id="_222" d="M1650,1331.22l-80.879,0l-0,28.752l-64.488,-0l0,-28.752l-93.344,0l-0,94.04l238.711,-0l0,-94.04Z" />
  <path id="_220" d="M1280 1360H1411V1425H1280z" />
  <path id="_212" d="M136 1526H322V1642H136z" />
  <path id="_216" d="M543 1457H640V1606H543z" />
  <path id="_211" d="M136 1410H322V1526H136z" />
  <path id="_210" d="M136 1294H322V1410H136z" />
  <path id="_208" d="M260 1123H407V1209H260z" />
  <path id="_2081" d="M135.756,844.671l175.42,0c12.811,99.503 43.378,193.477 88.416,278.639l-139.471,0l0,86.069l-124.365,-0l0,-364.708Z" />
  <path id="_206" d="M304.391,738.47c0,35.982 2.309,71.429 6.785,106.201l-175.42,0l0,-106.201l168.635,0Z" />
  <path id="_215A" d="M374.454,1509.61l41.94,-0l68.901,39.907l57.977,0l0,56.879l-168.818,0l0,-96.786Z" />
  <path id="_217" d="M797.15,1612.22l-0,9.372l-151.124,151.402l-271.877,0l0,-82.784l0.305,-0l0,-83.809l265.987,0l-0,-149.026l156.659,0l0,154.845l0.05,-0Z" />
  <path id="_215" d="M374.454,1509.61l0,-52.24l168.818,0l0,92.147l-57.977,0l-68.901,-39.907l-41.94,-0Z" />
  <path id="_318" d="M1107.5,907.987l541.574,-0l71.074,198.611l-70.144,0l-0,224.622l-80.879,0l-0,28.752l-64.488,-0l0,-28.752l-93.344,0l-0,28.752l-130.953,-0l0,18.268l-101.273,0l-0,-316.424l-71.567,-0l0,-153.829Z" />
  <path id="_324" d="M1721.29,1331.22l0,-224.622l-1.149,0l-71.074,-198.611l465.298,-0l71.074,198.611l-71.074,0l-0,224.622l-50.726,0l0,28.752l-188.232,-0l-0,-28.752l-154.117,0Z" />
  <path id="_330" d="M2183.39,1106.6l2.057,0l-71.074,-198.611l387.917,-0l-0,423.233l-318.9,0l-0,-224.622Z" />
  <path id="_233" d="M1350.54,1636.23l83.611,49.202l0,87.573l-83.611,-0l0,-136.775Z" />
  <path id="_234" d="M1350.54,1636.23l0,-95.006l83.611,-0l0,144.208l-83.611,-49.202Z" />
  <path id="_237" d="M1920.38,1633.77l84.744,49.868l-0,89.358l-84.744,0l0,-139.226Z" />
  <path id="_238" d="M1920.38,1633.77l0,-92.555l84.744,-0l-0,142.423l-84.744,-49.868Z" />
</svg>