<svg version="1.1" id="svg1" xmlns="http://www.w3.org/2000/svg" viewBox="0 0 3200 1200">
  <path  d="M3200 1200H0V0h3200z" id="floor"/>
  <!-- <path  d="M2769 718v106h-146V718Z" id="_excavated_ele1"/>
  <path  d="M3075 515v170h-289V515Z" id="_excavated_stair1"/>
  <path  d="M1580 930h-108v-98h108z" id="_excavated_stair2"/> -->
  <path  d="M745 0v1200H0V0Z" id="_119"/>
  <path  d="M1425 0v505H755V0Z" id="_118"/>
  <path  d="M1461 696v504H755V696Z" id="_120"/>
  <path  d="M2105 0v505h-331V0Z" id="_117"/>
  <path  d="M2445 0v505h-331V0Z" id="_116"/>
  <path  d="M3199 0v505h-745V0Z" id="_115"/>
  <path  d="M3200 695v240h-235V695Z" id="_106"/>
  <path  d="M3200 945v255h-235V945Z" id="_105"/>
  <path  d="M2955 695v505h-330V930h-170V699h151v152h180V695Z" id="_103"/>
  <path  d="M2615 940v260h-160V940Z" id="_104"/>
  <path  d="M2444 1200h-329V695h329z" id="_102"/>
  <path  d="M2105 1200h-367V696h367z" id="_101"/>
  <path  d="M1579 940v90h-39v-90z" id="_122"/>
  <path  d="M1725 1040v160h-250V940h54v100z" id="_121"/>
</svg>
