<svg version="1.1" id="svg1" xmlns="http://www.w3.org/2000/svg" viewBox="0 0 1057.3 817.3">
  <defs id="defs1">
    <clipPath clipPathUnits="userSpaceOnUse" id="clipPath228">
      <path d="M0 0h793v613H0Z" transform="matrix(0 1.00037 1 0 0 0)" id="path228"/>
    </clipPath>
    <clipPath clipPathUnits="userSpaceOnUse" id="clipPath230">
      <path d="M664 286h58v149h-58z" transform="scale(1.33333)" id="path230"/>
    </clipPath>
    <clipPath clipPathUnits="userSpaceOnUse" id="clipPath1695">
      <path d="M0 0h793v613H0Z" id="path1695"/>
    </clipPath>
    <clipPath clipPathUnits="userSpaceOnUse" id="clipPath1697">
      <path d="M0 0h793v613H0Z" id="path1697"/>
    </clipPath>
    <clipPath clipPathUnits="userSpaceOnUse" id="clipPath1699">
      <path d="M0 0h793v613H0Z" id="path1699"/>
    </clipPath>
    <clipPath clipPathUnits="userSpaceOnUse" id="clipPath1701">
      <path d="M0 0h793v613H0Z" id="path1701"/>
    </clipPath>
    <clipPath clipPathUnits="userSpaceOnUse" id="clipPath1703">
      <path d="M0 0h793v613H0Z" id="path1703"/>
    </clipPath>
    <clipPath clipPathUnits="userSpaceOnUse" id="clipPath1705">
      <path d="M0 0h793v613H0Z" id="path1705"/>
    </clipPath>
    <clipPath clipPathUnits="userSpaceOnUse" id="clipPath1707">
      <path d="M0 0h793v613H0Z" id="path1707"/>
    </clipPath>
    <clipPath clipPathUnits="userSpaceOnUse" id="clipPath1709">
      <path d="M0 0h793v613H0Z" id="path1709"/>
    </clipPath>
    <clipPath clipPathUnits="userSpaceOnUse" id="clipPath1711">
      <path d="M0 0h793v613H0Z" id="path1711"/>
    </clipPath>
    <clipPath clipPathUnits="userSpaceOnUse" id="clipPath1713">
      <path d="M0 0h793v613H0Z" id="path1713"/>
    </clipPath>
    <clipPath clipPathUnits="userSpaceOnUse" id="clipPath1715">
      <path d="M0 0h793v613H0Z" id="path1715"/>
    </clipPath>
    <clipPath clipPathUnits="userSpaceOnUse" id="clipPath1717">
      <path d="M0 0h793v613H0Z" id="path1717"/>
    </clipPath>
    <clipPath clipPathUnits="userSpaceOnUse" id="clipPath1719">
      <path d="M0 0h793v613H0Z" id="path1719"/>
    </clipPath>
    <clipPath clipPathUnits="userSpaceOnUse" id="clipPath1721">
      <path d="M0 0h793v613H0Z" id="path1721"/>
    </clipPath>
    <clipPath clipPathUnits="userSpaceOnUse" id="clipPath1723">
      <path d="M0 0h793v613H0Z" id="path1723"/>
    </clipPath>
    <clipPath clipPathUnits="userSpaceOnUse" id="clipPath1725">
      <path d="M0 0h793v613H0Z" id="path1725"/>
    </clipPath>
    <clipPath clipPathUnits="userSpaceOnUse" id="clipPath1727">
      <path d="M0 0h793v613H0Z" id="path1727"/>
    </clipPath>
    <clipPath clipPathUnits="userSpaceOnUse" id="clipPath1729">
      <path d="M0 0h793v613H0Z" id="path1729"/>
    </clipPath>
    <clipPath clipPathUnits="userSpaceOnUse" id="clipPath1731">
      <path d="M0 0h793v613H0Z" id="path1731"/>
    </clipPath>
    <clipPath clipPathUnits="userSpaceOnUse" id="clipPath1733">
      <path d="M0 0h793v613H0Z" id="path1733"/>
    </clipPath>
    <clipPath clipPathUnits="userSpaceOnUse" id="clipPath1735">
      <path d="M0 0h793v613H0Z" id="path1735"/>
    </clipPath>
  </defs>
  <path d="M616 365v46h42v-46h-42z" style="opacity:.5;fill:#00f;fill-opacity:1;fill-rule:nonzero;stroke:none" transform="scale(1.33333)" clip-path="url(#clipPath1713)" id="path1714"/>
  <path d="M554 411h60v-91h-30v28h-30v63z" style="opacity:.5;fill:#00f;fill-opacity:1;fill-rule:nonzero;stroke:none" transform="scale(1.33333)" clip-path="url(#clipPath1707)" id="path1708"/>
  <path d="M524 411h29v-47h-29v47z" style="opacity:.5;fill:#00f;fill-opacity:1;fill-rule:nonzero;stroke:none" transform="scale(1.33333)" clip-path="url(#clipPath1705)" id="path1706"/>
  <path d="M433 320h28v91h-66v-73l45-12v-1l-7 2z" style="opacity:.5;fill:#00f;fill-opacity:1;fill-rule:nonzero;stroke:none" transform="scale(1.33333)" clip-path="url(#clipPath1735)" id="path1736"/>
  <path d="M617 195v27h-2v19h43v-46h-41z" style="opacity:.5;fill:#00f;fill-opacity:1;fill-rule:nonzero;stroke:none" transform="scale(1.33333)" clip-path="url(#clipPath1717)" id="path1718"/>
  <path d="M616 320v43h42v-43h-42z" style="opacity:.5;fill:#00f;fill-opacity:1;fill-rule:nonzero;stroke:none" transform="scale(1.33333)" clip-path="url(#clipPath1711)" id="path1712"/>
  <path d="M522 195h-60v91h60z" style="opacity:.5;fill:#00f;fill-opacity:1;fill-rule:nonzero;stroke:none" transform="scale(1.33333)" clip-path="url(#clipPath1721)" id="path1722"/>
  <path d="M584 287h-49v-1h-11v-29h22v2h2v-11h8v-22h29v-2h29v37h-30z" style="opacity:.5;fill:#00f;fill-opacity:1;fill-rule:nonzero;stroke:none" transform="scale(1.33333)" clip-path="url(#clipPath1729)" id="path1730"/>
  <path d="M610 195v16l-3 3h-12v6h-19v-25z" style="opacity:.5;fill:#00f;fill-opacity:1;fill-rule:nonzero;stroke:none" transform="scale(1.33333)" clip-path="url(#clipPath1723)" id="path1724"/>
  <path d="M575 195h-51v60h22v-9h9v-26h20z" style="opacity:.5;fill:#00f;fill-opacity:1;fill-rule:nonzero;stroke:none" transform="scale(1.33333)" clip-path="url(#clipPath1719)" id="path1720"/>
  <path d="M616 286v-43h42v43h-42z" style="opacity:.5;fill:#00f;fill-opacity:1;fill-rule:nonzero;stroke:none" transform="scale(1.33333)" clip-path="url(#clipPath1715)" id="path1716"/>
  <path d="M524 339v24h27v-42h-23v18h-4z" style="opacity:.5;fill:#00f;fill-opacity:1;fill-rule:nonzero;stroke:none" transform="scale(1.33333)" clip-path="url(#clipPath1709)" id="path1710"/>
  <path d="M593 261v14l4 4h10v-18z" style="opacity:.5;fill:#00f;fill-opacity:1;fill-rule:nonzero;stroke:none" transform="scale(1.33333)" clip-path="url(#clipPath1731)" id="path1732"/>
  <path d="M461 195v91h-28v-6l7 2v-2l-39-10v-75z" style="opacity:.5;fill:#00f;fill-opacity:1;fill-rule:nonzero;stroke:none" transform="scale(1.33333)" clip-path="url(#clipPath1725)" id="path1726"/>
  <path d="M431 286h-30v-15l30 8z" style="opacity:.5;fill:#00f;fill-opacity:1;fill-rule:nonzero;stroke:none" transform="scale(1.33333)" clip-path="url(#clipPath1727)" id="path1728"/>
  <path d="M395 320h36v7l-36 10z" style="opacity:.5;fill:#00f;fill-opacity:1;fill-rule:nonzero;stroke:none" transform="scale(1.33333)" clip-path="url(#clipPath1733)" id="path1734"/>
  <path d="m462 320 1 91h59v-91h-60z" style="opacity:.5;fill:#00f;fill-opacity:1;fill-rule:nonzero;stroke:none" transform="scale(1.33333)" clip-path="url(#clipPath1703)" id="path1704"/>
  <path d="M347 382h45v29h-45v-29z" style="opacity:.5;fill:#00f;fill-opacity:1;fill-rule:nonzero;stroke:none" transform="scale(1.33333)" clip-path="url(#clipPath1701)" id="path1702"/>
  <path d="m217 320 1 91h127v-85h-5v-6z" style="opacity:.5;fill:#00f;fill-opacity:1;fill-rule:nonzero;stroke:none" transform="scale(1.33333)" clip-path="url(#clipPath1699)" id="path1700"/>
  <path d="M217 195h121v91H217l1-91z" style="opacity:.5;fill:#00f;fill-opacity:1;fill-rule:nonzero;stroke:none" transform="scale(1.33333)" clip-path="url(#clipPath1695)" id="path1696"/>
  <path d="M215 411H82l-1-216h135v216z" style="opacity:.5;fill:#00f;fill-opacity:1;fill-rule:nonzero;stroke:none" transform="scale(1.33333)" clip-path="url(#clipPath1697)" id="path1698"/>
  <path style="opacity:.5;fill:#00f" d="M99 250v308h788V250H541v-7h-17v7h-63v-7h-16v8H99Z" id="path1737"/>
</svg>
