<svg version="1.1" id="svg1" xmlns="http://www.w3.org/2000/svg" viewBox="0 0 1057.3 817.3">
  <path d="M99 250v308h788V250H541v-7h-17v7h-63v-7h-16v8H99Z" id="floor"/>
  <path d="M739 548h79V427h-40v37h-39v84z"  id="_103"/>
  <path d="M822 260v36h-2v25h57v-61h-55z"  id="_115A"/>
  <path d="M814 260v21l-5 5h-15v7l-26 1v-34z"  id="_115.03"/>
  <path d="M290 427v121h170l-1-113h-6v-8z"  id="_120"/>
  <path d="M463 486v21h13v-21h-13Z" id="unexcavated1"/>
  <path d="M617 427v121h79V427h-79z"  id="_102"/>
  <path d="M779 382h-66v-1h-15v-39h30v4h2v-16h12v-28h38v-3h38l1 49h-40z"  id="_115.01"/>
  <path d="M821 487v61h56v-61h-56z"  id="_105"/>
  <path d="M766 260h-68v80h30v-12h12l-1-34h27z"  id="_115C"/>
  <path d="M526 427h49v9l-49 13z"  id="_101A"/>
  <path d="M577 427h37v121h-88v-97l61-16-1-2-9 2z"  id="_101"/>
  <path d="M821 427v58h56v-58h-56z"  id="_106"/>
  <path d="M791 348v19l5 5h13v-24z"  id="_115.02"/>
  <path d="M478 486v21h10v-21h-10z" id="_122"/>
  <path d="M698 452v31h37v-55h-30v24h-7z"  id="_103A"/>
  <path d="M696 260h-80l1 121h79z"  id="_116"/>
  <path d="M575 381h-40v-19l40 10z"  id="_117A"/>
  <path d="M287 548H109l-1-288h179l1 288z"  id="_119"/>
  <path d="M821 381v-57h56v57h-56z"  id="_115B"/>
  <path d="M698 548h39v-62h-39v62z"  id="_104"/>
  <path d="M463 510h60v38h-60v-38z"  id="_121"/>
  <path d="m614 260 1 121h-38v-8l9 2 1-2-52-13V260z"  id="_117"/>
  <path d="M290 260h161v121H290V260z"  id="_118"/>
</svg>
