<svg version="1.1" id="svg1" xmlns="http://www.w3.org/2000/svg" viewBox="0 0 3140 1177">
  <path d="M3140 0v1177H0V0Z" id="floor"/>
  <path d="M3140 682v495h-457V835h47V682Z" id="_204"/>
  <path d="M2554 682v153h123v342h-275V682Z" id="_203"/>
  <path d="M2399 869v308h-296V883h108v-14z" id="_202"/>
  <path d="M2101 682v495h-395V682Z" id="_201"/>
  <path d="M1434 682v495h-395V682Z" id="_212"/>
  <path d="M1036 682v495H793V682Z" id="_211"/>
  <path d="M789 682v495H0V682Z" id="_210"/>
  <path d="M400 660v17H0V497h400z" id="_209"/>
  <path d="M763 0v495H0V0Z" id="_208"/>
  <path d="M2374 0v495H765V0Z" id="_207"/>
  <path d="M3140 0v495h-764V0Z" id="_206"/>
</svg>
