<svg version="1.1" id="svg1" viewBox="0 0 3199.2 1199.4" xmlns="http://www.w3.org/2000/svg">
  <path d="M3199 0v1199H0V0Z" id="floor"/>
  <path d="M2154 695h-416v504h416z" id="_301"/>
  <path d="M1095 939h366l1-232h-368z" id="_310"/>
  <path d="M1542 504h-114V0h1771v504H1676v-70h-134z" id="_305"/>
  <path d="M1089 1199H751V686h338z" id="_308"/>
  <path d="M1461 947v252h-366V947Z" id="_309"/>
  <path d="M3199 695v504h-466V837h50V695Z" id="_304"/>
  <path d="M1424 0v362h-340v149H761V0Z" id="_306"/>
  <path d="M2503 695v504h224V837h-116V695Z" id="_303"/>
  <path d="M2498 921v278h-338V907h194v14z" id="_302"/>
  <path d="M0 0h758v515h332V368h334v334h-329v-20H749v517H-1Z" id="_307"/>
</svg>
