<svg version="1.1" id="svg1" xmlns="http://www.w3.org/2000/svg" viewBox="0 0 3200 2472.7">
  <path d="M3041 302H203l-1 347 163-2v-39h130l-1 40 55 1-1 410v225l-263 4v127l252 1 11 8 880 1v847h100l-1-162c266-2 532-1 797-1v-235h68v-326h123v-124l-136-1 1-652h-51V649l713-2V514l-37-2v-91h35z" id="floor"/>
  <path d="M1349 533h-311V302h311z" id="_1034"/>
  <path d="M2324 302h-111v231h111z" id="_1012"/>
  <path d="M2209 533h-311V302h311z" id="_1016"/>
  <path d="M1890 302v231h-223V302Z" id="_1022"/>
  <path d="M1663 533h-143V302h143z" id="_1028"/>
  <path d="M1516 302v231h-163V302Z" id="_1028A"/>
  <path d="M1034 533h-75V302h75z" id="_1040A"/>
  <path d="M955 533H807V302h148z" id="_1040"/>
  <path d="M803 533H696V302h107z" id="_1042A"/>
  <path d="M692 533H553V302h139Z" id="_1042B"/>
  <path d="m198 652 3-351 347 1v235h25v111h-77v-40H368l-2 41z" id="_1042F"/>
  <path d="M644 596v52h159v-52z" id="_1042E"/>
  <path d="M803 652v370H549V652Z" id="_1302"/>
  <path d="M548 1026v143h255v-143z" id="_1314"/>
  <path d="M871 994v144l1 111h246V994Z" id="_1313"/>
  <path d="M871 1253v171h247v-171z" id="_1321"/>
  <path d="M871 990h247V624H871Z" id="_1303"/>
  <path d="M1432 907V624h-242v283z" id="_1202"/>
  <path d="M1432 911v167l-242-1V911z" id="_1212"/>
  <path d="M1190 1082v255h242v-255Z" id="_1218"/>
  <path d="M1747 628v108h-243V628Z" id="_1201"/>
  <path d="M1504 740v250h243V740z" id="_1209"/>
  <path d="M1747 994h-243v112h243z" id="_1215"/>
  <path d="M1747 1439v-329h-243v329z" id="_1219"/>
  <path d="M2061 624v140h-242V624Z" id="_1102"/>
  <path d="M2061 767v140h-242V767Z" id="_1106"/>
  <path d="M2061 911v107h-242V911Z" id="_1110"/>
  <path d="M2061 1026v167h-242v-167z" id="_1114"/>
  <path d="M2061 1197v140h-242v-140z" id="_1118"/>
  <path d="M2157 771v132h223V771Z" id="_1105"/>
  <path d="M2157 978v108h47v-60h60v-48z" id="_1111"/>
  <path d="M2380 1305h-247v-159h247z" id="_1117"/>
  <path d="M2296 1311v112h-163l-1-111 164-1z" id="_1119"/>
  <path d="M2304 1311v112h75v-112z" id="_1117A"/>
  <path d="m1528 1443-1 286h367l-1-187 92-1v-98z" id="_1123"/>
  <path d="M2157 908h223v120h-111v-55h-113z" id="_1109"/>
  <path d="M2390 1546v327h-67v237h-795v-375h369v-189z" id="_1122"/>
  <path d="m2156 1088 1 54 222-1v-111h-171v59z" id="_1115"/>
  <path d="M3041 648V513h-175v-92h175V302h-713v346z" id="_1010"/>
  <path d="M436 1284h112v-110h256v163H609v87h-61l-11-8H284v-129a114 114 0 0 1-24-120 111 111 0 0 1 88-68 109 109 0 0 1 111 61 109 109 0 0 1-23 124z" id="_1318"/>
</svg>
