<svg version="1.1" id="svg1" xmlns="http://www.w3.org/2000/svg" viewBox="0 0 3200 2472.7">
  <path d="m3004 325-480 1-1-26h-464v26l-1814 1-2 335 334 1v761h213v90H451l1 366-47-1 3 354 1110 2 3-278h527v-96l161 1v104h85v-452h-114v-61h50l-1-37 135 1V779l-44-1V672h322V550l112 2 112 109h136z" id="floor"/>
  <path d="m2900 347-32 32v58h134V327h-102z" id="_2002A"/>
  <path d="M2897 327v17l-32 32v61h-32v29h-52V327" id="_2002"/>
  <path d="M2778 327v139h-136V327Z" id="_2006"/>
  <path d="M2639 466h-113V327h113z" id="_2008"/>
  <path d="M2523 301v165h-215V301Z" id="_2010"/>
  <path d="M2305 301v165h-49V301Z" id="_2012A"/>
  <path d="M2250 301v165h-131v-32h-58V301Z" id="_2012"/>
  <path d="M2059 327v139h-102v-11h-35V327Z" id="_2020"/>
  <path d="M1919 327v128h-35v11h-63V327Z" id="_2022"/>
  <path d="M1818 327v139h-99V327Z" id="_2024"/>
  <path d="M1716 327v139h-64v-11h-35V327Z" id="_2026"/>
  <path d="M1612 327v128h-35v11h-64V327Z" id="_2028"/>
  <path d="M1510 327v139h-99V327Z" id="_2030"/>
  <path d="M1409 327v139h-64v-11h-35V327Z" id="_2032"/>
  <path d="M1307 327v128h-35v11h-64V327Z" id="_2034"/>
  <path d="M1205 327v139h-98V327Z" id="_2036"/>
  <path d="M1104 327v139h-64v-11h-35V327Z" id="_2038"/>
  <path d="M999 327v128h-34v11h-64V327Z" id="_2040"/>
  <path d="M898 327v139h-99V327Z" id="_2042"/>
  <path d="M796 327v139h-64v-11h-34V327Z" id="_2044"/>
  <path d="M695 327v128h-35v11h-64V327" id="_2046"/>
  <path d="M593 327v139h-98V327Z" id="_2048"/>
  <path d="M489 327v139h-64v-11h-35V327Z" id="_2050"/>
  <path d="M387 327v128h-35v11H245V327Z" id="_2052"/>
  <path d="m2845 527-55 58 75 76h137V527Z" id="_2001"/>
  <path d="M1745 553v105h-26v58h-203V553Z" id="_2027"/>
  <path d="M1440 553v108h-232V553z" id="_2202"/>
  <path d="M1205 553v108H918V553z" id="_2301"/>
  <path d="M521 469v110H393v82H245V469h110v-8h64v8z" id="_2049"/>
  <path d="M828 553v108h-26v61h26v133H579V553z" id="_2304"/>
  <path d="M828 861v104H579V861Z" id="_2308"/>
  <path d="M1008 722v110H895V722Z" id="_2303A"/>
  <path d="M1150 780v17h-17v76h-81v-93z" id="_2303B"/>
  <path d="M1133 1105V875h-87v-40H895v270z" id="_2303"/>
  <path d="M828 971v247h-26v58h26v55H640v44h-61V971Z" id="_2318"/>
  <path d="M1133 1110v305H895v-305Z" id="_2317"/>
  <path d="M1414 664v58h26v133h-237V664Z" id="_2204"/>
  <path d="M1440 858h-237v473h237z" id="_2220"/>
  <path d="M1744 722v104h-237V722Z" id="_2201"/>
  <path d="M1745 832v244h-238V832Z" id="_2209"/>
  <path d="M1745 1084v131h-238v-131z" id="_2215"/>
  <path d="M1745 1221v133l1 61h-239v-194z" id="_2221"/>
  <path d="M2053 722v243h-238V722Z" id="_2104"/>
  <path d="M2053 971v134h-238V971Z" id="_2110"/>
  <path d="M2024 1110v56h29v165h-238v-221z" id="_2112"/>
  <path d="M2363 780v46h-55v70h-162V780h162v3h3v-3z" id="_2105"/>
  <path d="M2363 832v64h-52v-64z" id="_2105A"/>
  <path d="M2192 971v105h-46V971Z" id="_2111"/>
  <path d="M2363 1137v278h-217v-278z" id="_2119"/>
  <path d="M901 1453v84h87v-49h452v-64h-174v29h-43v-29h-218v29z" id="_2342"/>
  <path d="M1440 1488v49h-84v-49z" id="_2345A"/>
  <path d="M1356 1488v49h-69v-49z" id="_2345"/>
  <path d="M1278 1494v43h-67v-43z" id="_2344"/>
  <path d="M1205 1488v49h-72v-49z" id="_2343B"/>
  <path d="M1133 1488v49h-73v-49z" id="_2343A"/>
  <path d="M1060 1488v49h-72v-49z" id="_2343"/>
  <path d="M1446 1604v159H645v-113h241l47-46z" id="_2332"/>
  <path d="M1440 1769v190H648v-190z" id="_2328"/>
  <path d="M643 1879v82H407v-82z" id="_2327A"/>
  <path d="M2047 1955v-186h-447v90l17 29h195v67z" id="_2130"/>
  <path d="M2047 1424v104h-47v186h-499v-261l1-29h333v29h44v-29z" id="_2132"/>
  <path d="M1435 1966v172h84v95H686v-217h32v-50z" id="_2327"/>
  <path d="M2146 900h217v125h-167v-58h-50z" id="_2109"/>
  <path d="M2146 1078h50v-50h168v106h-219z" id="_2115"/>
  <path d="M2055 1855v-282h77v-57h160v448h-82v-105h-155z" id="_2120"/>
</svg>
