<svg version="1.1" id="svg1" xmlns:xlink="http://www.w3.org/1999/xlink" xmlns="http://www.w3.org/2000/svg" viewBox="0 0 1056 816">
  <path  d="M777 136v38h49v46h-74v33h19v122h28v103h-78v31h22v160H575v-4h-95v96H89V629h20V509h98v-31h-77V260h19v-41H87v-75h459v-8h231z" id="floor"/>
  <path  d="M563 159v56h-43v-56z" id="_3001"/>
  <path  d="M519 147v43h-59v-43z" id="_3002"/>
  <path  d="M545 216v19h-59v-19h59z" id="_3004A"/>
  <path  d="M459 147v48h60v20h-35v20H367v-20h-69v-20h124v-48z" id="_3004"/>
  <path  d="M421 147v47h-76v-47z" id="_3006"/>
  <path  d="M344 147v47h-37v-47z" id="_3012"/>
  <path  d="M306 147v47h-37v-47z" id="_3014"/>
  <path  d="M267 147v47h-46v-47z" id="_3016"/>
  <path  d="M219 147v47h-46v-7h-20v-40z" id="_3018"/>
  <path  d="M152 147v40H91v-40z" id="_3020"/>
  <path  d="M720 241v13h-16v3h3v10h-16v-10h5v-3h-4v-13z" id="_3101"/>
  <path  d="M767 256v64h-76v-52h18v-12z" id="_3103"/>
  <path  d="M763 322v27h-26v-7h-24v-11h-2v2h-19v-11h71z" id="_3109"/>
  <path  d="M711 335v20h-19v-20z" id="_3105"/>
  <path  d="M763 350v27h-26v-10h-1v7h-23v-8h-2v11h-11v-9h-8v-11h21v-9h23v2z" id="_3115A"/>
  <path  d="M796 379v96h-97v-23h-16v-50h18v-2h-2v-21z" id="_3117"/>
  <path  d="M717 488v21h-55v-31h3v6h25v4z" id="_3100A"/>
  <path  d="M660 274v37h-9v21h9v74h-82V274Z" id="_3108"/>
  <path  d="M660 409v37h-82v-37z" id="_3118"/>
  <path  d="M555 274v59h-82v-11h9v-21h-9v-27z" id="_3205"/>
  <path  d="M555 334v141h-77v-9h4v-21h-9V334Z" id="_3207"/>
  <path  d="M449 265v181h-82V332h16v-2h-16v-65z" id="_3210"/>
  <path  d="M344 265v55h-82v-55z" id="_3305"/>
  <path  d="M344 322v56h-46v-56z" id="_3305A"/>
  <path  d="M297 322v56h-35v-56h35z" id="_3313"/>
  <path  d="M344 380v55h-82v-55h82z" id="_3317"/>
  <path  d="M344 437v38h-82v-38z" id="_3321"/>
  <path  d="M221 236v27h-2v2h19v46h-19v53h-28v16h-18v28h-3v38h3v29h-39V264h19v-38h18v10z" id="_3302"/>
  <path  d="M219 217v17h-46v-17z" id="_3302A"/>
  <path  d="M227 369v28h-16v-28z" id="_3304"/>
  <path  d="M210 369v30h28v47h-63v-64h24v-13z" id="_3306"/>
  <path  d="M239 477v32h-28v-32z" id="_3330A"/>
  <path  d="M144 513v33h-32v-33Z" id="_3340"/>
  <path  d="M161 634v27H93v-27z" id="_3334"/>
  <path  d="M321 514v147H162v-28h-17V514Z" id="_3332"/>
  <path  d="M490 514v137h-8v10H321V514Z" id="_3232"/>
  <path  d="M374 479v10h-53v-10z" id="_3344"/>
  <path  d="M320 479v10h-21v-10z" id="_3342"/>
  <path  d="M259 477v13h39v23h-58v-36z" id="_3330"/>
  <path  d="M470 479v3h25l8 15-8 15h-5v1h-53v-31h22v-3z" id="_3230"/>
</svg>
