<svg version="1.1" id="svg1" xmlns="http://www.w3.org/2000/svg" viewBox="0 0 3200 2472.7">
  <path d="M2614 300v123h158v149h-239l-1 115h51l-2 398 95 1v312l-256-1v120l74 1 1 484-531-1h-321v313l-1243-2v-404l60 2v-393l313 2-1-121H531l1-685 63 1V568H393l-1-234h1475l1-34Z" id="floor"/>
  <path d="M1922 374v182h-140V374Z" id="_3001"/>
  <path d="M1779 337v151h-191V337Z" id="_3002"/>
  <path d="M1863 559v61h-191v-61z" id="_3004A"/>
  <path d="M1585 336v155h194v65h-113v64h-378v-64h-224v-65h401V336Z" id="_3004"/>
  <path d="M1462 336v152h-246V336Z" id="_3006"/>
  <path d="M1213 336v152h-120V336Z" id="_3012"/>
  <path d="M1090 336v152H971V336Z" id="_3014"/>
  <path d="M964 336v152H815V336Z" id="_3016"/>
  <path d="M809 336v152H660v-23h-65V336Z" id="_3018"/>
  <path d="M592 336v129H395V336Z" id="_3020"/>
  <path d="M2581 688v207h-245V727h58v-39z" id="_3103"/>
  <path d="M2400 944v64h-61v-64z" id="_3105"/>
  <path d="M2675 1086v311h-314v-75h-51v-162h51v-74z" id="_3117"/>
  <path d="M2420 1439v67h-178l1-67h89z" id="_3100A"/>
  <path d="M2235 746v120h-29v68h29v239h-265V746Z" id="_3108"/>
  <path d="M2235 1177v119h-265v-119z" id="_3118"/>
  <path d="M1896 746v191h-266v-35h30v-68h-30v-88z" id="_3205"/>
  <path d="M1896 940v457h-249v-30h13v-68h-30V940Z" id="_3207"/>
  <path d="M1553 717v586h-265V717Z" id="_3210"/>
  <path d="M1213 717v178H948V717Z" id="_3305"/>
  <path d="M1213 902v181h-149V902Z" id="_3305A"/>
  <path d="M1061 902v181H948V902Z" id="_3313"/>
  <path d="M1213 1089v178H948v-178z" id="_3317"/>
  <path d="M1213 1274v123H948v-123z" id="_3321"/>
  <path d="M818 589v128h52v149h-61v171h-91v52h-58v308H534V714h61V591l223-2z" id="_Ansell-Lounge"/>
  <path d="M829 1042v108l41 1v152H667v-207l58-1 1-53z" id="_3306"/>
  <path d="M566 1519v107H463v-107z" id="_3340"/>
  <path d="M621 1911v87H401v-87z" id="_3334"/>
  <path d="M1139 1523v475H624v-90h-55v-385Z" id="_3332"/>
  <path d="M1685 1523v475h-546v-475Z" id="_3232"/>
  <path d="M2339 938v-40h229v85h-163v-45z" id="_3109"/>
  <path d="M2340 1011v69h229v-89h-163v21z" id="3115"/>
  <path d="M1696 1409v591h798v-481h-268v-112z" id="_unexcavated1"/>
  <path d="M720 2005v308h923v-306Z" id="_unexcavated2"/>
</svg>
