<svg version="1.1" id="svg1" xmlns="http://www.w3.org/2000/svg" viewBox="0 0 3200 2000">
  <path d="M3172 301v384h-787v134h62v716H432V685H55V301Z" id="floor"/>
  <path d="M3172 432V301h-213v151h33v-20z" id="_4002"/>
  <path d="M2953 301v151h-40v10h-72V301Z" id="_4004"/>
  <path d="M2838 301v161h-112V301Z" id="_4006"/>
  <path d="M2723 301v161h-72v-10h-40V301Z" id="_4008"/>
  <path d="M2608 301v151h-39v10h-122V301Z" id="_4010"/>
  <path d="M2444 301v161h-263V301Z" id="_4012"/>
  <path d="M2178 301v161h-111V301Z" id="_4018"/>
  <path d="M2063 301v161h-72v-10h-43V301Z" id="_4020"/>
  <path d="M1945 301v151h-39v10h-72V301Z" id="_4022"/>
  <path d="M1830 301v161h-111V301Z" id="_4024"/>
  <path d="M1715 301v161h-72v-10h-39V301Z" id="_4026"/>
  <path d="M1601 301v151h-40v10h-72V301Z" id="_4028"/>
  <path d="M1486 301v161h-112V301Z" id="_4030"/>
  <path d="M1368 301v161h-73v-10h-39V301Z" id="_4032"/>
  <path d="M1253 301v151h-40v10h-72V301Z" id="_4034"/>
  <path d="M1138 301v161h-112V301Z" id="_4036"/>
  <path d="M1023 301v161h-72v-10h-40V301Z" id="_4038"/>
  <path d="M908 301v151h-39v10h-72V301Z" id="_4040"/>
  <path d="M790 301v161H678V301Z" id="_4042"/>
  <path d="M675 301v161h-72v-10h-39V301Z" id="_4044"/>
  <path d="M560 301v151h-39v10h-72V301Z" id="_4046"/>
  <path d="M445 301v161H334V301Z" id="_4048"/>
  <path d="M331 301v161h-76v-10h-39V301Z" id="_4050"/>
  <path d="M213 302v150h-40v10H55V302Z" id="_4052"/>
  <path d="M3172 534v151h-219V564h49v-30z" id="_4001"/>
  <path d="M2949 564v121h-184V564Z" id="_4003"/>
  <path d="M2759 564v121h-151V564Z" id="_4007"/>
  <path d="M2601 564v121h-151V564Z" id="_4009"/>
  <path d="M337 468v122h-88v95H55V468Z" id="_4049"/>
  <path d="M2096 564v118h-151V564Z" id="_4019"/>
  <path d="M1939 564v118h-112V564Z" id="_4021"/>
  <path d="M1752 564v118h-60V564Z" id="_4025"/>
  <path d="M1246 564v118h-111V564Z" id="_4033"/>
  <path d="M1059 564v118H787v-86h42v-32Z" id="_4037"/>
  <path d="M711 597v88H556V564h111v33z" id="_4045"/>
  <path d="M554 564v121H436v-78h29v-43Z" id="_4047"/>
  <path d="M2296 763v55h-88v-55z" id="_4101"/>
  <path d="M2448 1003v532h-253v-26h10v-69h-13v-358l-24-20 61-59-41-39v-26h101l1 64z" id="_4107"/>
  <path d="M1827 688v522l135 135h134V764l-72-76z" id="_4104"/>
  <path d="M1752 1351v184h-270v-184z" id="_4219"/>
  <path d="M1404 1351v92h-178v92h-91v-184z" id="_4218"/>
  <path d="M1059 688v89H787v-89z" id="_4303"/>
  <path d="M1059 783v437H787v-184h29v-69h-29V783Z" id="_4309"/>
  <path d="M1059 1223v312H787v-312z" id="_4319"/>
  <path d="M1483 654h-230v33h-118v660h269v-33h78v33h270V687h-171c-21-17-75-33-98-33Z" id="_4201"/>
  <path d="M711 770v673H537v92H432V688h201z" id="_4304"/>
  <path d="M2204 934v-62h-29v-53h272v181h-154v-66z" id="_4105"/>
  <path d="M2096 1351v92h3-180v92h-92v-318l135 134z" id="_4118"/>
  <!-- <path d="M2385 688v129h-85v-57h-92v-72z" id="_excavated_ele1"/>
  <path d="M2096 1450v85h-171v-85z" id="_excavated_stair1"/>
  <path d="M1404 1446v89h-174v-89z" id="_excavated_stair2"/>
  <path d="M711 1450v85H544v-85z" id="_excavated_stair3"/>
  <path d="M432 594H253v91h179z" id="_excavated_stair4"/> -->
  <path d="M1584 681h105V563h-167v33h-40v53s46-2 102 32z" id="_4027"/>
</svg>
