<svg version="1.1" id="svg1" xmlns:xlink="http://www.w3.org/1999/xlink" xmlns="http://www.w3.org/2000/svg" viewBox="0 0 1056 816">
  <path  d="M1005 171v117H765v41h19v218H170V288H55V171h950Z" id="floor"/>
  <path  d="M1005 211v-40h-65v46h10v-6Z" id="_4002"/>
  <path  d="M938 171v46h-12v3h-22v-49z" id="_4004"/>
  <path  d="M903 171v49h-34v-49h34z" id="_4006"/>
  <path  d="M868 171v49h-22v-3h-12v-46z" id="_4008"/>
  <path  d="M833 171v46h-12v3h-37v-49z" id="_4010"/>
  <path  d="M783 171v49h-80v-49z" id="_4012"/>
  <path  d="M702 171v49h-34v-49z" id="_4018"/>
  <path  d="M667 171v49h-22v-3h-13v-46z" id="_4020"/>
  <path  d="M631 171v46h-12v3h-22v-49z" id="_4022"/>
  <path  d="M596 171v49h-34v-49z" id="_4024"/>
  <path  d="M561 171v49h-22v-3h-12v-46z" id="_4026"/>
  <path  d="M526 171v46h-12v3h-22v-49z" id="_4028"/>
  <path  d="M491 171v49h-34v-49z" id="_4030"/>
  <path  d="M455 171v49h-22v-3h-12v-46z" id="_4032"/>
  <path  d="M420 171v46h-12v3h-22v-49z" id="_4034"/>
  <path  d="M385 171v49h-34v-49z" id="_4036"/>
  <path  d="M350 171v49h-22v-3h-12v-46z" id="_4038"/>
  <path  d="M315 171v46h-12v3h-22v-49z" id="_4040"/>
  <path  d="M279 171v49h-34v-49z" id="_4042"/>
  <path  d="M244 171v49h-22v-3h-12v-46z" id="_4044"/>
  <path  d="M209 171v46h-12v3h-22v-49z" id="_4046"/>
  <path  d="M174 171v49h-34v-49z" id="_4048"/>
  <path  d="M139 171v49h-23v-3h-12v-46z" id="_4050"/>
  <path  d="M103 173v44H91v3H55v-47z" id="_4052"/>
  <path  d="M1005 242v46h-67v-37h15v-9z" id="_4001"/>
  <path  d="M937 251v37h-56v-37z" id="_4003"/>
  <path  d="M879 251v37h-46v-37z" id="_4007"/>
  <path  d="M831 251v37h-46v-37z" id="_4009"/>
  <path  d="M141 222v37h-27v29H55v-66h86z" id="_4049"/>
  <path  d="M677 251v11h-19v2h19v23h-46v-36z" id="_4019"/>
  <path  d="M629 251v36h-34v-36z" id="_4021"/>
  <path  d="M572 251v36h-18v-36z" id="_4025"/>
  <path  d="M553 251v36h-32l-3-1-10-5-10-2-8-2v-16h12v-10z" id="_4027"/>
  <path  d="M418 251v36h-34v-36z" id="_4033"/>
  <path  d="M361 251v36h-83v-26h13v-10z" id="_4037"/>
  <path  d="M255 261v26h-46v-36h33v10h13z" id="_4045"/>
  <path  d="M207 251v36h-36v-23h9v-13Z" id="_4047"/>
  <path  d="M737 314v13h-26v-13z" id="_4101"/>
  <path  d="M782 385v162h-75v-8h3v-21h-4V409l-7-6 18-18-12-12v-7h30v18h-8v1h55z" id="_4107"/>
  <path  d="M595 289v159l41 41h41V312l-22-23h-60z" id="_4104"/>
  <path  d="M572 491v56h-78v-8h4v-21h-8v-27z" id="_4219"/>
  <path  d="M466 491v28h-54v28h-28v-56z" id="_4218"/>
  <path  d="M361 289v27h-83v-27h83z" id="_4303"/>
  <path  d="M361 318v133h-83v-56h9v-21h-9v-56z" id="_4309"/>
  <path  d="M361 452v95h-83v-95z" id="_4319"/>
  <path  d="M489 279h-69v10h-3v1h-2v-1h-31v200h82v-10h24v10h82V289h-52l-1-1-1-1-3-1-2-1-4-1-2-1-3-1-4-1-3-1-5-1h-3z" id="_4201"/>
  <path  d="M255 314v205h-53v28h-32V289h61z" id="_4304"/>
  <path  d="M710 364v-19h-9v-16h83v55h-47v-20z" id="_4105"/>
  <path  d="M677 491v28h1-55v28h-28v-97l41 41z" id="_4118"/>
  <path  d="M765 291v36h-26v-16h-28v-20z" id="_excavated_ele1"/>
  <path  d="M677 521v26h-52v-26z" id="_excavated_stair1"/>
  <path  d="M466 521v26h-52v-26z" id="_excavated_stair2"/>
  <path  d="M255 521v26h-51v-26z" id="_excavated_stair3"/>
  <path  d="M169 262h-53v26h53z" id="_excavated_stair4"/>
</svg>
