<svg version="1.1" id="svg1" xmlns:xlink="http://www.w3.org/1999/xlink" xmlns="http://www.w3.org/2000/svg" viewBox="0 0 3198.6 1268.7">
  <path d="M3199 0v396h-806v138h62v735H388V396H0V9h167V0Z" id="floor"/>
  <!-- <path d="M384 307v89H207v-89z" id="_excavated_stairs5"/>
  <path d="M675 1179v90H503v-90z" id="_excavated_stairs4"/>
  <path d="M1386 1179v90h-175v-90z" id="_excavated_stairs3"/>
  <path d="M2096 1179v90h-174v-90z" id="_excavated_stairs2"/>
  <path d="M3199 144v89h-176v-89z" id="_excavated_stairs1"/>
  <path d="M2393 404v123h-88v-53h-96v-70z" id="_excavated_ele1"/>
  <path d="M1935 271v122h-115V271Z" id="_excavated_LAVW1"/>
  <path d="M2096 271v122h-154V271Z" id="_excavated_LAVM1"/> -->
  <path d="M3199 136h-184v21h-35V0h219z" id="_5002"/>
  <path d="M2976 0v157h-41v11h-74V0Z" id="_5004"/>
  <path d="M2858 168h-115V0h115z" id="_5006"/>
  <path d="M2739 168h-74v-11h-41V0h115z" id="_5008"/>
  <path d="M2621 157h-41v11h-122V0h163z" id="_5010"/>
  <path d="M2454 168h-271V0h271z" id="_5012"/>
  <path d="M2179 0v168h-115V0Z" id="_5018"/>
  <path d="M2061 0v168h-74v-11h-41V0Z" id="_5020"/>
  <path d="M1942 0v157h-41v11h-73V0Z" id="_5022"/>
  <path d="M2096 593v156h-276V593Z" id="_5108"/>
  <path d="M1824 0v168h-115V0Z" id="_5024"/>
  <path d="M1705 0v168h-74v-11h-40V0Z" id="_5026"/>
  <path d="M1587 0v157h-41v11h-74V0Z" id="_5028"/>
  <path d="M1468 0v168h-351V0Z" id="_5030"/>
  <path d="M1113 0v168H998V0Z" id="_5036"/>
  <path d="M994 0v168h-73v-11h-41V0Z" id="_5038"/>
  <path d="M876 0v157h-41v11h-74V0Z" id="_5040"/>
  <path d="M757 0v168H643V0Z" id="_5042"/>
  <path d="M639 0v168h-74v-11h-41V0Z" id="_5044"/>
  <path d="M520 0v157h-41v11h-73V0Z" id="_5046"/>
  <path d="M402 0v168H287V0Z" id="_5048"/>
  <path d="M283 0v168h-75v-11h-41V0Z" id="_5050"/>
  <path d="M163 9v148h-41v11H0V9Z" id="_5052"/>
  <path d="M3199 241v155h-224V271h51v-30z" id="_5001"/>
  <path d="M2970 271v125h-188V271Z" id="_5003"/>
  <path d="M2776 271v125h-156V271Z" id="_5007"/>
  <path d="M2614 271v125h-156V271Z" id="_5009"/>
  <path d="M2298 482v45h-89v-45z" id="_5101"/>
  <path d="M2455 534v314h-279V534Z" id="_5107"/>
  <path d="M2455 853v416h-279V853Z" id="_5119"/>
  <path d="M2096 400v187h-276V400Z" id="_5104"/>
  <path d="M2096 755v220h-276V755Z" id="_5114"/>
  <path d="M2096 981v191h-182v97h-94V981Z" id="_5118"/>
  <path d="M1741 271v122h-58V271Z" id="_5025"/>
  <path d="M1677 271v122h-212V271Z" id="_5027"/>
  <path d="M1741 400v220h-276V400Z" id="_5205"/>
  <path d="M1741 625v415h-276V625Z" id="_5213"/>
  <path d="M1741 1045v224h-276v-224z" id="_5219"/>
  <path d="M1386 303v90h-155V271h111v32z" id="_5031"/>
  <path d="M1225 271v122h-116V271Z" id="_5033"/>
  <path d="M1386 400v223h-277V400z" id="_5204"/>
  <path d="M1386 628v218h-277V628Z" id="_5212"/>
  <path d="M1386 852v320h-183v97h-94V852Z" id="_5214"/>
  <path d="M1030 271v122H915V271Z" id="_5035"/>
  <path d="M909 271H797v32h-43v90h155z" id="_5037"/>
  <path d="M1030 401v122H754V401Z" id="_5303"/>
  <path d="M1030 528v189H754V528Z" id="_5307"/>
  <path d="M1030 722v350H754V722Z" id="_5311"/>
  <path d="M1030 1078v191H754v-191z" id="_5319"/>
  <path d="M632 271v32h43v90H520V271Z" id="_5045"/>
  <path d="M424 271v43h-33v79h123V271z" id="_5047"/>
  <path d="M675 400v220H388V400Z" id="_5304"/>
  <path d="M675 625v156H388V625Z" id="_5308"/>
  <path d="M675 787v188H388V787z" id="_5312"/>
  <path d="M675 981v191H495v97H388V981Z" id="_5318"/>
  <path d="M290 173v126h-91v97H0V173Z" id="_5049"/>
</svg>
