<svg version="1.1" id="svg1" xmlns="http://www.w3.org/2000/svg" viewBox="0 0 3199.3 1260.7">
  <path  d="M3199 0v388h-806v137h63v736H388V388H0V0Z" id="floor"/>
  <path  d="M3199 0v127h-183v22h-36V0Z" id="_6002"/>
  <path  d="M2977 0v149h-41v10h-74V0Z" id="_6004"/>
  <path  d="M2858 0v159h-114V0Z" id="_6006"/>
  <path  d="M2740 0v159h-74v-10h-41V0Z" id="_6008"/>
  <path  d="M2621 0v149h-41v10h-122V0Z" id="_6010"/>
  <path  d="M2454 0v159h-271V0Z" id="_6012"/>
  <path  d="M2179 0v159h-114V0Z" id="_6018"/>
  <path  d="M2061 0v159h-74v-10h-41V0Z" id="_6020"/>
  <path  d="M1942 0v149h-40v10h-74V0Z" id="_6022"/>
  <path  d="M1824 0v159h-115V0Z" id="_6024"/>
  <path  d="M1706 0v159h-74v-10h-41V0Z" id="_6026"/>
  <path  d="M1587 0v149h-41v10h-74V0Z" id="_6028"/>
  <path  d="M1468 0v159h-114V0Z" id="_6030"/>
  <path  d="M1350 0v159h-74v-11h-41V0Z" id="_6032"/>
  <path  d="M1231 0v148h-40v11h-74V0Z" id="_6034"/>
  <path  d="M1113 0v159H998V0Z" id="_6036"/>
  <path  d="M994 0v159h-73v-10h-41V0Z" id="_6038"/>
  <path  d="M876 0v149h-41v10h-74V0Z" id="_6040"/>
  <path  d="M757 0v159H643V0Z" id="_6042"/>
  <path  d="M639 0v159h-74v-11h-41V0Z" id="_6044"/>
  <path  d="M520 0v148h-40v11h-74V0Z" id="_6046"/>
  <path  d="M402 0v159H287V0Z" id="_6048"/>
  <path  d="M283 0v159h-75v-10h-41V0Z" id="_6050"/>
  <path  d="M163 0v149h-41v10H0V0Z" id="_6052"/>
  <path  d="M290 164v127h-91v97H0V164Z" id="_6049"/>
  <path  d="M3199 232v156h-223V262h51v-30z" id="_6001"/>
  <path  d="M2971 262v126h-189V262Z" id="_6003"/>
  <path  d="M2777 262v126h-156V262Z" id="_6007"/>
  <path  d="M2615 262v126h-156V262Z" id="_6009"/>
  <path  d="M2298 473v45h-89v-45z" id="_6101"/>
  <path  d="M2456 525v151h-280V525Z" id="_6107"/>
  <path  d="M2456 682v188h-280V682Z" id="_6111"/>
  <path  d="M2456 875v189h-280V875Z" id="_6115"/>
  <path  d="M2456 1070v191h-280v-191z" id="_6119"/>
  <path  d="M2097 391v220h-276V391Z" id="_6106"/>
  <path  d="M2097 617v220h-276V617Z" id="_6110"/>
  <path  d="M2097 843v156h-276V843Z" id="_6114"/>
  <path  d="M2097 1005v159h-182v97h-94v-256Z" id="_6118"/>
  <path  d="M1741 262v122h-58V262Z" id="_6025"/>
  <path  d="M1678 262h-170v32h-43v90h213z" id="_6027"/>
  <path  d="M1741 391v285h-276V391Z" id="_6203"/>
  <path  d="M1741 682v155h-276V682Z" id="_6209"/>
  <path  d="M1741 843v221h-276V843Z" id="_6215"/>
  <path  d="M1741 1070v191h-276v-191z" id="_6219"/>
  <path  d="M1343 262v32h43v90h-155V262Z" id="_6031"/>
  <path  d="M1225 262v122h-115V262z" id="_6033"/>
  <path  d="M1386 391v317h-276V391Z" id="_6204"/>
  <path  d="M1386 714v253h-276V714Z" id="_6212"/>
  <path  d="M1386 973v191h-182v97h-94V973Z" id="_6218"/>
  <path  d="M1030 262v122H754V262Z" id="_6037"/>
  <path  d="M1030 392v219H754V392z" id="_6303"/>
  <path  d="M1030 617v644H754V617Z" id="_6309"/>
  <path  d="M392 305h32v-43h90v122H392Z" id="_6047"/>
  <path  d="M632 262v33h43v89H520V262Z" id="_6045"/>
  <path  d="M675 391v221H388V391Z" id="_6304"/>
  <path  d="M675 616v157H388V616Z" id="_6308"/>
  <path  d="M675 779v220H388V779Z" id="_6314"/>
  <path  d="M675 1005v159H495v97H388v-256Z" id="_6318"/>
  <!-- <path  d="M2097 262v122h-154V262z" id="_excavated_LAVM1"/>
  <path  d="M1935 262v122h-114V262z" id="_excavated_LAVW1"/>
  <path  d="M2393 395v123h-88v-52h-96v-71z" id="_excavated_ele1"/>
  <path  d="M3199 135v89h-175v-89z" id="_excavated_stairs1"/>
  <path  d="M2097 1171v90h-175v-90z" id="_excavated_stairs2"/>
  <path  d="M1386 1171v90h-175v-90z" id="_excavated_stairs3"/>
  <path  d="M675 1171v90H503v-90z" id="_excavated_stairs4"/>
  <path  d="M384 298v90H206v-90Z" id="_excavated_stairs5"/> -->
</svg>
