<svg version="1.1" id="svg1" xmlns:xlink="http://www.w3.org/1999/xlink" xmlns="http://www.w3.org/2000/svg" viewBox="0 0 3200 1269.5">
  <path  d="M3200 0v397h-806v137h63v735H388V397H0V0Z" id="floor"/>
  <path  d="M3200 136h-183v21h-36V0h219z" id="_7002"/>
  <path  d="M2977 0v157h-41v11h-73V0Z" id="_7004"/>
  <path  d="M2859 0v168h-115V0Z" id="_7006"/>
  <path  d="M2740 0v168h-73v-11h-41V0Z" id="_7008"/>
  <path  d="M2622 0v157h-41v11h-122V0Z" id="_7010"/>
  <path  d="M2455 0v168h-271V0Z" id="_7012"/>
  <path  d="M2180 0v168h-115V0Z" id="_7018"/>
  <path  d="M2062 0v168h-74v-11h-41V0Z" id="_7020"/>
  <path  d="M1943 0v157h-41v11h-74V0Z" id="_7022"/>
  <path  d="M1824 0v168h-114V0Z" id="_7024"/>
  <path  d="M1706 0v168h-74v-11h-41V0Z" id="_7026"/>
  <path  d="M1587 0v157h-41v11h-73V0Z" id="_7028"/>
  <path  d="M1469 0v168h-115V0Z" id="_7030"/>
  <path  d="M1350 0v168h-74v-11h-40V0Z" id="_7032"/>
  <path  d="M1232 0v157h-41v11h-74V0Z" id="_7034"/>
  <path  d="M1113 0v168H999V0Z" id="_7036"/>
  <path  d="M995 0v168h-74v-11h-41V0Z" id="_7038"/>
  <path  d="M876 0v157h-41v11h-73V0Z" id="_7040"/>
  <path  d="M758 0v168H643V0Z" id="_7042"/>
  <path  d="M639 0v168h-74v-11h-40V0Z" id="_7044"/>
  <path  d="M521 0v157h-41v11h-74V0Z" id="_7046"/>
  <path  d="M402 0v168H288V0Z" id="_7048"/>
  <path  d="M284 0v168h-76v-11h-41V0Z" id="_7050"/>
  <path  d="M163 9v148h-41v11H0V9Z" id="_7052"/>
  <path  d="M291 173v127h-92v96H0V173Z" id="_7049"/>
  <path  d="M3200 241h-172v30h-51v126h223z" id="_7001"/>
  <path  d="M2971 271v126h-188V271Z" id="_7003"/>
  <path  d="M2777 271v126h-156V271Z" id="_7007"/>
  <path  d="M2615 271v126h-155V271Z" id="_7009"/>
  <path  d="M2298 482v45h-88v-45z" id="_7101"/>
  <path  d="M2457 534v183h-280V534Z" id="_7107"/>
  <path  d="M2457 723v124h-280V723Z" id="_7111"/>
  <path  d="M2457 852v253h-280V852Z" id="_7113"/>
  <path  d="M2457 1111v158h-280v-158z" id="_7119"/>
  <path  d="M2097 401v155h-276V401Z" id="_7104"/>
  <path  d="M2097 561v124h-276V561Z" id="_7108"/>
  <path  d="M2097 691v317h-276V691Z" id="_7112"/>
  <path  d="M2097 1014v158h-182v97h-94v-255z" id="_7118"/>
  <path  d="M1742 271v122h-58V271Z" id="_7025"/>
  <path  d="M1678 271v122h-212v-90h43v-32z" id="_7027"/>
  <path  d="M1742 491h-276v-90h276z" id="_7203"/>
  <path  d="M1742 496v286h-276V496Z" id="_7205"/>
  <path  d="M1742 788v91h-276v-91z" id="_7211"/>
  <path  d="M1742 884v385h-276V884Z" id="_7219"/>
  <path  d="M1386 304h-43v-33h-112v122h155z" id="_7031"/>
  <path  d="M1225 271v122h-115V271Z" id="_7033"/>
  <path  d="M1386 401v316h-276V401Z" id="_7204"/>
  <path  d="M1386 723v449h-155v-67h-121V723Z" id="_7218"/>
  <path  d="M1226 1111v61h-22v97h-94v-158z" id="_7220"/>
  <path  d="M1031 271H798v32h-44v90h277Z" id="_7037"/>
  <path  d="M1031 491H754v-90h277Z" id="_7303"/>
  <path  d="M1031 496v189H754V496Z" id="_7307"/>
  <path  d="M1031 691v123H754V691Z" id="_7309"/>
  <path  d="M1031 820v317H754V820Z" id="_7315"/>
  <path  d="M1031 1143v126H754v-126z" id="_7319"/>
  <path  d="M675 303h-43v-32H520v122h155z" id="_7045"/>
  <path  d="M514 271v122H392v-79h31v-43z" id="_7047"/>
  <path  d="M675 401v219H388V401Z" id="_7304"/>
  <path  d="M675 626v124H388V626Z" id="_7310"/>
  <path  d="M675 755v417H495v97H388V755Z" id="_7318"/>
  <!-- <path  d="M2097 271v122h-154V271Z" id="_excavated_LAVM1"/>
  <path  d="M1936 271v122h-115V271Z" id="_excavated_LAVW1"/>
  <path  d="M3200 144v89h-176v-89z" id="_excavated_stairs1"/>
  <path  d="M2097 1180v89h-175v-89z" id="_excavated_stairs4"/>
  <path  d="M1386 1180v89h-175v-89z" id="_excavated_stairs2"/>
  <path  d="M675 1180v89H503v-89z" id="_excavated_stairs3"/>
  <path  d="M384 307v89H207v-89z" id="_excavated_stairs5"/>
  <path  d="M2394 404v123h-88v-52h-96v-71z" id="_excavated_ele1"/> -->
</svg>
