<?xml version="1.0" encoding="UTF-8" standalone="no"?>
<!-- Created with Inkscape (http://www.inkscape.org/) -->

<svg
   version="1.1"
   id="svg1"
   width="1056"
   height="816"
   viewBox="0 0 1056 816"
   sodipodi:docname="jonssonrowland3.svg"
   inkscape:version="1.3 (0e150ed6c4, 2023-07-21)"
   xmlns:inkscape="http://www.inkscape.org/namespaces/inkscape"
   xmlns:sodipodi="http://sodipodi.sourceforge.net/DTD/sodipodi-0.dtd"
   xmlns="http://www.w3.org/2000/svg"
   xmlns:svg="http://www.w3.org/2000/svg">
  <defs
     id="defs1" />
  <sodipodi:namedview
     id="namedview1"
     pagecolor="#ffffff"
     bordercolor="#000000"
     borderopacity="0.25"
     inkscape:showpageshadow="2"
     inkscape:pageopacity="0.0"
     inkscape:pagecheckerboard="0"
     inkscape:deskcolor="#d1d1d1"
     inkscape:zoom="0.70710678"
     inkscape:cx="891.66165"
     inkscape:cy="379.71634"
     inkscape:window-width="1920"
     inkscape:window-height="991"
     inkscape:window-x="-9"
     inkscape:window-y="-9"
     inkscape:window-maximized="1"
     inkscape:current-layer="svg1">
    <inkscape:page
       x="0"
       y="0"
       inkscape:label="1"
       id="page1"
       width="1056"
       height="816"
       margin="0"
       bleed="0"
       inkscape:export-filename="jonssonrowland3.svg"
       inkscape:export-xdpi="96"
       inkscape:export-ydpi="96" />
  </sodipodi:namedview>
  <g
     inkscape:groupmode="layer"
     id="layer1"
     inkscape:label="tracelayer">
    <path
       style="opacity:0.5;fill:#ff0000"
       d="m 162.23459,496.26474 v 79.89897 h 9.42172 v 7.21713 h 31.25877 v -7.24033 h 23.22941 v -79.87489 l -63.9099,10e-6 z"
       id="_3C01" />
    <path
       style="opacity:0.5;fill:#ff0000"
       d="m 226.91016,496.26562 v 79.87173 h 8.78842 v 7.22022 h 22.40092 v -7.19813 h 31.97081 V 496.2398 h -63.16015 z"
       id="_3C07" />
    <path
       style="opacity:0.5;fill:#ff0000"
       d="m 290.875,496.25 v 39.04687 h 31.21875 v -39.125 H 290.875 Z"
       id="_3C07A" />
    <path
       style="opacity:0.5;fill:#ff0000"
       d="M 290.875,536.5 H 322 v 39.5625 H 290.8125 V 536.5 Z"
       id="_3C09" />
    <path
       style="opacity:0.5;fill:#ff0000"
       d="m 322.89368,496.24533 v 79.91092 H 354 v -79.91406 h -31.10632 z"
       id="_3C11" />
    <path
       style="opacity:0.5;fill:#ff0000"
       d="m 354.81292,496.24533 v 79.86992 h 8.78083 v 7.24412 h 22.42187 v -87.23558 h -31.2027 z"
       id="_3C13" />
    <path
       style="opacity:0.5;fill:#ff0000"
       d="m 386.78741,496.21218 v 87.2172 h 8.04334 v -7.31413 h 23.13565 v -79.92516 h -31.17899 z"
       id="_3C15" />
    <path
       style="opacity:0.5;fill:#ff0000"
       d="m 418.80078,496.26172 v 79.89453 h 8.82422 v 7.23437 h 31.17187 v -7.25 h 23.1875 v -79.9375 h -63.18359 z"
       id="_3C17" />
    <path
       style="opacity:0.5;fill:#ff0000"
       d="m 482.78125,496.25 v 47.92187 h 20.875 V 534.125 h 10.29687 v -37.89063 h -31.17187 z"
       id="_3C17A" />
    <path
       style="opacity:0.5;fill:#ff0000"
       d="m 482.8125,544.95312 v 31.23438 h 8.76562 v 7.1875 h 22.34375 v -28.40625 h -10.3125 v -10.01563 z"
       id="_3C21" />
    <path
       style="opacity:0.5;fill:#ff0000"
       d="m 504.4323,534.94838 v 19.18027 h 9.47965 v -19.22447 h -9.47965 z"
       id="_3C21A" />
    <path
       style="opacity:0.5;fill:#ff0000"
       d="m 514.73507,496.25638 v 87.09567 h 22.35868 v -7.18018 h 73.0013 v -79.94864 h -95.35998 z"
       id="_3C23" />
    <path
       style="opacity:0.5;fill:#ff0000"
       d="m 610.875,496.1875 v 79.9375 h 31.15625 v -79.9375 h -11.3125 z"
       id="_3C29" />
    <path
       style="opacity:0.5;fill:#ff0000"
       d="m 642.8125,496.24219 v 79.91725 h 31.17969 V 496.1875 H 642.8125 Z"
       id="_3C31" />
    <path
       style="opacity:0.5;fill:#ff0000"
       d="m 681.23109,493.8257 v 2.36439 h -5.65685 v 35.99615 h 59.22019 v 4.24264 h 32.46062 v -12.81631 h -13.87697 v -29.87526 h -72.14699 z"
       id="_3C47" />
    <path
       style="opacity:0.5;fill:#ff0000"
       d="m 675.61291,539.12473 v 34.86368 h 9.60118 v -7.09869 h 12.7003 v 3.17093 h -11.71145 v 12.81631 h 36.54858 v -44.7687 h -26.11876 v 1.03236 h -21.01985 z"
       id="_3C43" />
    <path
       style="opacity:0.5;fill:#ff0000"
       d="M 723.75,538.09375 V 582.875 h 12.39062 v -3.53125 h 2.64063 v -2.875 h 17.1875 V 538.04687 H 723.75 Z"
       id="_3C45" />
    <path
       style="opacity:0.5;fill:#ff0000"
       d="M 802.40625,495.84375 V 548.5 h 33.26562 V 495.79687 H 831.75 V 492.25 h -25.14063 v 3.54687 h -4.20312 z"
       id="_3C44" />
    <path
       style="opacity:0.5;fill:#ff0000"
       d="m 194.28125,624.15625 h 8.75 v -7.23438 H 217.25 v 7.28125 h 8.78125 v 27.94821 H 194.2113 v -27.99508 z"
       id="_3C04" />
    <path
       style="opacity:0.5;fill:#ff0000"
       d="m 194.22235,652.94682 h 31.85295 v 22.43407 h -31.84743 v -22.43407 z"
       id="_3C04A" />
    <path
       style="opacity:0.5;fill:#ff0000"
       d="m 194.23437,676.15625 v 27.95312 h 31.86302 v -27.94956 h -31.86302 z"
       id="_3C04B" />
    <path
       style="opacity:0.5;fill:#ff0000"
       d="m 226.85937,624.14062 v 79.9375 h 63.23438 V 639.375 h -31.1875 V 653 h -0.875 v -28.84375 h -31.17188 z"
       id="_3C06" />
    <path
       style="opacity:0.5;fill:#ff0000"
       d="m 258.88947,616.96171 v 21.57781 h 31.16794 v -14.41835 h -8.77254 v -7.2147 h -22.3954 z"
       id="_3C08" />
    <path
       style="opacity:0.5;fill:#ff0000"
       d="m 290.89062,624.16797 v 27.98336 h 31.24071 v -27.95282 h -8.88303 v -7.26994 h -13.5897 v 7.24784 h -8.76798 z"
       id="_3C10" />
    <path
       style="opacity:0.5;fill:#ff0000"
       d="m 290.875,652.96875 h 31.21875 v 22.25 h -31.1875 v -22.25 z"
       id="_3C10A" />
    <path
       style="opacity:0.5;fill:#ff0000"
       d="m 290.875,676.0625 v 28.09375 h 31.1875 v -28.125 H 290.875 Z"
       id="_3C10B" />
    <path
       style="opacity:0.5;fill:#ff0000"
       d="m 322.88281,616.95312 h 7.95477 v 7.2012 h 23.15775 v 79.90306 h -31.1127 v -87.10425 z"
       id="_3C12" />
    <path
       style="opacity:0.5;fill:#ff0000"
       d="m 354.78125,624.15625 h 8.84375 v -7.1875 h 31.125 v 7.18557 h 23.28125 v 79.87693 H 354.75 v -79.875 z"
       id="_3C14" />
    <path
       style="opacity:0.5;fill:#ff0000"
       d="m 418.81641,624.16797 0.0228,79.94466 63.13139,-0.018 -0.0228,-79.94017 -23.13493,0.007 -0.002,-7.16618 -31.18798,0.009 0.002,7.17262 -8.91823,0.003 v -0.0109 z"
       id="_3C18" />
    <path
       style="opacity:0.5;fill:#ff0000"
       d="m 482.79925,624.16536 v 79.92839 h 31.15387 v -87.14063 h -8.05468 v 7.24219 h -23.09919 z"
       id="_3C22" />
    <path
       style="opacity:0.5;fill:#ff0000"
       d="m 514.74059,616.96171 -0.0276,48.24899 31.20887,0.0179 0.0235,-41.06449 -20.53129,-0.0118 0.004,-7.18362 -10.67758,-0.006 z"
       id="_3C24" />
    <path
       style="opacity:0.5;fill:#ff0000"
       d="m 514.73047,666.00391 v 38.0625 h 31.19531 v -38.07032 h -31.19531 z"
       id="_3C24A" />
    <path
       style="opacity:0.5;fill:#ff0000"
       d="m 583.8125,646.78125 v 9.625 h 26.15625 v -32.25 h -8.9375 v -7.1875 h -16.4375 v 29.0625 H 598.5 v 0.75 z"
       id="path1612" />
    <path
       style="opacity:0.5;fill:#ff0000"
       d="m 572.93327,646.82593 v 9.67852 h -24.3068 v -32.35013 h 6.89429 v -7.19261 h 16.63549 v 29.06954 H 558.25 v 0.8125 h 14.68327 z"
       id="_3C26D" />
    <path
       style="opacity:0.5;fill:#ff0000"
       d="m 583.23051,657.21156 v 9.54594 h 15.23043 v 0.85187 H 584.5625 v 26.07032 h 25.35156 v -36.48438 h -26.68355 z"
       id="_3C26B" />
    <path
       style="opacity:0.5;fill:#ff0000"
       d="m 573.55199,657.25575 v 9.54594 h -15.33538 v 0.8176 h 13.87697 v 36.416 h -23.5334 v -46.80163 h 25.10229 v 0.0221 z"
       id="_3C26C" />
    <path
       style="opacity:0.5;fill:#ff0000"
       d="m 572.91117,667.59719 v 36.4381 h 37.01852 v -9.56804 h -26.16407 v -26.88913 h -10.85445 z"
       id="_3C30A" />
    <path
       style="opacity:0.5;fill:#ff0000"
       d="m 610.74219,624.15625 v 79.90625 h 86.29687 V 624.14844 H 665.125 v -7.17969 h -45.60156 v 7.19141 h -8.78125 z"
       id="_3C30" />
    <path
       style="opacity:0.5;fill:#ff0000"
       d="m 697.83594,616.96484 v 15.98828 h 20.80078 v -15.99609 h -20.80078 z"
       id="_3C36A" />
    <path
       style="opacity:0.5;fill:#ff0000"
       d="m 697.84375,634.16797 v 69.91151 h 41.58002 v -25.44667 h -0.85346 v -54.47656 h -9.53906 v -7.19531 h -9.21875 v 17.17968 h -21.96094 v 0.0273 z"
       id="_3C36" />
    <path
       style="opacity:0.5;fill:#ff0000"
       d="m 752.07988,617.44233 v 57.04363 h 19.36257 v 4.15425 h 12.81079 v -4.07139 h 18.23009 v -53.68487 h -2.67927 v -3.44715 h -47.72418 z"
       id="_3C38" />
    <path
       style="opacity:0.5;fill:#ff0000"
       d="m 681.1875,425.67969 v 63.85547 h 79.99219 v -9.46875 h 7.22656 v -31.1875 h -7.21484 v -23.19922 z"
       id="_3W01" />
    <path
       style="opacity:0.5;fill:#ff0000"
       d="m 755.03906,496.63281 v 25.45313 h 12.16075 v -25.4375 h -12.16075 z"
       id="_3C49" />
    <path
       style="opacity:0.5;fill:#ff0000"
       d="m 809.13281,361.75781 v 8.78125 h -7.20703 v 31.12891 h 7.22656 v 88.99784 h 26.50977 v -1.39211 h 53.46942 V 361.75693 h -79.99872 z"
       id="_3W02" />
    <path
       style="opacity:0.5;fill:#ff0000"
       d="m 751.51562,389.21875 v 35.6875 h 9.67188 v -8.84375 h 7.26562 v -26.79688 h -16.9375 z"
       id="_3W00B" />
    <path
       style="opacity:0.5;fill:#ff0000"
       d="m 681.209,361.76246 v 63.12585 h 69.28541 v -36.73088 h 17.8884 v -3.20431 h -7.17969 V 361.78125 H 681.209 Z"
       id="_3W05" />
    <path
       style="opacity:0.5;fill:#ff0000"
       d="m 801.9375,329.73437 v 7.98438 h 7.15625 v 23.24219 h 80.00781 V 329.75391 H 801.9375 Z"
       id="_3W10" />
    <path
       style="opacity:0.5;fill:#ff0000"
       d="m 681.21875,265.76953 v 95.19141 h 80.02344 v -8.78125 h 7.16406 v -31.21875 h -7.21094 v -55.20313 h -79.97656 z"
       id="_3W09" />
    <path
       style="opacity:0.5;fill:#ff0000"
       d="m 801.90625,265.77344 v 8.02343 h 7.19531 v 23.14063 h 38.41406 v 0.86719 H 809.125 v 23.14062 h -7.20313 v 8.02344 H 889.125 v -63.22656 h -87.21875 z"
       id="_3W12" />
    <path
       style="opacity:0.5;fill:#ff0000"
       d="m 681.20312,233.76562 h 80 v 31.17969 h -80.00781 v -31.17969 z"
       id="_3W11" />
    <path
       style="opacity:0.5;fill:#ff0000"
       d="m 809.14062,233.75781 v 23.19374 h -7.23565 v 7.99433 h 87.20079 v -31.17709 h -79.96514 z"
       id="_3W16" />
    <path
       style="opacity:0.5;fill:#ff0000"
       d="m 681.20565,138.2409 v 94.71181 h 79.97499 v -8.68363 h 7.17826 v -13.65929 h -7.17826 v -50.37458 h 7.20995 v -13.61175 h -7.16241 v -8.77871 h -5.49858 v 0.3803 h -74.52395 z"
       id="_3W13" />
    <path
       style="opacity:0.5;fill:#ff0000"
       d="m 833.12168,104.93251 -0.002,32.92071 -23.9729,-0.002 -0.002,31.17812 47.98132,0.003 -5e-5,0.79894 -47.9903,-0.003 -0.002,31.16382 47.99493,0.003 -6e-5,0.8671 -54.8748,-0.004 -5.3e-4,7.98208 6.88564,4.5e-4 -0.002,23.12685 79.9765,0.005 0.008,-128.05714 -56.00037,-0.004 z"
       id="_3W18" />
    <path
       style="opacity:0.5;fill:#ff0000"
       d="m 809.12435,104.9782 v 32.04586 h 23.19403 v -32.06827 h -23.19403 z"
       id="_3W24A" />
    <path
       style="opacity:0.5;fill:#ff0000"
       d="M 674.20312,101.40234 V 489.25 H 158.53906 v 221.83426 h 583.90625 v -29.61551 h 96.07422 V 493.25 H 896.125 V 101.41458 H 674.20312 Z"
       id="floor" />
  </g>
</svg>
