<svg version="1.1" id="svg1" xmlns:xlink="http://www.w3.org/1999/xlink" xmlns="http://www.w3.org/2000/svg" viewBox="0 0 3200 2472.7273">
  <path d="M2706.9459 237.68715h-238.1608v30.5912h-30.5622v71.15615h-371.1495v1103.4796H469.20486v409.8106h98.50416v229.7976H2247.5854v-76.7353h195.1035v-402.0169h101.18V1421.364h164.3193V237.68715Z" id="floor"/>
  <path d="M469.24008 1442.6478v158.316H665.8491v-158.316z" id="_1C01"/>
  <path d="M669.56409 1443.2193v158.0303h94.58952V1442.362h-94.58952z" id="_1C05"/>
  <path d="M767.86859 1443.5052v158.0302h94.58953v-158.6018h-94.58953z" id="_1C07"/>
  <path d="m866.17311 1442.362.28569 158.8876 93.15986-.1675-.28385-157.8627-93.15985.1675z" id="_1C09"/>
  <path d="M469.51321 1605.446v82.04h93.35593v-82.04z" id="_1C03A"/>
  <path d="M568.12293 1605.446v104.2677h128.516v-103.8636h-128.516z" id="_1C03"/>
  <path d="M696.63893 1605.8501v103.4595h137.40701v-64.6622h29.90625v-39.6055H696.63893Z" id="_1C03D"/>
  <path d="M840.10804 1648.2847v40.0097h22.63174v-40.818h-22.63174z" id="_1C03C"/>
  <path d="M865.16459 1605.0419v39.6055h93.76009v-39.6055z" id="_1C03B"/>
  <path d="M866.377 1647.8805v40.0098h27.4814v21.4193h65.87457v-61.4291z" id="_1C09A"/>
  <path d="M964.19187 1442.362v268.0513h68.58453v-21.7184h26.8623v-245.1897h-95.44683z" id="_1C11"/>
  <path d="M1063.1924 1442.3762v246.1203h27.7845v21.4193h137.9122v-21.5204h59.2062v21.5204h66.9859v-267.3375h-291.8888z" id="_1C13"/>
  <path d="M1358.6958 1442.9336v113.4502h78.5865v-12.1451h114.7362v-101.5909h-193.3227z" id="_1C19A"/>
  <path d="m469.51321 1713.3509.40413 100.6304 7.66877-.03.0536 13.3671-7.72556.032.10037 25.0254 80.72574-.3243-.0394-9.7754 8.93146-.036-.0794-19.7732-9.2074.037-.0471-11.754 8.93146-.036-.38775-96.5502-4.05431.016-.0184-4.8708 4.86742-.018-.0437-10.8922-60.57919.2433.0447 11.0771 6.01977-.024.0154 4.0576-35.57823.1428z" id="_1C00C"/>
  <path d="M568.12293 1815.5979v266.3272h97.39735V1836.209h-27.4814v-21.4193h-69.91595z" id="_1C04"/>
  <path d="M669.25857 1836.5121h27.98656v-21.2172h66.88489v267.0343h-94.6694v-245.8171z" id="_1C06"/>
  <path d="M767.72572 1815.3619v267.0511h95.0896v-246.047h-27.86246v-21.2184h-67.22714z" id="_1C08"/>
  <path d="M866.03024 1836.4374v245.9042h95.30393v-267.0511H893.8927v21.1469z" id="_1C10"/>
  <path d="M965.04916 1815.7192v90.0172h114.45044v-35.4354h-20.0038v-33.8636h-27.7196v-21.1469h-66.72704z" id="_1C12"/>
  <path d="M1091.0554 1815.2548v21.0933h-27.8267v30.2736h19.593v39.4719h75.3894v-90.8209h-67.1557z" id="_1C14"/>
  <path d="M964.69195 1909.5942v172.9974h94.91105v-138.5265h-18.6822v-34.3994h-76.22885z" id="_1C12A"/>
  <path d="M1044.1979 1909.5601v30.8155h18.8934v141.9536h94.9726v-172.7691z" id="_1C14A"/>
  <path d="M1161.499 1815.2948v267.1354h95.3766V1836.209h-28.0875v-21.0152h-67.2891z" id="_1C16"/>
  <path d="M1259.8913 1836.366v246.1899h95.2325V1815.219h-67.0842v21.004h-28.1483z" id="_1C18"/>
  <path d="m1358.3143 1815.1938.202 91.0321 193.6825-.4299-.2013-90.7031-67.1879.1491.046 20.8664-59.2528.1314-.046-21.0465-67.2419.1493z" id="_1C22"/>
  <path d="M1358.5164 1606.6584h79.11v81.9391h-11.821v21.5203h-67.188v-103.4594z" id="_1C19"/>
  <path d="M1358.5669 1559.9299v43.3439h79.2111v-43.5459h-79.2111z" id="_1C19B"/>
  <path d="M1441.2638 1547.5026v140.9434h43.6973v21.3688h67.0871v-162.2111h-110.7844z" id="_1C21"/>
  <path d="M1358.5164 1909.5853v173.047h94.9472v-173.0722h-94.9472z" id="_1C20"/>
  <path d="m1457.0252 1909.6106.1009 172.9712 94.9725-.055-.101-173.0168-94.9724.055z" id="_1C22A"/>
  <path d="m1555.5338 1815.2948.076 267.3628 94.9473-.028-.07-246.2448-27.7653.01-.01-21.1746-67.182.018z" id="_1C24"/>
  <path d="M1555.5906 1442.7907v101.1622h95.0182v-101.0193h-95.0182z" id="_1C23"/>
  <path d="m1555.5338 1547.4521.202 162.5647 67.1876-.083-.028-21.336 27.7102-.034-.1754-141.1106-94.898.1179z" id="_1C25A"/>
  <path d="M1653.7523 1836.2945v246.19h276.3028v-129.5962h114.486V1836.31h-27.9865v-21.2172h-138.0133v21.2172H1748.914v-21.0152h-67.0869v21.0152h-28.0748z" id="_1C28"/>
  <path d="M1933.5042 1956.3391v126.3942h111.0369v-126.4952h-111.0369z" id="_1C32"/>
  <path d="M1653.6384 1442.5783v246.0192h73.048v21.4193h92.8508v-21.4193h59.2062v21.1162h67.289v-267.2364h-292.394z" id="_1C25"/>
  <path d="M1949.2656 1442.6794h96.0333v245.7666h-28.7948v21.5203h-67.087v-267.2869z" id="_1C31"/>
  <path d="M2047.8627 1836.3858v69.6507H2246.58v-69.742h-32.9349v-21.1111h-137.955v21.1826h-27.8274z" id="_1C34"/>
  <path d="m2047.6732 1909.459.4042 173.2743 94.7682-.221-.4037-173.0605-94.7681.2211z" id="_1C34A"/>
  <path d="M2145.8463 1909.5586v173.1045h100.6979v-173.1404h-100.6979z" id="_1C36"/>
  <path d="M2050.3281 1574.673h58.8684v49.1439h5.3664v-52.384h80.5242v138.1444h-112.0438v-27.3996h-32.7097V1574.673Z" id="_1C43"/>
  <path d="M2198.2313 1571.3359v138.1185h38.6095v-10.946h7.9607v-8.6075h52.9388v-118.4655h-99.509z" id="_1C45"/>
  <path d="M2050.3111 1442.5962v110.8281h177.0514v-49.3316h4.9755v62.2926h99.9568v-39.2562h-42.5401v-91.9712h-222.2285v7.4134h-17.2151z" id="_1C47"/>
  <path d="M2285.785 1815.7353v175.7678h59.5274v12.5429h39.4322v-12.4707h55.8475l-.0001-175.7679h-154.807z" id="_1C38"/>
  <path d="M2294.8885 1444.4534v77.3493h37.3278v-78.1189h-37.3278z" id="_1C49"/>
  <path d="M2542.7746 1603.325v-172.9164H2440.478v172.9265h102.2966z" id="_1C44"/>
  <path d="M2439.9337 1324.3194v25.5784h21.3267v75.4767h81.5312v-4.1497h164.5931v-96.9394h-267.451z" id="_1W02"/>
  <path d="M2067.567 1225.9173v196.192h245.9713v-29.235h21.4439v-140.207h-21.4779v-26.8414H2067.567Z" id="_1W01"/>
  <path d="m2439.9667 1252.7394-.024 68.3542 267.4759.094.033-95.3619-246.0796-.087-.01 26.8799-21.3963-.01z" id="_1W04"/>
  <path d="M2439.9427 1127.6359v25.2901h21.3576v69.689h246.0582v-95.0512h-267.4158z" id="_1W06"/>
  <path d="M2231.4968 832.03684v390.58106h82.0074v-26.5988h21.5648v-140.4092h-21.4627V832.07082h-82.1095z" id="_1W05A"/>
  <path d="m2462.8155 1029.0611-.024 26.6009-22.897-.022-.062 68.3989 267.4173.2416.086-95.2447-244.5204-.2211z" id="_1W08"/>
  <path d="m2067.55 832.07082.034 95.23883 160.6814-.0572-.034-95.14736-160.6814.0572z" id="_1W11"/>
  <path d="M2067.5784 930.57051v95.27979h160.7478v-95.25571h-160.7478z" id="_1W09"/>
  <path d="m2067.567 1029.0451-.018 95.1027 160.7155.028.018-95.1145-160.7154-.028z" id="_1W07"/>
  <path d="M2067.4822 1127.5758v95.0993h160.9041v-95.0272h-160.9041z" id="_1W05"/>
  <path d="m2439.8317 858.83975 22.7892-.0681-.08-26.59839 83.9573-.2506.5787 193.85654-84.2517.2516-.08-27.05398-22.8449.0683-.4185-140.20428z" id="_1W14B"/>
  <path d="M2549.9686 930.47292v95.30678h157.3481V930.677h-157.3481z" id="_1W10"/>
  <path d="M2549.9686 832.03684v95.2388h157.2801v-95.37488h-157.2801z" id="_1W12"/>
  <path d="M2462.8931 534.9598v30.34036h-22.8573v39.79619h22.8573v56.80315h-23.0614v97.21162h22.7213v69.66036h244.8997v-95.3068h-161.0896V534.9598Z" id="_1W14"/>
  <path d="m2549.9299 635.17088.096 95.05125 157.4889-.15947-.096-94.98836-157.4888.15947z" id="_1W16"/>
  <path d="m2550.002 535.04477.025 96.73486 157.3684-.0391-.024-96.69573-157.3685.0391z" id="_1W18"/>
  <path d="M2468.7095 436.52368v92.14356h238.7092v-92.2796h-238.7092z" id="_1W20"/>
  <path d="m2627.7922 338.22363-.068 91.90546 79.5923.0588.068-91.89637-79.5922-.0588z" id="_1W22A"/>
  <path d="M2462.1421 338.23192v91.82837h159.0281v-91.87646h-159.0281z" id="_1W22"/>
  <path d="M2438.235 268.33847v61.71596h23.8109v1.58741h245.3246v-93.80057h-238.5902v30.44908h-30.5453z" id="_1W24"/>
  <path d="M2230.5104 340.53657v101.64564h-38.4016v91.349h121.4635V339.62692h-82.9939v.90965z" id="_1W19"/>
  <path d="M2067.1758 340.60461v97.41569h159.7291v-97.55173h-159.7291z" id="_1W19B"/>
  <path d="M2067.4479 441.96591v189.66127h120.5451V442.23802h-120.5451z" id="_1W19C"/>
  <path d="M2192.2108 537.47681v94.15037h121.4975v-94.01432h-121.4975z" id="_1W17"/>
  <path d="M2067.567 635.28368v94.96668h246.0053v-95.07948H2067.567Z" id="_1W15"/>
  <path d="M2067.5841 733.39663v95.44288h245.8521v-95.30683h-245.8521z" id="_1W13"/>
</svg>
