<svg version="1.1" id="svg1" xmlns:xlink="http://www.w3.org/1999/xlink" xmlns="http://www.w3.org/2000/svg" viewBox="0 0 3200 2475.7576">
  <path d="M2712.4476 234.3125h-249.0991v102.71926H2064.384V1454.664H444.4375v271.1245h100.70757v378.0331H2246.0202v-80.4008h198.0702v-403.9143h104.7466v-186.0629h164.5624V234.3125Z" id="floor"/>
  <path d="M444.91259 1454.9077v249.1844h30.62576v21.6964h21.65972v-21.7329h44.91487v21.7136h73.805v-21.7418h59.98807v21.7418h26.66903v-21.7074h39.86574v-249.2149H444.91259Z" id="_2C01"/>
  <path d="M746.67888 1454.8063v126.2471h97.09731v-126.2127h-97.09731z" id="_2C01B"/>
  <path d="M746.78222 1584.9125h96.89061v118.9426h-28.25402v21.7762H747.5519v-21.6488h-.8162v-119.07z" id="_2C01A"/>
  <path d="m847.32517 1454.8753.059 249.2168 28.05525-.01.006 21.6664 21.76431-.01-.006-21.6425 146.15337-.034-.059-249.2118-195.97288.046z" id="_2C09"/>
  <path d="M1046.6194 1454.7719v249.308h28.409v21.6893h21.4489v-21.7074h44.9309v21.7267h73.3506v-21.8547h59.5948v21.7816h21.745v-21.6355h44.8666v21.672h73.129v-21.7328h28.238V1454.859h-395.7128z" id="_2C13"/>
  <path d="M1445.7798 1454.8103v249.2453h28.1893v21.7084h21.7084v-21.7084h146.2337v-249.2453z" id="_2C21"/>
  <path d="M1645.4196 1454.859v249.1844h28.1162v21.7206h21.4527v-21.6841h44.9518v21.6355h73.3727v-21.6355h59.8383v21.7086h21.4161v-21.806h44.9763v21.7815h73.0437v-21.7084h29.2623v-249.2493h-396.4301z" id="_2C25"/>
  <path d="M2064.2462 1447.2948v7.5115h-17.4865v112.0686h184.5297v13.6273h101.8523v-39.9691h-43.5948v-93.2383z" id="_2C47"/>
  <path d="M2294.4562 1456.0285v79.4271h38.5929v-79.3296h-38.5929z" id="_2C49"/>
  <path d="M2046.777 1585.2572v115.0144h190.5423v5.0652h60.6427v-120.0796z" id="_2C41"/>
  <path d="M2442.3345 1453.7018h13.1687l.0001-13.0348h78.8546v12.8155h11.6095v164.2387h-103.6816v-164.0194z" id="_2C44"/>
  <path d="M545.40255 1853.7733v249.6107h98.96716v-249.6351h-28.36563v-21.6826h-28.94315v21.6556h-41.65838z" id="_2C04"/>
  <path d="M647.68645 1853.7736v249.5129h395.65845v-249.5254h-28.1893v-21.6719h-21.71934v21.6672H948.4883v-21.6385h-73.06417v21.5868h-59.9364v-21.6556h-26.66902v21.759h-44.86188v-21.7246H675.8888v21.6212h-28.20235z" id="_2C06"/>
  <path d="M1046.6538 1853.7909v249.514h395.5734v-249.6347h-28.1939v-21.6541h-21.4405v21.8303h-45.0249v-21.8146h-73.2281v21.778h-59.8733v-21.6963h-21.4282v21.6232h-44.9519v-21.7084h-73.0681v21.8546h-28.3645z" id="_2C14"/>
  <path d="M1445.7934 1853.7909v249.4967h395.7089V1853.822h-28.3112v-21.6842h-21.7572v21.5868h-44.8543v-21.6598h-73.0438v21.6354h-59.9845v-21.6354h-21.5866v21.6841h-44.8544v-21.6354h-73.2873v21.7085h-28.0296z" id="_2C22"/>
  <path d="M2245.7888 2103.1647v-79.4561h-2.6301v-169.9158h-30.8983v-21.6686h-21.7303v21.6561h-44.9266v-21.6911h-73.1533v21.6962h-59.8751v-21.7084h-21.4281v21.6841h-44.9519v-21.6841h-73.0315v21.7084h-28.4087v249.3915h401.0339z" id="_2C30"/>
  <path d="M2285.3318 1832.7957v178.1323h60.3519v12.8177h39.9692v-12.7833h56.8697v-167.4568h-8.2866v-10.8018h-148.9042z" id="_2C38"/>
  <path d="M2064.2637 1254.805v179.0643h249.4281v-29.4319h22.4881v-29.9679h-22.4516v-44.9153h22.4151v-67.3231h-22.366v-7.477h-249.5137z" id="_2W01"/>
  <path d="M2440.7143 1262.236v29.8948h22.5368v47.4371h-22.4857v64.9325h22.4653v32.9228h82.781v-4.2209h166.7157v-198.4672h-249.5483V1262.3h-22.4648z" id="_2W02"/>
  <path d="M2064.3125 1035.4423v216.8288h249.4036v-47.4004h22.5003v-30.0045h-22.5124v-47.3152h22.5246v-64.9305h-22.4637v-27.1903h-249.4524z" id="_2W05"/>
  <path d="M2463.2145 1035.1987v27.4462h-22.4394v30.0044h22.4029v47.3031h-22.4637v64.8573h22.4637v27.4951h249.4524v-197.0939h-249.4159z" id="_2W06"/>
  <path d="M2064.2881 835.93648v197.02072h249.4768V835.87115h-249.4768z" id="_2W09"/>
  <path d="M2463.2267 835.86339v72.3128h-22.4637v52.43161h22.3784v72.3372h249.4768V835.88777h-249.3915z" id="_2W10"/>
  <path d="M2463.1536 736.0191v97.35916h249.6351v-97.31044h-249.6351z" id="_2W14"/>
  <path d="M2064.2637 736.0191v97.31041h249.5377V736.0191Z" id="_2W13"/>
  <path d="M2463.2024 636.29665v97.30874h249.5079v-97.30406h-249.5079z" id="_2W16"/>
  <path d="M2064.3125 536.51324v197.106h249.4158V606.23127h22.4881V563.9351h-22.4638v-27.40966h-249.4401z" id="_2W15"/>
  <path d="M2463.2307 436.73152v197.00687h249.4484V436.67985h-249.4484z" id="_2W18"/>
  <path d="M2064.3151 338.44546v195.55568h249.4278v-27.42708h22.517v-42.44993h-22.517V337.18782h-17.1936v1.20594h-232.2342z" id="_2W19"/>
  <path d="m2463.2136 234.37075.024 199.82525 249.3792-.0318-.024-199.76652-249.3793.0315z" id="_2W22"/>
</svg>
