<svg version="1.1" id="svg1" xmlns="http://www.w3.org/2000/svg" viewBox="0 0 3200 2472.7273">
  <path d="M2697.861 248.8125h-248.3769v102.79672H2053.978V1460.8844H446.30331v270.2159h98.20563v374.4415H2234.9855v-78.5979h195.1395V1623.779h102.5651v-183.9959h165.3645V248.8125Z" id="floor"/>
  <path d="M446.35237 1461.3173v247.4833h29.18333v22.3547h96.82256v-22.4266h71.952V1461.32H446.35237Z" id="_3C01"/>
  <path d="M646.68189 1461.32v247.3989h27.22171v22.3643h69.3858v-22.2959h99.02806v-247.5472H646.68189Z" id="_3C07"/>
  <path d="M844.80996 1461.2717v120.9457h96.69859v-121.1878h-96.69859z" id="_3C07A"/>
  <path d="M844.80996 1585.9441h96.40821v122.543h-96.60181v-122.543z" id="_3C09"/>
  <path d="M943.98629 1461.2572v247.5202h96.35041v-247.53h-96.35041z" id="_3C11"/>
  <path d="M1042.8546 1461.2572v247.3932h27.1982v22.4384h69.4508v-270.2081h-96.649z" id="_3C13"/>
  <path d="M1141.8941 1461.1545v270.1511h24.9138v-22.6552h71.6617v-247.5643h-96.5755z" id="_3C15"/>
  <path d="M1241.054 1461.3079v247.4695h27.3326v22.4082h96.5534v-22.4566h71.8221v-247.6026H1241.054Z" id="_3C17"/>
  <path d="M1439.2305 1461.2717v148.4357h64.6593v-31.1197h31.894v-117.3645h-96.5533z" id="_3C17A"/>
  <path d="M1439.3273 1612.1272v96.7471h27.1511v22.2629h69.2087v-87.987h-31.9425v-31.023z" id="_3C21"/>
  <path d="M1506.2935 1581.138v59.41h29.3629v-59.5469h-29.3629z" id="_3C21A"/>
  <path d="M1538.2059 1461.2914v269.7747h69.2549v-22.2402h226.1181v-247.6372h-295.373z" id="_3C23"/>
  <path d="M1835.9947 1461.078v247.6027h96.5052V1461.078h-35.0401z" id="_3C29"/>
  <path d="M1934.9197 1461.2474v247.5399h96.5776V1461.078h-96.5776z" id="_3C31"/>
  <path d="M2053.9194 1453.7625v7.3236h-17.5217v111.4963h183.4317v13.1414h100.5452v-39.698h-42.9832v-92.5371h-223.472z" id="_3C47"/>
  <path d="M2036.5174 1594.0741v107.9886h29.7392v-21.9879h39.3385v9.8218h-36.2756v39.6978h113.2075v-138.6688h-80.9016v3.1977h-65.108z" id="_3C43"/>
  <path d="M2185.6198 1590.8806v138.7079h38.3793v-10.9379h8.1793v-8.9053h53.2375v-119.0098h-99.7961z" id="_3C45"/>
  <path d="M2429.2538 1460.0133v163.1001h103.0387V1459.868h-12.1478v-10.9862h-77.8719v10.9862h-13.019z" id="_3C44"/>
  <path d="M545.61539 1857.4552h27.1027v-22.4082H616.76v22.5534h27.19951v86.5683h-98.56079v-86.7135z" id="_3C04"/>
  <path d="M545.43295 1946.6326h98.663v69.4885h-98.6459v-69.4885z" id="_3C04A"/>
  <path d="M545.47018 2018.5227v86.5835h98.69419v-86.5725h-98.69419z" id="_3C04B"/>
  <path d="M646.52456 1857.4067v247.6027h195.86551v-200.4149h-96.60181v42.2029h-2.71027v-89.3422h-96.55343z" id="_3C06"/>
  <path d="M745.73629 1835.1705v66.8361h96.54121v-44.6601h-27.17252v-22.3472h-69.36869z" id="_3C08"/>
  <path d="M844.85834 1857.4914v86.6773h96.76662v-86.5826H914.1102v-22.5183h-42.09346v22.4498h-27.1584z" id="_3C10"/>
  <path d="M844.80996 1946.7005h96.69859v68.9183h-96.6018v-68.9183z" id="_3C10A"/>
  <path d="M844.80996 2018.2324v87.019h96.60179v-87.1159h-96.60179z" id="_3C10B"/>
  <path d="M943.95263 1835.1438h24.63952v22.3054h71.73005v247.496h-96.37013v-269.8014z" id="_3C12"/>
  <path d="M1042.7565 1857.4552h27.3932v-22.263h96.4082v22.257h72.1124v247.415h-196.0105v-247.409z" id="_3C14"/>
  <path d="m1241.1024 1857.4914.07 247.6249 195.5466-.056-.07-247.6108-71.6593.021-.01-22.1968-96.6033.028.01 22.2168-27.6238.01v-.034z" id="_3C18"/>
  <path d="M1439.2862 1857.4834v247.5744h96.4976v-269.914h-24.9489v22.4324h-71.5487z" id="_3C22"/>
  <path d="m1538.223 1835.1705-.085 149.4489 96.6681.055.073-127.1953-63.5948-.037.013-22.2511-33.0732-.019z" id="_3C24"/>
  <path d="M1538.1917 1987.0764v117.8967h96.626V1987.052h-96.626z" id="_3C24A"/>
  <path d="M1752.17 1927.535v29.813h81.0177v-99.8928h-27.6834v-22.263h-50.9144v90.0198h43.074v2.323z" id="_3C26A"/>
  <path d="M1718.4721 1927.6734v29.9787h-75.2891v-100.2029h21.3547v-22.2787h51.5276v90.0415h-43.074v2.5166h45.4808z" id="_3C26D"/>
  <path d="M1750.3673 1959.8425v29.568h47.1756v2.6387h-43.0498v80.7516h78.5252v-113.0086h-82.651z" id="_3C26B"/>
  <path d="M1720.3886 1959.9793v29.5681h-47.5006v2.5324h42.9832v112.7969h-72.8936v-144.9658h77.7532v.069z" id="_3C26C"/>
  <path d="M1718.4036 1992.0114v112.8653h114.6632v-29.6366h-81.042v-83.2877h-33.6212z" id="_3C30A"/>
  <path d="M1835.5835 1857.4552v247.5058h267.3004v-247.53h-98.8523v-22.2388h-141.2487v22.2751h-27.1994z" id="_3C30"/>
  <path d="M2105.3522 1835.1801v49.5229h64.4295v-49.547h-64.4295z" id="_3C36A"/>
  <path d="M2105.3764 1888.4661v216.5475h128.7921v-78.8198h-2.6435v-168.7386h-29.5469v-22.2871h-28.5546v53.2133h-68.0229v.084z" id="_3C36"/>
  <path d="M2273.3702 1836.6592v176.6899h59.9747v12.8676h39.6808v-12.6111h56.4669v-166.2863h-8.299v-10.6772h-147.8234z" id="_3C38"/>
  <path d="M2053.7844 1242.6835v197.7892h247.7721v-29.329h22.3839v-96.6017h-22.3476v-71.8585z" id="_3W01"/>
  <path d="M2282.5361 1462.4574v78.8399h37.6674v-78.7915h-37.6674z" id="_3C49"/>
  <path d="M2450.089 1044.6885v27.1995h-22.3234v96.4203h22.3839v275.6666h82.1128v-4.312h165.6189v-394.9772H2450.089Z" id="_3W02"/>
  <path d="M2271.6225 1129.7474v110.5403h29.9582v-27.3931h22.5049v-83.002h-52.4631z" id="_3W00B"/>
  <path d="M2053.851 1044.7029v195.5293h214.6083v-113.7721h55.4084v-9.9253h-22.2386v-71.7737H2053.851Z" id="_3W05"/>
  <path d="M2427.8019 945.49734v24.73125h22.1661v71.99161h247.8203v-96.66233h-269.9864z" id="_3W10"/>
  <path d="M2053.8812 747.36928v294.85092h247.8689v-27.1996h22.1903v-96.69853h-22.3356v-170.9891h-247.7236z" id="_3W09"/>
  <path d="M2427.705 747.38139v24.8522h22.2872v71.677h118.9857v2.68608h-118.9131v71.67698h-22.3113v24.85222h270.1075V747.28459h-270.156z" id="_3W12"/>
  <path d="M2053.8329 648.23868h247.7962v96.57762h-247.8205v-96.57762z" id="_3W11"/>
  <path d="M2450.1131 648.21449V720.056h-22.4121v24.76207h270.1004v-96.56956h-247.6883z" id="_3W16"/>
  <path d="M2053.8406 352.35539v293.36535h247.7188v-26.89715h22.2344V576.5146h-22.2344V420.48172h22.3325v-42.16174h-22.1853v-27.19164h-17.0315v1.17795h-230.8345z" id="_3W13"/>
  <path d="m2524.3934 249.18422-.01 101.97035-74.2549-.006-.01 96.57276 148.6198.01-.0001 2.47468-148.6476-.01-.01 96.52845 148.662.01-.0002 2.6858-169.9721-.0124v24.72412l21.3279.002-.01 71.63432 247.7234.0155.025-396.65092-173.4584-.0124z" id="_3W18"/>
  <path d="M2450.0628 249.32575v99.26053h71.8424v-99.32995h-71.8424z" id="_3W24A"/>
</svg>
