<svg version="1.1" id="svg1" xmlns:xlink="http://www.w3.org/1999/xlink" xmlns="http://www.w3.org/2000/svg" viewBox="0 0 3200 2472.7273">
  <path d="M2692.0371 275.79599h-431.2196v105.98455h-233.8132V1501.4949h-19.5499v8.1376H389.04222v274.026h101.83012v382.4349H2211.0614v-80.0655h188.5069v-102.5461h11.9333v-308.6496h102.5461v-186.8888h177.3826V275.79599Z" id="floor"/>
  <path d="M389.54117 1510.0688v251.8533h82.15761v21.7294h18.83209V1677.902h100.88624v-168.0402H389.54117Z" id="_BC01"/>
  <path d="M494.16883 1681.7157v101.9875h69.25883v-21.8328h28.04119v-80.3469h-97.30002z" id="_BC01A"/>
  <path d="M594.80936 1509.9391v144.4228h97.59746v-55.4112h100.90831v-89.1158H594.80936Z" id="_BC05A"/>
  <path d="m594.87875 1657.7782.035 104.1212 73.58532-.025.007 22.0247 51.17776-.016-.022-62.3509-20.22658.01-.022-63.6804-104.53652.035z" id="_BC05"/>
  <path d="M695.69061 1602.2167v53.6804h4.14536v62.2497h23.37413v43.648h70.0876V1602.147h-97.60709z" id="_BC07"/>
  <path d="M796.57218 1509.9393v120.6329H994.817v-120.6677H796.57218Z" id="_BC09A"/>
  <path d="m796.60952 1634.9996.0984 127.0021 198.33599-.1539-.0984-126.7992-198.33599.1539z" id="_BC09"/>
  <path d="M998.36951 1509.9925v251.9352h74.75799v21.8486h22.5874v-273.907h-97.34539z" id="_BC13"/>
  <path d="M1099.0402 1509.9556v273.8453h22.6737v-21.9224h73.945v-252.0092h-96.6187z" id="_BC15"/>
  <path d="M1200.6468 1509.9186v251.9599h196.7558v-252.0784h-196.7558z" id="_BC17"/>
  <path d="M1399.9436 1509.9309v251.951h73.9039v21.919h24.4145v-273.8823h-98.3184z" id="_BC21"/>
  <path d="M1503.3485 1509.9432v273.8331h24.5333v-20.1983h3.2514v20.1983h41.6772v-21.9718h26.2576v-251.8982h-95.7195z" id="_BC23"/>
  <path d="M1604.2038 1509.9556v251.9721h26.4916v21.9102h143.5301v-22.0457h117.1248v-251.9105h-287.1465z" id="_BC29"/>
  <path d="M1896.2768 1509.894v252.0214h107.9739v-252.011h-107.9739z" id="_BC31"/>
  <path d="M2009.2757 1509.9044v113.1784h186.4009v-32.4661h59.1495v-88.1321h-246.073v7.4198z" id="_BC47"/>
  <path d="M2009.3373 1641.8102v120.1052h24.6441v21.8855h163.4369v-142.0816h-188.081z" id="_BC41"/>
  <path d="m2202.8086 1641.3176-.044 122.3409 60.0588.022.01-31.0418 35.7433.013.033-91.3453-95.8022-.034z" id="_BC43"/>
  <path d="M2410.1108 1508.6994v165.904h103.6074v-165.9287h-12.0999v-11.4415h-79.2778v11.3553h-12.2297z" id="_BC44"/>
  <path d="M2259.7945 1513.1947h38.8569v77.7006h-38.8788v-77.7006z" id="_BC49"/>
  <path d="M491.62947 1913.2046v27.7356h-.18476v224.2241h201.00872v-251.9227h-23.70822v-21.9963h-50.27373v21.947H491.62944Z" id="_BC04"/>
  <path d="M695.66792 1913.2662v251.9845h198.28692v-251.9942h-124.3448v-21.9111h-50.47561v21.8763h-23.46651z" id="_BC10"/>
  <path d="M897.5388 1913.2539v57.9342h70.11473v-57.9465H897.5388Z" id="_BC12"/>
  <path d="M897.47112 1974.5135v190.6159h97.36324v-145.2785h-27.27564v-45.407h-70.0876z" id="_BC12A"/>
  <path d="M970.95418 1913.2292v103.4172h27.39069v148.6166h97.40693v-274.0046h-97.34692v21.8588h-27.4507z" id="_BC14"/>
  <path d="M1099.0775 1913.2913v252.0646h96.8408v-252.0297h-96.8408z" id="_BC16"/>
  <path d="M1200.9425 1914.9658v250.2356h199.7401v-252.6741h-32.9082v-22.0456h-147.4719v24.4468h-19.36z" id="_BC18"/>
  <path d="m1405.6585 1890.5093.069 274.7421 485.0804-.1231-.033-129.3676-291.5104.074-.032-125.1547-28.3442.01-.01-20.2055-165.2255.042z" id="_BC22"/>
  <path d="M1604.2654 1910.7291v120.0314h196.3903v-120.1546h-28.0312v-20.0996h-150.5723v20.2073h-17.7868z" id="_BC30"/>
  <path d="m1805.736 1910.7136.087 120.0406 89.9257-.065.098 134.4773 207.5179-.1504-.1565-215.8097-128.941.094-.043-58.8077-150.5253.1091.016 20.0295-17.9774.012z" id="_BC32"/>
  <path d="M2108.4155 1890.5442v274.8117h102.1007v-80.4684h-2.2642v-194.4058h-99.8365z" id="_BC36"/>
  <path d="M2261.6172 1890.5556v194.4364h137.843v-101.6479h11.565v-74.6859h-11.4258v-17.9049h-137.9822z" id="_BC00C"/>
  <path d="M2408.3604 1288.4076v203.8356h105.3522v-4.3209h177.8198v-199.42h-283.172z" id="_BW02"/>
  <path d="M2026.9984 1086.6438v402.116h273.8945v-186.7099h-11.8479v-31.5166h11.8233v-170.2434h-11.9219v-13.6461h-143.5179z" id="_BW01"/>
  <path d="m2442.4155 1187.4869.098 97.1483 249.1767-.2529-.098-96.9945-249.1769.253z" id="_BW06"/>
  <path d="M2408.2733 1090.1803v93.7596h283.2201v-97.2222h-283.267v3.4626z" id="_BW08"/>
  <path d="M2026.8672 985.67584v24.94166h104.2257v72.3867h157.8016v-14.5609h11.8437v-82.55846h-273.871z" id="_BW01A"/>
  <path d="M2078.8485 1012.157v70.8414h50.4954v-70.7922h-50.4954z" id="_BW01B"/>
  <path d="M2026.9369 1012.2199v70.5057h50.3014v-70.227h-49.8834v-.2787z" id="_BW01C"/>
  <path d="M2026.8752 883.82466v98.23208h139.0716v-98.2567h-139.0716z" id="_BW11A"/>
  <path d="M2408.325 985.60373v97.31347h283.1377v-97.15428H2408.325Z" id="_BW10"/>
  <path d="M2026.9718 379.96855v500.11207h142.7528v102.00723h512.5243V784.18858h9.343V400.79284h-277.6405V275.95187H2261.793v104.12118h-234.8212z" id="_BW11"/>
  <path d="M2417.7831 276.23055v120.87669h273.8712v-121.0857h-273.8712z" id="_BW11B"/>
</svg>
