<svg version="1.1" id="svg1" xmlns:xlink="http://www.w3.org/1999/xlink" xmlns="http://www.w3.org/2000/svg" viewBox="0 0 1056 816">
  <path d="M46 191v383h414v58h136v-58h413V191Z" id="floor"/>
  <path d="M47 191v239h106V191Z" id="_209B"/>
  <path d="M157 191v158h106V190H157Z" id="_209A"/>
  <path d="M267 191v158h119V191Z" id="_208"/>
  <path d="M390 191v158h163V191Z" id="_207"/>
  <path d="M556 191v158h111V191Z" id="_207A"/>
  <path d="M671 191v158h120V191H671Z" id="_206"/>
  <path d="M900 354v220h109V354Z" id="204"/>
  <path d="M805 416v158h91V416Z" id="203"/>
  <path d="M711 416v158h90V416Z" id="202"/>
  <path d="M371 448v126h83V448h-83z" id="_211"/>
  <path d="M267 416v158h72v-6h-6V416h-66z" id="_210"/>
  <path d="M46 434v140h217V434z" id="_209"/>
  <path d="M794 191v158h216V190H794Z" id="_205"/>
  <path d="M602 416v158h105V416Z" id="_201"/>
</svg>
