<svg version="1.1" id="svg1" xmlns="http://www.w3.org/2000/svg" viewBox="0 0 1056 816">
    <path style="fill:#000;fill-opacity:1" d="M523 96v73h51V96l-51 1z" id="_1026"/>
    <path style="fill:#000;fill-opacity:1" d="M523 96v54h-8v3h-9v-3h-9V96Z" id="_1024"/>
    <path style="fill:#000;fill-opacity:1" d="M574 169v88h-7v3h-10v-3h-57v-31h-2v-23h2v-34h74Z" id="_1032"/>
    <path style="fill:#000;fill-opacity:1" d="M574 96H408v74h-52v569h97v-32h20l53-92h117v-30h-44v13h-20V256h-5V96Z" id="floor"/>
    <path style="fill:#000;fill-opacity:1" d="M500 257v49h-1v16h1v29h57v2h10v-2h13v-94h-13v3h-10v-3h-57Z" id="_1039"/>
    <path style="fill:#000;fill-opacity:1" d="M500 351v44h-2v23h2v31h80v-98h-13v2h-10v-2z" id="_1044"/>
    <path style="fill:#000;fill-opacity:1" d="M500 449h-1v50h81v-50h-80z" id="_1027C"/>
    <path style="fill:#000;fill-opacity:1" d="M499 499v15h-3v84h10v12l18 11 3-5h53V499h-81z" id="_1027D"/>
    <path style="fill:#000;fill-opacity:1" d="M463 96v6h2v10h-2v5h-35V96Z" id="_1023"/>
    <path style="fill:#000;fill-opacity:1" d="M483 117v1h2v10h-2v19h-6v4h-16v-34z" id="_1022"/>
    <path style="fill:#000;fill-opacity:1" d="M580 616h63v-31h-45v13h-18v4h3v10h-3z" id="_1056"/>
    <path style="fill:#000;fill-opacity:1" d="M428 117v25h11v1h12v-1h10v-25Z" id="_1PE3"/>
    <path style="fill:#000;fill-opacity:1" d="M471 188v-17h-43v32h43v-6h2v-9h-2z" id="_1029"/>
    <path style="fill:#000;fill-opacity:1" d="M471 203h-44v42h51v-22z" id="_1027F"/>
    <path style="fill:#000;fill-opacity:1" d="M478 245v154H358v-57h2v-12h-2l-1-159h71v74Z" id="_1027A"/>
    <path style="fill:#000;fill-opacity:1" d="M357 399v71h121v-71H357z" id="_1027B"/>
    <path style="fill:#000;fill-opacity:1" d="M357 470v60l79 1v-61l-79-1Z" id="_1027G"/>
    <path style="fill:#000;fill-opacity:1" d="M357 531v208h96v-34l12-14v-22h-3v-15h3l13-30V470h-42v60h-79Z" id="_1027E"/>
    <path style="fill:#000;fill-opacity:1" d="m487 683 36-63-17-10h-27v14l-14 30h-3v15h3v22l9-15z" id="_1027"/>
</svg>
