<?xml version="1.0" encoding="UTF-8" standalone="no"?>
<svg
   version="1.1"
   id="svg1"
   viewBox="0 0 1500 819"
   sodipodi:docname="Low2.svg"
   inkscape:version="1.3.2 (091e20e, 2023-11-25)"
   xmlns:inkscape="http://www.inkscape.org/namespaces/inkscape"
   xmlns:sodipodi="http://sodipodi.sourceforge.net/DTD/sodipodi-0.dtd"
   xmlns="http://www.w3.org/2000/svg"
   xmlns:svg="http://www.w3.org/2000/svg">
  <defs
     id="defs1" />
  <sodipodi:namedview
     id="namedview1"
     pagecolor="#ffffff"
     bordercolor="#999999"
     borderopacity="1"
     inkscape:showpageshadow="2"
     inkscape:pageopacity="0"
     inkscape:pagecheckerboard="0"
     inkscape:deskcolor="#d1d1d1"
     inkscape:zoom="0.28815629"
     inkscape:cx="749.59322"
     inkscape:cy="407.76483"
     inkscape:window-width="1512"
     inkscape:window-height="910"
     inkscape:window-x="0"
     inkscape:window-y="38"
     inkscape:window-maximized="0"
     inkscape:current-layer="svg1" />
  <path
     d="M716 624c-3 21-12 38-38 41-26-3-38-17-39-41v-63h-35v4l-40 40H406v22h-41l-54 93h-77V289h38v-55h161v-22h19V97h75v16h290v146h110v-7h97v353H716Z"
     id="floor" />
  <path
     d="M330 239h72l-1 57-71-1v-56z"
     id="_2027" />
  <path
     d="M407 238h32v29h-32v-29z"
     id="_2023" />
  <path
     d="M407 268h30v28h-30v-28z"
     id="_2025" />
  <path
     d="M345 316h58v40h-57v-40z"
     id="_2033" />
  <path
     d="M346 358h57v49h-57v-49z"
     id="_2037" />
  <path
     d="M345 409h58v71h-57v-71z"
     id="_2037A" />
  <path
     d="M345 481h58v19h-57v-19z"
     id="_2045" />
  <path
     d="M456 101h68v47h-37v25h-15v23h-16v-95z"
     id="_2017" />
  <path
     d="M526 136h25v56h-25z"
     id="_2200A" />
  <path
     d="M785 137h29v22h-30v-22z"
     id="_2313" />
  <path
     d="M785 195h30v21h-30v-21Z"
     id="_2323" />
  <path
     d="M582 218h117v75H584v-75z"
     id="_2215" />
  <path
     d="M438 349h26v21h-26z"
     id="_206" />
  <path
     d="M480 373c5 33 16 54 16 54l-8 5v8h-50v-67z"
     id="_207" />
  <path
     d="M438 441h29v19h-29z"
     id="_208A" />
  <path
     d="M469 442h34v18h-34z"
     id="_208" />
  <path
     d="M438 486h44v26h-44z"
     id="_210" />
  <path
     d="M438 513h44v26h-44z"
     id="_211" />
  <path
     d="M437 542h45v27h-44z"
     id="_212" />
  <path
     d="M438 571h57v30h-57z"
     id="_213" />
  <path
     d="M497 562h67v-37h37v40l-37 37h-67z"
     id="_217" />
  <path
     d="M539 525h22v35h-22z"
     id="_216" />
  <path
     d="M497 525h40v22h-13l-17-10h-10z"
     id="_215" />
  <path
     d="M497 538h10l16 9h15v13h-41z"
     id="_215A" />
  <path
     d="M640 303h64l14 14v24h-37v9h-21l-20-20Z"
     id="_253A" />
  <path
     d="M681 343h36v19h-25l-12-11z"
     id="_253C" />
  <path
     d="M718 343h27v20h-27z"
     id="_252A" />
  <path
     d="M747 342h15v21h-15z"
     id="_252B" />
  <path
     d="m720 317 14-14h96v27h-19v26h-47v-15h-45z"
     id="_252" />
  <path
     d="M831 303h93v61h-92v-61z"
     id="_251" />
  <path
     d="M925 303h20v54h-18v-54z"
     id="_251B" />
  <path
     d="M947 303h20v39h-19v-39z"
     id="_251C" />
  <path
     d="M969 303h51v44h-23v-5h-28v-39z"
     id="_251D" />
  <path
     d="M986 493h37v22h-37z"
     id="_230" />
  <path
     d="M947 494h37v21h-37v-21z"
     id="_229" />
  <path
     d="M916 494h11v21h-10v-21z"
     id="_227" />
  <path
     d="M847 493h21v8h46v14h-67v-22z"
     id="_226" />
  <path
     d="M831 494h14v22h-14v-22z"
     id="_225" />
  <path
     d="M961 547h22v13h38v42h-61v-55Z"
     id="_240" />
  <path
     d="M902 547h56v55h-56v-55Z"
     id="_239" />
  <path
     d="M881 547h18v31l-18-10z"
     id="_238" />
  <path
     d="m881 572 19 10v19h-19z"
     id="_237" />
  <path
     d="M822 547h56v55h-56v-55Z"
     id="_236" />
  <path
     d="M760 547h60v55h-60v-55Z"
     id="_235" />
  <path
     d="M740 547h18v31l-18-11z"
     id="_234" />
  <path
     d="m739 571 19 11v20h-19z"
     id="_233" />
  <path
     d="M680 548h57v54h-57v-54z"
     id="_232" />
  <path
     d="M794 494h18v21h-18z"
     id="_223" />
  <path
     d="M755 494h21v7h16v14h-38v-21z"
     id="_222" />
  <path
     d="M481 229h11v15h-21z"
     id="_2022" />
  <path
     d="M476 314h21v12h-22v-12z"
     id="_202" />
  <path
     d="M498 314h20v11h-20v-11z"
     id="_204" />
  <path
     id="_2000"
     d="M345 296h96v-74h16l-1-25h17v-24h15v-23h16v46h8v16h-23l-33 57v52h-50v-6h-61z" />
  <path
     d="M292 271h22v7h15v17h14v20h-52v-44z"
     id="_2029" />
  <path
     d="M405 582h29v20h-28v-20z"
     id="_2054" />
  <path
     d="M405 321h50v21h-20v238h-29V321Z"
     id="_2000A" />
  <path
     d="M504 472h38l39 51h-77Z"
     id="_209.02" />
  <path
     id="_209.01"
     d="M484 568V464h22v-23h27c16 20 34 39 65 53l-6 13v16h-10l-40-52h-39v52h-8v45z" />
  <path
     d="m483 374 23-3c4 24 8 45 26 70h-42v-8l8-5c-7-18-14-36-15-54z"
     id="_209A" />
  <path
     d="M460 327h79v6h20v11h-54l1 25-23 3c-2-12-2-19-2-26h-21z"
     id="_201" />
  <path
     d="M460 300h11c2-13 9-20 17-23v36h-14v11h-14z"
     id="_203" />
  <path
     d="M491 276c12-1 26 6 27 22v14h-26z"
     id="_205" />
  <path
     d="m468 257 5-9h65v9z"
     id="_2200C" />
  <path
     d="M532 303h106v27l22 21h19l12 13h5v24h-17l-56-57h-82v-6h-9z"
     id="_253" />
  <path
     d="M696 365h70v-7h43v6h120v-5h63v5h31v23H696v-22z"
     id="_250" />
  <path
     d="M947 344h48v5h24v14h-25v-6h-47z"
     id="_251A" />
  <path
     d="M507 346h20v3l-20 13z"
     id="_201A" />
  <path
     d="M685 427h10v64h-15v-54h5v-10z"
     id="_221" />
  <path
     d="M722 501h30v14h-30v-14z"
     id="_220" />
  <path
     d="M680 493h14v12h26v12h94v-23h14v23h101v-23h15v22h79v28H680Z"
     id="_219" />
  <path
     d="M930 438h14v54h-14v-54z"
     id="_228" />
  <path
     d="M814 438h15v54h-15v-54z"
     id="_224" />
  <path
     d="M600 495c26 11 51 13 77 11v38h-2v16h-71v-36h-9v-16z"
     id="_218" />
  <path
     d="M759 116h21v22h3v78h-24V116z"
     id="_2300" />
  <path
     d="M526 117h230v100H581v70h-39v-43h-16v-31h-13v-17h40v-62h-27v-17z"
     id="_2200" />
  <path
     d="m507 363 10-6a145 145 0 0 0 159 136v11c-13 2-46 0-57-4-19-6-45-18-65-37-32-32-42-54-47-100z"
     id="_201B" />
  <path
     d="M438 463h44v11h-35v9h-9v-20z"
     id="_2ST7" />
  <path
     d="M315 239h14v38h-12v-26h-2v-12z"
     id="_2S06" />
  <path
     d="M492 215h12v10h10v9h-19v-9h-3v-10z"
     id="_2S01" />
  <path
     d="M784 117h8v18h-8v-18z"
     id="_2S05" />
  <path
     d="M786 161h28v33h-27v-33z"
     id="_2FE1" />
  <path
     d="M292 253h22v17h-22z"
     id="_2PE3" />
  <path
     d="M680 605h36v19h-36v-19z"
     id="_2ST1A" />
  <path
     d="M470 298c1-13 9-21 24-24 12 2 24 4 25 25v26h11v-28c1-4-2-11-3-16-1-1-8-15-33-18-26 4-32 19-35 35z"
     id="_2ST2" />
  <path
     d="M505 150h19v43h-19z"
     id="_2PE2" />
  <path
     d="M986 549h11v9h-11v-9z"
     id="_2ST6" />
  <path
     d="M239 294h50v23h54v185h59v120h-39l-40 71h-16v24h-69z"
     id="unexcavated1" />
  <path
     d="m489 214-7 13h8v-13z"
     id="unexcavated2" />
  <path
     d="M466 273v-13h72v39h-4c-4-32-22-34-39-39-8 5-5-5-29 13z"
     id="unexcavated3" />
  <path
     d="M542 288h40v6h-40z"
     id="unexcavated4" />
  <path
     d="M701 219h112v34h-97v32l15 16-12 12-14-14h-3z"
     id="unexcavated5" />
  <path
     d="M719 264h212v-8h93v44H733l-17-16z"
     id="unexcavated6" />
  <path
     d="M530 346h31v-13h61l55 55h346v104h-76v-54h-20v54h-13v7h-45v-7h-37v-55h-20v54h-20v8h-15v-8h-25v9h-32v5h-23v-78h-14v8h-6v57c-18 0-36-2-48-5-68-20-100-67-111-130l11-8v-4z"
     id="unexcavated7" />
  <path
     d="M997 549h25v9h-25v-9z"
     id="path751" />
  <path
     d="M642 561h32v66h-32v-66z"
     id="path752" />
  <path
     d="M447 474h34v9h-34z"
     id="path753" />
  <path
     d="M466 347h14v24h-14v-24z"
     id="path754" />
  <path
     d="M505 215h20v9h-2v20h-28v-9h19v-11h-10v-9z"
     id="path755" />
  <path
     d="M814 331h16v32h-17v-32z"
     id="_2ST9" />
  <path
     d="M792 117h22v18h-21v-18z"
     id="path756" />
  <path
     d="M278 239h35v11h-24v41h-12v-52z"
     id="path757" />
  <path
     d="M642 627h71c0 25-14 33-34 36-21-1-35-12-37-36z"
     id="_2ST1" />
</svg>
