<svg version="1.1" id="svg1" xmlns="http://www.w3.org/2000/svg" viewBox="0 0 1780.1 1403.8">
  <path d="M1086 1188c-7 47-27 85-86 92-58-7-85-38-87-92v-142h-79v9l-90 90H388v49h-93l-121 210H0V433h86V309h362v-50h43V0h169v36h654v329h248v-16h218v796h-694z" id="floor" style="stroke-width:2.25333"/>
  <path d="M216 320h163l-3 128-160-2z" id="_2027" style="stroke-width:2.25333"/>
  <path d="M390 318h72v65h-72z" id="_2023" style="stroke-width:2.25333"/>
  <path d="M390 385h67v63h-67z" id="_2025" style="stroke-width:2.25333"/>
  <path d="M250 493h131v91H252v-91z" id="_2033" style="stroke-width:2.25333"/>
  <path d="M252 588h129v111H252Z" id="_2037" style="stroke-width:2.25333"/>
  <path d="M250 703h131v160H252V703Z" id="_2037A" style="stroke-width:2.25333"/>
  <path d="M250 865h131v43H252v-43z" id="_2045" style="stroke-width:2.25333"/>
  <path d="M500 9h153v106h-83v56h-34v52h-36z" id="_2017" style="stroke-width:2.25333"/>
  <path d="M658 88h56v126h-56z" id="_2200A" style="stroke-width:2.25333"/>
  <path d="M1242 90h65v50h-68V90Z" id="_2313" style="stroke-width:2.25333"/>
  <path d="M1242 221h67v47h-67z" id="_2323" style="stroke-width:2.25333"/>
  <path d="M784 273h264v169H789V273Z" id="_2215" style="stroke-width:2.25333"/>
  <path d="M460 568h58v47h-58z" id="_206" style="stroke-width:2.25333"/>
  <path d="M554 622c12 74 36 122 36 122l-18 11v18H460V622Z" id="_207" style="stroke-width:2.25333"/>
  <path d="M460 775h65v43h-65z" id="_208A" style="stroke-width:2.25333"/>
  <path d="M530 777h76v41h-76z" id="_208" style="stroke-width:2.25333"/>
  <path d="M460 877h99v58h-99z" id="_210" style="stroke-width:2.25333"/>
  <path d="M460 937h99v59h-99z" id="_211" style="stroke-width:2.25333"/>
  <path d="M457 1003h102v61h-99z" id="_212" style="stroke-width:2.25333"/>
  <path d="M460 1068h128v68H460Z" id="_213" style="stroke-width:2.25333"/>
  <path d="M593 1048h151v-84h83v91l-83 83H593Z" id="_217" style="stroke-width:2.25333"/>
  <path d="M687 964h50v79h-50z" id="_216" style="stroke-width:2.25333"/>
  <path d="M593 964h90v50h-30l-38-23h-22Z" id="_215" style="stroke-width:2.25333"/>
  <path d="M593 994h22l36 20h34v29h-92Z" id="_215A" style="stroke-width:2.25333"/>
  <path d="M915 464h144l32 32v54h-84v20h-47l-45-45z" id="_253A" style="stroke-width:2.25333"/>
  <path d="M1007 554h81v43h-56l-27-25z" id="_253C" style="stroke-width:2.25333"/>
  <path d="M1091 554h60v45h-60z" id="_252A" style="stroke-width:2.25333"/>
  <path d="M1156 552h34v47h-34z" id="_252B" style="stroke-width:2.25333"/>
  <path d="m1095 496 32-32h216v61h-43v59h-106v-34h-101z" id="_252" style="stroke-width:2.25333"/>
  <path d="M1345 464h210v138h-208V464z" id="_251" style="stroke-width:2.25333"/>
  <path d="M1557 464h45v122h-40V464Z" id="_251B" style="stroke-width:2.25333"/>
  <path d="M1607 464h45v88h-43v-88z" id="_251C" style="stroke-width:2.25333"/>
  <path d="M1656 464h115v99h-52v-11h-63z" id="_251D" style="stroke-width:2.25333"/>
  <path d="M1695 892h83v50h-83z" id="_230" style="stroke-width:2.25333"/>
  <path d="M1607 895h83v47h-83z" id="_229" style="stroke-width:2.25333"/>
  <path d="M1537 895h25v47h-23v-47z" id="_227" style="stroke-width:2.25333"/>
  <path d="M1381 892h48v18h103v32h-151z" id="_226" style="stroke-width:2.25333"/>
  <path d="M1345 895h32v49h-32z" id="_225" style="stroke-width:2.25333"/>
  <path d="M1638 1014h50v29h85v95h-137v-124z" id="_240" style="stroke-width:2.25333"/>
  <path d="M1505 1014h126v124h-126z" id="_239" style="stroke-width:2.25333"/>
  <path d="M1458 1014h40v70l-40-23z" id="_238" style="stroke-width:2.25333"/>
  <path d="m1458 1070 43 23v43h-43z" id="_237" style="stroke-width:2.25333"/>
  <path d="M1325 1014h126v124h-126z" id="_236" style="stroke-width:2.25333"/>
  <path d="M1185 1014h135v124h-135z" id="_235" style="stroke-width:2.25333"/>
  <path d="M1140 1014h41v70l-41-25z" id="_234" style="stroke-width:2.25333"/>
  <path d="m1138 1068 43 25v45h-43z" id="_233" style="stroke-width:2.25333"/>
  <path d="M1005 1016h128v122h-128z" id="_232" style="stroke-width:2.25333"/>
  <path d="M1262 895h40v47h-40z" id="_223" style="stroke-width:2.25333"/>
  <path d="M1174 895h47v15h36v32h-85v-47z" id="_222" style="stroke-width:2.25333"/>
  <path d="M557 297h24v34h-47z" id="_2022" style="stroke-width:2.25333"/>
  <path d="M545 489h48v27h-50v-27z" id="_202" style="stroke-width:2.25333"/>
  <path d="M595 489h45v25h-45z" id="_204" style="stroke-width:2.25333"/>
  <path id="_2000" d="M250 448h216V282h36l-2-57h39v-54h33v-52h36v104h18v36h-51l-75 129v117H388v-14H250Z" style="stroke-width:2.25333"/>
  <path d="M131 392h49v16h34v38h32v45H128v-99z" id="_2029" style="stroke-width:2.25333"/>
  <path d="M385 1093h66v45h-63v-45z" id="_2054" style="stroke-width:2.25333"/>
  <path d="M385 505h113v47h-45v536h-65V505Z" id="_2000A" style="stroke-width:2.25333"/>
  <path d="M608 845h86l88 115H608Z" id="_209.02" style="stroke-width:2.25333"/>
  <path id="_209.01" d="M563 1061V827h50v-52h61c36 45 76 88 146 120l-13 29v36h-23l-90-117h-88v117h-18v101z" style="stroke-width:2.25333"/>
  <path d="m561 624 52-7c9 54 18 102 58 158h-94v-18l18-11c-16-41-32-81-34-122Z" id="_209A" style="stroke-width:2.25333"/>
  <path d="M509 518h178v14h45v25H611l2 56-52 7c-4-27-4-43-4-59h-48z" id="_201" style="stroke-width:2.25333"/>
  <path d="M509 457h25c5-29 20-45 38-51v81h-31v25h-32z" id="_203" style="stroke-width:2.25333"/>
  <path d="M579 403c27-2 59 14 61 50v31h-59z" id="_205" style="stroke-width:2.25333"/>
  <path d="m527 361 12-21h146v21z" id="_2200C" style="stroke-width:2.25333"/>
  <path d="M671 464h239v61l50 47h43l27 30h11v54h-38L877 527H692v-13h-21z" id="_253" style="stroke-width:2.25333"/>
  <path d="M1041 604h158v-16h97v14h270v-12h142v12h70v51h-737z" id="_250" style="stroke-width:2.25333"/>
  <path d="M1607 557h108v11h54v31h-56v-13h-106z" id="_251A" style="stroke-width:2.25333"/>
  <path d="M615 561h45v7l-45 29z" id="_201A" style="stroke-width:2.25333"/>
  <path d="M1016 744h23v144h-34V766h11z" id="_221" style="stroke-width:2.25333"/>
  <path d="M1100 910h67v32h-67z" id="_220" style="stroke-width:2.25333"/>
  <path d="M1005 892h32v27h58v27h212v-51h31v51h228v-51h34v49h178v63h-773z" id="_219" style="stroke-width:2.25333"/>
  <path d="M1568 768h32v122h-32z" id="_228" style="stroke-width:2.25333"/>
  <path d="M1307 768h34v122h-34z" id="_224" style="stroke-width:2.25333"/>
  <path d="M825 897c58 25 115 29 173 25v85h-4v36H834v-81h-21v-36z" id="_218" style="stroke-width:2.25333"/>
  <path d="M1183 43h47v49h7v176h-54z" id="_2300" style="stroke-width:2.25333"/>
  <path d="M658 45h518v225H782v158h-88v-97h-36v-70h-29v-38h90V83h-61z" id="_2200" style="stroke-width:2.25333"/>
  <path d="m615 599 23-13a327 327 0 0 0 358 306v25c-29 5-104 0-128-9-43-13-102-40-147-83-72-72-95-122-106-226Z" id="_201B" style="stroke-width:2.25333"/>
  <path d="M460 825h99v25h-79v20h-20z" id="_2ST7" style="stroke-width:2.25333"/>
  <path d="M183 320h31v86h-27v-59h-4z" id="_2S06" style="stroke-width:2.25333"/>
  <path d="M581 266h27v22h23v21h-43v-21h-7z" id="_2S01" style="stroke-width:2.25333"/>
  <path d="M1239 45h18v41h-18z" id="_2S05" style="stroke-width:2.25333"/>
  <path d="M1244 144h63v75h-61v-75z" id="_2FE1" style="stroke-width:2.25333"/>
  <path d="M131 352h49v38h-49Z" id="_2PE3" style="stroke-width:2.25333"/>
  <path d="M1005 1145h81v43h-81z" id="_2ST1A" style="stroke-width:2.25333"/>
  <path d="M532 453c2-29 20-47 54-54 27 4 54 9 56 56v59h25v-63c2-9-5-25-7-36-2-3-18-34-74-41-59 9-72 43-79 79z" id="_2ST2" style="stroke-width:2.25333"/>
  <path d="M611 119h42v97h-42z" id="_2PE2" style="stroke-width:2.25333"/>
  <path d="M1695 1019h24v20h-24z" id="_2ST6" style="stroke-width:2.25333"/>
  <path d="M11 444h113v52h122v417h133v270h-88l-90 160h-37v54H9Z" id="unexcavated1" style="stroke-width:2.25333"/>
  <path d="m575 264-16 29h18v-29z" id="unexcavated2" style="stroke-width:2.25333"/>
  <path d="M523 397v-30h162v88h-9c-9-72-50-76-88-88-18 12-11-11-65 30z" id="unexcavated3" style="stroke-width:2.25333"/>
  <path d="M694 430h90v14h-90z" id="unexcavated4" style="stroke-width:2.25333"/>
  <path d="M1052 275h253v77h-219v72l34 36-27 27-32-32h-6z" id="unexcavated5" style="stroke-width:2.25333"/>
  <path d="M1093 376h478v-18h209v99h-656l-38-36z" id="unexcavated6" style="stroke-width:2.25333"/>
  <path d="M667 561h70v-29h137l124 124h780v234h-171V768h-45v122h-30v16h-101v-16h-84V766h-45v122h-45v18h-33v-18h-57v20h-72v11h-52V744h-31v18h-14v128c-40 0-81-4-108-11-153-45-225-151-250-293l25-18v-9z" id="unexcavated7" style="stroke-width:2.25333"/>
  <path d="M1719 1019h57v20h-57z" id="path751" style="stroke-width:2.25333"/>
  <path d="M919 1046h72v148h-72z" id="path752" style="stroke-width:2.25333"/>
  <path d="M480 850h77v20h-77z" id="path753" style="stroke-width:2.25333"/>
  <path d="M523 563h31v54h-31z" id="path754" style="stroke-width:2.25333"/>
  <path d="M611 266h45v20h-5v45h-63v-20h43v-25h-23v-20z" id="path755" style="stroke-width:2.25333"/>
  <path d="M1307 527h36v72h-38v-72z" id="_2ST9" style="stroke-width:2.25333"/>
  <path d="M1257 45h50v41h-47V45Z" id="path756" style="stroke-width:2.25333"/>
  <path d="M99 320h79v25h-54v92H97V320z" id="path757" style="stroke-width:2.25333"/>
  <path d="M919 1194h160c0 57-31 75-76 81-48-2-79-27-84-81z" id="_2ST1" style="stroke-width:2.25333"/>
</svg>
