<svg version="1.1" id="svg1" xmlns:xlink="http://www.w3.org/1999/xlink" xmlns="http://www.w3.org/2000/svg" viewBox="0 0 1056 816">
  <path d="m124 775 26-44h-26Z" id="_3061"/>
  <path d="m125 777 27-47h12l9 5-25 42z" id="path2987"/>
  <path d="M101 611h62v24h9v72h-9v21h-63v-12h-1c-19-30-23-60 0-92h2v-13Z" id="_3051"/>
  <path d="M101 539h62v24h3v27h-3v19h-62v-70z" id="_3045"/>
  <path d="M99 467h63v24h3v27h-3v20h-61v-71z" id="_3039"/>
  <path d="M79 412h20v-17h63v24h4v27h-2v17H97v7H79v-58z" id="_3033"/>
  <path d="M79 367h37v10h6v14H78v-24z" id="_3029"/>
  <path d="M131 367h33v25h-39v-16h6v-9z" id="_3030"/>
  <path d="M79 354h26v11H79v-11z" id="_3037"/>
  <path d="M167 299h17v38h-27v-24h10z" id="_3020"/>
  <path d="M174 635h12v48h18l-30 53-10-5v-23h10z" id="_3060"/>
  <path d="M119 340h64v294h-19v-44h2v-29h-2v-41h3v-30h-3v-43h4v-29h-4v-53h-36v9h-10v-7h-11v-13h11v-14z" id="_3000A"/>
  <path d="M927 120h48v42h-47v-42z" id="_3280"/>
  <path d="M927 164h31v22h-23v-10h-7v-12z" id="_3278"/>
  <path d="M935 188h22v21h-30v-11h7v-10z" id="_3276"/>
  <path d="M960 164h16v39h-17v-39Z" id="_3280A"/>
  <path d="M914 122h11v56h10v17h-10v15h23v13h-34V122Z" id="_3274"/>
  <path d="M948 211h8v12h-8v-12z" id="_3DW1"/>
  <path d="M913 225h47v27h-16v31h-25v-32h-5v-26z" id="_3273"/>
  <path d="M944 256h16v30h14v18h-30v-48z" id="_3273A"/>
  <path d="M908 283h35v21h-36v-21z" id="path2989"/>
  <path d="M870 282h36v21h-35v-21z" id="_3267"/>
  <path d="M826 282h42v21h-41v-21z" id="_3265"/>
  <path d="M784 282h41v22h-41v-22z" id="_3259"/>
  <path d="M918 70h40v22h-39V70Z" id="path2990"/>
  <path d="M932 92h13v24h-14V92Z" id="_3100A"/>
  <path d="M698 282h84v21h-83v-21z" id="_3243"/>
  <path d="M659 283h37v20h-38v-20z" id="_3239"/>
  <path d="M628 283h28v19h-28v-19z" id="_3235"/>
  <path d="M873 67h43v33z" id="_3167.02"/>
  <path d="M915 100h-43V67Z" id="_3167.01"/>
  <path d="M843 68h26v33h-26V68Z" id="_3165"/>
  <path d="M814 67h28v34h-29V67Z" id="_3159"/>
  <path d="M783 68h30v32h-30V68Z" id="_3157"/>
  <path d="M758 67h23v33h-22V67Z" id="_3151"/>
  <path d="M725 68h33v32z" id="_3147.02"/>
  <path d="m724 68 34 33h-33z" id="_3147.01"/>
  <path d="M701 67h23v34h-22V67Z" id="_3145"/>
  <path d="M672 67h29v33h-28V67Z" id="_3139"/>
  <path d="M645 69h26v32h-26V68Z" id="_3135"/>
  <path d="M657 119h255v135H661V119Z" id="_3238"/>
  <path d="M600 69h43v32h-43V69Z" id="path2991"/>
  <path d="M616 119h38v25h-39v-25z" id="_3307"/>
  <path d="M616 146h39v29h-39v-29z" id="_3311"/>
  <path d="M624 177h31v19h-40v-11h9z" id="path2992"/>
  <path d="M568 70h29v31h-28V70Z" id="_3129"/>
  <path d="M540 70h27v31h-26V70Z" id="path2994"/>
  <path d="M511 70h28v30h-28V70Z" id="_3123"/>
  <path d="M483 70h27v30h-27z" id="_3119"/>
  <path d="M425 70h57v30h-57V70Z" id="_3113"/>
  <path d="M367 70h55v30h-55V70Z" id="_3111"/>
  <path d="M367 118h75v61h-76v-61z" id="_3112"/>
  <path d="M443 118h77v61h-76v-61z" id="_3116"/>
  <path d="M523 118h75v60h-76v-60z" id="_3130"/>
  <path d="M559 196h39v26h-39v-26z" id="_3319A"/>
  <path d="M558 224h40v27h-41v-27z" id="_3319"/>
  <path d="M559 252h38v29h-39v-29Z" id="_3321"/>
  <path d="M542 282h56v22h-57v-22z" id="_3200A"/>
  <path d="M528 305h29l1 34-18 13h-12z" id="_3225.02"/>
  <path d="M501 305h26v47h-26v-47Z" id="_3225.01"/>
  <path d="M445 305h54v46h-56v-46h2z" id="_3125"/>
  <path d="M423 305h18v46h-17v-46Z" id="_3213"/>
  <path d="M443 195h114v85h-17v22h-97V195Z" id="_3226"/>
  <path d="M367 196h75v86h-75v-86z" id="_3206"/>
  <path d="M367 284h75v20h-20v37h-38v-6h-6v-10h-6v-7h-3v-34z" id="_3211"/>
  <path d="M918 93h12v23H469v-1h-96v-13h545v-9z" id="_3100"/>
  <path d="M659 256v24h256v-24H659Z" id="_3200"/>
  <path d="M600 117h14v80h8v60h35v24h-32v21h-26V117Z" id="_3300"/>
  <path d="M366 179h232v15H366Z" id="_3314"/>
  <path d="M365 193V70h-28v50h-32v12h-9v142h-21v21h38v21h19v-44h13v-63h22v-16z" id="_3000"/>
  <path d="M155 339v-28h11v-12h-49v40h38z" id="path2995"/>
  <path d="M79 392h17v17H80v-17z" id="path2996"/>
  <path d="M278 297h28v24h-3v10h-2v9h-4v15h-20v-58z" id="_3201"/>
  <path d="M334 274h32v42h-32v-42z" id="path2997"/>
  <path d="M346 212h18v59h-19v-59z" id="path2998"/>
  <path d="M962 67h13v49h-29V93h15V67Z" id="unexcavated1"/>
  <path d="M960 203h16v22h-18v-22z" id="path2999"/>
  <path d="M623 196h33v59h-34v-59z" id="path3000"/>
  <path d="M306 99h30v21h-31V99Z" id="path3001"/>
  <path d="M268 34h43v37h20v27h-28v31h-10v144h-19v83h-33v328l-55 95h-33l56-97h-18V299h50v-65l14-23v-24l13-23z" id="unexcavated2"/>
  <path d="M79 296h35v54H78v-54z" id="unexcavated3"/>
  <path d="M76 295h164v-62l14-24v-23l13-22V32h44v38h667v156h-19v59h18v20H560v37l-21 12H381v-17h-5v-10h-5v-8h-65v4h-2v9h-2v10h-3v14h-50v326l-55 95h-74v-44H96v-14c-22-29-25-61 0-97V471H74Z" id="floor"/>
</svg>
