<svg version="1.1" id="svg1" xmlns="http://www.w3.org/2000/svg" viewBox="0 0 1890.9 1558.3">
  <path d="M4 550h343V420l30-50v-48l27-46V0h92v79h1395v327h-40v123h38v42h-872v77l-44 26H642v-36h-10v-21h-11v-17H485v9h-4v19h-4v20h-6v30H366v682l-115 198H96v-92H46v-29c-46-61-52-128 0-203V918H0Z" id="floor" style="display:inline;stroke-width:2.09172"/>
  <path d="M56 1211h130v50h19v151h-19v44H54v-25h-2c-39-63-48-126 0-193h4z" id="_3051" style="stroke-width:2.09172"/>
  <path d="M56 1061h130v50h6v56h-6v40H56Z" id="_3045" style="stroke-width:2.09172"/>
  <path d="M52 910h132v50h6v57h-6v41H56V910Z" id="_3039" style="stroke-width:2.09172"/>
  <path d="M10 795h42v-36h132v50h8v57h-4v36H48v14H10Z" id="_3033" style="stroke-width:2.09172"/>
  <path d="M10 701h78v21h12v29H8v-50z" id="_3029" style="stroke-width:2.09172"/>
  <path d="M119 701h69v52h-81v-33h12z" id="_3030" style="stroke-width:2.09172"/>
  <path d="M10 674h55v23H10Z" id="_3037" style="stroke-width:2.09172"/>
  <path d="M195 558h35v80h-56v-50h21z" id="_3020" style="stroke-width:2.09172"/>
  <path d="M1784 184h101v88h-99v-88z" id="_3280" style="stroke-width:2.09172"/>
  <path d="M1784 276h65v46h-48v-21h-15v-25z" id="_3278" style="stroke-width:2.09172"/>
  <path d="M1801 326h46v44h-63v-23h15v-21z" id="_3276" style="stroke-width:2.09172"/>
  <path d="M1853 276h34v82h-36v-82z" id="_3280A" style="stroke-width:2.09172"/>
  <path d="M1757 188h23v117h21v36h-21v31h48v28h-71z" id="_3274" style="stroke-width:2.09172"/>
  <path d="M1828 374h17v26h-17z" id="_3DW1" style="stroke-width:2.09172"/>
  <path d="M1755 404h98v56h-33v65h-52v-67h-11v-54Z" id="_3273" style="stroke-width:2.09172"/>
  <path d="M1820 469h33v62h30v38h-63z" id="_3273A" style="stroke-width:2.09172"/>
  <path d="M1744 525h74v44h-76v-44z" id="path2989" style="stroke-width:2.09172"/>
  <path d="M1665 523h75v44h-73v-44z" id="_3267" style="stroke-width:2.09172"/>
  <path d="M1573 523h88v44h-86v-44z" id="_3265" style="stroke-width:2.09172"/>
  <path d="M1485 523h86v46h-86z" id="_3259" style="stroke-width:2.09172"/>
  <path d="M1765 79h84v47h-81V79Z" id="path2990" style="stroke-width:2.09172"/>
  <path d="M1795 126h27v50h-29v-50z" id="_3100A" style="stroke-width:2.09172"/>
  <path d="M1305 523h176v44h-174v-44z" id="_3243" style="stroke-width:2.09172"/>
  <path d="M1224 525h77v42h-79v-42z" id="_3239" style="stroke-width:2.09172"/>
  <path d="M1159 525h58v40h-58z" id="_3235" style="stroke-width:2.09172"/>
  <path d="M1609 75h54v69h-54z" id="_3165" style="stroke-width:2.09172"/>
  <path d="M1548 73h58v71h-60V73Z" id="_3159" style="stroke-width:2.09172"/>
  <path d="M1483 75h63v67h-63z" id="_3157" style="stroke-width:2.09172"/>
  <path d="M1431 73h48v69h-46V73Z" id="_3151" style="stroke-width:2.09172"/>
  <path d="M1312 73h48v71h-46V73Z" id="_3145" style="stroke-width:2.09172"/>
  <path d="M1251 73h61v69h-59V73Z" id="_3139" style="stroke-width:2.09172"/>
  <path d="M1194 77h55v67h-55V75Z" id="_3135" style="stroke-width:2.09172"/>
  <path d="M1219 182h534v282h-525V182Z" id="_3288" style="stroke-width:2.09172"/>
  <path d="M1100 77h90v67h-90z" id="path2991" style="stroke-width:2.09172"/>
  <path d="M1134 182h79v52h-81v-52z" id="_3307" style="stroke-width:2.09172"/>
  <path d="M1134 238h81v61h-81z" id="_3311" style="stroke-width:2.09172"/>
  <path d="M1150 303h65v40h-83v-23h18z" id="path2992" style="stroke-width:2.09172"/>
  <path d="M1033 79h61v65h-59V79Z" id="_3129" style="stroke-width:2.09172"/>
  <path d="M975 79h56v65h-54V79Z" id="path2994" style="stroke-width:2.09172"/>
  <path d="M914 79h59v63h-59z" id="_3123" style="stroke-width:2.09172"/>
  <path d="M856 79h56v63h-56z" id="_3119" style="stroke-width:2.09172"/>
  <path d="M734 79h119v63H734Z" id="_3113" style="stroke-width:2.09172"/>
  <path d="M613 79h115v63H613Z" id="_3111" style="stroke-width:2.09172"/>
  <path d="M613 180h157v127H611V180Z" id="_3112" style="stroke-width:2.09172"/>
  <path d="M772 180h161v127H774V180Z" id="_3116" style="stroke-width:2.09172"/>
  <path d="M939 180h157v125H937V180Z" id="_3130" style="stroke-width:2.09172"/>
  <path d="M1014 343h82v54h-82z" id="_3319A" style="stroke-width:2.09172"/>
  <path d="M1012 402h84v56h-86v-56z" id="_3319" style="stroke-width:2.09172"/>
  <path d="M1014 460h80v61h-82v-61Z" id="_3321" style="stroke-width:2.09172"/>
  <path d="M979 523h117v46H977v-46z" id="_3200A" style="stroke-width:2.09172"/>
  <path d="M950 571h60l2 71-37 27h-25z" id="_3225.02" style="stroke-width:2.09172"/>
  <path d="M893 571h55v98h-55z" id="_3225.01" style="stroke-width:2.09172"/>
  <path d="M776 571h113v96H772v-96z" id="_3125" style="stroke-width:2.09172"/>
  <path d="M730 571h38v96h-36v-96z" id="_3213" style="stroke-width:2.09172"/>
  <path d="M772 341h238v178h-35v46H772Z" id="_3226" style="stroke-width:2.09172"/>
  <path d="M613 343h157v180H613z" id="_3206" style="stroke-width:2.09172"/>
  <path d="M613 527h157v42h-42v77h-80v-12h-12v-21h-13v-15h-6v-71Z" id="_3211" style="stroke-width:2.09172"/>
  <path d="M10 753h36v36H13v-36z" id="path2996" style="stroke-width:2.09172"/>
  <path d="M427 554h58v51h-6v20h-4v19h-9v32h-41V554Z" id="_3201" style="stroke-width:2.09172"/>
  <path d="M544 506h67v88h-67z" id="path2997" style="stroke-width:2.09172"/>
  <path d="M569 377h38v123h-40V377z" id="path2998" style="stroke-width:2.09172"/>
  <path d="M1857 73h28v103h-61v-48h31V73Z" id="unexcavated1" style="stroke-width:2.09172"/>
  <path d="M1853 358h34v46h-38v-46z" id="path2999" style="stroke-width:2.09172"/>
  <path d="M1148 343h69v123h-71V343z" id="path3000" style="stroke-width:2.09172"/>
  <path d="M485 140h63v44h-65v-44z" id="path3001" style="stroke-width:2.09172"/>
  <path d="M406 4h90v78h42v56h-59v65h-21v301h-40v174h-69v686l-112 194h-69l114-198h-37V558h104V423l30-49v-50l27-48z" id="unexcavated2" style="stroke-width:2.09172"/>
  <path d="M10 552h74v113H8V552z" id="unexcavated3" style="stroke-width:2.09172"/>
  <path d="M1361 75h67v66h-67V75Z" id="_3147" style="stroke-width:2.09172"/>
  <path d="M1666 75h99v64h-96V75Z" id="_3167" style="stroke-width:2.09172"/>
</svg>
