<?xml version="1.0" encoding="UTF-8" standalone="no"?>
<svg
   version="1.1"
   id="svg1"
   viewBox="0 0 1056 816"
   sodipodi:docname="Low3.svg"
   inkscape:version="1.3.2 (091e20e, 2023-11-25)"
   xmlns:inkscape="http://www.inkscape.org/namespaces/inkscape"
   xmlns:sodipodi="http://sodipodi.sourceforge.net/DTD/sodipodi-0.dtd"
   xmlns="http://www.w3.org/2000/svg"
   xmlns:svg="http://www.w3.org/2000/svg">
  <defs
     id="defs1" />
  <sodipodi:namedview
     id="namedview1"
     pagecolor="#ffffff"
     bordercolor="#999999"
     borderopacity="1"
     inkscape:showpageshadow="2"
     inkscape:pageopacity="0"
     inkscape:pagecheckerboard="0"
     inkscape:deskcolor="#d1d1d1"
     inkscape:zoom="6.8542849"
     inkscape:cx="175.72949"
     inkscape:cy="737.93256"
     inkscape:window-width="1512"
     inkscape:window-height="945"
     inkscape:window-x="0"
     inkscape:window-y="37"
     inkscape:window-maximized="0"
     inkscape:current-layer="svg1" />
  <path
     d="m 76,295 h 164 v -62 l 14,-24 v -23 l 13,-22 V 32 h 44 v 38 h 667 v 156 h -19 v 59 h 18 v 20 H 560 v 37 l -21,12 H 381 v -17 h -5 v -10 h -5 v -8 h -65 v 4 h -2 v 9 h -2 v 10 h -3 v 14 h -50 v 326 l -55,95 H 120 V 733 H 96 V 719 C 74,690 71,658 96,622 V 471 H 74 Z"
     id="floor"
     style="display:inline"
     inkscape:label="floor" />
  <path
     d="M101 611h62v24h9v72h-9v21h-63v-12h-1c-19-30-23-60 0-92h2v-13Z"
     id="_3051" />
  <path
     d="M101 539h62v24h3v27h-3v19h-62v-70z"
     id="_3045" />
  <path
     d="M99 467h63v24h3v27h-3v20h-61v-71z"
     id="_3039" />
  <path
     d="M79 412h20v-17h63v24h4v27h-2v17H97v7H79v-58z"
     id="_3033" />
  <path
     d="M79 367h37v10h6v14H78v-24z"
     id="_3029" />
  <path
     d="M131 367h33v25h-39v-16h6v-9z"
     id="_3030" />
  <path
     d="M79 354h26v11H79v-11z"
     id="_3037" />
  <path
     d="M167 299h17v38h-27v-24h10z"
     id="_3020" />
  <path
     d="M927 120h48v42h-47v-42z"
     id="_3280" />
  <path
     d="M927 164h31v22h-23v-10h-7v-12z"
     id="_3278" />
  <path
     d="M935 188h22v21h-30v-11h7v-10z"
     id="_3276" />
  <path
     d="M960 164h16v39h-17v-39Z"
     id="_3280A" />
  <path
     d="M914 122h11v56h10v17h-10v15h23v13h-34V122Z"
     id="_3274" />
  <path
     d="M948 211h8v12h-8v-12z"
     id="_3DW1" />
  <path
     d="M913 225h47v27h-16v31h-25v-32h-5v-26z"
     id="_3273" />
  <path
     d="M944 256h16v30h14v18h-30v-48z"
     id="_3273A" />
  <path
     d="M908 283h35v21h-36v-21z"
     id="path2989" />
  <path
     d="M870 282h36v21h-35v-21z"
     id="_3267" />
  <path
     d="M826 282h42v21h-41v-21z"
     id="_3265" />
  <path
     d="M784 282h41v22h-41v-22z"
     id="_3259" />
  <path
     d="M918 70h40v22h-39V70Z"
     id="path2990" />
  <path
     d="M932 92h13v24h-14V92Z"
     id="_3100A" />
  <path
     d="M698 282h84v21h-83v-21z"
     id="_3243" />
  <path
     d="M659 283h37v20h-38v-20z"
     id="_3239" />
  <path
     d="M628 283h28v19h-28v-19z"
     id="_3235" />
  <path
     d="M843 68h26v33h-26V68Z"
     id="_3165" />
  <path
     d="M814 67h28v34h-29V67Z"
     id="_3159" />
  <path
     d="M783 68h30v32h-30V68Z"
     id="_3157" />
  <path
     d="M758 67h23v33h-22V67Z"
     id="_3151" />
  <path
     d="M701 67h23v34h-22V67Z"
     id="_3145" />
  <path
     d="M672 67h29v33h-28V67Z"
     id="_3139" />
  <path
     d="M645 69h26v32h-26V68Z"
     id="_3135" />
  <path
     d="M657 119h255v135H661V119Z"
     id="_3288" />
  <path
     d="M600 69h43v32h-43V69Z"
     id="path2991" />
  <path
     d="M616 119h38v25h-39v-25z"
     id="_3307" />
  <path
     d="M616 146h39v29h-39v-29z"
     id="_3311" />
  <path
     d="M624 177h31v19h-40v-11h9z"
     id="path2992" />
  <path
     d="M568 70h29v31h-28V70Z"
     id="_3129" />
  <path
     d="M540 70h27v31h-26V70Z"
     id="path2994" />
  <path
     d="M511 70h28v30h-28V70Z"
     id="_3123" />
  <path
     d="M483 70h27v30h-27z"
     id="_3119" />
  <path
     d="M425 70h57v30h-57V70Z"
     id="_3113" />
  <path
     d="M367 70h55v30h-55V70Z"
     id="_3111" />
  <path
     d="M367 118h75v61h-76v-61z"
     id="_3112" />
  <path
     d="M443 118h77v61h-76v-61z"
     id="_3116" />
  <path
     d="M523 118h75v60h-76v-60z"
     id="_3130" />
  <path
     d="M559 196h39v26h-39v-26z"
     id="_3319A" />
  <path
     d="M558 224h40v27h-41v-27z"
     id="_3319" />
  <path
     d="M559 252h38v29h-39v-29Z"
     id="_3321" />
  <path
     d="M542 282h56v22h-57v-22z"
     id="_3200A" />
  <path
     d="M528 305h29l1 34-18 13h-12z"
     id="_3225.02" />
  <path
     d="M501 305h26v47h-26v-47Z"
     id="_3225.01" />
  <path
     d="M445 305h54v46h-56v-46h2z"
     id="_3125" />
  <path
     d="M423 305h18v46h-17v-46Z"
     id="_3213" />
  <path
     d="M443 195h114v85h-17v22h-97V195Z"
     id="_3226" />
  <path
     d="M367 196h75v86h-75v-86z"
     id="_3206" />
  <path
     d="M367 284h75v20h-20v37h-38v-6h-6v-10h-6v-7h-3v-34z"
     id="_3211" />
  <path
     d="M79 392h17v17H80v-17z"
     id="path2996" />
  <path
     d="M278 297h28v24h-3v10h-2v9h-4v15h-20v-58z"
     id="_3201" />
  <path
     d="M334 274h32v42h-32v-42z"
     id="path2997" />
  <path
     d="M346 212h18v59h-19v-59z"
     id="path2998" />
  <path
     d="M962 67h13v49h-29V93h15V67Z"
     id="unexcavated1" />
  <path
     d="M960 203h16v22h-18v-22z"
     id="path2999" />
  <path
     d="M623 196h33v59h-34v-59z"
     id="path3000" />
  <path
     d="M306 99h30v21h-31V99Z"
     id="path3001" />
  <path
     d="m 268,34 h 43 v 37 h 20 v 27 h -28 v 31 h -10 v 144 h -19 v 83 h -33 v 328 l -53.89699,92.76187 -32.64407,-0.0962 L 209,682 H 191 V 299 h 50 v -65 l 14,-23 v -24 l 13,-23 z"
     id="unexcavated2"
     sodipodi:nodetypes="cccccccccccccccccccccccc" />
  <path
     d="M79 296h35v54H78v-54z"
     id="unexcavated3" />
  <path
     d="M 724.58892,68.031012 H 756.845 V 99.407383 H 724.88216 V 68.031012 Z"
     id="_3147" />
  <path
     d="m 870.32777,68.031012 h 47.50441 V 98.234435 H 871.79395 V 68.031012 Z"
     id="_3167" />
</svg>
