<?xml version="1.0" encoding="UTF-8" standalone="no"?>
<svg
   version="1.1"
   id="svg1"
   viewBox="0 0 1056 816"
   sodipodi:docname="Low4.svg"
   inkscape:version="1.3.2 (091e20e, 2023-11-25)"
   xmlns:inkscape="http://www.inkscape.org/namespaces/inkscape"
   xmlns:sodipodi="http://sodipodi.sourceforge.net/DTD/sodipodi-0.dtd"
   xmlns="http://www.w3.org/2000/svg"
   xmlns:svg="http://www.w3.org/2000/svg">
  <defs
     id="defs1" />
  <sodipodi:namedview
     id="namedview1"
     pagecolor="#ffffff"
     bordercolor="#999999"
     borderopacity="1"
     inkscape:showpageshadow="2"
     inkscape:pageopacity="0"
     inkscape:pagecheckerboard="0"
     inkscape:deskcolor="#d1d1d1"
     inkscape:zoom="0.58132091"
     inkscape:cx="456.71847"
     inkscape:cy="358.66592"
     inkscape:window-width="1512"
     inkscape:window-height="916"
     inkscape:window-x="0"
     inkscape:window-y="38"
     inkscape:window-maximized="0"
     inkscape:current-layer="svg1" />
  <path
     d="m 121.73217,780.02227 h 28.56024 l 41.72462,-72.26916 V 354.77398 h 93.78845 l 27.44345,-47.53344 h 649.859 V 102.36216 h 18.26511 V 66.39055 H 315.29476 V 40.800011 H 273.77049 V 165.66857 l -12.90231,22.34745 v 23.86047 l -12.54239,21.72405 v 64.26322 H 78.43073 v 206.45737 l 21.066609,36.48843 v 191.01835 h 22.473981 z"
     id="floor"
     style="display:inline" />
  <path
     d="M963 72h15v29h-21V91h5V72Z"
     id="_4175" />
  <path
     d="M925 119h30v2h2v3h3v28h-34v-19h-9v-9h8v-5z"
     id="_4173A" />
  <path
     d="M925 154h35v54h-35z"
     id="_4170" />
  <path
     d="M930 209h20v17h10v57h-30v-74z"
     id="_4272" />
  <path
     d="M952 209h8v16h-8v-16z"
     id="_4DW1" />
  <path
     d="M870 72h31v30h-31V72Z"
     id="_4167" />
  <path
     d="M884 119v7h-8v9h8v25h-4v28h39v-54h-4v-11h9v-4z"
     id="_4166" />
  <path
     d="M877 213h32v31h-31v-31z"
     id="_4266" />
  <path
     d="M873 213h3v33h34v-34h9v-2h9v55h-59v-19h-5v-28h9v-5z"
     id="_4266A" />
  <path
     d="M785 283h106v-12h21v-4h17v15h-22v24H784v-23z"
     id="_4261" />
  <path
     d="M784 246h83v20h10v15h-14v-8h-23v8h-55v-35z"
     id="_4262" />
  <path
     d="M830 213h42v4h-10v29h-32v-34"
     id="_4260" />
  <path
     d="M798 213h31v33h-32v-33z"
     id="_4256" />
  <path
     d="M785 208h12v38h-13v-38z"
     id="_4254" />
  <path
     d="M841 119h29v69h-29v-52h-8v-11h8v-6z"
     id="_4160" />
  <path
     d="M871 126h4v10h8v22h-4v29h-8v-61z"
     id="_4164" />
  <path
     d="M827 126h5v10h8v52h-13v-62z"
     id="_4158" />
  <path
     d="M849 72h19v30h-19z"
     id="_4165" />
  <path
     d="M831 72h17v31h-17z"
     id="_4161" />
  <path
     d="M812 72h17v30h-17V72Z"
     id="_4159" />
  <path
     d="M788 72h23v30h-23z"
     id="_4155" />
  <path
     d="M798 119h29v69h-29v-53h-8v-9h9v-7z"
     id="_4156" />
  <path
     d="M784 126h5v10h8v52h-13v-62z"
     id="_4154" />
  <path
     d="M755 119h28v69h-28v-53h-14v-9h14v-7z"
     id="path3151" />
  <path
     d="M741 137h13v51h-13z"
     id="_4148" />
  <path
     d="M755 208h28v97h-28v-97z"
     id="_4250" />
  <path
     d="M741 208h13v85h-13v-85z"
     id="_4248" />
  <path
     d="M711 208h29v87h14v9h-43z"
     id="_4246" />
  <path
     d="M698 208h13v85h-13v-85z"
     id="_4244" />
  <path
     d="M668 208h29v87h14v10h-50v-11h8v-86z"
     id="_4240" />
  <path
     d="M661 209h7v86h-7v-86z"
     id="_4238" />
  <path
     d="M699 120h41v66h-41v-66z"
     id="_4146" />
  <path
     d="M726 72h17v30h-18V72Z"
     id="_4147" />
  <path
     d="M744 72h18v30h-18V72Z"
     id="_4149" />
  <path
     d="M762 72h23v30h-22V72Z"
     id="_4153" />
  <path
     d="M705 72h20v31h-20z"
     id="_4143" />
  <path
     d="M686 72h18v30h-18z"
     id="_4141" />
  <path
     d="M658 72h28v31h-29V72Z"
     id="_4137" />
  <path
     d="M617 119h73v7h8v62h-80v-69z"
     id="_4140" />
  <path
     d="M647 72h10v30h-11v-6h5v-7h-4V72Z"
     id="_4135" />
  <path
     d="M634 72h9v23h2v7h-11V72Z"
     id="_4133" />
  <path
     d="M600 274h30v31h-29v-31z"
     id="_4231" />
  <path
     d="M572 274h27v31h-28v-31z"
     id="_4229" />
  <path
     d="M543 274h27v32h-27v-32z"
     id="_4225" />
  <path
     d="M514 274h28v31h-28v-31z"
     id="_4223" />
  <path
     d="M485 274h28v31h-27v-31z"
     id="_4219" />
  <path
     d="M456 274h28v31h-27v-31z"
     id="_4217" />
  <path
     d="M399 274h28v32h-28v-32z"
     id="_4211" />
  <path
     d="M543 72h57v31h-57V72Z"
     id="_4129" />
  <path
     d="M485 72h56v30h-56z"
     id="_4119" />
  <path
     d="M447 72h37v30h-38V72Z"
     id="_4115" />
  <path
     d="M428 72h18v30h-18Z"
     id="_4113" />
  <path
     d="M398 72h28v31h-28V72Z"
     id="_4111" />
  <path
     d="M370 72h28v30h-28V72Z"
     id="_4107" />
  <path
     d="M546 119h54v61h-55v-61z"
     id="_4126" />
  <path
     d="M518 120h26v59h-27v-59z"
     id="_4124" />
  <path
     d="M460 119h56v60h-56v-60z"
     id="_4118" />
  <path
     d="M416 119h43v60h-42v-60z"
     id="_4114" />
  <path
     d="M369 119h46v60h-46v-60z"
     id="_4108" />
  <path
     d="M532 197h69v61h-69v-61z"
     id="_4226" />
  <path
     d="M489 197h41v60h-41v-60z"
     id="_4222" />
  <path
     d="M417 197h71v61h-71z"
     id="_4214" />
  <path
     d="M369 197h46v60h-46v-60z"
     id="_4208" />
  <path
     d="M348 72h19v31h-19V72Z"
     id="_4105" />
  <path
     d="M339 119h26v30h-26z"
     id="_4104" />
  <path
     d="M339 150h26v29h-27v-29z"
     id="_4102" />
  <path
     d="M315 75h19v27h-18V75Z"
     id="_4103" />
  <path
     d="M274 41h40v56h-40z"
     id="_4003" />
  <path
     d="M274 99h39v21h-39V99Z"
     id="_4005" />
  <path
     d="M296 122h17v43h-17v-43z"
     id="_4007" />
  <path
     d="M274 122h20v43h-20v-43z"
     id="_4009" />
  <path
     d="M287 256h26v14h-26v-14z"
     id="_4011.06" />
  <path
     d="M274 167h12v43h-25v-21z"
     id="_4013" />
  <path
     d="M261 212h24v32h-37v-11z"
     id="_4015" />
  <path
     d="M248 246h37v20h-37Z"
     id="_4017" />
  <path
     d="M248 268h38v4h3v28h-41Z"
     id="_4019" />
  <path
     d="M287 166h26v88h-26v-88z"
     id="_4011.01" />
  <path
     d="m160 378 13-7h16v20h-30z"
     id="_4028" />
  <path
     d="M126 397h64v71h-64v-71z"
     id="_4034" />
  <path
     d="m 127.29908,469 h 63 v 70 h -64 v -70 z"
     id="_4040" />
  <path
     d="m125 391 49-28v7l-15 9v12h30v5h-64z"
     id="unexcavated1" />
  <path
     d="M334 74h5v-3h9v32h-14V74Z"
     id="_4103A" />
  <path
     d="M82 297h33v53H99v153H81V297Z"
     id="unexcavated6" />
  <path
     d="m 125.57049,539.88845 h 66.14193 V 707.61881 L 178.40658,730.6652 H 103.07563 V 558.95394 h 21.5254 v -19.6261 z"
     id="_4050" />
  <path
     d="m 369.74233,272.07122 h 28.33342 v 32.90901 h -28.86137 v -32.90901 z"
     id="_4207" />
  <path
     d="m 427.81704,272.42319 h 27.62948 v 31.67712 h -27.62948 z"
     id="_4213" />
</svg>
