<svg version="1.1" id="svg1" xmlns="http://www.w3.org/2000/svg" viewBox="0 0 1888.6 1546.1">
  <path d="M91 1546h59l88-151V657h196l57-100h1360V129h38V54H495V0h-86v261l-27 47v50l-27 45v135H0v431l44 77v399h47z" id="floor" style="display:inline;stroke-width:2.09171"/>
  <path d="M1850 65h32v61h-44v-21h10V65Z" id="_4175" style="stroke-width:2.09171"/>
  <path d="M1771 164h63v4h4v6h6v59h-71v-40h-19v-19h17z" id="_4173A" style="stroke-width:2.09171"/>
  <path d="M1771 237h73v113h-73z" id="_4170" style="stroke-width:2.09171"/>
  <path d="M1781 352h42v35h21v120h-63z" id="_4272" style="stroke-width:2.09171"/>
  <path d="M1827 352h17v33h-17z" id="_4DW1" style="stroke-width:2.09171"/>
  <path d="M1656 65h65v63h-65z" id="_4167" style="stroke-width:2.09171"/>
  <path d="M1685 164v14h-17v19h17v52h-8v59h81V195h-8v-23h19v-8z" id="_4166" style="stroke-width:2.09171"/>
  <path d="M1670 360h67v65h-64v-65z" id="_4266" style="stroke-width:2.09171"/>
  <path d="M1662 360h6v69h71v-71h19v-4h19v115h-123v-40h-11v-58h19z" id="_4266A" style="stroke-width:2.09171"/>
  <path d="M1478 507h222v-26h44v-8h35v31h-46v51h-257v-48z" id="_4261" style="stroke-width:2.09171"/>
  <path d="M1476 429h174v42h20v31h-29v-16h-48v16h-115v-73Z" id="_4262" style="stroke-width:2.09171"/>
  <path d="M1572 360h88v9h-21v60h-67v-71" id="_4260" style="stroke-width:2.09171"/>
  <path d="M1505 360h65v69h-67v-69z" id="_4256" style="stroke-width:2.09171"/>
  <path d="M1478 350h25v79h-27v-79z" id="_4254" style="stroke-width:2.09171"/>
  <path d="M1595 164h61v144h-61V199h-17v-23h17z" id="_4160" style="stroke-width:2.09171"/>
  <path d="M1658 178h8v21h17v46h-8v61h-17z" id="_4164" style="stroke-width:2.09171"/>
  <path d="M1566 178h10v21h17v109h-27z" id="_4158" style="stroke-width:2.09171"/>
  <path d="M1612 65h40v63h-40z" id="_4165" style="stroke-width:2.09171"/>
  <path d="M1574 65h36v65h-36z" id="_4161" style="stroke-width:2.09171"/>
  <path d="M1534 65h36v63h-36z" id="_4159" style="stroke-width:2.09171"/>
  <path d="M1484 65h48v63h-48z" id="_4155" style="stroke-width:2.09171"/>
  <path d="M1505 164h61v144h-61V197h-17v-19h19v-14z" id="_4156" style="stroke-width:2.09171"/>
  <path d="M1476 178h10v21h17v109h-27z" id="_4154" style="stroke-width:2.09171"/>
  <path d="M1415 164h59v144h-59V197h-29v-19h29z" id="path3151" style="stroke-width:2.09171"/>
  <path d="M1386 201h27v107h-27z" id="_4148" style="stroke-width:2.09171"/>
  <path d="M1415 350h59v203h-59z" id="_4250" style="stroke-width:2.09171"/>
  <path d="M1386 350h27v177h-27z" id="_4248" style="stroke-width:2.09171"/>
  <path d="M1323 350h61v182h29v19h-90z" id="_4246" style="stroke-width:2.09171"/>
  <path d="M1296 350h27v177h-27z" id="_4244" style="stroke-width:2.09171"/>
  <path d="M1233 350h61v182h29v21h-104v-23h16V350Z" id="_4240" style="stroke-width:2.09171"/>
  <path d="M1219 352h14v180h-14z" id="_4238" style="stroke-width:2.09171"/>
  <path d="M1298 166h86v138h-86z" id="_4146" style="stroke-width:2.09171"/>
  <path d="M1355 65h35v63h-37V65Z" id="_4147" style="stroke-width:2.09171"/>
  <path d="M1392 65h38v63h-38z" id="_4149" style="stroke-width:2.09171"/>
  <path d="M1430 65h48v63h-46V65Z" id="_4153" style="stroke-width:2.09171"/>
  <path d="M1311 65h42v65h-42z" id="_4143" style="stroke-width:2.09171"/>
  <path d="M1271 65h38v63h-38z" id="_4141" style="stroke-width:2.09171"/>
  <path d="M1212 65h59v65h-61V65Z" id="_4137" style="stroke-width:2.09171"/>
  <path d="M1127 164h152v14h17v130h-167V164Z" id="_4140" style="stroke-width:2.09171"/>
  <path d="M1189 65h21v63h-23v-13h11v-14h-9z" id="_4135" style="stroke-width:2.09171"/>
  <path d="M1162 65h19v48h4v15h-23z" id="_4133" style="stroke-width:2.09171"/>
  <path d="M1091 488h63v65h-61v-65z" id="_4231" style="stroke-width:2.09171"/>
  <path d="M1032 488h57v65h-59v-65z" id="_4229" style="stroke-width:2.09171"/>
  <path d="M972 488h56v67h-56z" id="_4225" style="stroke-width:2.09171"/>
  <path d="M911 488h59v65h-59Z" id="_4223" style="stroke-width:2.09171"/>
  <path d="M850 488h59v65h-56v-65z" id="_4219" style="stroke-width:2.09171"/>
  <path d="M790 488h58v65h-56v-65z" id="_4217" style="stroke-width:2.09171"/>
  <path d="M671 488h58v67h-58z" id="_4211" style="stroke-width:2.09171"/>
  <path d="M972 65h119v65H972Z" id="_4129" style="stroke-width:2.09171"/>
  <path d="M850 65h118v63H850Z" id="_4119" style="stroke-width:2.09171"/>
  <path d="M771 65h77v63h-79V65Z" id="_4115" style="stroke-width:2.09171"/>
  <path d="M731 65h38v63h-38z" id="_4113" style="stroke-width:2.09171"/>
  <path d="M668 65h59v65h-59z" id="_4111" style="stroke-width:2.09171"/>
  <path d="M610 65h58v63h-58z" id="_4107" style="stroke-width:2.09171"/>
  <path d="M978 164h113v127H976V164Z" id="_4126" style="stroke-width:2.09171"/>
  <path d="M919 166h55v123h-57V166Z" id="_4124" style="stroke-width:2.09171"/>
  <path d="M798 164h117v125H798Z" id="_4118" style="stroke-width:2.09171"/>
  <path d="M706 164h90v125h-88V164Z" id="_4114" style="stroke-width:2.09171"/>
  <path d="M608 164h96v125h-96Z" id="_4108" style="stroke-width:2.09171"/>
  <path d="M949 327h144v127H949Z" id="_4226" style="stroke-width:2.09171"/>
  <path d="M859 327h86v125h-86z" id="_4222" style="stroke-width:2.09171"/>
  <path d="M708 327h149v127H708Z" id="_4214" style="stroke-width:2.09171"/>
  <path d="M608 327h96v125h-96Z" id="_4208" style="stroke-width:2.09171"/>
  <path d="M564 65h40v65h-40z" id="_4105" style="stroke-width:2.09171"/>
  <path d="M545 164h54v62h-54z" id="_4104" style="stroke-width:2.09171"/>
  <path d="M545 228h54v61h-56v-61z" id="_4102" style="stroke-width:2.09171"/>
  <path d="M495 72h40v56h-38V72Z" id="_4103" style="stroke-width:2.09171"/>
  <path d="M409 0h84v118h-84z" id="_4003" style="stroke-width:2.09171"/>
  <path d="M409 122h82v44h-82z" id="_4005" style="stroke-width:2.09171"/>
  <path d="M455 170h36v90h-36z" id="_4007" style="stroke-width:2.09171"/>
  <path d="M409 170h42v90h-42z" id="_4009" style="stroke-width:2.09171"/>
  <path d="M436 450h55v29h-55z" id="_4011.06" style="stroke-width:2.09171"/>
  <path d="M409 264h25v90h-52v-44z" id="_4013" style="stroke-width:2.09171"/>
  <path d="M382 358h50v67h-77v-23z" id="_4015" style="stroke-width:2.09171"/>
  <path d="M355 429h77v42h-77z" id="_4017" style="stroke-width:2.09171"/>
  <path d="M355 475h79v9h6v58h-85z" id="_4019" style="stroke-width:2.09171"/>
  <path d="M436 262h55v184h-55z" id="_4011.01" style="stroke-width:2.09171"/>
  <path d="m171 705 27-14h33v41h-62z" id="_4028" style="stroke-width:2.09171"/>
  <path d="M100 745h133v149H100Z" id="_4034" style="stroke-width:2.09171"/>
  <path d="M102 896h132v146H100V896Z" id="_4040" style="stroke-width:2.09171"/>
  <path d="m97 732 103-58v15l-31 18v25h62v11H97Z" id="unexcavated1" style="stroke-width:2.09171"/>
  <path d="M535 69h10v-6h19v67h-29z" id="_4103A" style="stroke-width:2.09171"/>
  <path d="M7 536h69v111H43v320H5V536z" id="unexcavated6" style="stroke-width:2.09171"/>
  <path d="M99 1044h138v351l-28 48H52v-359h45v-41z" id="_4050" style="stroke-width:2.09171"/>
  <path d="M609 484h60v69h-61v-69z" id="_4207" style="stroke-width:2.09171"/>
  <path d="M731 484h58v67h-58z" id="_4213" style="stroke-width:2.09171"/>
</svg>
