<svg version="1.1" id="svg1" xmlns:xlink="http://www.w3.org/1999/xlink" xmlns="http://www.w3.org/2000/svg" viewBox="0 0 1056 816">
    <path style="fill:#000;fill-opacity:1" d="M204 230h-48v6h-25v-51H70v174l-17 30v31l-18 29v168h57l39-67v-7h25v7h402v-5h24l1 5h411V296h-6v-19h31v-47z" id="floor"/>
    <path style="fill:#000;fill-opacity:1" d="M228 275v-45h-25v45h4v2h9v-2z" id="_5107"/>
    <path style="fill:#000;fill-opacity:1" d="M228 230h51v45h-4v2h-10v-2h-37v-45z" id="_5111"/>
    <path style="fill:#000;fill-opacity:1" d="M305 275v-45h-26v45h6v2h10v-2z" id="_5113"/>
    <path style="fill:#000;fill-opacity:1" d="M356 230h-51v45h37v2h10v-2h4z" id="_5117"/>
    <path style="fill:#000;fill-opacity:1" d="M382 275v-45h-26v45h6v2h9v-2z" id="_5119"/>
    <path style="fill:#000;fill-opacity:1" d="M428 275h5v-45h-51v45h37v2h9z" id="_5123"/>
    <path style="fill:#000;fill-opacity:1" d="M458 230v45h-10v2h-10v-2h-5v-45z" id="_5125"/>
    <path style="fill:#000;fill-opacity:1" d="M510 230v45h-3v2h-10v-2h-39v-45z" id="_5129"/>
    <path style="fill:#000;fill-opacity:1" d="M174 275h4v2h10v-2h15v-45h-29Z" id="_5105"/>
    <path style="fill:#000;fill-opacity:1" d="M161 296v16h16v-5h1v-9h-1v-2h-5v-1h-9v1z" id="_5104A"/>
    <path style="fill:#000;fill-opacity:1" d="M161 313v24h36v-41h-19v17z" id="_5104"/>
    <path style="fill:#000;fill-opacity:1" d="M197 296v82h49v-82h-15v-1h-16v1z" id="_5108"/>
    <path style="fill:#000;fill-opacity:1" d="M246 378h57v-82h-31v-2h-16v2h-10z" id="_5112"/>
    <path style="fill:#000;fill-opacity:1" d="M303 378h58v-82h-21v-1h-16v1h-21z" id="_5118"/>
    <path style="fill:#000;fill-opacity:1" d="M361 378h57v-82h-20v-2h-16v2h-21v82z" id="_5122"/>
    <path style="fill:#000;fill-opacity:1" d="M418 378h39l1-82h-1v-2h-16v2h-23z" id="_5126"/>
    <path style="fill:#000;fill-opacity:1" d="M457 378h56v-82h-26v-2h-17v2h-12z" id="_5128"/>
    <path style="fill:#000;fill-opacity:1" d="M161 337h36v41h-19v-15h-17z" id="_5012"/>
    <path style="fill:#000;fill-opacity:1" d="M178 363h-22v17h2v2l9-1v-1h12z" id="_5012A"/>
    <path style="fill:#000;fill-opacity:1" d="M156 399h9v-1h10v24h-19z" id="_5014"/>
    <path style="fill:#000;fill-opacity:1" d="M175 399v-4h-2v-10h2v-7h328v7h2v10h-2v6z" id="5_314A"/>
    <path style="fill:#000;fill-opacity:1" d="M511 401v83h-47v2h-16v-2h-9v-83z" id="_5226"/>
    <path style="fill:#000;fill-opacity:1" d="M439 401h-58v83h11v1h16v-1h31v-83z" id="_5222"/>
    <path style="fill:#000;fill-opacity:1" d="M381 401h-57v83h9v2h16v-2h32v-83z" id="_5218"/>
    <path style="fill:#000;fill-opacity:1" d="M324 482h-12v3h-16v-3h-11v-81h39z" id="_5214"/>
    <path style="fill:#000;fill-opacity:1" d="M285 482h-13v4h-16v-4h-9v-81h38z" id="_5212"/>
    <path style="fill:#000;fill-opacity:1" d="M247 482h-18v4h-16v-4h-10v-81h44z" id="_5208"/>
    <path style="fill:#000;fill-opacity:1" d="M175 399v-1h-10v1h-9v23h19z" id="_5014J"/>
    <path style="fill:#000;fill-opacity:1" d="M174 421h29v30h-29Z" id="_5PE2"/>
    <path style="fill:#000;fill-opacity:1" d="M203 451v33h-29v-33z" id="_5PE1"/>
    <path style="fill:#000;fill-opacity:1" d="M591 544v-60h-45v4h-1v9h1v6h8v41h37z" id="_5323"/>
    <path style="fill:#000;fill-opacity:1" d="M541 503h13v47h-44v-47h15v-2h16v2z" id="_5231"/>
    <path style="fill:#000;fill-opacity:1" d="M510 503h-4v-2h-9v2h-25v47h38v-47z" id="_5229"/>
    <path style="fill:#000;fill-opacity:1" d="M472 503v47h-38v-47h4v-2h9v2h25z" id="_5225"/>
    <path style="fill:#000;fill-opacity:1" d="M434 503v47h-38v-47h24v-2h9v2h5z" id="_5223"/>
    <path style="fill:#000;fill-opacity:1" d="M396 503v47h-39v-47h4v-2h9v2h26z" id="_5219"/>
    <path style="fill:#000;fill-opacity:1" d="M357 503v47h-38v-47h24v-2h9v2h5z" id="_5217"/>
    <path style="fill:#000;fill-opacity:1" d="M319 503v47h-39v-47h4v-3h9v3z" id="_5213"/>
    <path style="fill:#000;fill-opacity:1" d="M280 503v47h-38v-47h24v-2h10v2h5z" id="_5211"/>
    <path style="fill:#000;fill-opacity:1" d="M242 503v47h-39v-47h25v-2h9v2z" id="_5207"/>
    <path style="fill:#000;fill-opacity:1" d="M203 503v47h-47v-46h6v-3h10v2h31z" id="_5S01"/>
    <path style="fill:#000;fill-opacity:1" d="M156 503v40h-25v-40h7v-2h11v2zM129 504h-28v-31h28ZM129 473h-28v-53h28v14h4v30h-4z" id="_5015"/>
    <path style="fill:#000;fill-opacity:1" d="M174 230v47h-18v-9h-2v-20h2v-18h18z" id="_5103A"/>
    <path style="fill:#000;fill-opacity:1" d="m123 299-53 1V185h61v74h2v9h-2v19h2v10l-2-1v3z" id="_5003"/>
    <path style="fill:#000;fill-opacity:1" d="M70 300v30l61-1v-15h2v-10h-2v-5z" id="_5007"/>
    <path style="fill:#000;fill-opacity:1" d="M70 330v29h61v-3h1v-9h-1v-18z" id="_5009"/>
    <path style="fill:#000;fill-opacity:1" d="M131 359v41h-31v2H90v-2h-2v-41z" id="_5011"/>
    <path style="fill:#000;fill-opacity:1" d="M88 359v47h2v10h-2v3H53v-30l17-30z" id="_5013"/>
    <path style="fill:#000;fill-opacity:1" d="M994 546h-75v-29h6v-3h11v3h58z" id="_5S04"/>
    <path style="fill:#000;fill-opacity:1" d="M88 419v47h2v9h-2v3l-53 1v-30l18-30z" id="_5017"/>
    <path style="fill:#000;fill-opacity:1" d="M35 479h53v5h2v9h-2v15H35z" id="_5019"/>
    <path style="fill:#000;fill-opacity:1" d="M88 508v17h2l1 10h-3v3l-53 1v-31h53z" id="_5021"/>
    <path style="fill:#000;fill-opacity:1" d="m35 539 53-1v5h2v9h-2v65H35z" id="_5023"/>
    <path style="fill:#000;fill-opacity:1" d="M510 230h46v47h-4v2h-10v-2h-16v2h-10v-2h-6z" id="_5S02"/>
    <path style="fill:#000;fill-opacity:1" d="M584 301h-51v89h2v25h11v1h38z" id="_5311"/>
    <path style="fill:#000;fill-opacity:1" d="M584 301v115h7v130h328v-29h75V300l-180 1v-36l-19-4-20-2c-7-1-39 2-58 3-19 2-16 5-24 7l-30 10c-10 3-52 7-52 7v15z" id="_5313"/>
    <path style="fill:#000;fill-opacity:1" d="m994 296-180 2v-33l24 8 75 12c24 4 13 0 13 0v12z" id="_5161"/>
</svg>
