<svg version="1.1" id="svg1" xmlns:xlink="http://www.w3.org/1999/xlink" xmlns="http://www.w3.org/2000/svg" viewBox="0 0 1056 816">
  <path d="M103 726h80l56-95v-11l44-1v10h595v-64h-9v-35h62l-2-275h-60v-35h10v-65l-594-1-1 11h-46V89h-82v259l-27 46v43l-26 46z" id="floor"/>
  <path d="m158 302 82-1-1-89-81 1z" id="_9005"/>
  <path d="m158 304 82-1v44h-82z" id="_9009"/>
  <path d="M160 210V91h75v77h4l1 42z" id="_9003"/>
  <path d="M183 348h-25l-26 46v42h51z" id="_9013"/>
  <path d="M183 438h-50l-27 45v42h76z" id="_9017"/>
  <path d="m183 527-77 1v42h77z" id="_9019"/>
  <path d="m106 573 77-1v43h-77z" id="_9021"/>
  <path d="M183 617h-77v103h77z" id="_9023"/>
  <path d="M346 158v62h-38l-1-62z" id="_9105"/>
  <path d="M185 403v-55h55v55z" id="_9011"/>
  <path d="M350 158h38v62h-38z" id="_9107"/>
  <path d="M390 158v62h74v-62z" id="_9111"/>
  <path d="M503 219v-61h-36v61z" id="_9113"/>
  <path d="M505 157v63h74l1-63z" id="_9117"/>
  <path d="M618 157v63h-36v-63z" id="_9119"/>
  <path d="M695 220h-75v-62h76z" id="_9123"/>
  <path d="M733 158v62h-36v-62z" id="_9125"/>
  <path d="M242 213h63v-40h-25v-6h-38z" id="_9103"/>
  <path d="M735 158v62h76v-62z" id="_9129"/>
  <path d="M812 254v121l-79-1V254z" id="_9128"/>
  <path d="M731 254v121h-84V254z" id="_9124"/>
  <path d="M644 254v121l-50-1-1-120z" id="_9120"/>
  <path d="m591 254 1 121-53-1V254Z" id="_9118"/>
  <path d="M537 254v121H350V254z" id="_9108"/>
  <path d="m240 406-55-1v312l51-87v-13h44v-53h-40z" id="_9015"/>
  <path d="M926 261h-80l1 40h80z" id="_9307"/>
  <path d="M847 304h80v42h-80z" id="_9309"/>
  <path d="m927 348-80 1v82h80z" id="_9313"/>
  <path d="M816 564v62h60v-62z" id="_9231"/>
  <path d="M814 564h-59v62h59z" id="_9229"/>
  <path d="m752 564 1 62-56 1v-63z" id="_9225"/>
  <path d="M695 564h-56v62l56 1z" id="_9223"/>
  <path d="M582 564h55v62h-55z" id="_9219"/>
  <path d="M580 564h-56v62h55" id="_9217"/>
  <path d="m532 410-1 121h56l226-1V410Z" id="_9220"/>
  <path d="M474 409h55v121h-55z" id="_9214"/>
  <path d="M467 564h55l1 62h-56z" id="_9213"/>
  <path d="M409 564v63h55v-64z" id="_9211"/>
  <path d="M407 564v63h-57l1-63z" id="_9207"/>
  <path d="M350 410h122v120H350Z" id="_9208"/>
  <path d="M289 315h25v9h28l-1 51h-59l1-22h6z" id="_9012"/>
  <path d="m288 277 1 36h53v-60h-57v24z" id="_9104"/>
</svg>
