<svg xmlns="http://www.w3.org/2000/svg" version="1.1" viewBox="100 -50 1901 1598.7">
<path  d="m546 203 105-29 81-18 31-5 44-7 49-8 44-5 42-3h267l39 4 41 4 34 6 31 5 45 7 47 10 59 14 98 24v299h322v1026H224V501h322z" id="floor"/>
    <path  d="M578 1117h188v139H578z" id="_4112"/>
    <path  d="M474 1117h97v139h-97z" id="_4110"/>
    <path  d="M224 1117h243v139H224Z" id="_4108"/>
    <path  d="M224 1263h171v264H224z" id="_4106"/>
    <path  d="M402 1355h179v172H402z" id="_4104"/>
    <path  d="M1589 1355h-205v172h205z" id="_4202"/>
    <path  d="M1384 501h541v609h-541Z" id="_4206"/>
    <path  d="m224 501 663 1v608H224z" id="_4114"/>
    <path  d="M588 1527v-172h178v172z" id="_4102"/>
    <path  d="M1476 1117h449v410h-328v-179h-121z" id="_4204"/>
    <!-- <path  d="M895 1045h360V697H895Z" id="_excavated_stair"/> -->
    <path  d="M856 306V137l31-4 58-5h266l37 3 52 8-1 167h-95v10H953v-10z" id="_4304"/>
    <!-- <path  d="M1303 310V139l21 3 39 7 34 5 73 16 64 14 69 18v295h-341V393h40z" id="_excavated_stair"/> -->
    <!-- <path  d="M696 307V164h4l16-4 17-4 28-5 27-4 19-3 42-7v170z" id="_excavated_ele-3"/> -->
</svg>