<svg viewBox="0 0 2205 1727" version="1.1" id="svg1" xmlns="http://www.w3.org/2000/svg">
  <path d="m580.98177 328.68823 104.2537-27.80081 79.43099-17.87203 30.77968-4.96439 42.69435-6.9503 48.65171-6.9503 42.69436-5.95734 41.7014-2.97849H1234.304l38.7226 3.97144 40.7084 4.96439 32.7656 4.96439 30.7797 4.96477 44.6799 6.94992 46.6658 9.92916 58.5804 12.90764 96.3105 23.82937v294.88832h317.7251V1630.368H264.2496V622.58397h316.73217z" id="floor"/>
  <path d="M264.2496 887.68558h212.47884v182.69212H264.2496Z" id="_3110"/>
  <path d="M264.2496 1077.328h212.47884v155.8835H264.2496Z" id="_1112"/>
  <path d="M264.2496 1240.1618h212.47884v164.8201H264.2496Z" id="_3106"/>
  <path d="M264.2496 1412.9248h373.32712v217.4432H264.2496Z" id="_3104"/>
  <path d="M644.52701 1412.9248h272.05191v217.4432H644.52701Z" id="_3102"/>
  <path d="M1287.9201 1412.9248h273.0449v217.4432h-273.0449Z" id="_3202"/>
  <path d="M1720.8203 1412.9248h-152.905v217.4432h152.905z" id="_3204"/>
  <path d="M1727.7706 1412.9248h213.4714v217.4432h-213.4714Z" id="_3206"/>
  <path d="M1727.7706 1233.2115V1077.328h213.4714v155.8835z" id="_3210"/>
  <path d="M1727.7706 1070.3777V887.68558h213.4714v182.69212z" id="_3212"/>
  <path d="M1372.3155 624.56988h211.4859v162.83381h-211.4859z" id="_3218"/>
  <path d="M1241.254 624.56988h123.1186v162.83381H1241.254Z" id="_3010"/>
  <path d="M1462.6686 877.7568h166.8056v182.6917h-166.8056z" id="_3224"/>
  <path d="M1727.7706 1404.9819v-164.8201h213.4714v164.8201z" id="_3208"/>
  <path d="M608.78295 877.7568h300.84567v182.6917H608.78295Z" id="_3122"/>
  <path d="M612.75439 787.40369V624.56988h136.02595v162.83381z" id="_3116"/>
  <path d="M755.73064 787.40369V624.56988h209.49998v162.83381z" id="_3118"/>
  <path d="M1590.7517 787.40369V624.56988h205.5282v34.75111h-11.9147v128.0827z" id="_3216"/>
  <path d="M1727.7706 880.73566v-86.38167h64.5378v-128.0827h10.9218v-41.70141h138.0118v256.16578z" id="_3214"/>
  <path d="M1455.7183 1060.4485H1294.87V898.60769h34.7515V877.7568h126.0968z" id="_3222"/>
  <path d="M605.80409 787.40369h-185.6706v-128.0827H408.2188v-34.75111h197.58529z" id="_3114"/>
  <path d="M264.2496 624.56988h137.0189v41.70141h11.91469v128.0827h63.54525v86.38167H264.2496Z" id="_3112"/>
  <path d="M846.04734 462.34775h530.23546V270.63387h-3.4543l-34.5428-3.45432-65.6318-8.63562-120.9004-8.63561h-107.0836l-98.44762 6.90864-100.17494 12.08994z" id="_3304"/>
</svg>
