<svg xmlns="http://www.w3.org/2000/svg" version="1.1" viewBox="0 0 1056 816">
    <path  d="M688.2 240h126.9v385.4H619.7V664h-5v10.6h-224V664h-5.4v-38.7H189.8V240h126.9v-89.4l32.3-9 23.4-5.6 27.3-5.3 22.6-3.4 24.8-2.6 24-2.1 19.5-1 6.8-.1 12.7.2 13.1.3 13.9.8 19.2 1.8 19.2 2.5 12.1 2 19.3 3.1 15.2 2.7L633 137l16.7 3.6 17.1 3.7 21.3 5.1z" id="floor"/>
    <path  d="M301.6 467.7h101.7v60.4H301.6z" id="_5110"/>
    <path  d="M200.7 467.7h66v48.1h-66z" id="_5108"/>
    <path  d="M200.7 518.3h66v96.3h-66z" id="_5106"/>
    <path  d="M269.1 560.2h58.3v54.4h-58.2z" id="_5104"/>
    <path  d="M330 614.6v-54.4h58.3v54.4z" id="_5102"/>
    <path  d="M327.5 240v-66.8h38.3V240z" id="_5306"/>
    <path  d="M367.9 201.1v-41.5h49.8v41.5z" id="_excavated_ele"/>
    <path  d="M455.8 162.1v-27.4l3.6-.4 5.2-.4 2-.2 3.6-.2 4.8-.4 8.4-.3 8.4-.3h21.3l8 .3h1l7.7.4 6.2.3 2.6.1 4.4.3 3.4.3 2.8.3V162z" id="_5304"/>
    <path  d="M616.7 560.2H675v54.4h-58.3z" id="_5202"/>
    <path  d="M677.5 560.2h58.3v54.4h-58.2z" id="_5204"/>
    <path  d="M672.4 467.7h63.4v60.4h-63.4z" id="_5208"/>
    <path  d="M738.3 467.7h66v60.4h-66z" id="_5208a"/>
    <path  d="M738.3 530.7h66v84h-66z" id="_5206"/>
    <path  d="M622 467.7h47.9v60.5h-48z" id="_5210"/>
    <path  d="M405.9 467.7h63.3v48.4h-26.4v12h-37z" id="_5112"/>
    <path  d="M423.3 564.2h74.2v46.6h-56.2v-2.2h-18z" id="_excavatedLAVM"/>
    <path  d="M581.7 564.2h-74.2V611h56.2v-2.3h18z" id="_excavatedLAVW"/>
    <path  d="M200.7 250.8h237v32h-.5v2.8h13.9l2.8 5.6 2.2 4.8 2.3 5.7 1.6 4 2 6.5 1.4 4.8 1.4 5 1.4 6.7 1.3 7.7 1 8.7.4 7.1v8.6l-.2 7-.8 8.8-.9 5.9-1 6.1-1.5 6.6-1.6 6.3-2.2 6.7-1.6 4.2-1.4 3.8-2.4 5.5-2.2 4.8-2 4h-13.9v2.7h.5v32h-237z" id="_5114"/>
    <path  d="M804.3 250.8H567.2v32h.5v2.8h-13.9l-2.8 5.6-2.2 4.8-2.3 5.7-1.5 4-2.2 6.5-1.3 4.8-1.4 5-1.4 6.7-1.3 7.7-1 8.7-.4 7.1v8.6l.2 7 .8 8.8.9 5.9 1 6.1 1.5 6.6 1.6 6.3 2.2 6.7 1.6 4.2 1.4 3.8 2.4 5.5 2.2 4.8 2 4h13.9v2.7h-.5v32h237z" id="_5216"/>
    <path  d="M577.4 240v-36.9h11v-63l8.1 1.2 9.4 1.7 11.2 2 12 2.3 10.4 2 16 3.5 10.6 2.3 11.4 2.9-.2 82z" id="_excavated_stair2"/>
    <path  d="M552.3 200.6v-35.4h5v-29.7l2 .3 3.5.4 7.1 1 10.4 1.6V200h-6v.6h-2z" id="_5308"/>
    <path  d="M526.4 655.6H393.8v-37h35.6v10h-4.5v3h101.5z" id="_excavated_stair1"/>
</svg>