<svg version="1.1" viewBox="100 -50 2200 1850.2" id="svg1" xmlns="http://www.w3.org/2000/svg">
  <path d="m676 283 105-29 81-18 31-5 44-7 49-8 44-5 42-3h267l39 4 41 4 34 6 31 5 45 7 47 10 59 14 98 24v299h322v1026H354V581h322z" id="floor"/>
  <path d="M708 1197h188v139H708Z" id="_4112"/>
  <path d="M604 1197h97v139h-97z" id="_4110"/>
  <path d="M354 1197h243v139H354Z" id="_4108"/>
  <path d="M354 1343h171v264H354Z" id="_4106"/>
  <path d="M532 1435h179v172H532Z" id="_4104"/>
  <path d="M1719 1435h-205v172h205z" id="_4202"/>
  <path d="M1514 581h541v609h-541z" id="_4206"/>
  <path d="m354 581 663 1v608H354Z" id="_4114"/>
  <path d="M718 1607v-172h178v172z" id="_4102"/>
  <path d="M1606 1197h449v410h-328v-179h-121z" id="path1"/>
  <path d="M940 414h534V221h-4l-34-3-67-9-121-9h-108l-99 7-101 12z" id="_4304"/>
</svg>
