<svg xmlns="http://www.w3.org/2000/svg" version="1.1" viewBox="0 0 1056 816">
    <path  d="M214.1 250.4h127V160l40.5-9.1 29.4-6 33.8-6.5 8-1.3 28-3.4 26.2-1.4h39.2l26.7 1.5 27 3.1 40 7.3 38.6 8 32.4 7.5v90.8h127v384H643.2v40.9H408.8v-41H214z" id="floor"/>
    <path  d="M349.7 478.8h66.7v49.5h-66.7z" id="_4112"/>
    <path  d="M313 478.8h34.2v49.5H313z" id="_4110"/>
    <path  d="M224.3 478.8h86.1v49.5h-86.1z" id="_4108"/>
    <path  d="M224.3 530.8h60.6v93.5h-60.6z" id="_4106"/>
    <path  d="M287.5 563.3h63.2v61h-63.2z" id="_4104"/>
    <path  d="M708.7 563.3h-73l.1 61h72.9z" id="_4202"/>
    <path  d="M635.8 260.5h192v215.9h-192Z" id="_4206"/>
    <path  d="M224.3 260.5h235.3v215.9H224.3z" id="_4114"/>
    <path  d="M353.2 624.3v-61h63.2v61z" id="_4102"/>
    <path  d="M351.2 210.3v-27.5h38.2v27.5z" id="_4306"/>
    <path  d="M391.5 210.8v-41.5h49.8v41.5z" id="_excavated_ele"/>
    <path  d="M448.3 206.4v-58.7l6-.9 8.6-1 3.5-.3 5.8-.5 8-.7 14.1-.7 14-.8h35.5l13.3.8h1.5l13 .7 10.3.7 4.3.3 7.4.7 5.6.5 4.7.6v59.3z" id="_4304"/>
    <path  d="M600 250.4v-37.6h12v-63.6l3.7.6 3.1.6 1.3.2 1.7.3 1.1.2.5.1 1.4.3.8.1.5.1 1.5.3 1.3.2.9.2 1.1.2h.3l1.2.3 1 .2 1.3.2 2.4.5 2.7.5 3.4.7 3 .5 1.6.4 3.6.7 2.3.5 3.6.7 4.7 1 4.4 1 1.6.3 3 .6 3.5.8 1.6.3 3.1.7 3.5.8 2.8.7 3 .6 2.8.6 3 .7 2.6.7 3.1.7 1 .3v82.8z" id="_excavated_stair2"/>
    <path  d="M668.5 479H828v145.3H711.2v-63.5h-42.7z" id="_4204"/>
    <path  d="M511 665.2v-23.9h96.3v-8h26v32z" id="_excavated_stair3"/>
    <path  d="M466.1 584.4H502v80.8h-83v-31.9H466z" id="_excavatedLAVM"/>
    <path  d="M600.8 592.3h-18.5v41H511v-49h53.7v-21h36z" id="_excavatedLAVW"/>
    <path  d="M588.4 594.8h12.4v40.4h-12.4z" id="_4006"/>
    <path  d="M462.1 453.4H590V329.7H462Z" id="_excavated_stair"/>
</svg>