<svg version="1.1" id="svg1" xmlns="http://www.w3.org/2000/svg" viewBox="0 0 2204.9 1726.7">
  <path d="m552 320 106-27 81-17 31-5 44-7 49-7 44-5 42-3h268l39 4 41 4 34 5 31 5 45 7 48 9 59 13 98 23v284h323v972H230V603h322z" id="floor"/>
  <path d="M230 603h136v39l28 1v185H230Z" id="_2118"/>
  <path d="M230 835h249v156H230Z" id="_2116"/>
  <path d="M230 998h249v152H230Z" id="_2114"/>
  <path d="M230 1157h249v152H230Z" id="_2112"/>
  <path d="M230 1316h249v81h-85v178H230Z" id="_2110"/>
  <path d="M401 1404h215v171H401Z" id="_2106"/>
  <path d="M1565 1404h199v171h-199z" id="_2204"/>
  <path d="M1686 1397h85v178h164v-259h-249z" id="_2206"/>
  <path d="M1686 1309v-152h249v152z" id="_2208"/>
  <path d="M1686 1150V998h249v152z" id="_2210"/>
  <path d="M1771 828V642h27v-39h137v225z" id="_2214"/>
  <path d="M1600 603h191v33h-27v192h-164z" id="_2216"/>
  <path d="M1420 603h172v225h-172z" id="_2218"/>
  <path d="M1223 603h190v225h-190z" id="_2220"/>
  <path d="M1318 949h268v179h-268z" id="_2224"/>
  <path d="M1318 1325v-190h268v190z" id="_2226"/>
  <path d="M579 1097h268v228H579Z" id="_2129"/>
  <path d="M579 949h268v141H579Z" id="_2128"/>
  <path d="M401 828V636h-27v-33h191v225z" id="_2120"/>
  <path d="M572 828V603h173v225z" id="_2122"/>
  <path d="M752 828V603h190v225z" id="_2124"/>
  <path d="M624 1575v-171h189v11h34v160z" id="_2104"/>
  <path d="M1360 1575v-171h198v171z" id="_2202"/>
  <path d="M1935 991h-249V835h249z" id="_2212"/>
  <path d="M1079 1325v-140H900v24h-46v116z" id="_2008"/>
  <path d="M1086 1325v-140h179v24h46v116z" id="_2004"/>
  <path d="M817 454h534V261h-3l-35-4-66-8-122-9h-107l-100 7-101 12z" id="_2304"/>
</svg>
