<svg xmlns="http://www.w3.org/2000/svg" version="1.1" viewBox="0 -100 2204.9 1726.7">
    <path  d="m553 168 105-28 80-18 31-5 43-7 49-7 43-6 42-3h265l39 4 41 5 33 5 31 5 45 7 47 10 59 13 97 24v297h320v1015H234V464h319z" id="floor"/>
    <path  d="M234 731h214v184H234z" id="_3110"/>
    <path  d="M234 922h214v157H234z" id="_1112"/>
    <path  d="M234 1086h214v166H234Z" id="_3106"/>
    <path  d="M234 1260h376v219H234z" id="_3104"/>
    <path  d="M617 1260h274v219H617z" id="_3102"/>
    <path  d="M1265 1260h275v219h-275z" id="_3202"/>
    <path  d="M1701 1260h-154v219h154z" id="_3204"/>
    <path  d="M1708 1260h215v219h-215z" id="_3206"/>
    <path  d="M1708 1079V922h215v157z" id="_3210"/>
    <path  d="M1708 915V731h215v184z" id="_3212"/>
    <path  d="M1350 466h213v164h-213z" id="_3218"/>
    <path  d="M1218 466h124v164h-124z" id="_3010"/>
    <path  d="M1441 721h168v184h-168z" id="_3224"/>
    <path  d="M1708 1252v-166h215v166z" id="_3208"/>
    <!-- <path  d="M1025 1064v2l-1 2v8l1 2v1l1 1 1 2 1 1 1 1 1 1 1 1h1l2 1v1h3l2 1h81l1-1 2-1 1-1 2-1 1-1 2-1 1-1 1-2 1-2v-2l1-2v-5l-1-1v-2l-1-2h13V829h-131v235z" id="_excavated_stair"/> -->
    <path  d="M581 721h303v184H581z" id="_3122"/>
    <path  d="M585 630V466h137v164z" id="_3116"/>
    <path  d="M729 630V466h211v164z" id="_3118"/>
    <path  d="M1570 630V466h207v35h-12v129z" id="_3216"/>
    <path  d="M1708 724v-87h65V508h11v-42h139v258z" id="_3214"/>
    <path  d="M1434 905h-162V742h35v-21h127z" id="_3222"/>
    <path  d="M578 630H391V501h-12v-35h199z" id="_3114"/>
    <path  d="M234 466h138v42h12v129h64v87H234Z" id="_3112"/>
    <path  d="M861 271V104l31-5 57-5h264l37 3 52 8-1 166h-94v9H957v-9z" id="_3304"/>
    <!-- <path  d="M1305 276V105l20 3 39 7 34 5 73 16 63 15 69 17v295h-339V359h40z" id="_excavated_stair"/> -->
    <!-- <path  d="M702 272V130h4l16-4 17-4 28-5 27-4 18-3 42-6v168z" id="_excavated_ele"/> -->
</svg>