<svg xmlns="http://www.w3.org/2000/svg" version="1.1" viewBox="100 0 1899.6 1469.4">
    <path d="m516 224 77-26 121-32 99-19 106-13 87-5h96l108 7 89 11 86 15 87 23 53 17 61 21-2 250h316v1025H201V473l315 1z" id="floor"/>
    <path d="M485 1084h286v170H485z" id="_5110"/>
    <path d="M201 1084h185v135H201Z" id="_5108"/>
    <path d="M201 1227h185v271H201z" id="_5106"/>
    <path d="M394 1344h164v154H394z" id="_5104"/>
    <path d="M565 1498v-154h164v154z" id="_5102"/>
    <path d="M1372 1344h164v154h-164z" id="_5202"/>
    <path d="M1543 1344h164v154h-164z" id="_5204"/>
    <path d="M1529 1084h178v170h-178z" id="_5208"/>
    <path d="M1715 1084h185v170h-185z" id="_5208a"/>
    <path d="M1715 1262h185v236h-185z" id="_5206"/>
    <path d="M1387 1084h135v170h-135z" id="_5210"/>
    <!-- <path d="M828 1356h208v131H878v-6h-50z" id="_excavatedLAVM"/> -->
    <!-- <path d="M1273 1356h-208v131h158v-6h50z" id="_excavatedLAVW"/> -->
    <path d="M201 473h667v90h-1v8h39l8 16 6 14 6 16 5 11 6 18 4 14 3 14 4 19 4 21 3 25 1 20v24l-1 20-2 24-2 17-3 17-5 19-4 17-6 19-5 12-4 11-6 15-7 14-5 11h-39v8h1v90H201z" id="_5114"/>
    <path d="M1900 473h-667v90h1v8h-39l-8 16-6 14-7 16-4 11-6 18-4 14-3 14-5 19-3 21-3 25-1 20v44l3 24 2 17 3 17 4 19 5 17 6 19 4 12 4 11 7 15 6 14 6 11h39v8h-1v90h667z" id="_5216"/>
    <path d="M778 1084h179v136h-75v34H778z" id="_5112"/>
    <!-- <path d="M667 320h147V147h-2l-12 2-86 17-46 12z" id="_excavated_ele"/> -->
    <path d="M897 241h316V139h-2l-20-2-40-4-72-5h-64l-58 3-60 7z" id="_5304"/>
    <!-- <path d="M1297 345v120h287l2-240-62-22-52-17-87-23-59-11v193z" id="_excavated_stair"/> -->
</svg>