<svg xmlns="http://www.w3.org/2000/svg" version="1.1" viewBox="0 0 1056 816">
    <path  d="M221.9 214.1h127v-90.5l40.5-9.1 29.4-6 33.7-6.5 8-1.3 28.1-3.4 26.2-1.4h39.1l26.7 1.5 27 3.1 40 7.2 38.6 8 32.5 7.6v90.8h127v384H651V639H416.5v-41H222z" id="floor"/>
    <path  d="M234 320.4h76v65.4h-76z" id="_3110"/>
    <path  d="M234 388.3h76v55.5h-76z" id="_1112"/>
    <path  d="M234 446.3h76v59.2h-76z" id="_3106"/>
    <path  d="M234 508.1h133.3V586H234z" id="_3104"/>
    <path  d="M369.9 508.1h97.4V586h-97.4z" id="_3102"/>
    <path  d="M600.3 508.1h97.4V586h-97.4z" id="_3202"/>
    <path  d="M755 508.1h-54.7V586h54.6z" id="_3204"/>
    <path  d="M757.5 508.1h76.2V586h-76.2z" id="_3206"/>
    <path  d="M757.5 443.8v-55.5h76.1v55.5z" id="_3210"/>
    <path  d="M757.5 385.8v-65.4h76.1v65.4z" id="_3212"/>
    <path  d="M630.3 226.2h75.5v58.4h-75.5z" id="_3218"/>
    <path  d="M583.3 226.2h44.2v58.4h-44.2z" id="_3010"/>
    <path  d="M662.6 316.7h59.9V382h-60z" id="_3224"/>
    <path  d="M757.5 505.5v-59.1h76.1v59z" id="_3208"/>
    <path  d="m515 438.7-.2.7-.2.6-.1.5v.3l-.1.4v.6l.1.6.1.6.2.4.2.5.3.6.2.4.2.3.3.2.3.4.3.3.2.1.2.2.3.2.6.3.2.2 1 .2.9.2h27.9l.3-.1h.3l.5-.2.7-.3.5-.3.5-.3.6-.5.4-.4.3-.5.4-.6.3-.6.2-.6.2-.7v-1.9l-.1-.6-.2-.7-.2-.5h4.5v-83.5h-46.6v83.5z" id="_excavated_stair"/>
    <path  d="M448.4 592H492v35h-43.7z" id="_3006"/>
    <path  d="M357.1 316.7h107.7V382H357z" id="_3122"/>
    <path  d="M358.6 284.6v-58.4h48.6v58.4z" id="_3116"/>
    <path  d="M409.8 284.6v-58.4h74.7v58.4z" id="_3118"/>
    <path  d="M359 174v-27.5h38.2V174z" id="_3306"/>
    <path  d="M399.2 174.4V133h49.9v41.4z" id="_excavated_ele"/>
    <path  d="M456 170v-58.6l6.1-.9 8.6-1 3.4-.3 5.9-.5 8-.7 14-.7 14-.8h35.5l13.3.8h1.6l13 .7 10.3.7 4.2.3 7.5.6 5.6.6 4.6.6V170z" id="_3304"/>
    <path  d="M708.4 284.6v-58.4H782v12.4h-4.2v46z" id="_3216"/>
    <path  d="M757.5 317.9v-30.7h22.9v-46h4.2v-15h49v91.7z" id="_3214"/>
    <path  d="M660 382h-57.2v-57.8h12.1v-7.5H660z" id="_3222"/>
    <path  d="M356 284.6h-66.2v-46h-4.2v-12.4H356z" id="_3114"/>
    <path  d="M234 226.2h49v15h4.2v46H310v30.7h-76Z" id="_3112"/>
    <path  d="M575.6 592h19.9v9.5h43.4V627h-63.3z" id="_3004"/>
    <path  d="M607.8 214.1v-37.6h12V113l3.7.6 3.1.5 1.3.3 1.7.3 1.1.2h.5l1.4.3.8.2.5.1 1.5.3 1.3.2.9.2 1.1.2h.3l1.2.3 1 .2 1.3.2 2.4.5 2.7.5 3.4.6 3 .6 1.6.4 3.6.7 2.3.4 3.5.8 4.8 1 4.4 1 1.6.2 3 .7 3.5.8 1.5.3 3.2.7 3.5.8 2.8.6 3 .7 2.8.6 2.9.7 2.7.7 3 .7 1 .2v83z" id="_excavated_stair"/>
</svg>