<svg version="1.1" viewBox="0 -100 2200.8 2040.6" id="svg1" xmlns="http://www.w3.org/2000/svg">
  <path d="m538.44481 386.54095 77.51967-24.94886 121.18013-32.07708 98.9044-18.71165 105.14159-14.25648 88.2119-4.45516h96.2314l108.7056 8.01928 89.9941 10.69236 84.6479 15.14751 87.321 23.16681 54.353 16.03855 60.5901 21.38472-1.7822 249.48854h316.316V1656.2594H222.12899V636.02949h316.31582z" id="floor"/>
  <path d="M222.12899 636.02949h136.32768v40.09637h26.73091v196.02672H222.12899Z" id="_1116"/>
  <path d="M222.12899 879.28082h247.70647v163.05858H222.12899Z" id="_1114"/>
  <path d="M222.12899 1050.3587h247.70647v159.4945H222.12899Z" id="_1112"/>
  <path d="M222.12899 1216.0903h247.70647v159.4944H222.12899Z" id="_1110"/>
  <path d="M222.12899 1383.6041h247.70647v84.6479h-84.64788v188.0074H222.12899Z" id="_1108"/>
  <path d="M392.31582 1476.2712h212.95629v179.9882H392.31582Z" id="_1106"/>
  <path d="M612.40034 1476.2712h64.15421v35.6413h71.28244v144.3469H612.40034Z" id="_1104"/>
  <path d="M758.52936 1476.2712h207.61008v179.9882H758.52936Z" id="_1102"/>
  <path d="M971.48564 1476.2712H1099.794v102.4685h-12.4744v77.5197H971.48564Z" id="_1004"/>
  <path d="M1181.7688 1476.2712h207.6101v179.9882h-207.6101z" id="_1202"/>
  <path d="M1534.6169 1476.2712h-134.5455v179.9882h134.5455z" id="_1204"/>
  <path d="M1542.6362 1476.2712h212.0652v179.9882h-212.0652z" id="_1206"/>
  <path d="M1677.1818 1468.252h85.5389v188.0074h163.0587v-272.6553h-248.5976z" id="_1208"/>
  <path d="M1677.1818 1375.5847v-159.4944h248.5976v159.4944z" id="_1210"/>
  <path d="M1677.1818 1209.8532v-159.4945h248.5976v159.4945z" id="_1212"/>
  <path d="M1762.7207 872.15258V676.12586h26.731v-40.09637h136.3277v236.12309z" id="_1216"/>
  <path d="M1590.7517 636.02949h192.4627v33.85915h-28.513v202.26394h-163.9497z" id="_1218"/>
  <path d="M1410.7637 636.02949h173.7509v236.12309h-173.7509z" id="_1220"/>
  <path d="M1213.8459 636.02949h190.6805v236.12309h-190.6805z" id="_1222"/>
  <path d="M1263.7436 996.89683h314.5338v232.55897h-314.5338z" id="_1226"/>
  <path d="M1355.5197 1392.5145v-156.8216h222.7577v156.8216z" id="_1228"/>
  <path d="M569.63089 1235.6929h226.32173v156.8216H569.63089Z" id="_1128"/>
  <path id="_1126" d="M569.63089 996.89683h314.53376v232.55897H569.63089Z"/>
  <path d="M392.31582 872.15258V669.88864h-27.62195v-33.85915h192.46258v236.12309z" id="_1118"/>
  <path d="M564.28471 872.15258V636.02949h172.8599v236.12309z" id="_1120"/>
  <path d="M744.27286 872.15258V636.02949h188.89846v236.12309z" id="_1122"/>
  <path d="M851.19652 482.77224h475.81028V310.80336h-2.6732l-31.186-3.56413-58.8081-7.12823-108.7056-8.01928h-96.2314l-88.2119 6.23721-89.99408 10.69237z" id="_1304"/>
</svg>
