<svg xmlns="http://www.w3.org/2000/svg" version="1.1" viewBox="0 0 2204.9 1726.7">
    <path  d="m552 272 106-27 81-17 31-5 44-7 49-7 44-5 42-3h268l39 4 41 4 34 5 31 5 45 7 48 9 59 13 98 23v284h323v972H230V555h322z" id="floor"/>
    <path  d="M230 555h136v39l28 1v185H230z" id="_2118"/>
    <path  d="M230 787h249v156H230z" id="_2116"/>
    <path  d="M230 950h249v152H230z" id="_2114"/>
    <path  d="M230 1109h249v152H230z" id="_2112"/>
    <path  d="M230 1268h249v81h-85v178H230z" id="_2110"/>
    <path  d="M401 1356h215v171H401z" id="_2106"/>
    <path  d="M1565 1356h199v171h-199Z" id="_2204"/>
    <path  d="M1686 1349h85v178h164v-259h-249z" id="_2206"/>
    <path  d="M1686 1261v-152h249v152z" id="_2208"/>
    <path  d="M1686 1102V950h249v152z" id="_2210"/>
    <path  d="M1771 780V594h27v-39h137v225z" id="_2214"/>
    <path  d="M1600 555h191v33h-27v192h-164Z" id="_2216"/>
    <path  d="M1420 555h172v225h-172z" id="_2218"/>
    <path  d="M1223 555h190v225h-190z" id="_2220"/>
    <path  d="M1318 901h268v179h-268z" id="_2224"/>
    <path  d="M1318 1277v-190h268v190z" id="_2226"/>
    <path  d="M579 1049h268v228H579z" id="_2129"/>
    <path  d="M579 901h268v141H579z" id="_2128"/>
    <path  d="M401 780V588h-27v-33h191v225z" id="_2120"/>
    <path  d="M572 780V555h173v225z" id="_2122"/>
    <path  d="M752 780V555h190v225z" id="_2124"/>
    <path  d="M624 1527v-171h189v11h34v160z" id="_2104"/>
    <path  d="M1360 1527v-171h198v171z" id="_2202"/>
    <path  d="M1935 943h-249V787h249z" id="_2212"/>
    <path  d="M1079 1277v-140H900v24h-46v116z" id="_2008"/>
    <path  d="M1086 1277v-140h179v24h46v116z" id="_2004"/>
    <!-- <path  d="M1016 1130V908h2v-9h128v9h3v222z" id="_excavated_stair"/> -->
    <path  d="M863 370V210l31-4 58-5h267l37 3 52 7-1 159h-95v9H960v-9z" id="_2304"/>
    <!--  <path  d="M1311 375V211l21 3 39 7 34 5 74 15 64 14 69 17v282h-342v-99h40z" id="_excavated_stair"/> -->
    <!-- <path  d="M703 371V235h4l16-4 17-3 28-5 27-4 19-3 42-6v161z" id="_excavated_ele"/> -->
</svg>