<svg version="1.1" viewBox="100 -50 2200.6 1818.1" id="svg1" xmlns="http://www.w3.org/2000/svg">
  <path d="m657 300 80-27 126-33 102-20 110-14 90-5h100l112 7 92 12 89 15 90 24 55 18 63 22-2 259h328v1062H331V558l326 1z" id="floor"/>
  <path d="M625 1191h297v176H625Z" id="_5110"/>
  <path d="M331 1191h192v140H331Z" id="_5108"/>
  <path d="M331 1339h192v281H331Z" id="_5106"/>
  <path d="M531 1460h170v160H531Z" id="_5104"/>
  <path d="M708 1620v-160h170v160Z" id="_5102"/>
  <path d="M1545 1460h170v160h-170z" id="_5202"/>
  <path d="M1722 1460h170v160h-170z" id="_5204"/>
  <path d="M1707 1191h185v176h-185z" id="_5208"/>
  <path d="M1900 1191h192v176h-192Z" id="_5208a"/>
  <path d="M1900 1375h192v245h-192Z" id="_5206"/>
  <path d="M1560 1191h140v176h-140z" id="_5210"/>
  <path d="M929 1191h185v141h-77v35H929Z" id="_5112"/>
  <path d="M331 558h691v93h-1v8h41l8 17 6 14 6 17 6 11 6 19 4 15 3 14 4 20 4 21 3 26 1 21v25l-1 21-2 25-2 17-3 18-5 20-4 17-6 20-6 12-4 12-6 15-7 15-5 11h-41v8h1v94H331Z" id="_5114"/>
  <path d="M2092 558h-691v93h1v8h-41l-8 17-6 14-8 17-4 11-6 19-4 15-3 14-5 20-4 21-3 26-1 21v46l3 25 3 17 3 18 4 20 5 17 6 20 4 12 4 12 8 15 6 15 6 11h41v8h-1v94h691z" id="_5216"/>
  
  <path d="M1052 317h328V212h-2l-21-2-41-5-75-5h-66l-61 3-62 8z" id="_5304"/>
</svg>
