<svg xmlns="http://www.w3.org/2000/svg" version="1.1" viewBox="0 0 3300 2550">
  <path id="floor" d="M114 859h3070v938H114z"/>
  <path id="_101D" d="M114 859h424v545H114z"/>
  <path id="_101" d="M538 859h805v416H538z"/>
  <path id="_102A" d="M453 1587H280v22H114v-204h300v116h39v66Z"/>
  <path id="_102B" d="M538 1609h293v188H538z"/>
  <path id="_102C" d="M538 1797H114v-188h166v-22h173v22h85v188Z"/>
  <path id="_103" d="M831 1502h166v295H831z"/>
  <path id="_104" d="M997 1502h166v295H997z"/>
  <path id="_105" d="M1162 1502h190v295h-190z"/>
  <path id="_106" d="M1352 1502h188v295h-188z"/>
  <path id="_101B" d="M1427 1245h113v84h-113z"/>
  <path id="_101C" d="M1427 1328h113v77h-113z"/>
  <path id="_101A" d="M1343 859h197v251h-197z"/>
  <path id="_133" d="M2138 1540h179v257h-179z"/>
  <path id="_132" d="M2318 1540h179v257h-179z"/>
  <path id="_131" d="M2497 1540h179v257h-179z"/>
  <path id="_130" d="M2677 1540h179v257h-179z"/>
  <path id="_100D" d="M2856 1624h327v172h-327z"/>
  <path id="_129" d="M2907 1401h276v224h-276z"/>
  <path id="_1291" d="M2939 859h244v214h-244z"/>
  <path id="_136" d="M1752 859h204v277h-204z"/>
  <path id="_121" d="M1956 859h173v277h-173z"/>
  <path id="_122" d="M2129 859h175v277h-175z"/>
  <path id="_123" d="M2303 859h175v277h-175z"/>
  <path id="_124" d="M2478 859h175v277h-175z"/>
  <path id="_125" d="M2653 859h196v277h-196z"/>
  <path id="_137" d="M2849 859h90v158h-90z"/>
  <path id="_134" d="M1752 1601h319v-62h67v258h-386v-196Z"/>
  <path id="_135" d="M1752 1421h319v180h-319z"/>
  <path id="_137A" d="M1752 1275h319v146h-319z"/>
  <path id="_127" d="M2907 1120h53v-46h223v187h-276v-141Z"/>
  <path id="_126A" d="M2907 1074h52v46h-52z"/>
  <path id="_129A" d="M2856 1540h51v85h-51z"/>
</svg>