<svg version="1.1" id="svg1" xmlns="http://www.w3.org/2000/svg" viewBox="0 0 1999 1545">
    <path d="M165 505h1667v535H168V505Z" id="floor"/>
    <path d="M182 521h215v209H184V521Z" id="_303"/>
    <path d="M399 522v206h347V521H399Z" id="_302"/>
    <path d="M746 521v207h132v-75h58V522H746Z" id="_301"/>
    <path d="M1059 520v208h178V524h-178Z" id="_317"/>
    <path d="M1320 726V522h-81v207h81z" id="_316"/>
    <path d="M1325 521v209h94V521Z" id="_316A"/>
    <path d="M1420 521h398v212h-393V521Z" id="_315"/>
    <path d="M182 733h144v76H184v-76z" id="_303A"/>
    <path d="M181 812h218v208H183V812Z" id="_304"/>
    <path d="M542 811H402v210h142V811Z" id="_305"/>
    <path d="M549 1018V811h131v210H549Z" id="_306"/>
    <path d="M680 812h149v210H685V812Z" id="_307"/>
    <path d="M880 811h-47v212h48V811Z" id="_308"/>
    <path d="M882 811h178v211H886V811Z" id="_309"/>
    <path d="M1061 811h156v209h-152V811Z" id="_310"/>
    <path d="M1223 811h254v211h-255V811Z" id="_311"/>
    <path d="M1479 811v110h76V810h-76z" id="_312"/>
    <path d="M1475 924h132v96h-125v-96z" id="_313A"/>
    <path d="M1559 810v110h53v103h204V812h-257z" id="_313"/>
</svg>
