<svg xmlns="http://www.w3.org/2000/svg" version="1.1" viewBox="0 0 3300 2550">
    <path id="floor" d="M114 859h3070v938H114z"/>
    <path id="_303" d="M114 859h409v394H114z"/>
    <path id="_302" d="M523 859h655v394H523z"/>
    <path id="_305" d="M523 1396h278v401H523z"/>
    <path id="_306" d="M801 1396h249v401H801z"/>
    <path id="_303A" d="M114 1254h279v142H114z"/>
    <path id="_304" d="M319 1797v-199H114v-202h409v401H319Z"/>
    <path id="_304A" d="M114 1598h205v199H114z"/>
    <path id="_307A" d="M1050 1396h108v77h-108z"/>
    <path id="_307" d="M1158 1396h172v401h-280v-325h108v-76Z"/>
    <path id="_308" d="M1330 1396h92v401h-92z"/>
    <path id="_309" d="M1421 1396h348v401h-348z"/>
    <path id="_310" d="M1961 1396v76h108v325h-300v-401h192Z"/>
    <path id="_310A" d="M1961 1396h108v77h-108z"/>
    <path id="_301" d="M1537 859v253h-108v141h-251V859h359Z"/>
    <path id="_313A" d="M2557 1609h237v188h-237z"/>
    <path id="_313" d="M2696 1609v-213h487v401h-390v-188h-97Z"/>
    <path id="_312" d="M2557 1396h139v214h-139z"/>
    <path id="_317" d="M1752 859h344v394h-344z"/>
    <path id="_316A" d="M2258 859h183v394h-183z"/>
    <path id="_311" d="M2069 1396h488v401h-488z"/>
    <path id="_316" d="M2096 859h162v394h-162z"/>
    <path id="_315" d="M2440 859h743v394h-743z"/>
</svg>