<svg version="1.1" id="svg1" xmlns="http://www.w3.org/2000/svg" viewBox="0 0 1999 1545">
  <path d="M164 498h1669v532h-670v14H838v-15H167V498Z" id="floor"/>
  <path d="M179 512v292h699V650h59V514H179Z" id="_412"/>
  <path d="M179 809h681v64h21v158h-6v-15H181V809Z" id="_401"/>
  <path d="M1059 516v206h175V514h-175z" id="_411"/>
  <path d="M936 805v52h40v174h150v-14h37V806H936Z" id="_402"/>
  <path d="M1356 808v208h-190V807h190z" id="_403"/>
  <path d="M1361 1014V808h140v208h-140z" id="_404"/>
  <path d="M1610 1017V859h-37v-52h-67v209h104z" id="_405"/>
  <path d="M1612 1016h207V804h-195v56h-8v156z" id="_406"/>
  <path d="M1629 513v209h190V514h-190z" id="_408"/>
  <path d="M1322 511v118h75v57h89v40h93v-52h46V513h-303z" id="_409"/>
  <path d="M1238 515v207h83V513h-83z" id="_410"/>
</svg>
