<svg xmlns="http://www.w3.org/2000/svg" version="1.1" viewBox="0 0 3300 2550">
    <path id="floor" d="M541 1511h642v-11h513v11h639v-323h158V980h-113V466h724v514h-381v208h8v823h-396v-11h-639v11h-513v-11H541v11H148v-813h393v313Z"/>
    <path id="_5101" d="M148 1198h393v453H148z"/>
    <path id="_5202" d="M541 1803h127v197H541z"/>
    <path id="_5114" d="M148 1873h140v138H148z"/>
    <path id="_5112" d="M148 1755h140v118H148z"/>
    <path id="_5116" d="M288 1755h130v256H288z"/>
    <path id="_5118" d="M418 1803h123v208H418z"/>
    <path id="_5204" d="M668 1803h125v197H668z"/>
    <path id="_5206" d="M793 1846h161v154H793z"/>
    <path id="_5208" d="M954 1803h104v197H954z"/>
    <path id="_5201" d="M541 1511h101v197H541z"/>
    <path id="_5205" d="M812 1511h148v156H812z"/>
    <path id="_5205B" d="M905 1667h55v40h-55z"/>
    <path id="_5203" d="M643 1511h169v197H643z"/>
    <path id="_5207" d="M959 1511h107v197H959z"/>
    <path id="_5402" d="M1696 1803h242v197h-242z"/>
    <path id="_5403" d="M1819 1511h119v154h-119z"/>
    <path id="_5403B" d="M1819 1665h30v43h-30z"/>
    <path id="_5405" d="M1937 1511h111v197h-111z"/>
    <path id="_5407" d="M2049 1511h140v197h-140z"/>
    <path id="_5409" d="M2188 1511h147v146h-147z"/>
    <path id="_5409A" d="M2188 1657h73v51h-73z"/>
    <path id="_5406B" d="M1938 1803h67v61h-67z"/>
    <path id="_5602" d="M2580 1128h42V980h101v208h-143v-60Z"/>
    <path id="_5518" d="M2580 1188h151v129h-151z"/>
    <path id="_5510A" d="M2429 1265h66v52h-66z"/>
    <path id="_5704" d="M2761 798h101v183h-101z"/>
    <path id="_5706" d="M2862 798h101v183h-101z"/>
    <path id="_5708" d="M2963 823h142v157h-142z"/>
    <path id="_5710" d="M2963 723h142v100h-142z"/>
    <path id="_5703" d="M2544 782v-59h-164v159h89V782h75Z"/>
    <path id="_5703A" d="M2469 782h75v47h-75z"/>
    <path id="_5705" d="M2380 603h163v120h-163z"/>
    <path id="_5707" d="M2380 466h136v137h-136z"/>
    <path id="_5709" d="M2517 466h78v137h-78z"/>
    <path id="_5711" d="M2594 466h295v257h-295z"/>
    <path id="_5717" d="M2890 466h215v257h-215z"/>
    <path id="_5703B" d="M2469 829h75v53h-75z"/>
    <path id="_5702A" d="M2645 823h116v79h-116z"/>
    <path id="_5702B" d="M2645 901h116v79h-116z"/>
    <path id="_5502A" d="M2335 1803h65v98h-65z"/>
    <path id="_5506" d="M2572 1864h159v147h-159z"/>
    <path id="_5508" d="M2451 1748h280v116h-280z"/>
    <path id="_5502" d="M2572 1864v147h-237v-110h65v-98h51v61h121Z"/>
    <path id="_5510" d="M2580 1317h151v431h-280v-50h-22v-381h65v-25h86v25Z"/>
    <path id="_5406" d="M1938 1864h143v136h-143z"/>
    <path id="_4408" d="M2081 1803h108v197h-108z"/>
    <path id="_5410B" d="M2288 1803h47v61h-47z"/>
    <path id="_5410" d="M2335 1864v136h-147v-197h64v61h83Z"/>
    <path id="_5210" d="M1058 1803h126v197h-126z"/>
    <path id="_5302" d="M1183 1873h158v138h-158z"/>
    <path id="_5302B" d="M1183 1803h118v69h-118z"/>
    <path id="_5304" d="M1341 1803h135v208h-135z"/>
    <path id="_5306" d="M1476 1803h220v208h-220z"/>
</svg>