<svg xmlns="http://www.w3.org/2000/svg" version="1.1" viewBox="0 0 3300 2550">
    <path id="floor" d="M541 1511h642v-11h513v11h639v-323h158V980h-113V466h724v514h-381v208h8v823h-396v-11h-639v11h-513v-11H541v11H148v-813h393v313Z"/>
    <path id="_4101" d="M148 1198h393v453H148z"/>
    <path id="_4112" d="M397 1803h144v208H148v-256h249v48Z"/>
    <path id="_4202" d="M541 1803h127v197H541z"/>
    <path id="_4204" d="M668 1846h125v154H668z"/>
    <path id="_4206" d="M793 1803h140v197H793z"/>
    <path id="_4208" d="M933 1846h125v154H933z"/>
    <path id="_4201" d="M541 1511h101v197H541z"/>
    <path id="_4203" d="M643 1511h290v197H643z"/>
    <path id="_4207" d="M932 1511h134v197H932z"/>
    <path id="_4301" d="M1183 1500h165v208h-165z"/>
    <path id="_4305" d="M1531 1500h165v208h-165z"/>
    <path id="_4303" d="M1348 1500h183v208h-183z"/>
    <path id="_4402" d="M1696 1807h140v193h-140z"/>
    <path id="_4404" d="M1836 1807h112v193h-112z"/>
    <path id="_4403" d="M1819 1511h141v197h-141z"/>
    <path id="_4405" d="M1960 1511h119v197h-119z"/>
    <path id="_4407" d="M2079 1511h110v146h-110z"/>
    <path id="_4409" d="M2188 1511h147v146h-147z"/>
    <path id="_4409A" d="M2188 1657h73v51h-73z"/>
    <path id="_4407B" d="M2146 1657h42v51h-42z"/>
    <path id="_4408B" d="M2153 1807h67v57h-67z"/>
    <path id="_4602" d="M2580 1128h42V980h101v208h-143v-60Z"/>
    <path id="_4518" d="M2580 1188h151v145h-151z"/>
    <path id="_4510A" d="M2429 1281h66v52h-66z"/>
    <path id="_4704" d="M2742 807h129v173h-129z"/>
    <path id="_4704A" d="M2742 723h243v84h-243z"/>
    <path id="_4706" d="M2871 807h115v173h-115z"/>
    <path id="_4708" d="M2986 723h119v257h-119z"/>
    <path id="_4711" d="M2708 466h397v257h-397z"/>
    <path id="_4703" d="M2544 782v-59h-164v159h89V782h75Z"/>
    <path id="_4703A" d="M2469 782h75v100h-75z"/>
    <path id="_4702" d="M2645 723h98v194h-98z"/>
    <path id="_4702A" d="M2645 917h98v63h-98z"/>
    <path id="_4705" d="M2488 466v189h56v68h-164V466h108Z"/>
    <path id="_4707" d="M2488 466h125v189h-125z"/>
    <path id="_4709" d="M2612 466h95v189h-95z"/>
    <path id="_4502" d="M2335 1890h140v121h-140z"/>
    <path id="_4506" d="M2603 1890h128v121h-128z"/>
    <path id="_4504" d="M2475 1890h128v121h-128z"/>
    <path id="_4508" d="M2451 1761h280v129h-280z"/>
    <path id="_4502A" d="M2335 1807h116v83h-116z"/>
    <path id="_4510" d="M2580 1333h151v428h-280v-62h-22v-366h65v-26h86v26Z"/>
    <path id="_4406" d="M1948 1807h139v193h-139z"/>
    <path id="_4408" d="M2087 1864h134v136h-134z"/>
    <path id="_4410" d="M2220 1807h115v193h-115z"/>
    <path id="_4210" d="M1058 1803h126v197h-126z"/>
    <path id="_4302" d="M1251 1803v49l3 1 54 12v146h-125v-208h68Z"/>
    <path id="_4304" d="M1308 1865a837 837 0 0 0 263 0v146h-263v-146Z"/>
    <path id="_4306" d="m1571 1865 54-12 2-1v-49h69v208h-125v-146Z"/>
</svg>