<svg xmlns="http://www.w3.org/2000/svg" version="1.1" viewBox="0 0 3300 2550">
  <path id="floor" d="M541 1511h642v-456h513v456h639v-323h158V980h-113V466h724v514h-381v208h8v823h-396v-11h-639v11h-513v-11H541v11H148v-813h393v313Z"/>
  <path id="_3101" d="M148 1198h393v453H148z"/>
  <path id="_3116" d="M148 1755h249v255H148z"/>
  <path id="_3118" d="M397 1803h145v208H397z"/>
  <path id="_3202" d="M541 1803h112v197H541z"/>
  <path id="_3204" d="M653 1846h140v154H653z"/>
  <path id="_3206" d="M793 1803h140v197H793z"/>
  <path id="_3208" d="M933 1803h107v197H933z"/>
  <path id="_3201" d="M541 1511h121v197H541z"/>
  <path id="_3203" d="M662 1511h111v197H662z"/>
  <path id="_3205" d="M773 1511h293v197H773z"/>
  <path id="_3303" d="M1183 1055h512v653h-512z"/>
  <path id="_3402" d="M1696 1807h154v193h-154z"/>
  <path id="_3404" d="M1849 1807h129v193h-129z"/>
  <path id="_3403" d="M1819 1511h126v197h-126z"/>
  <path id="_3405" d="M1945 1511h117v197h-117z"/>
  <path id="_3407" d="M2062 1511h117v197h-117z"/>
  <path id="_3409" d="M2179 1511h156v197h-156z"/>
  <path id="_3602" d="M2598 980h125v208h-125z"/>
  <path id="_3704" d="M2723 723h381v257h-381z"/>
  <path id="_3713" d="M2671 466h434v257h-434z"/>
  <path id="_3705" d="M2380 466h216v257h-216z"/>
  <path id="_3703" d="M2380 723h154v159h-154z"/>
  <path id="_3702" d="M2649 723h75v203h-75z"/>
  <path id="_3709" d="M2596 466h75v197h-75z"/>
  <path id="_3502" d="M2335 1868h120v143h-120z"/>
  <path id="_3506" d="M2575 1868h156v143h-156z"/>
  <path id="_3504" d="M2575 2011h-120v-143h-120v-107h240v250Z"/>
  <path id="_3508" d="M2575 1761h156v107h-156z"/>
  <path id="_3510" d="M2335 1188h396v573h-396z"/>
  <path id="_3406" d="M1978 1849h129v151h-129z"/>
  <path id="_3408" d="M2107 1807h129v193h-129z"/>
  <path id="_3410" d="M2236 1807h99v193h-99z"/>
  <path id="_3210" d="M1040 1803h143v197h-143z"/>
</svg>