<svg version="1.1"  xmlns="http://www.w3.org/2000/svg" viewBox="0 0 904.9 806.3">
    <path  d="M142 255h209v-6h-2v-99h98v-4h162v4h98v99h-3v6h209v320H142z" id="floor"/>
    <path  d="M356 161h88v32h-48v29h-40z" id="excavated_LAVW"/>
    <path  d="M399 228v-33h45v33z" id="excavated_LAVX"/>
    <path  d="M503 153h50v47l-50-1z" id="_3003"/>
    <path  d="M503 203h50v42h-50z" id="excavated_ele"/>
    <path  d="M557 245v-92h45v4h98v88z" id="excavated_stair"/>
    <path  d="M150 263h127v88H150z" id="_3016"/>
    <path  d="M336 263h25v21h-25z" id="_3014"/>
    <path  d="M280 263h53v24h28v50h-82z" id="_3013"/>
    <path  d="M284 387v-36h-4v-13h33v2h45v50l-71-1v-2z" id="_3012"/>
    <path  d="M150 353h90v123l-90-1v-47h6v-26h-6z" id="_3017"/>
    <path  d="M150 567v-89h127v89z" id="_3018"/>
    <path  d="M280 489h72v78h-72z" id="_3019"/>
    <path  d="M354 489h154v78H354z" id="_3020"/>
    <path  d="M280 487v-10h4v-34h3v-2h70v2h1l-1 44z" id="_3011"/>
    <path  d="M365 487v-18h-1v-31h5v-6h44v55z" id="_3010.02"/>
    <path  d="M448 444h60v43h-60z" id="_3010.01"/>
    <path  d="M508 441v-36l1-2 1-3 1-2 1-2 2-2 1-1 1-1 2-1 2-1 2-1 1-1h11l1 1 3 1h1l1 1 1 1 1 1 2 1 1 1v1h1v1l1 1 1 2v1l1 2v2l1 3v33z" id="_3007"/>
    <path  d="M511 444h100v123H511z" id="_3022"/>
    <path  d="M613 489h80v78h-80z" id="_3024"/>
    <path  d="M695 489h74v78h-74Z" id="_3025"/>
    <path  d="M771 560v-81h6v-11h-1v-36h129v135H777v-7z" id="_3026"/>
    <path  d="M825 430v-28h46v28z" id="_3028"/>
    <path  d="M905 400h-84v-67h84z" id="_3029"/>
    <path  d="M821 263h84v67h-84Z" id="_3030"/>
    <path  d="M562 298h43v49h18l-1-2h-13v-82h101v82h-20v15h8v-13h27v40H576v-15h-14z" id="_3032"/>
    <path  d="M873 430v-28h26v28z" id="_3027"/>
    <path  d="M713 263h105v167h-44l-1 46h-4v11h-41V345h-15z" id="_3031"/>
    <path  d="M446 298h48v74h-14v15h-31v-1h-3z" id="_3009"/>
    <path  d="M365 266h76v121h-80v-26h4z" id="_excavated_stair"/>
</svg>