<svg version="1.1" viewBox="-500 -400 3200 2826.4592" id="svg1" xmlns="http://www.w3.org/2000/svg">
  <path d="M-162.00187-96.124906V59.257659L-347.55498 178.45863 6.2126407 710.47075H275.62032v484.38955h465.80953v483.6472h536.86365v203.9701h1314.2578v-661.9397h-504.152V575.91678h-856.2877V167.97737H776.06622v406.01512H254.59661V-99.492337Z" id="floor"/>
  <path d="m-279.99508 263.30763 49.39131 75.73337 158.052251-105.36818L-177.91969 72.327835l-59.26958 39.513055 55.97683 85.61164z" id="_3229"/>
  <path d="M278.01955 960.77226h49.39132v-51.09991l536.71909 3.40665V575.81962H278.01955Z" id="_3222"/>
  <path d="M278.01955 1191.2651h586.11041l.15083-270.14954-58.3502.10403-471.93417.0396 3.29275 49.39132h-59.26966z" id="_3221"/>
  <path d="m873.8432 1089.3446 112.1187-.155h69.1478V690.76615H874.00823v375.37405z" id="_3219"/>
  <path d="m2088.2424 576.35426-851.8164.5346v619.03794h392.7974v-42.8058h282.1002l3.5709 42.8058h85.7013l3.5709-42.8058h82.1303v-138.2957z" id="_3214"/>
  <path d="M1280.9409 1882.1444h293.2254v-530.1337h-293.2254z" id="_3113"/>
  <path d="M1580.7516 1391.5237h362.2032v-39.513h75.7334v39.513h79.0261v490.6207h-516.9627z" id="_3109"/>
  <path d="M2104.3001 1352.0107h204.1505v138.2957l-203.616-.3645z" id="_3104"/>
  <path d="M2432.1745 1249.9353h156.1603v230.4928h-158.0522z" id="_3201"/>
  <path d="M2259.0592 1496.8919h-154.7591l3.2925 388.5452h319.3973v-237.0784l-167.9307-3.2928z" id="_3103"/>
</svg>
