<svg version="1.1" viewBox="-500 -400 3200 2826.4592" id="svg1" xmlns="http://www.w3.org/2000/svg">
  <path d="M268.68765 603.97571v466.57899h448.68211v465.8637h517.12354v196.4705h1265.9335v-637.6008h-485.6146V474.36915h-824.8027l2.9075-299.89886-442.18443 2.90751v295.13786l-482.69619 1.78175z" id="floor"/>
  <path d="M270.67574 475.41853h268.14267v195.24952H270.67574Z" id="_4226"/>
  <path d="M551.83504 475.41853h177.02625l-2.60333 200.45618H551.83504Z" id="_4224"/>
  <path d="M851.21765 660.25475h18.22329v10.4133h33.84326V475.41853H734.06794l2.60333 187.43956h5.20664v-2.60334z" id="_4220"/>
  <path d="M270.67574 678.47804H432.082v192.64619H270.67574Z" id="_4225"/>
  <path d="M270.67574 876.33086h255.12604v46.85993h13.01663V1068.977H270.67574Z" id="_4223"/>
  <path d="M551.83504 873.7276h169.21627v13.01653h7.80998V1068.977H551.83504Z" id="_4221"/>
  <path d="M741.87791 873.7276H903.2842v195.2494H780.92783l2.60332-54.6698h-46.85988V886.74413h5.20664z" id="_4219"/>
  <path d="m2155.5839 1205.1103 195.2496-2.6032v140.5796l-41.6533-2.6034v20.8267h5.2067v111.943h-5.2067v13.0167h-153.5963z" id="_4103"/>
  <path d="m2161.5812 1493.6235 171.8196 2.6034v236.9028h-184.8363v-203.0595h13.0167z" id="_4102A"/>
  <path d="m2347.4391 1493.6235 120.8791 2.6034v39.0498l29.4029-2.6033v200.4563h-150.282z" id="_4102"/>
  <path d="M1231.8918 473.21608h782.2904v575.33522h-779.6741z" id="_3214"/>
  <path d="M1242.8115 1244.9085h323.5191v484.219h-323.5191z" id="_3113"/>
  <path d="M1574.1405 1244.9085h567.8184v484.219h-567.8184z" id="_3109"/>
</svg>
