<svg version="1.1" viewBox="0 0 1056 816" xmlns="http://www.w3.org/2000/svg">
  <path id='floor' d="m108.5 482.25 0.0625-261.19 389.06 0.0931-0.0625 261.22-389.06-0.0931z" />
  <path id='_1222' d="m124.58 237.16 63.951-0.0244 0.0289 75.882-64.049 0.0244-0.029-75.882z" />
  <path id='_1217' d="m124.49 317 208.85 0.0264-7e-3 54.062 69.095 9e-3 -0.012 95.212-277.93-0.0352 0.0189-149.27z" />
  <path id='_1218' d="m194.5 237.15 207.91 0.0103-4e-3 73.938-207.93-0.0103 4e-3 -73.937z" />
  <path id='_1007' d="m339.43 317.02 62.944 0.0111-8e-3 47.995-62.957-0.0111 8e-3 -47.995z" />
</svg>