<svg version="1.1"  xmlns="http://www.w3.org/2000/svg" viewBox="-500 -400 2056 1816">
    <path  d="M81 223h204v-8h-6V80h180v139h325v243h2v2h187v271H787v3H451v-85H264l1-172H82z" id="floor"/>
    <path  d="M96 239h282l-1 227H96Z" id="_5219"/>
    <path  d="M289 90h160v58H289Z" id="_5301"/>
    <path  d="M455 318h44v71h-44z" id="_5214"/>
    <path  d="M467 239h302v227H488v-38h-2v5h-17v-41h33v-77h-35z" id="_5213"/>
    <path  d="m278 494-1-16h25v21h6l-1 69h-36l1-74z" id="_5118"/>
    <path  d="M310 532h66l-1 36h-65z" id="_5117"/>
    <path  d="M433 525h25v65h-41v-45h16z" id="_5115"/>
    <path  d="M502 520h103v5h108v-5h103v31h4v21h10v6h5v139H472V571l15 1v-22h15z" id="_5113"/>
    <path  d="M838 632h28v39h26v46h-54z" id="_5103"/>
    <path  d="M957 632v85h-62v-57h-26v-28z" id="_5101"/>
</svg>