<svg version="1.1" xmlns="http://www.w3.org/2000/svg" viewBox="-500 -400 2056 1816">
  <path   d="m57 192 57-39 1-48h134v192h144V182l145 1v110h262v196l150 1v219H531v-67H382V506H234V355h-67z" id="floor"/>
  <path   d="M120 111h123v42H120v-42z" id="_2230"/>
  <path   d="M121 156h122v60h-82" id="_2291"/>
  <path   d="m94 174 23-15 15 22-23 16-15-23z" id="_2231"/>
  <path   d="m82 218 51-35 26 38v38l-34 23z" id="_2228"/>
  <path   d="M162 221h81v89h2v39l-75 1-43-65 35-24z" id="_2226"/>
  <path   d="m249 351 136-1v25h26v48h59v50l-44-1v21H249Z" id="_2217"/>
  <path   d="M429 475h41v24h-24v-6h-17z" id="_2216"/>
  <path   d="M393 506h19v13h4v55h-28v-56h5z" id="_2118"/>
  <path   d="M419 545h52v29h-52z" id="_2117"/>
  <path   d="M387 577h87v-30h57v85l-12-1v5H387z" id= "_2115"/>
  <path   d="M413 374h60v47h-60z" id= "_2218"/>
  <path   d="M430 310h43v57l-3-1v6h-41v-38h2z" id= "_2222"/>
  <path   d="M431 264h64v19h-11v9h-53z" id= "_2219"/>
  <path   d="M399 238v-49h133v49z" id= "_2220"/>
  <path   d="M476 429v-16h57v28h-53v-12z" id= "_2215"/>
  <path   d="M579 376h48v53h-48z" id= "_2214a"/>
  <path   d="M578 310h208v152H603v-25h6v-4h22v-61h-53z" id= "_2214.01"/>
  <path   d="M546 497h123v5h34v-5h51v198H546" id= "_2109"/>
  <path   d="M757 622h26l1 13h6v8h3v-22h42l1 75-78 1z" id= "_2105"/>
  <path   d="M839 622h42v3l7-1v10h3v-15l21 1v76l-73 1" id= "_2103"/>
  <path   d="M789 501h147v76H789" id= "_2204"/>
</svg>