<svg version="1.1" viewBox="-500 -400 3200 2826.4592" id="svg1" xmlns="http://www.w3.org/2000/svg">
  <path d="M-167.1226-95.933498V56.853131L-349.57571 174.06264-1.7183787 697.18658H263.18836v476.29702H721.2158v475.567h527.8944v200.5624h1292.3007v-650.8808h-495.7291V564.88054h-841.9819V163.75647H755.2735v399.23196H242.51588v-662.2331z" id="floor"/>
  <path d="m-167.28513-95.339622 408.55488-1.337891V49.518582h-408.55488z" id="_2230"/>
  <path d="M-163.96354 54.131686h405.23329V253.42676H-31.100167" id="_2291"/>
  <path d="m-260.26867 115.7874 89.95732-55.704693 51.62921 73.137573-87.28149 61.8266z" id="_2231"/>
  <path d="m-293.50534 260.06992 178.76621-121.60709 75.657899 112.84107 1.337892 144.95098-112.933871 76.39645z" id="_2228"/>
  <path d="M-33.42504 257.99347H241.1337v303.9285h6.77923v133.18218l-254.2210426 3.41491L-152.06151 476.54882l118.63647-81.95828Z" id="_2226"/>
  <path d="m261.19926 701.84064 451.73549-3.32158v83.03963h86.36119v159.43605h195.9735V1107.074l-146.14973-3.3216v69.7532H261.19926Z" id="_2217"/>
  <path d="M852.39491 1108.3655h142.87453v85.0696h-83.63388v-21.2673h-59.24065z" id="_2216"/>
  <path d="M740.46307 1216.6862h66.74159v44.4595h14.05085v188.0978H722.8995v-191.5177h17.56357z" id="_2118"/>
  <path d="M825.86862 1346.228h180.74988v104.3535H825.86862Z" id="_2117"/>
  <path d="M719.57792 1452.5187h288.97788v-99.6475h189.3303v282.3347l-39.859-3.3216v16.608H719.57792Z" id="_2115"/>
  <path d="M803.26328 782.25084h191.2676V938.3653h-191.2676z" id="_2218"/>
  <path d="m858.89405 571.6299 134.29892.66897v205.88615l-9.14484.052H859.06879V652.01676Z" id="_2222"/>
  <path d="M865.72763 412.86282H1078.309v63.1101h-36.5374v29.89425H865.72763Z" id="_2219"/>
  <path d="M759.43694 326.50161V163.74398h441.77076v162.75763z" id="_2220"/>
  <path d="M1357.3222 775.41979h168.004v196.85702h-168.004z" id="_2214a"/>
  <path d="M1354.0005 565.65569H2044.89v504.88081h-607.8499v-95.33819l93.0044-.98773V771.59393h-176.044z" id="_2214.01"/>
  <path d="M1247.7099 1186.792h690.8895v660.3497h-690.8895" id="_2109"/>
  <path d="M1944.78 1598.6452h87.6066l33.6948.024h141.5183l3.3697 252.4301-262.8199.018z" id="_2105"/>
  <path d="m2213.3659 1598.9798 173.6233-.3346c34.2113.108 34.6406.058 68.8522.047v252.4069l-242.4755.018" id="_2103"/>
  <path d="M2054.8548 1200.0783h488.2729v252.4404h-488.2729" id="_2204"/>
</svg>
