<svg version="1.1" viewBox="-500 -400 3200 2826.4592" id="svg1" xmlns="http://www.w3.org/2000/svg">
  <path d="M258.7544 617.30848v478.56542h460.20888v477.8321h530.40862v201.5177h1298.4559v-653.981h-498.0903V484.3723h-845.9921l2.9821-307.6034-453.54431 2.98222v302.72007L258.0864 484.2987Z" id="floor"/>
  <path d="M253.65806 480.46859h748.72144l-2.6551 614.55531H253.65806Z" id="_6219"/>
  <path d="M751.25444 176.79139h454.45936v153.99234H751.25444Z" id="_6301"/>
  <path d="M1216.8173 705.77472h116.8217v198.71002h-116.8217Z" id="_6214"/>
  <path d="M1248.6778 484.67484H2050.5v635.31226h-746.0664v-106.3518h-5.3101v13.9936h-45.1356V912.88093h87.6163V697.37852h-92.9264z" id="_6213"/>
  <path d="M1325.674 1251.9815h273.4691v13.2752h286.7443v-13.2752h273.4693v82.3062h10.6201v55.7559h26.5505v15.9302h13.2751v369.0507h-963.7797v-387.636l39.8256 2.6551v-58.4109h39.8257z" id="_6113"/>
  <path d="M2217.7675 1549.346h74.3412v103.5466h69.031v122.1319h-143.3722z" id="_6103"/>
  <path d="M2542.6132 1549.346v225.6785h-170.88l2.0967-127.2245-75.3287-.5241.5241-97.9299z" id="_6101"/>
</svg>
