<svg version="1.1" id="svg1" xmlns="http://www.w3.org/2000/svg" viewBox="0 0 3200 2472.7273">
  <path id="floor" d="m437.37652 1943.355.3996-1529.56454 1847.50958.40804 1.2768 653.0759 638.576-2.6986-.064 229.9465-638.9122 2.2926-3.7165 647.1264-1845.06978-.4106z"/>
  <path id="_1222" d="m436.81761 410.48395 458.84518-.17006.20736 528.90677-459.54833.17006-.20808-528.90677z"/>
  <path id="_1217" d="m436.16778 943.08334 1393.22282.1761-.047 360.64366 460.9276.059-.08 635.1522-1854.05032-.2348.12608-995.76906z"/>
  <path id="_1218" d="m903.19925 410.40995 1386.95215.0731-.027 524.45804-1387.0855-.0731.0267-524.45094z"/>
  <path id="_1007" d="m1835.9616 943.21675 453.9496.0819-.057 354.22965-454.0434-.082.057-354.22955z"/>
</svg>
