<svg version="1.1" id="svg1" xmlns:xlink="http://www.w3.org/1999/xlink" xmlns="http://www.w3.org/2000/svg" viewBox="0 0 3200 2472.7">
  <path d="M716 383v569H220v473h496v576h969v-414h955v-375h-152V791h-803V382H716Z" id="floor"/>
  <path d="M2539 1214h100v372h-122v-36h22v-336z" id="_325"/>
  <path d="M2040 1183h448v30h43v333l-19-1v41h-508v-297h36v-106z" id="_326"/>
  <path d="M1986 792v288h502V792h-502z" id="_323"/>
  <path d="M1838 792v257h140V792h-140z" id="_322"/>
  <path d="M1586 792v99h-16v158h262V792h-246Z" id="_321"/>
  <path d="M1838 1308v278h161v-278h-161z" id="_327"/>
  <path d="M1570 1390v96h15v100h246v-196h-261z" id="_328"/>
  <path d="M1540 556v114h144V556h-144z" id="_312C"/>
  <path d="M1450 383v167h234V383h-234z" id="_312B"/>
  <path d="M1303 383v167h140V383h-140z" id="_312A"/>
  <path d="M1305 556v112l229 2V556h-229z" id="_312"/>
  <path d="M1197 383v167h100V383h-100z" id="_311C"/>
  <path d="M1077 383v167h113V383h-113z" id="_311B"/>
  <path d="M914 383v167h156V383H914Z" id="_311A"/>
  <path d="M717 383v166h122v135h3v97h65V383H717Z" id="_310"/>
  <path d="M717 549h122v135H717V549Z" id="_310B"/>
  <path d="M717 690h118v91H716v-91z" id="_310A"/>
  <path d="M915 556v114h382V555H915z" id="_311"/>
  <path d="M1151 792v69h-91v98h213V793h-122z" id="_320"/>
  <path d="M608 953v169h292l1-66V952H608Z" id="_307"/>
  <path d="M220 952v171l382-1V952z" id="_305"/>
  <path d="M220 1136v104h182v-104z" id="_304"/>
  <path d="M220 1255v169h182v-169z" id="_303"/>
  <path d="m505 1254-97 2v167h194v-169h-97z" id="_302"/>
  <path d="M608 1254v169h138v-169H608Z" id="_301"/>
  <path d="M838 1254v85h-86v85h149v-85h-8v-85z" id="_301A"/>
  <path d="M1059 966v144h214V966h-214z" id="_316"/>
  <path d="M1059 1115v145h214v-144h-214z" id="_317"/>
  <path d="m1060 1266-1 144v-1l214 1v-144h-213z" id="_318"/>
  <path d="M1110 1417v63h-51v106h213v-169z" id="_319"/>
  <path d="M717 1595v405h189v-405H717Z" id="_313"/>
  <path d="M915 1708v293h385v-293H915Z" id="_314"/>
  <path d="M1305 1708v103h246v-103h-246z" id="_315"/>
  <path d="M1305 1818v183h120v-183h-120z" id="_315A"/>
  <path d="M1431 1818v182h120v-183h-120z" id="_315B"/>
  <path d="M1557 1708v293h128v-294h-128z" id="_315C"/>
  <path d="M1570 1161h289v141h-29v81h-261z" id="_329"/>
</svg>
