<svg version="1.1" id="svg1" xmlns:xlink="http://www.w3.org/1999/xlink" xmlns="http://www.w3.org/2000/svg" viewBox="0 0 3200 2472.7">
  <path d="M769 373v586H257v485h511v595h998v-301h384V668h-385V372H769Z" id="floor"/>
  <path d="M769 1627v410h195v-410H769z" id="_113"/>
  <path d="M973 1737v300h203v-300H973Z" id="_114"/>
  <path d="m1182 1737 189-1c0 124-2 120-1 300l-189 1v-300z" id="_114A"/>
  <path d="M1375 1737v59h99l-1-59h-98z" id="_115"/>
  <path d="M1375 1801v236h199v-236h-199z" id="_115A"/>
  <path d="m1479 1737-1 59h102l-1 241 186 1v-301l-286-1z" id="_115B"/>
  <path d="M2024 1593v143h126v-143h-126z" id="_117"/>
  <path d="M1919 1041v523h66v24h165v-547h-231z" id="_118"/>
  <path d="M1976 817v219h174V817h-174z" id="_119"/>
  <path d="M2018 669v143h132V669h-132z" id="_120"/>
  <path d="M1381 373v295h384V373h-384Z" id="_112"/>
  <path d="M970 373v295h405V372H970Z" id="_111"/>
  <path d="M769 373v405h195V373H769Z" id="_110"/>
  <path d="M815 959v107h144V959H815Z" id="_107A"/>
  <path d="M893 1070v62h64v-62h-64z" id="_107B"/>
  <path d="M650 959v174h159V959H650Z" id="_107"/>
  <path d="M470 959v106h71v68h103V959H470Z" id="_106"/>
  <path d="M257 959v174h207V959H257Z" id="_105"/>
  <path d="M257 1133v144h172v-144z" id="_104"/>
  <path d="M257 1269v175h219v-175H257Z" id="_103"/>
  <path d="M483 1270v173h162v-174H483Z" id="_102"/>
  <path d="M650 1269v175h149v-175H650z" id="_101"/>
  <path d="M805 1357v87h70v-88h-70z" id="_101A"/>
  <path d="M893 1270v87h-13v87h79v-87h-9v-88h-57z" id="_101B"/>
  <path d="M1122 1357v254h226v-13h4v-241h-230z" id="_116A"/>
  <path d="M1122 803v550h229V806h-4v-12h-225z" id="_116"/>
</svg>
