<?xml version="1.0" encoding="UTF-8" standalone="no"?>
<!-- Created with Inkscape (http://www.inkscape.org/) -->

<svg
   version="1.1"
   id="svg1"
   width="855.91779"
   height="282.55969"
   viewBox="0 0 855.91782 282.55969"
   xmlns="http://www.w3.org/2000/svg"
   xmlns:svg="http://www.w3.org/2000/svg">
  <defs
     id="defs1" />
  <path
     d="M 0.02170571,42.106123 -4.2908487e-6,282.48239 855.89608,282.55969 855.91778,42.082983 505.70996,42.051383 505.71396,0.00799275 421.00718,-7.2461411e-6 421.00318,42.208393 0.02169671,42.170393 Z"
     id="floor" />
  <path
     d="m 11.046612,55.154733 -0.0164,98.167477 66.95904,0.0112 0.0164,-98.227457 -66.95904,-0.0112 z"
     id="_1148" />
  <path
     d="m 11.018672,155.75823 0.0283,48.57366 -1.9956503,0.001 5.6e-4,0.95965 29.5263903,-0.0172 -0.0289,-49.59061 -27.53073,0.016 z"
     id="_1148A" />
  <path
     d="m 75.792772,195.83434 0.0308,76.00217 38.284448,-0.0155 -0.0308,-76.02308 -38.284438,0.0155 z"
     id="_1143" />
  <path
     d="m 116.10434,242.39511 v 29.48674 h 45.14296 v -29.44389 h -45.14296 z"
     id="_1141" />
  <path
     d="m 142.12954,195.8259 0.005,44.55301 19.074,-0.002 -0.005,-44.56653 -19.07401,0.002 z"
     id="_1139" />
  <path
     d="m 165.68543,164.65882 0.002,107.18242 128.2463,-0.003 -0.003,-107.18186 -128.24629,0.003 z"
     id="_1137" />
  <path
     d="m 296.40209,164.68083 0.009,107.16866 51.42362,-0.005 -0.009,-107.2004 -51.42362,0.004 z"
     id="_1131" />
  <path
     d="m 350.79753,164.66791 0.004,107.17467 101.48307,-0.003 -0.004,-107.16548 -101.48307,0.003 z"
     id="_1129" />
  <path
     d="m 454.78052,195.82242 -0.0114,76.03682 47.19646,0.007 0.0114,-76.04519 -47.19647,-0.007 z"
     id="_1115" />
  <path
     d="m 507.3998,250.88381 -0.008,20.97211 51.00335,0.02 0.008,-20.97664 -51.00336,-0.02 z"
     id="_1121" />
  <path
     d="m 561.46044,240.8682 0.0142,30.97428 96.13636,-0.0442 -0.0142,-30.89773 -96.13635,0.0442 z"
     id="_1123" />
  <path
     d="m 719.50302,204.12097 -0.005,7.71639 -19.4502,0.0106 -0.002,59.99544 54.62188,-0.0161 0.002,-27.43615 -13.78688,-0.0106 z"
     id="_1109" />
  <path
     d="m 756.68136,244.38997 -0.0212,27.4387 45.0428,0.0349 0.0212,-27.43567 -45.0428,-0.0349 z"
     id="_1105" />
  <path
     d="m 720.63989,200.80117 22.02002,41.58148 59.01585,-0.0196 0.003,-41.56307 z"
     id="_1107" />
  <path
     d="m 803.6864,200.80103 0.005,71.0562 42.03052,-0.003 -0.005,-71.04652 -42.03053,0.003 z"
     id="_1103" />
  <path
     d="m 760.84271,54.183813 -0.089,16.9634 h -12.89812 l 0.004,67.466177 h 97.8534 l 0.002,-84.415027 z"
     id="_1108" />
  <path
     d="m 758.34137,54.157813 -0.0831,14.49931 h -12.87494 v 89.090907 h -33.01338 l 0.007,-103.554467 z"
     id="_1110" />
  <path
     d="m 659.98335,54.156963 0.004,103.602127 49.90461,-0.002 -0.004,-103.599667"
     id="_1112" />
  <path
     d="m 624.4223,54.171823 0.007,103.573397 33.08329,-0.002 -0.007,-103.565547 -33.08329,0.002 z"
     id="_1114" />
  <path
     d="m 574.44486,54.180703 -0.004,103.580257 47.501,0.002 0.004,-103.585537 -47.501,-0.002 z"
     id="_1118" />
  <path
     d="m 506.44085,54.189023 -0.006,75.518397 63.99762,0.005 0.006,-75.538387 -63.99762,-0.005 z"
     id="_1120" />
  <path
     d="m 80.454522,55.143213 -0.009,77.591447 57.175808,0.006 -0.006,-88.337847 -44.703318,0.0159 -0.0122,10.71864 z"
     id="_1144" />
  <path
     d="m 137.62433,55.138523 0.007,77.580757 68.34614,-0.006 -0.007,-77.589817 -68.34615,0.006 z"
     id="_1140" />
  <path
     d="m 205.98534,55.138553 -0.01,77.615157 70.02726,0.009 0.0113,-88.378857 -41.71642,-0.005 -0.001,10.75536 -28.31083,-0.004 z"
     id="_1136" />
  <path
     d="m 301.25841,53.145593 -0.0114,15.30421 -23.22331,0.006 -0.0274,63.266597 215.44896,-0.009 0.0186,-30.51431 -10.96268,-0.0212 -0.0212,-7.994057 10.98389,-0.0106 -0.042,-51.0611 h 4.24524 l 0.009,-34.0049902 -16.03516,-5.4e-4 V 0.03436275 l -37.43704,-0.014 V 8.0925528 l -15.03918,0.028 V 42.088093 l 9.75098,0.014 0.014,13.03861 -8.05819,-0.014 -0.014,-4.00112 H 416.8536 l -67.46367,-0.0206 -0.0244,2.04678 z"
     id="_1122" />
  <path
     d="m 454.7698,162.16714 -0.0253,31.66088 49.94698,-0.0212 -0.0424,-23.77518 c 0,0 -0.0707,-0.3959 -0.10604,-0.59385 -0.0848,-0.28986 -0.16967,-0.57971 -0.25451,-0.86957 -0.18381,-0.2333 -0.36762,-0.46659 -0.55143,-0.69989 -0.38177,-0.33935 -0.76352,-0.67869 -1.14528,-1.01803 -0.41712,-0.18381 -0.83422,-0.36762 -1.25133,-0.55143 -0.17801,0.13838 -0.35602,0.27675 -0.53403,0.41512 -0.20023,0.10447 -0.40045,0.20893 -0.60068,0.3134 -0.40916,0.0696 -0.81831,0.13929 -1.22747,0.20893 0,0.0174 0,0.0348 0,0.0522 -3.76956,0 -7.53896,0 -11.30844,0 -0.50493,-0.0958 -1.00984,-0.19152 -1.51475,-0.28728 -0.296,-0.20893 -0.59198,-0.41786 -0.88796,-0.62679 -0.19153,-0.21765 -0.38305,-0.43528 -0.57457,-0.65292 -0.13929,-0.26117 -0.27857,-0.52233 -0.41786,-0.78349 -0.0697,-0.36564 -0.13929,-0.73126 -0.20893,-1.09689 0.0435,-0.36564 0.087,-0.73126 0.13058,-1.09689 0.0435,-0.36564 0.20893,-0.52233 0.20893,-0.52233 z"
     id="_1003A" />
</svg>
