<svg xmlns="http://www.w3.org/2000/svg" viewBox="0 0 1056 816">
  <path d="M101 295v240h854V295H600v-34h-71v34H101Z"/>
  <path d="M112 308v88l68-1v-87h-68zM182 455v70h71l-1-70h-70zM182 308v92h3l1 21h132l-1-113H182zM320 308v113h134v-48h2v-66h-52v15h-30v-14M457 307v114h72V307ZM532 360l-1 61h71v-61h-19v16h-30v-16h-21zM538 270l-1 37h2v46h58v-46h-6l1-37h-54zM604 307v68h9v2h57v-70h-66zM672 307l1 70h66v-70h-67zM742 307v70h59v-70h-59zM803 307v31h18v2h-18v37h18v39h122v-22h-4v-27h4v-60H803ZM821 419v52h-3v-5h-22v59h147v-59h-4v-27h4v-20H821zM582 494v31h76v-21h-51v3h-7v-13h-18zM548 494v31h32v-31h-32zM508 494v31h38v-31h-38zM458 455v70h48v-70h-48zM254 455v70h132v-70H254zM456 455v70h-70v-70h70z"/>
</svg>
