<svg xmlns="http://www.w3.org/2000/svg" viewBox="0 0 1056 816">
  <path d="M110 320v89l130-1 13-35v-53H110z"/>
  <path d="M98 307v239h858V307H602v-40h-74v40H98z"/>
  <path d="M316 461v75h62v-75h-62zM380 461v75h53v-75h-53zM436 461v75h43v-15h11v-60h-54z"/>
  <path d="M493 461v63h-12v12h68v-60h-23v-15h-33zM551 467v45h52v-45h-52zM552 514v22h51v-22h-51zM608 515v21h51v-21h-51zM792 490v46h37v-46h-37zM829 490v46h65v-46h-65zM894 490v46h49v-46h-49zM791 487l2 2h-1v1h151v-16H808l-3 2zM184 500v36h130v-76h-73v40h-57z"/>
  <path d="M184 411v89h57v-89h-57zM768 465l22 22 14-13 4-5h135V319H765v45h5v58h-2zM670 319v46h93v-46h-93zM670 365v55h93v-55h-93zM554 320v100h116V319h-65v1h-51zM530 269v38h69v-38h-69zM375 333v87h179V320H405v13h-30zM665 465h100v-43h-2v-2h-98v45zM256 320v53l-15 38v49h73v-13l-38-37-1-2-2-2-1-2-1-2v-3l-1-1v-5l1-3v-1l1-2 1-1 1-2 1-1 1-2 1-1 2-1 1-1 3-1 1-1 2-1h9l3 1 3 2 2 1 1 1 2 1 2 3 24 23-13 13h56V320z"/>
</svg>
